<svg width="54" height="69" viewBox="0 0 54 69" fill="none" xmlns="http://www.w3.org/2000/svg">
<path d="M30.375 1.55377C30.375 1.14168 30.5528 0.746476 30.8693 0.455088C31.1857 0.1637 31.6149 0 32.0625 0C44.1784 0 54 9.04325 54 20.199C54 20.6111 53.8222 21.0063 53.5057 21.2977C53.1893 21.5891 52.7601 21.7528 52.3125 21.7528C51.8649 21.7528 51.4357 21.5891 51.1193 21.2977C50.8028 21.0063 50.625 20.6111 50.625 20.199C50.625 10.7595 42.3144 3.10754 32.0625 3.10754C31.6149 3.10754 31.1857 2.94384 30.8693 2.65245C30.5528 2.36106 30.375 1.96585 30.375 1.55377Z" fill="#5E5E5E" fill-opacity="0.960784"/>
<path d="M32.0625 6.21472C31.6149 6.21472 31.1857 6.37842 30.8693 6.66981C30.5528 6.9612 30.375 7.35641 30.375 7.76849C30.375 8.18058 30.5528 8.57578 30.8693 8.86717C31.1857 9.15856 31.6149 9.32226 32.0625 9.32226C38.5864 9.32226 43.875 14.1918 43.875 20.1986C43.875 20.6107 44.0528 21.0059 44.3693 21.2973C44.6857 21.5887 45.1149 21.7524 45.5625 21.7524C46.0101 21.7524 46.4393 21.5887 46.7557 21.2973C47.0722 21.0059 47.25 20.6107 47.25 20.1986C47.25 12.4755 40.4504 6.21472 32.0625 6.21472Z" fill="#5E5E5E" fill-opacity="0.960784"/>
<path d="M32.0625 12.4299C31.6149 12.4299 31.1857 12.5936 30.8693 12.885C30.5528 13.1764 30.375 13.5716 30.375 13.9837C30.375 14.3958 30.5528 14.791 30.8693 15.0824C31.1857 15.3738 31.6149 15.5375 32.0625 15.5375C34.857 15.5375 37.125 17.6257 37.125 20.1988C37.125 20.6109 37.3028 21.0061 37.6193 21.2975C37.9357 21.5888 38.3649 21.7525 38.8125 21.7525C39.2601 21.7525 39.6893 21.5888 40.0057 21.2975C40.3222 21.0061 40.5 20.6109 40.5 20.1988C40.5 15.9073 36.7234 12.4299 32.0625 12.4299ZM25.3125 15.5375V12.4299H5.0625C2.268 12.4299 0 14.5182 0 17.0912V63.7043C0 66.2773 2.268 68.3656 5.0625 68.3656H35.4375C38.232 68.3656 40.5 66.2773 40.5 63.7043V26.4138H37.125V63.7043C37.125 64.1164 36.9472 64.5116 36.6307 64.803C36.3143 65.0944 35.8851 65.2581 35.4375 65.2581H5.0625C4.61495 65.2581 4.18573 65.0944 3.86926 64.803C3.55279 64.5116 3.375 64.1164 3.375 63.7043V17.0912C3.375 16.6792 3.55279 16.2839 3.86926 15.9926C4.18573 15.7012 4.61495 15.5375 5.0625 15.5375H25.3125Z" fill="#5E5E5E" fill-opacity="0.960784"/>
<path d="M13.5 18.6449C13.0524 18.6449 12.6232 18.8086 12.3068 19.1C11.9903 19.3914 11.8125 19.7866 11.8125 20.1987C11.8125 20.6108 11.9903 21.006 12.3068 21.2973C12.6232 21.5887 13.0524 21.7524 13.5 21.7524H27C27.4476 21.7524 27.8768 21.5887 28.1932 21.2973C28.5097 21.006 28.6875 20.6108 28.6875 20.1987C28.6875 19.7866 28.5097 19.3914 28.1932 19.1C27.8768 18.8086 27.4476 18.6449 27 18.6449H13.5Z" fill="#5E5E5E" fill-opacity="0.960784"/>
</svg>
