<svg width="172" height="50" viewBox="0 0 172 50" fill="none" xmlns="http://www.w3.org/2000/svg">
<path d="M170.476 44.2337C170.476 46.8982 168.294 49.0566 165.594 49.0566H5.84018C3.14215 49.0566 0.952148 46.8982 0.952148 44.2337V5.77256C0.952148 3.10926 3.14215 0.943359 5.84018 0.943359H165.593C168.294 0.943359 170.475 3.10926 170.475 5.77256L170.476 44.2337Z" fill="black"/>
<path d="M165.079 1.00156C168.019 1.00156 170.411 3.35625 170.411 6.25V43.75C170.411 46.6438 168.019 48.9984 165.079 48.9984H6.34921C3.40952 48.9984 1.01746 46.6438 1.01746 43.75V6.25C1.01746 3.35625 3.40952 1.00156 6.34921 1.00156H165.079ZM165.079 3.8147e-06H6.34921C2.85873 3.8147e-06 0 2.81407 0 6.25V43.75C0 47.1859 2.85873 50 6.34921 50H165.079C168.57 50 171.429 47.1859 171.429 43.75V6.25C171.429 2.81407 168.57 3.8147e-06 165.079 3.8147e-06Z" fill="#A6A6A6"/>
<path d="M38.2573 24.7297C38.2204 20.701 41.6084 18.741 41.7633 18.6497C39.8446 15.896 36.8706 15.5197 35.8255 15.4897C33.3277 15.231 30.9049 16.961 29.6325 16.961C28.3347 16.961 26.3754 15.5147 24.2636 15.5572C21.5461 15.5985 19.0039 17.1472 17.6096 19.5522C14.7322 24.456 16.8782 31.6622 19.635 35.626C21.0141 37.5672 22.6255 39.7347 24.7347 39.6585C26.7982 39.5747 27.569 38.3635 30.0592 38.3635C32.5265 38.3635 33.2503 39.6585 35.4014 39.6097C37.616 39.5747 39.0103 37.6597 40.3411 35.701C41.9347 33.476 42.5747 31.2847 42.6001 31.1722C42.5481 31.1547 38.2992 29.5585 38.2573 24.7297Z" fill="white"/>
<path d="M34.1938 12.8822C35.3036 11.516 36.063 9.65725 35.8522 7.771C34.2458 7.841 32.2369 8.86475 31.0801 10.201C30.0566 11.3785 29.1423 13.3085 29.3785 15.1235C31.183 15.256 33.0357 14.2272 34.1938 12.8822Z" fill="white"/>
<path d="M62.286 12.5109C62.286 13.9821 61.8378 15.0896 60.9426 15.8334C60.1134 16.5196 58.9349 16.8634 57.4086 16.8634C56.6518 16.8634 56.0041 16.8309 55.4619 16.7659V8.72713C56.1692 8.61463 56.9311 8.55713 57.754 8.55713C59.208 8.55713 60.3038 8.86838 61.0429 9.49088C61.8708 10.1946 62.286 11.2009 62.286 12.5109ZM60.8829 12.5471C60.8829 11.5934 60.6264 10.8621 60.1134 10.3521C59.6003 9.84338 58.8511 9.58838 57.8645 9.58838C57.4454 9.58838 57.0886 9.61588 56.7927 9.67338V15.7846C56.9565 15.8096 57.2562 15.8209 57.6918 15.8209C58.7102 15.8209 59.4962 15.5421 60.0499 14.9846C60.6035 14.4271 60.8829 13.6146 60.8829 12.5471Z" fill="white"/>
<path d="M69.7261 13.7963C69.7261 14.7026 69.4633 15.4451 68.9376 16.0276C68.3865 16.6263 67.6563 16.9251 66.7446 16.9251C65.8658 16.9251 65.1661 16.6388 64.6442 16.0638C64.1236 15.4901 63.8633 14.7663 63.8633 13.8938C63.8633 12.9813 64.1312 12.2326 64.6696 11.6513C65.208 11.0701 65.9319 10.7788 66.8436 10.7788C67.7223 10.7788 68.4284 11.0651 68.963 11.6388C69.4709 12.1963 69.7261 12.9163 69.7261 13.7963ZM68.3458 13.8388C68.3458 13.2951 68.2265 12.8288 67.989 12.4401C67.7096 11.9701 67.3122 11.7351 66.7954 11.7351C66.2607 11.7351 65.8544 11.9701 65.575 12.4401C65.3363 12.8288 65.2182 13.3026 65.2182 13.8626C65.2182 14.4063 65.3376 14.8726 65.575 15.2613C65.8633 15.7313 66.2646 15.9663 66.7826 15.9663C67.2906 15.9663 67.6893 15.7276 67.9763 15.2488C68.2226 14.8526 68.3458 14.3826 68.3458 13.8388Z" fill="white"/>
<path d="M79.7023 10.8984L77.8293 16.7909H76.6102L75.8344 14.2322C75.6376 13.5934 75.4775 12.9584 75.3531 12.3284H75.329C75.2134 12.9759 75.0534 13.6097 74.8477 14.2322L74.0236 16.7909H72.7906L71.0293 10.8984H72.3969L73.0737 13.6997C73.2375 14.3622 73.3722 14.9934 73.4801 15.5909H73.5042C73.6033 15.0984 73.7671 14.4709 73.9982 13.7122L74.8477 10.8997H75.9322L76.7461 13.6522C76.9429 14.3234 77.1029 14.9697 77.2261 15.5922H77.2629C77.3531 14.9859 77.489 14.3397 77.6693 13.6522L78.3956 10.8997H79.7023V10.8984Z" fill="white"/>
<path d="M86.6005 16.7912H85.2697V13.4162C85.2697 12.3762 84.8684 11.8562 84.0633 11.8562C83.6684 11.8562 83.3497 11.9987 83.1021 12.2849C82.857 12.5712 82.7326 12.9087 82.7326 13.2949V16.7899H81.4018V12.5824C81.4018 12.0649 81.3853 11.5037 81.3535 10.8962H82.523L82.5853 11.8174H82.6221C82.777 11.5312 83.0081 11.2949 83.3116 11.1062C83.6722 10.8862 84.076 10.7749 84.5179 10.7749C85.0767 10.7749 85.5414 10.9524 85.911 11.3087C86.3706 11.7449 86.6005 12.3962 86.6005 13.2612V16.7912V16.7912Z" fill="white"/>
<path d="M90.2709 16.7911H88.9414V8.19482H90.2709V16.7911Z" fill="white"/>
<path d="M98.106 13.7963C98.106 14.7026 97.8432 15.4451 97.3175 16.0276C96.7663 16.6263 96.0349 16.9251 95.1244 16.9251C94.2444 16.9251 93.5447 16.6388 93.0241 16.0638C92.5035 15.4901 92.2432 14.7663 92.2432 13.8938C92.2432 12.9813 92.5111 12.2326 93.0495 11.6513C93.5879 11.0701 94.3117 10.7788 95.2222 10.7788C96.1022 10.7788 96.807 11.0651 97.3428 11.6388C97.8508 12.1963 98.106 12.9163 98.106 13.7963ZM96.7244 13.8388C96.7244 13.2951 96.6051 12.8288 96.3676 12.4401C96.0895 11.9701 95.6908 11.7351 95.1752 11.7351C94.6394 11.7351 94.233 11.9701 93.9549 12.4401C93.7162 12.8288 93.5981 13.3026 93.5981 13.8626C93.5981 14.4063 93.7174 14.8726 93.9549 15.2613C94.2432 15.7313 94.6444 15.9663 95.1625 15.9663C95.6705 15.9663 96.0679 15.7276 96.3549 15.2488C96.6025 14.8526 96.7244 14.3826 96.7244 13.8388Z" fill="white"/>
<path d="M104.546 16.7913H103.351L103.252 16.1126H103.215C102.806 16.6538 102.224 16.9251 101.467 16.9251C100.902 16.9251 100.445 16.7463 100.1 16.3913C99.788 16.0688 99.6318 15.6676 99.6318 15.1913C99.6318 14.4713 99.9366 13.9226 100.55 13.5426C101.162 13.1626 102.023 12.9763 103.132 12.9851V12.8751C103.132 12.0988 102.718 11.7113 101.888 11.7113C101.298 11.7113 100.777 11.8576 100.328 12.1476L100.057 11.2876C100.613 10.9488 101.3 10.7788 102.111 10.7788C103.675 10.7788 104.46 11.5913 104.46 13.2163V15.3863C104.46 15.9751 104.489 16.4438 104.546 16.7913ZM103.165 14.7663V13.8576C101.697 13.8326 100.963 14.2288 100.963 15.0451C100.963 15.3526 101.046 15.5826 101.218 15.7363C101.389 15.8901 101.608 15.9663 101.868 15.9663C102.16 15.9663 102.433 15.8751 102.682 15.6938C102.932 15.5113 103.086 15.2801 103.143 14.9963C103.157 14.9326 103.165 14.8551 103.165 14.7663Z" fill="white"/>
<path d="M112.108 16.7911H110.927L110.865 15.8448H110.828C110.451 16.5648 109.808 16.9248 108.905 16.9248C108.184 16.9248 107.583 16.6461 107.107 16.0886C106.631 15.5311 106.394 14.8073 106.394 13.9186C106.394 12.9648 106.651 12.1923 107.169 11.6023C107.671 11.0523 108.286 10.7773 109.017 10.7773C109.821 10.7773 110.383 11.0436 110.703 11.5773H110.729V8.19482H112.061V15.2036C112.061 15.7773 112.076 16.3061 112.108 16.7911ZM110.729 14.3061V13.3236C110.729 13.1536 110.716 13.0161 110.692 12.9111C110.617 12.5961 110.456 12.3311 110.211 12.1173C109.963 11.9036 109.665 11.7961 109.321 11.7961C108.824 11.7961 108.435 11.9898 108.15 12.3786C107.867 12.7673 107.723 13.2636 107.723 13.8698C107.723 14.4523 107.859 14.9248 108.132 15.2886C108.42 15.6761 108.809 15.8698 109.295 15.8698C109.732 15.8698 110.081 15.7086 110.347 15.3848C110.603 15.0861 110.729 14.7261 110.729 14.3061Z" fill="white"/>
<path d="M123.49 13.7963C123.49 14.7026 123.227 15.4451 122.701 16.0276C122.15 16.6263 121.421 16.9251 120.508 16.9251C119.631 16.9251 118.931 16.6388 118.408 16.0638C117.887 15.4901 117.627 14.7663 117.627 13.8938C117.627 12.9813 117.895 12.2326 118.433 11.6513C118.972 11.0701 119.696 10.7788 120.609 10.7788C121.486 10.7788 122.193 11.0651 122.727 11.6388C123.235 12.1963 123.49 12.9163 123.49 13.7963ZM122.111 13.8388C122.111 13.2951 121.991 12.8288 121.754 12.4401C121.473 11.9701 121.077 11.7351 120.559 11.7351C120.026 11.7351 119.619 11.9701 119.339 12.4401C119.1 12.8288 118.982 13.3026 118.982 13.8626C118.982 14.4063 119.101 14.8726 119.339 15.2613C119.627 15.7313 120.028 15.9663 120.546 15.9663C121.054 15.9663 121.454 15.7276 121.741 15.2488C121.986 14.8526 122.111 14.3826 122.111 13.8388Z" fill="white"/>
<path d="M130.645 16.7912H129.316V13.4162C129.316 12.3762 128.914 11.8562 128.108 11.8562C127.713 11.8562 127.394 11.9987 127.148 12.2849C126.902 12.5712 126.778 12.9087 126.778 13.2949V16.7899H125.446V12.5824C125.446 12.0649 125.431 11.5037 125.399 10.8962H126.568L126.63 11.8174H126.667C126.823 11.5312 127.054 11.2949 127.356 11.1062C127.718 10.8862 128.121 10.7749 128.564 10.7749C129.121 10.7749 129.586 10.9524 129.956 11.3087C130.417 11.7449 130.645 12.3962 130.645 13.2612V16.7912V16.7912Z" fill="white"/>
<path d="M139.602 11.8799H138.136V14.7424C138.136 15.4699 138.397 15.8337 138.912 15.8337C139.151 15.8337 139.349 15.8137 139.505 15.7724L139.54 16.7662C139.277 16.8637 138.931 16.9124 138.506 16.9124C137.98 16.9124 137.571 16.7549 137.275 16.4399C136.978 16.1249 136.831 15.5949 136.831 14.8512V11.8799H135.956V10.8987H136.831V9.81865L138.135 9.43115V10.8974H139.6V11.8799H139.602Z" fill="white"/>
<path d="M146.647 16.7911H145.315V13.4411C145.315 12.3848 144.914 11.8561 144.11 11.8561C143.493 11.8561 143.071 12.1623 142.84 12.7748C142.801 12.9036 142.778 13.0611 142.778 13.2461V16.7898H141.448V8.19482H142.778V11.7461H142.803C143.222 11.0998 143.823 10.7773 144.601 10.7773C145.152 10.7773 145.608 10.9548 145.97 11.3111C146.421 11.7548 146.647 12.4148 146.647 13.2873V16.7911V16.7911Z" fill="white"/>
<path d="M153.914 13.5658C153.914 13.8008 153.896 13.9983 153.864 14.1596H149.873C149.891 14.7421 150.081 15.1858 150.451 15.4933C150.789 15.7683 151.224 15.9058 151.758 15.9058C152.348 15.9058 152.886 15.8133 153.371 15.6271L153.58 16.5371C153.012 16.7796 152.344 16.9008 151.571 16.9008C150.644 16.9008 149.914 16.6321 149.385 16.0946C148.855 15.5571 148.592 14.8358 148.592 13.9308C148.592 13.0421 148.837 12.3021 149.331 11.7121C149.846 11.0821 150.544 10.7671 151.424 10.7671C152.284 10.7671 152.938 11.0821 153.38 11.7121C153.737 12.2121 153.914 12.8308 153.914 13.5658ZM152.644 13.2271C152.654 12.8383 152.566 12.5033 152.386 12.2208C152.155 11.8571 151.803 11.6746 151.327 11.6746C150.893 11.6746 150.538 11.8521 150.268 12.2083C150.047 12.4921 149.916 12.8308 149.873 13.2271H152.644Z" fill="white"/>
<path d="M68.1202 39.3801H65.2364L63.6567 34.4939H58.1659L56.6611 39.3801H53.8535L59.2935 22.7451H62.6535L68.1202 39.3801ZM63.1805 32.4439L61.7519 28.1001C61.6008 27.6564 61.3176 26.6114 60.8999 24.9664H60.8491C60.6827 25.6739 60.4148 26.7189 60.0465 28.1001L58.6434 32.4439H63.1805V32.4439Z" fill="white"/>
<path d="M82.1096 33.2354C82.1096 35.2754 81.5496 36.8879 80.4296 38.0717C79.4264 39.1254 78.1807 39.6517 76.6937 39.6517C75.0886 39.6517 73.9356 39.0842 73.2334 37.9492H73.1826V44.2679H70.4753V31.3342C70.4753 30.0517 70.441 28.7354 70.375 27.3854H72.756L72.9071 29.2867H72.9579C73.8607 27.8542 75.2309 27.1392 77.0696 27.1392C78.5071 27.1392 79.7071 27.6979 80.6671 28.8167C81.6296 29.9367 82.1096 31.4092 82.1096 33.2354ZM79.3515 33.3329C79.3515 32.1654 79.0848 31.2029 78.549 30.4454C77.9636 29.6554 77.1775 29.2604 76.1921 29.2604C75.5242 29.2604 74.9172 29.4804 74.375 29.9142C73.8315 30.3517 73.4759 30.9229 73.3096 31.6304C73.2258 31.9604 73.1839 32.2304 73.1839 32.4429V34.4429C73.1839 35.3154 73.4556 36.0517 73.9991 36.6529C74.5426 37.2542 75.2486 37.5542 76.1172 37.5542C77.1369 37.5542 77.9306 37.1667 78.4982 36.3942C79.0671 35.6204 79.3515 34.6004 79.3515 33.3329Z" fill="white"/>
<path d="M96.1249 33.2354C96.1249 35.2754 95.5649 36.8879 94.4437 38.0717C93.4418 39.1254 92.196 39.6517 90.7091 39.6517C89.104 39.6517 87.951 39.0842 87.25 37.9492H87.1992V44.2679H84.4919V31.3342C84.4919 30.0517 84.4576 28.7354 84.3916 27.3854H86.7726L86.9237 29.2867H86.9745C87.876 27.8542 89.2462 27.1392 91.0862 27.1392C92.5224 27.1392 93.7224 27.6979 94.6849 28.8167C95.6437 29.9367 96.1249 31.4092 96.1249 33.2354ZM93.3668 33.3329C93.3668 32.1654 93.0989 31.2029 92.563 30.4454C91.9776 29.6554 91.1941 29.2604 90.2075 29.2604C89.5383 29.2604 88.9326 29.4804 88.3891 29.9142C87.8456 30.3517 87.4913 30.9229 87.3249 31.6304C87.2424 31.9604 87.1992 32.2304 87.1992 32.4429V34.4429C87.1992 35.3154 87.471 36.0517 88.0119 36.6529C88.5554 37.2529 89.2615 37.5542 90.1326 37.5542C91.1522 37.5542 91.9459 37.1667 92.5135 36.3942C93.0824 35.6204 93.3668 34.6004 93.3668 33.3329Z" fill="white"/>
<path d="M111.795 34.7152C111.795 36.1302 111.296 37.2815 110.294 38.1702C109.193 39.1415 107.661 39.6265 105.691 39.6265C103.873 39.6265 102.415 39.2815 101.312 38.5902L101.939 36.369C103.127 37.0765 104.432 37.4315 105.852 37.4315C106.872 37.4315 107.666 37.204 108.236 36.7515C108.804 36.299 109.087 35.6915 109.087 34.934C109.087 34.259 108.853 33.6902 108.385 33.229C107.919 32.7677 107.14 32.339 106.053 31.9427C103.094 30.8565 101.616 29.2652 101.616 27.1727C101.616 25.8052 102.134 24.684 103.172 23.8115C104.205 22.9377 105.585 22.5015 107.309 22.5015C108.847 22.5015 110.124 22.7652 111.144 23.2915L110.467 25.464C109.515 24.954 108.438 24.699 107.233 24.699C106.28 24.699 105.536 24.9302 105.003 25.3902C104.552 25.8015 104.326 26.3027 104.326 26.8965C104.326 27.554 104.584 28.0977 105.102 28.5252C105.553 28.9202 106.372 29.3477 107.56 29.809C109.014 30.3852 110.082 31.059 110.769 31.8315C111.454 32.6015 111.795 33.5652 111.795 34.7152Z" fill="white"/>
<path d="M120.746 29.3852H117.762V35.209C117.762 36.6902 118.288 37.4302 119.342 37.4302C119.826 37.4302 120.227 37.389 120.544 37.3065L120.619 39.3302C120.086 39.5265 119.384 39.6252 118.514 39.6252C117.445 39.6252 116.609 39.304 116.006 38.6627C115.405 38.0202 115.103 36.9427 115.103 35.429V29.3827H113.325V27.3827H115.103V25.1865L117.762 24.3965V27.3827H120.746V29.3852Z" fill="white"/>
<path d="M134.211 33.2839C134.211 35.1276 133.675 36.6414 132.606 37.8251C131.484 39.0439 129.996 39.6514 128.141 39.6514C126.353 39.6514 124.929 39.0676 123.868 37.9001C122.806 36.7326 122.275 35.2589 122.275 33.4826C122.275 31.6239 122.821 30.1014 123.917 28.9176C125.011 27.7326 126.486 27.1401 128.341 27.1401C130.129 27.1401 131.568 27.7239 132.654 28.8926C133.693 30.0264 134.211 31.4901 134.211 33.2839ZM131.402 33.3701C131.402 32.2639 131.162 31.3151 130.675 30.5239C130.108 29.5664 129.296 29.0889 128.245 29.0889C127.157 29.0889 126.33 29.5676 125.762 30.5239C125.276 31.3164 125.036 32.2801 125.036 33.4201C125.036 34.5264 125.276 35.4751 125.762 36.2651C126.348 37.2226 127.166 37.7001 128.221 37.7001C129.254 37.7001 130.066 37.2126 130.651 36.2401C131.15 35.4339 131.402 34.4751 131.402 33.3701Z" fill="white"/>
<path d="M143.011 29.7292C142.743 29.6804 142.457 29.6554 142.157 29.6554C141.205 29.6554 140.468 30.0092 139.95 30.7179C139.499 31.3429 139.273 32.1329 139.273 33.0867V39.3804H136.567L136.593 31.1629C136.593 29.7804 136.559 28.5217 136.491 27.3867H138.849L138.948 29.6817H139.023C139.309 28.8929 139.76 28.2579 140.377 27.7817C140.98 27.3529 141.632 27.1392 142.334 27.1392C142.584 27.1392 142.81 27.1567 143.011 27.1879V29.7292Z" fill="white"/>
<path d="M155.118 32.8154C155.118 33.2929 155.087 33.6954 155.019 34.0242H146.897C146.929 35.2092 147.321 36.1154 148.076 36.7404C148.76 37.2992 149.645 37.5792 150.732 37.5792C151.935 37.5792 153.032 37.3904 154.019 37.0117L154.443 38.8617C153.29 39.3567 151.928 39.6029 150.358 39.6029C148.468 39.6029 146.985 39.0554 145.906 37.9617C144.829 36.8679 144.289 35.3992 144.289 33.5567C144.289 31.7479 144.791 30.2417 145.795 29.0404C146.847 27.7579 148.267 27.1167 150.055 27.1167C151.812 27.1167 153.141 27.7579 154.044 29.0404C154.759 30.0592 155.118 31.3192 155.118 32.8154ZM152.537 32.1242C152.554 31.3342 152.378 30.6517 152.011 30.0754C151.542 29.3342 150.822 28.9642 149.854 28.9642C148.968 28.9642 148.248 29.3254 147.699 30.0504C147.248 30.6267 146.98 31.3179 146.897 32.1229H152.537V32.1242Z" fill="white"/>
</svg>
