<svg version="1.2" xmlns="http://www.w3.org/2000/svg" viewBox="0 0 86 50" width="86" height="50"><style>.a{fill:#dae8e8}.b{fill:#36adf0}.c{fill:#333}.d{fill:#646464}</style><path class="a" d="m15.3 11c-2.3 0-4.2 1.8-4.2 4v21.8c0 2.2 1.9 4 4.2 4 2.2 0 4.1-1.8 4.1-4v-21.8c0-2.2-1.9-4-4.1-4z"/><path class="a" d="m29.1 11c-2.2 0-4.1 1.8-4.1 4v21.8c0 2.2 1.9 4 4.1 4 2.2 0 4.2-1.8 4.2-4v-21.8c0-2.2-2-4-4.2-4z"/><path class="a" d="m41.6 11c-2.2 0-4.1 1.8-4.1 4v21.8c0 2.2 1.9 4 4.1 4 2.2 0 4.2-1.8 4.2-4v-21.8c0-2.2-2-4-4.2-4z"/><path class="a" d="m54.1 11c-2.2 0-4.2 1.8-4.2 4v21.8c0 2.2 2 4 4.2 4 2.2 0 4.2-1.8 4.2-4v-21.8c0-2.2-2-4-4.2-4z"/><path class="a" d="m80.5 13.2c2.2 0 4.1 1.8 4.1 4.2v17.3c0 2.3-1.9 4.2-4.1 4.2"/><path class="b" d="m13.9 41c-2.2 0-4.2-1.8-4.2-4v-22c0-2.2 2-4 4.2-4 2.2 0 4.1 1.8 4.1 4v21.8c0 2.4-1.9 4.2-4.1 4.2z"/><path class="b" d="m9.7 15c0-2.2 2-4 4.2-4 2.2 0 4.1 1.8 4.1 4v22.1"/><path class="b" d="m27.7 41c-2.2 0-4.1-1.8-4.1-4v-22c0-2.2 1.9-4 4.1-4 2.3 0 4.2 1.8 4.2 4v21.8c0 2.4-1.9 4.2-4.2 4.2z"/><path class="b" d="m23.6 15c0-2.2 1.9-4 4.1-4 2.3 0 4.2 1.8 4.2 4v22.1"/><path class="b" d="m40.2 41c-2.2 0-4.1-1.8-4.1-4v-22c0-2.2 1.9-4 4.1-4 2.2 0 4.2 1.8 4.2 4v21.8c0 2.4-2 4.2-4.2 4.2z"/><path class="b" d="m36.1 15c0-2.2 1.9-4 4.1-4 2.2 0 4.2 1.8 4.2 4v22.1"/><path class="b" d="m52.7 41c-2.2 0-4.2-1.8-4.2-4v-22c0-2.2 2-4 4.2-4 2.2 0 4.2 1.8 4.2 4v21.8c0 2.4-2 4.2-4.2 4.2z"/><path class="c" d="m48.5 15c0-2.2 2-4 4.2-4 2.2 0 4.2 1.8 4.2 4v22.1"/><path class="d" d="m80.6 12.1h-0.1v-2.7c0-3.4-2.5-5.6-5.7-5.6h-69.1c-3.1 0-5.7 2.4-5.7 5.6v33.2c0 3.4 2.6 5.6 5.7 5.6h69.1c3 0 5.7-2.4 5.7-5.6v-2.7h0.1c3 0 5.4-2.2 5.4-5.2v-17.4c0-3-2.4-5.2-5.4-5.2zm-2.9 30.5c0 1.8-1.3 2.8-2.9 2.8h-69.1c-1.5 0-2.9-1.1-2.9-2.8v-33.2c0-1.8 1.4-2.8 2.9-2.8h69.1c1.6 0 2.9 1.1 2.9 2.8zm5.5-8c0 1.6-1.1 2.4-2.6 2.4h-0.1v-22.2h0.1c1.5 0 2.6 0.8 2.6 2.4z"/><path class="d" d="m45.6 45.4h-39.9c-1.5 0-2.9-1.1-2.9-2.8v-33.2c0-1.2 0.5-1.8 1.4-2.5l-2.3-1.7c-1.2 1-1.9 2.4-1.9 4.2v33.2c0 3.4 2.6 5.6 5.7 5.6h42.8z"/></svg>