<svg width="45" height="45" viewBox="0 0 45 45" fill="none" xmlns="http://www.w3.org/2000/svg">
<path fill-rule="evenodd" clip-rule="evenodd" d="M6.75 11.2702V33.1019L6.759 33.1109C6.76368 33.1148 6.76901 33.1179 6.77475 33.1199H6.7905C10.0665 32.7217 15.9345 32.0849 20.25 32.0849C24.5655 32.0849 30.4335 32.7217 33.7095 33.1199H33.7253C33.7343 33.1162 33.7421 33.11 33.7477 33.1019L33.75 33.0974V11.2702L33.741 11.2612C33.7363 11.2572 33.731 11.2542 33.7253 11.2522H33.7095C30.4335 11.6504 24.5655 12.2872 20.25 12.2872C15.9345 12.2872 10.0665 11.6504 6.7905 11.2522H6.77475C6.76563 11.2558 6.75555 11.2621 6.75 11.2702ZM2.25 11.2724C2.25129 10.6313 2.38855 9.99771 2.65272 9.41352C2.91689 8.82932 3.30196 8.3078 3.78252 7.88338C4.26308 7.45896 4.82819 7.14129 5.44056 6.95134C6.05292 6.76139 6.69861 6.70348 7.335 6.78144C10.6155 7.18194 16.2382 7.78269 20.25 7.78269C24.2617 7.78269 29.8845 7.18194 33.165 6.78144C33.8016 6.70346 34.4475 6.76143 35.06 6.95151C35.6725 7.14159 36.2377 7.45946 36.7183 7.88413C37.1989 8.30879 37.5839 8.83059 37.848 9.41506C38.112 9.99952 38.249 10.6334 38.25 11.2747V33.0974C38.2487 33.7386 38.1115 34.3722 37.8473 34.9564C37.5831 35.5406 37.198 36.0621 36.7175 36.4865C36.2369 36.9109 35.6718 37.2286 35.0594 37.4185C34.4471 37.6085 33.8014 37.6664 33.165 37.5884C29.8845 37.1879 24.2617 36.5849 20.25 36.5849C16.2382 36.5849 10.6155 37.1879 7.335 37.5884C6.69861 37.6664 6.05292 37.6085 5.44056 37.4185C4.82819 37.2286 4.26308 36.9109 3.78252 36.4865C3.30196 36.0621 2.91689 35.5406 2.65272 34.9564C2.38855 34.3722 2.25129 33.7386 2.25 33.0974V11.2724ZM42.75 15.4349C43.3467 15.4349 43.919 15.672 44.341 16.094C44.7629 16.5159 45 17.0882 45 17.6849V27.8099C45 28.4067 44.7629 28.979 44.341 29.4009C43.919 29.8229 43.3467 30.0599 42.75 30.0599C42.1533 30.0599 41.581 29.8229 41.159 29.4009C40.7371 28.979 40.5 28.4067 40.5 27.8099V17.6849C40.5 17.0882 40.7371 16.5159 41.159 16.094C41.581 15.672 42.1533 15.4349 42.75 15.4349ZM21.4425 14.6497C21.1018 14.4367 20.7102 14.3189 20.3085 14.3084C19.9068 14.298 19.5096 14.3953 19.1583 14.5903C18.8069 14.7853 18.5142 15.0708 18.3105 15.4171C18.1068 15.7635 17.9996 16.1581 18 16.5599V23.8004L12.2108 20.2657C11.7017 19.9618 11.0932 19.8711 10.5176 20.0133C9.94202 20.1555 9.44584 20.5192 9.13692 21.0253C8.828 21.5314 8.73132 22.1389 8.86789 22.7159C9.00446 23.2928 9.36325 23.7926 9.86625 24.1064L19.0778 29.7314C19.4189 29.9397 19.8094 30.0533 20.209 30.0606C20.6087 30.0678 21.003 29.9685 21.3516 29.7728C21.7001 29.5772 21.9902 29.2922 22.192 28.9472C22.3939 28.6022 22.5002 28.2096 22.5 27.8099V20.6212L28.0575 24.0929C28.5635 24.4092 29.1745 24.5115 29.7559 24.3773C30.3374 24.2431 30.8417 23.8835 31.158 23.3774C31.4743 22.8714 31.5766 22.2605 31.4424 21.679C31.3082 21.0976 30.9485 20.5932 30.4425 20.2769L21.4425 14.6497Z" fill="#007AFF"/>
</svg>
