<svg width="45" height="45" viewBox="0 0 45 45" fill="none" xmlns="http://www.w3.org/2000/svg">
<path d="M12.9729 37.422C12.2695 37.422 11.5687 37.1394 11.0541 36.5825C10.0773 35.5246 10.1406 33.8781 11.1939 32.8988C11.2863 32.8101 15.7206 28.541 15.7206 22.4999C15.7206 16.3527 11.2459 12.1499 11.2006 12.1081C10.1412 11.1288 10.0754 9.47727 11.0542 8.41733C12.0325 7.35739 13.6846 7.29317 14.7445 8.27042C14.9975 8.50405 20.9437 14.0922 20.9437 22.4999C20.9437 30.9076 14.9975 36.4957 14.7445 36.7294C14.2421 37.1925 13.6064 37.422 12.9729 37.422Z" stroke="#007AFF" stroke-width="1.33333" stroke-miterlimit="10"/>
<path d="M6.83232 31.0952C6.04379 31.0952 5.26491 30.7402 4.75125 30.0639C3.88463 28.9234 4.09894 27.3004 5.22563 26.4231C5.34094 26.3292 6.993 24.9347 6.993 22.4997C6.993 20.0301 5.29397 18.6315 5.22207 18.5733C4.11066 17.6766 3.90966 16.0414 4.79007 14.9183C5.67038 13.7941 7.27407 13.5748 8.41041 14.4368C9.82379 15.511 12.2159 18.4182 12.2159 22.4997C12.2159 26.5812 9.82379 29.4885 8.41041 30.5627C7.9381 30.9218 7.38319 31.0952 6.83232 31.0952Z" stroke="#007AFF" stroke-width="1.33333" stroke-miterlimit="10"/>
<path d="M12.9729 37.422C12.2695 37.422 11.5687 37.1394 11.0541 36.5825C10.0773 35.5246 10.1406 33.8781 11.1939 32.8988C11.2863 32.8101 15.7206 28.541 15.7206 22.4999C15.7206 16.3527 11.2459 12.1499 11.2006 12.1081C10.1412 11.1288 10.0754 9.47727 11.0542 8.41733C12.0325 7.35739 13.6846 7.29317 14.7445 8.27042C14.9975 8.50405 20.9437 14.0922 20.9437 22.4999C20.9437 30.9076 14.9975 36.4957 14.7445 36.7294C14.2421 37.1925 13.6064 37.422 12.9729 37.422Z" stroke="#007AFF" stroke-width="1.33333" stroke-miterlimit="10"/>
<path d="M6.83232 31.0952C6.04379 31.0952 5.26491 30.7402 4.75125 30.0639C3.88463 28.9234 4.09894 27.3004 5.22563 26.4231C5.34094 26.3292 6.993 24.9347 6.993 22.4997C6.993 20.0301 5.29397 18.6315 5.22207 18.5733C4.11066 17.6766 3.90966 16.0414 4.79007 14.9183C5.67038 13.7941 7.27407 13.5748 8.41041 14.4368C9.82379 15.511 12.2159 18.4182 12.2159 22.4997C12.2159 26.5812 9.82379 29.4885 8.41041 30.5627C7.9381 30.9218 7.38319 31.0952 6.83232 31.0952Z" stroke="#007AFF" stroke-width="1.33333" stroke-miterlimit="10"/>
<path d="M32.0272 37.422C32.7306 37.422 33.4314 37.1394 33.946 36.5825C34.9228 35.5246 34.8595 33.8781 33.8062 32.8988C33.7139 32.8101 29.2795 28.541 29.2795 22.4999C29.2795 16.3527 33.7542 12.1499 33.7996 12.1081C34.8589 11.1288 34.9247 9.47727 33.9459 8.41733C32.9676 7.35739 31.3156 7.29317 30.2556 8.27042C30.0026 8.50405 24.0564 14.0922 24.0564 22.4999C24.0564 30.9076 30.0026 36.4957 30.2556 36.7294C30.758 37.1925 31.3937 37.422 32.0272 37.422Z" stroke="#007AFF" stroke-width="1.33333" stroke-miterlimit="10"/>
<path d="M38.1678 31.0952C38.9563 31.0952 39.7352 30.7402 40.2488 30.0639C41.1155 28.9234 40.9011 27.3004 39.7745 26.4231C39.6591 26.3292 38.0071 24.9347 38.0071 22.4997C38.0071 20.0301 39.7061 18.6315 39.778 18.5733C40.8894 17.6766 41.0904 16.0414 40.21 14.9183C39.3297 13.7941 37.726 13.5748 36.5897 14.4368C35.1763 15.511 32.7842 18.4182 32.7842 22.4997C32.7842 26.5812 35.1763 29.4885 36.5897 30.5627C37.062 30.9218 37.6169 31.0952 38.1678 31.0952Z" stroke="#007AFF" stroke-width="1.33333" stroke-miterlimit="10"/>
</svg>
