<svg width="53" height="40" viewBox="0 0 53 40" fill="none" xmlns="http://www.w3.org/2000/svg">
<path d="M12.2005 39.3592C10.5991 39.3609 9.01315 39.047 7.53318 38.4355C6.0532 37.8239 4.70824 36.9267 3.57519 35.7951C2.44213 34.6635 1.54319 33.3197 0.929737 31.8406C0.316286 30.3614 0.000354444 28.7758 2.98068e-07 27.1744C-0.000353848 25.5731 0.314876 23.9874 0.927673 22.5079C1.54047 21.0284 2.43882 19.6843 3.57137 18.5522C4.70393 17.4201 6.04849 16.5223 7.52819 15.9101C9.0079 15.2979 10.5938 14.9833 12.1951 14.9843C12.4406 14.989 12.6745 15.0899 12.8464 15.2652C13.0183 15.4405 13.1146 15.6763 13.1146 15.9218C13.1146 16.1674 13.0182 16.4031 12.8463 16.5784C12.6743 16.7537 12.4404 16.8545 12.1949 16.8592C10.8087 16.8658 9.43791 17.1505 8.16372 17.6965C6.88953 18.2425 5.73787 19.0387 4.77695 20.0378C3.81603 21.037 3.06539 22.2188 2.56948 23.5133C2.07358 24.8078 1.84251 26.1887 1.88994 27.5741C2.02774 30.1557 3.11524 32.5951 4.94325 34.4231C6.77125 36.2511 9.21064 37.3386 11.7922 37.4764C13.1778 37.5247 14.559 37.2942 15.8539 36.7986C17.1488 36.303 18.3309 35.5524 19.3303 34.5913C20.3296 33.6303 21.1258 32.4783 21.6715 31.2038C22.2173 29.9292 22.5015 28.5581 22.5074 27.1716C22.4926 20.0744 20.1915 13.1708 15.945 7.48419L11.4452 1.48428C11.3022 1.28505 11.243 1.03772 11.2802 0.795332C11.3174 0.552941 11.4481 0.334775 11.6443 0.187607C11.8404 0.0404393 12.0864 -0.0240166 12.3296 0.00805746C12.5727 0.0401315 12.7936 0.166182 12.9448 0.359187L17.4446 6.35903C22.8396 13.4238 28.257 28.905 20.6473 35.9525C18.3836 38.146 15.3526 39.3684 12.2005 39.3592Z" fill="#1C274C"/>
<path d="M40.3255 39.3591C38.7241 39.3608 37.1382 39.0469 35.6582 38.4354C34.1782 37.8238 32.8332 36.9266 31.7002 35.795C30.5671 34.6634 29.6682 33.3196 29.0547 31.8405C28.4413 30.3613 28.1254 28.7757 28.125 27.1743C28.1246 25.573 28.4399 23.9873 29.0527 22.5078C29.6655 21.0284 30.5638 19.6842 31.6964 18.5521C32.8289 17.42 34.1735 16.5222 35.6532 15.91C37.1329 15.2978 38.7188 14.9832 40.3201 14.9842C40.5656 14.9889 40.7995 15.0898 40.9714 15.2651C41.1433 15.4404 41.2396 15.6762 41.2396 15.9217C41.2396 16.1673 41.1432 16.403 40.9713 16.5783C40.7993 16.7536 40.5654 16.8544 40.3199 16.8591C38.9337 16.8657 37.5629 17.1505 36.2887 17.6965C35.0145 18.2425 33.8629 19.0386 32.902 20.0378C31.941 21.0369 31.1904 22.2187 30.6945 23.5132C30.1986 24.8077 29.9675 26.1886 30.0149 27.574C30.1527 30.1556 31.2402 32.595 33.0683 34.423C34.8963 36.251 37.3356 37.3385 39.9172 37.4763C41.3028 37.5245 42.6839 37.2939 43.9788 36.7983C45.2736 36.3027 46.4557 35.5521 47.4551 34.591C48.4544 33.63 49.2505 32.4781 49.7963 31.2036C50.3421 29.9291 50.6264 28.558 50.6324 27.1715C50.6176 20.0743 48.3165 13.1707 44.07 7.48409L39.5702 1.48418C39.4273 1.28494 39.3682 1.03768 39.4055 0.795367C39.4427 0.553057 39.5734 0.334977 39.7695 0.187853C39.9656 0.0407294 40.2115 -0.0237346 40.4546 0.00827305C40.6977 0.0402807 40.9185 0.166213 41.0698 0.35909L45.5696 6.35893C50.9646 13.4237 56.382 28.9049 48.7723 35.9524C46.5086 38.1459 43.4776 39.3683 40.3255 39.3591Z" fill="#1C274C"/>
</svg>
