<svg width="45" height="45" viewBox="0 0 45 45" fill="none" xmlns="http://www.w3.org/2000/svg">
<path d="M24.8687 15.492L15 22.5V9.79606C15 6.25904 15 4.49054 16.1337 3.91051C17.2674 3.33046 18.715 4.35839 21.6099 6.41424L24.8687 8.72831C27.0396 10.27 28.125 11.0408 28.125 12.1101C28.125 13.1795 27.0396 13.9503 24.8687 15.492Z" stroke="#007AFF" stroke-width="4"/>
<path d="M24.8687 36.2717L21.6099 38.5858C18.715 40.6416 17.2674 41.6696 16.1337 41.0895C15 40.5094 15 38.7409 15 35.2039V22.5L24.8687 29.508C27.0396 31.0496 28.125 31.8204 28.125 32.8899C28.125 33.9592 27.0396 34.7301 24.8687 36.2717Z" stroke="#007AFF" stroke-width="4"/>
<path opacity="0.5" d="M5.625 29.0625L15 22.5L5.625 15.9375" stroke="#007AFF" stroke-width="4" stroke-linecap="round"/>
<path opacity="0.7" d="M35.625 9.375C35.625 9.375 39.375 13.3125 39.375 22.5C39.375 31.6875 35.625 35.625 35.625 35.625" stroke="#007AFF" stroke-width="4" stroke-linecap="round"/>
<path opacity="0.4" d="M31.875 15C31.875 15 33.75 18.5625 33.75 22.5C33.75 26.4375 31.875 30 31.875 30" stroke="#007AFF" stroke-width="4" stroke-linecap="round"/>
</svg>
