<svg width="85" height="85" viewBox="0 0 85 85" fill="none" xmlns="http://www.w3.org/2000/svg">
<path d="M72.76 70.295H60.605C68.595 66.3 74.12 58.055 74.12 48.535V44.03C74.12 43.35 73.525 42.755 72.845 42.755H12.495C11.815 42.755 11.22 43.35 11.22 44.03V48.535C11.22 58.055 16.745 66.3 24.735 70.295H12.495C11.815 70.295 11.22 70.89 11.22 71.57C11.22 72.25 11.815 72.845 12.495 72.845H35.445C35.53 72.845 35.53 72.845 35.615 72.845H49.895C49.98 72.845 49.98 72.845 50.065 72.845H73.015C73.695 72.845 74.29 72.25 74.29 71.57C74.29 70.89 73.525 70.295 72.76 70.295ZM13.77 48.535V45.305H71.57V48.535C71.57 60.52 61.88 70.21 49.895 70.295H35.36C23.46 70.295 13.77 60.52 13.77 48.535ZM74.035 31.96C74.035 26.435 69.53 21.93 64.005 21.93C60.945 21.93 58.14 23.29 56.27 25.585C54.655 25.245 52.87 25.245 51.255 25.755C51.085 25.33 50.915 24.99 50.745 24.565C50.32 23.715 49.895 22.78 49.555 21.93C47.26 17 45.475 13.09 42.67 11.985C41.565 11.56 40.29 11.645 39.1 12.24C35.7 13.855 32.13 19.295 31.535 25.245C28.815 23.375 27.2 20.06 25.755 17.085C24.055 13.43 22.185 9.68999 18.445 10.71C14.365 11.815 10.2 16.575 8.75496 21.76C7.39496 26.52 8.41496 31.025 11.56 34.51C11.39 34.765 11.305 35.02 11.305 35.275V43.945C11.305 44.625 11.9 45.22 12.58 45.22H72.93C73.61 45.22 74.205 44.625 74.205 43.945V35.36C74.205 35.02 74.035 34.765 73.865 34.51C73.95 33.66 74.035 32.81 74.035 31.96ZM64.005 24.48C68.17 24.48 71.485 27.88 71.485 31.96C71.485 32.725 71.4 33.405 71.145 34.085H56.865V34C56.78 33.745 56.695 33.49 56.695 33.15C56.695 33.065 56.695 32.98 56.695 32.895C56.695 32.555 56.61 32.215 56.61 31.96C56.61 31.535 56.61 31.11 56.695 30.77C56.78 30.09 57.035 29.41 57.29 28.73C57.29 28.645 57.375 28.56 57.46 28.475C57.63 28.22 57.715 27.965 57.885 27.71C59.245 25.67 61.54 24.48 64.005 24.48ZM54.825 27.965C54.825 27.965 54.825 28.05 54.74 28.135C54.655 28.39 54.57 28.645 54.485 28.815C54.485 28.9 54.485 28.9 54.4 28.985C54.315 29.24 54.23 29.58 54.145 29.835C54.145 29.92 54.145 30.005 54.145 30.09C54.06 30.345 54.06 30.6 54.06 30.77C54.06 30.855 54.06 30.94 54.06 31.025C54.06 31.365 53.975 31.62 53.975 31.96C53.975 32.3 53.975 32.64 54.06 32.98C54.06 33.065 54.06 33.235 54.145 33.32C54.145 33.575 54.23 33.745 54.23 34V34.085H53.04C53.04 34 53.04 33.915 53.04 33.83C53.04 33.49 53.04 33.15 52.955 32.81C52.955 32.725 52.955 32.555 52.955 32.47C52.955 32.045 52.87 31.62 52.785 31.195C52.785 31.11 52.785 31.025 52.7 30.94C52.615 30.6 52.53 30.26 52.53 29.835C52.53 29.665 52.445 29.58 52.445 29.41C52.36 29.07 52.275 28.645 52.105 28.305C52.105 28.22 52.105 28.135 52.02 28.135C52.955 27.88 53.89 27.88 54.825 27.965ZM40.12 14.62C40.97 14.28 41.395 14.365 41.735 14.45C43.605 15.13 45.305 18.955 47.175 23.035C47.6 23.885 47.94 24.735 48.365 25.67C48.705 26.35 48.96 27.03 49.215 27.795C49.385 28.305 49.555 28.815 49.64 29.24C49.64 29.325 49.725 29.41 49.725 29.495C49.81 29.92 49.98 30.43 50.065 30.855C50.065 30.94 50.065 31.025 50.15 31.11C50.235 31.535 50.32 32.045 50.32 32.47C50.405 32.895 50.405 33.405 50.405 33.83C50.405 33.915 50.405 33.915 50.405 34H43.52C41.905 31.62 42.415 29.665 42.415 29.495C42.585 28.815 42.245 28.135 41.565 27.88C40.885 27.71 40.205 28.05 39.95 28.73C39.95 28.815 39.27 31.11 40.545 33.915H35.955C35.87 33.745 35.785 33.575 35.7 33.405C35.615 33.32 35.53 33.15 35.53 33.065C35.275 32.64 35.105 32.215 34.85 31.79C34.17 30.345 33.83 28.815 33.83 27.2C33.745 21.93 37.145 16.065 40.12 14.62ZM11.135 22.525C12.495 17.68 16.235 13.94 19.04 13.26C20.655 12.835 21.59 14.45 23.46 18.275C25.16 21.845 27.2 26.265 31.45 28.305C31.45 28.39 31.45 28.56 31.535 28.645C31.535 28.815 31.535 28.985 31.62 29.155C31.62 29.41 31.705 29.75 31.79 30.005C31.79 30.175 31.875 30.345 31.875 30.515C31.96 30.77 32.045 31.11 32.13 31.365C32.215 31.535 32.215 31.62 32.3 31.79C32.47 32.215 32.64 32.64 32.81 33.065C32.98 33.405 33.15 33.745 33.32 34.085H25.5C20.145 31.535 21.08 27.115 21.165 26.86C21.335 26.18 20.91 25.5 20.23 25.33C19.55 25.16 18.87 25.585 18.7 26.265C18.275 28.05 18.445 31.365 21.165 34.085H14.705C14.365 33.745 14.025 33.405 13.77 32.98C10.115 29.495 10.37 25.33 11.135 22.525ZM71.485 42.755H13.685V36.635H13.855H35.36H51.68H55.93H71.485V42.755ZM33.405 66.47C26.86 66.47 24.055 61.37 23.46 58.395C23.29 57.715 23.8 57.035 24.48 56.865C25.16 56.695 25.84 57.205 26.01 57.885C26.095 58.14 27.54 64.855 35.02 63.75C35.7 63.665 36.38 64.175 36.465 64.855C36.55 65.535 36.04 66.215 35.36 66.3C34.68 66.47 34 66.47 33.405 66.47Z" fill="#FB9015"/>
</svg>
