<svg width="70" height="70" viewBox="0 0 70 70" fill="none" xmlns="http://www.w3.org/2000/svg">
<path d="M70 30.4879C70 28.4255 68.3221 26.7476 66.2598 26.7476H53.4817L58.887 10.7168C59.3891 9.2264 59.2812 7.62991 58.583 6.2211C57.8847 4.8117 56.6793 3.7591 55.189 3.25686C52.1113 2.22001 48.7653 3.87906 47.7292 6.95472L41.0559 26.7476H3.74025C1.67789 26.7476 0 28.4255 0 30.4879C0 32.2766 1.2625 33.7752 2.94304 34.1417C3.4541 46.0201 10.5048 56.6665 21.2746 61.7661V65.58C21.2746 66.393 21.9337 67.052 22.7465 67.052H47.2533C48.0662 67.052 48.7253 66.393 48.7253 65.58V61.7661C59.4952 56.6664 66.546 46.0201 67.057 34.1416C68.7375 33.775 70 32.2764 70 30.4879ZM50.5189 7.89487C51.037 6.3574 52.7109 5.52839 54.2488 6.04667C54.9938 6.29764 55.5961 6.82372 55.9451 7.5282C56.2943 8.23283 56.3482 9.03122 56.0972 9.77633L50.3749 26.7476H44.1627L50.5189 7.89487ZM3.74025 29.6915H66.2596C66.6987 29.6915 67.0559 30.0488 67.0559 30.4879C67.0559 30.9269 66.6987 31.2842 66.2596 31.2842H3.74025C3.30117 31.2842 2.94392 30.9269 2.94392 30.4879C2.94392 30.0486 3.30117 29.6915 3.74025 29.6915ZM24.2185 64.108V62.291H45.7814V64.108H24.2185ZM46.9388 59.3471H23.0609C13.0482 54.8457 6.44145 45.1227 5.89285 34.228H64.1072C63.5587 45.1228 56.9518 54.8459 46.9388 59.3471Z" fill="#FB9015"/>
</svg>
