<svg width="15" height="18" viewBox="0 0 15 18" fill="none" xmlns="http://www.w3.org/2000/svg">
<g clip-path="url(#clip0_378_89)">
<path d="M4.28571 0C4.87835 0 5.35714 0.47848 5.35714 1.07072V2.14145H9.64286V1.07072C9.64286 0.47848 10.1217 0 10.7143 0C11.3069 0 11.7857 0.47848 11.7857 1.07072V2.14145H13.3929C14.2801 2.14145 15 2.86084 15 3.74753V5.35362H0V3.74753C0 2.86084 0.719866 2.14145 1.60714 2.14145H3.21429V1.07072C3.21429 0.47848 3.69308 0 4.28571 0ZM0 6.42434H15V15.5255C15 16.4122 14.2801 17.1316 13.3929 17.1316H1.60714C0.719866 17.1316 0 16.4122 0 15.5255V6.42434ZM2.14286 9.10115V10.1719C2.14286 10.4663 2.38393 10.7072 2.67857 10.7072H3.75C4.04464 10.7072 4.28571 10.4663 4.28571 10.1719V9.10115C4.28571 8.8067 4.04464 8.56579 3.75 8.56579H2.67857C2.38393 8.56579 2.14286 8.8067 2.14286 9.10115ZM6.42857 9.10115V10.1719C6.42857 10.4663 6.66964 10.7072 6.96429 10.7072H8.03571C8.33036 10.7072 8.57143 10.4663 8.57143 10.1719V9.10115C8.57143 8.8067 8.33036 8.56579 8.03571 8.56579H6.96429C6.66964 8.56579 6.42857 8.8067 6.42857 9.10115ZM11.25 8.56579C10.9554 8.56579 10.7143 8.8067 10.7143 9.10115V10.1719C10.7143 10.4663 10.9554 10.7072 11.25 10.7072H12.3214C12.6161 10.7072 12.8571 10.4663 12.8571 10.1719V9.10115C12.8571 8.8067 12.6161 8.56579 12.3214 8.56579H11.25ZM2.14286 13.384V14.4548C2.14286 14.7492 2.38393 14.9901 2.67857 14.9901H3.75C4.04464 14.9901 4.28571 14.7492 4.28571 14.4548V13.384C4.28571 13.0896 4.04464 12.8487 3.75 12.8487H2.67857C2.38393 12.8487 2.14286 13.0896 2.14286 13.384ZM6.96429 12.8487C6.66964 12.8487 6.42857 13.0896 6.42857 13.384V14.4548C6.42857 14.7492 6.66964 14.9901 6.96429 14.9901H8.03571C8.33036 14.9901 8.57143 14.7492 8.57143 14.4548V13.384C8.57143 13.0896 8.33036 12.8487 8.03571 12.8487H6.96429ZM10.7143 13.384V14.4548C10.7143 14.7492 10.9554 14.9901 11.25 14.9901H12.3214C12.6161 14.9901 12.8571 14.7492 12.8571 14.4548V13.384C12.8571 13.0896 12.6161 12.8487 12.3214 12.8487H11.25C10.9554 12.8487 10.7143 13.0896 10.7143 13.384Z" fill="#FB9015"/>
</g>
<defs>
<clipPath id="clip0_378_89">
<rect width="15" height="17.1316" fill="white"/>
</clipPath>
</defs>
</svg>
