<svg width="91" height="91" viewBox="0 0 91 91" fill="none" xmlns="http://www.w3.org/2000/svg">
<path d="M53.125 31.25H59.375V21.875L53.125 31.25Z" fill="#9BC9FF"/>
<path d="M62.4994 1.51716e-05C57.4573 -0.00379942 52.507 1.34896 48.1676 3.91647C43.8282 6.48397 40.2594 10.1717 37.8355 14.5929C35.4116 19.0141 34.2218 24.006 34.3908 29.0453C34.5598 34.0846 36.0815 38.9855 38.7963 43.2344L35.9369 54.6875L47.39 51.8281C51.0716 54.1795 55.2504 55.6409 59.595 56.0966C63.9396 56.5522 68.3306 55.9896 72.42 54.4533C76.5093 52.9169 80.1846 50.4491 83.1544 47.2455C86.1242 44.0418 88.307 40.1904 89.5296 35.9966C90.7522 31.8027 90.9811 27.3817 90.1981 23.084C89.4152 18.7863 87.6418 14.7301 85.0188 11.2369C82.3957 7.74367 78.9949 4.9095 75.0861 2.95905C71.1773 1.00859 66.8678 -0.00452186 62.4994 1.51716e-05Z" fill="#FFCD00"/>
<path d="M62.4992 0.00012207C61.9711 0.00012207 61.457 0.0501223 60.9367 0.0798098C68.1331 0.471295 74.9037 3.61408 79.8477 8.85798C84.7917 14.1019 87.5307 21.0456 87.4982 28.2526C87.4657 35.4595 84.6641 42.3782 79.673 47.5773C74.6819 52.7764 67.8832 55.858 60.6836 56.1845C61.2836 56.222 61.8883 56.2501 62.4992 56.2501C69.9584 56.2501 77.1121 53.287 82.3866 48.0125C87.6611 42.738 90.6242 35.5843 90.6242 28.1251C90.6242 20.6659 87.6611 13.5122 82.3866 8.23774C77.1121 2.96328 69.9584 0.000122181 62.4992 0.00012207Z" fill="#EBBF00"/>
<path d="M25.8754 51.4531C26.5234 51.0388 26.9972 50.4015 27.2074 49.6616C27.4176 48.9218 27.3495 48.1306 27.016 47.4375L17.4379 27.7187C17.2553 27.3435 16.9995 27.0087 16.6855 26.734C16.3715 26.4593 16.0056 26.2502 15.6095 26.1191C15.2134 25.9881 14.7951 25.9376 14.3791 25.9708C13.9632 26.0041 13.5582 26.1202 13.1879 26.3125C12.3566 26.7265 11.4129 27.25 10.4238 27.8468L22.8629 53.35L25.8754 51.4531Z" fill="#3D9AE2"/>
<path d="M34.6562 71.9219C34.2451 72.5778 33.6061 73.0586 32.862 73.272C32.118 73.4854 31.3213 73.4164 30.625 73.0782C27.8124 71.6658 25.2181 69.8556 22.9219 67.7032C20.7695 65.407 18.9592 62.8126 17.5469 60C17.2086 59.3038 17.1396 58.5071 17.353 57.763C17.5664 57.0189 18.0473 56.3799 18.7031 55.9688L22.8625 53.35L10.4234 27.8469C5.73906 30.6922 0 35.4688 0 40.625V42.1875C0.226314 54.9632 5.40219 67.1525 14.4374 76.1877C23.4726 85.2229 35.6618 90.3987 48.4375 90.625H50C55.1562 90.625 59.9328 84.886 62.7781 80.2016L37.2984 67.7251L34.6562 71.9219Z" fill="#1A6FB0"/>
<path d="M37.2984 67.725L36.5625 68.8953L58.0781 79.4297C58.2796 79.5276 58.4576 79.6676 58.6002 79.8403C58.7428 80.0131 58.8465 80.2144 58.9045 80.4308C58.9624 80.6471 58.9732 80.8734 58.936 81.0943C58.8988 81.3151 58.8146 81.5254 58.6891 81.7109C55.8906 85.889 51.7687 90.3047 47.3234 90.5937C47.6953 90.6047 48.0656 90.625 48.4375 90.625H50C55.1562 90.625 59.9328 84.8859 62.7781 80.2015L37.2984 67.725Z" fill="#17619A"/>
<path d="M19.1227 52.0907C19.2912 52.4368 19.3261 52.833 19.2206 53.2032C19.115 53.5735 18.8765 53.8917 18.5508 54.0969L15.582 55.9719C14.9262 56.3831 14.4454 57.0221 14.2319 57.7661C14.0185 58.5102 14.0876 59.3069 14.4258 60.0032C15.8381 62.8157 17.6484 65.4101 19.8008 67.7063C22.097 69.8587 24.6913 71.669 27.5039 73.0813C27.9631 73.3042 28.47 73.4108 28.9801 73.3917C29.4901 73.3726 29.9877 73.2285 30.4289 72.9719C27.6947 71.5766 25.17 69.804 22.9289 67.7063C20.7765 65.4101 18.9662 62.8157 17.5539 60.0032C17.2157 59.3069 17.1466 58.5102 17.3601 57.7661C17.5735 57.0221 18.0543 56.3831 18.7102 55.9719L22.8695 53.3532L10.4242 27.8469C9.65391 28.3157 8.86172 28.8391 8.05859 29.4094L19.1227 52.0907Z" fill="#17619A"/>
<path d="M62.9062 73.1875L43.1875 63.6093C42.4944 63.2759 41.7032 63.2078 40.9633 63.418C40.2235 63.6281 39.5862 64.102 39.1719 64.75L37.2969 67.7187L62.7766 80.1953C63.3766 79.2062 63.8969 78.2609 64.3109 77.4312C64.5023 77.0613 64.6177 76.6569 64.6505 76.2417C64.6833 75.8266 64.6328 75.409 64.5019 75.0137C64.371 74.6183 64.1625 74.2531 63.8884 73.9395C63.6144 73.6259 63.2805 73.3702 62.9062 73.1875Z" fill="#3D9AE2"/>
<path d="M49.6875 28.75C50.3267 28.2706 50.8328 27.6357 51.1576 26.9057C51.4825 26.1757 51.6153 25.3748 51.5436 24.579C51.4718 23.7832 51.1978 23.019 50.7476 22.3589C50.2974 21.6988 49.686 21.1647 48.9713 20.8074C48.2567 20.45 47.4625 20.2813 46.6643 20.3172C45.8661 20.3532 45.0903 20.5925 44.4106 21.0126C43.731 21.4326 43.1699 22.0195 42.7808 22.7174C42.3917 23.4152 42.1875 24.201 42.1875 25C42.1875 25.4144 42.3521 25.8118 42.6451 26.1049C42.9382 26.3979 43.3356 26.5625 43.75 26.5625C44.1644 26.5625 44.5618 26.3979 44.8549 26.1049C45.1479 25.8118 45.3125 25.4144 45.3125 25C45.3125 24.7337 45.3806 24.4717 45.5103 24.2391C45.64 24.0065 45.827 23.8109 46.0535 23.6709C46.2801 23.5308 46.5387 23.4511 46.8048 23.4391C47.0708 23.4271 47.3355 23.4833 47.5738 23.6025C47.812 23.7216 48.0158 23.8996 48.1659 24.1196C48.3159 24.3397 48.4073 24.5944 48.4312 24.8597C48.4551 25.1249 48.4108 25.3919 48.3025 25.6352C48.1943 25.8786 48.0256 26.0902 47.8125 26.25L44.0625 29.0625C43.4818 29.5005 43.0103 30.0669 42.685 30.7175C42.3597 31.3681 42.1894 32.0851 42.1875 32.8125V34.375C42.1875 34.7894 42.3521 35.1868 42.6451 35.4799C42.9382 35.7729 43.3356 35.9375 43.75 35.9375H50C50.4144 35.9375 50.8118 35.7729 51.1049 35.4799C51.3979 35.1868 51.5625 34.7894 51.5625 34.375C51.5625 33.9606 51.3979 33.5632 51.1049 33.2701C50.8118 32.9771 50.4144 32.8125 50 32.8125H45.3125C45.3125 32.5699 45.369 32.3307 45.4775 32.1137C45.5859 31.8968 45.7434 31.708 45.9375 31.5625L49.6875 28.75Z" fill="#D80027"/>
<path d="M82.5344 20.9844C82.3905 20.777 82.1985 20.6075 81.9748 20.4905C81.7511 20.3735 81.5024 20.3124 81.25 20.3125H75C74.5856 20.3125 74.1882 20.4771 73.8951 20.7701C73.6021 21.0632 73.4375 21.4606 73.4375 21.875C73.4375 22.2894 73.6021 22.6868 73.8951 22.9799C74.1882 23.2729 74.5856 23.4375 75 23.4375H78.9953L75.0984 33.8266C75.0263 34.0187 74.9926 34.2232 74.9995 34.4284C75.0064 34.6335 75.0536 34.8353 75.1385 35.0222C75.2234 35.2091 75.3443 35.3774 75.4942 35.5176C75.6442 35.6577 75.8203 35.767 76.0125 35.8391C76.1888 35.9034 76.3749 35.9368 76.5625 35.9375C76.8808 35.9377 77.1915 35.8407 77.4532 35.6595C77.7148 35.4783 77.9149 35.2215 78.0266 34.9234L82.7141 22.4234C82.8027 22.1869 82.8326 21.9324 82.8013 21.6818C82.77 21.4312 82.6784 21.1919 82.5344 20.9844Z" fill="#D80027"/>
<path d="M72.3036 15.686C71.9054 15.5722 71.4783 15.6212 71.1161 15.8222C70.754 16.0232 70.4865 16.3597 70.3724 16.7578L64.1224 38.6328C64.0661 38.8302 64.0493 39.0368 64.0728 39.2407C64.0964 39.4446 64.1599 39.6418 64.2598 39.8212C64.3596 40.0005 64.4938 40.1585 64.6547 40.2859C64.8155 40.4134 65 40.5079 65.1974 40.5641C65.3364 40.6049 65.4806 40.6255 65.6255 40.625C65.9649 40.6249 66.2949 40.5143 66.5658 40.3099C66.8367 40.1055 67.0337 39.8185 67.1271 39.4922L73.3771 17.6172C73.4908 17.2188 73.4416 16.7915 73.2403 16.4293C73.039 16.0671 72.7021 15.7998 72.3036 15.686Z" fill="#D80027"/>
<path d="M62.5002 29.6875H60.9377V21.875C60.9378 21.5396 60.83 21.2131 60.6302 20.9438C60.4304 20.6744 60.1492 20.4765 59.8283 20.3792C59.5073 20.282 59.1636 20.2906 58.8479 20.4038C58.5322 20.517 58.2613 20.7288 58.0752 21.0078L51.8252 30.3828C51.6682 30.6181 51.5781 30.8916 51.5643 31.1742C51.5506 31.4567 51.6139 31.7377 51.7473 31.9871C51.8808 32.2365 52.0794 32.4451 52.3221 32.5904C52.5648 32.7358 52.8424 32.8125 53.1252 32.8125H57.8127V34.375C57.8127 34.7894 57.9774 35.1868 58.2704 35.4798C58.5634 35.7729 58.9608 35.9375 59.3752 35.9375C59.7896 35.9375 60.1871 35.7729 60.4801 35.4798C60.7731 35.1868 60.9377 34.7894 60.9377 34.375V32.8125H62.5002C62.9146 32.8125 63.3121 32.6479 63.6051 32.3548C63.8981 32.0618 64.0627 31.6644 64.0627 31.25C64.0627 30.8356 63.8981 30.4382 63.6051 30.1451C63.3121 29.8521 62.9146 29.6875 62.5002 29.6875ZM57.8127 29.6875H56.044L57.8127 27.0312V29.6875Z" fill="#D80027"/>
</svg>
