<svg width="28" height="29" viewBox="0 0 28 29" fill="none" xmlns="http://www.w3.org/2000/svg">
<path d="M3.07231 4.52948C2.77239 4.52948 2.5293 4.28655 2.5293 3.98647V3.44345C2.5293 3.14337 2.77233 2.9005 3.07231 2.9005H4.15828C5.95737 2.9005 7.41607 4.35915 7.41607 6.1584V12.674V17.5609C7.41607 18.4607 8.14545 19.1899 9.045 19.1899H22.0765C22.9762 19.1899 23.7054 18.4607 23.7054 17.5609V9.41614C23.7054 8.51632 22.976 7.78716 22.0765 7.78716H10.674C10.3742 7.78716 10.131 7.54435 10.131 7.24421V6.70136C10.131 6.40116 10.3742 6.15835 10.674 6.15835H22.0766C23.8758 6.15835 25.3345 7.61705 25.3345 9.41609V17.5608C25.3345 19.36 23.8758 20.8186 22.0766 20.8186H9.04522C7.24602 20.8186 5.78726 19.36 5.78726 17.5608V6.1584C5.78726 5.25847 5.05782 4.52931 4.15833 4.52931H3.07231V4.52948ZM10.674 16.475C10.3742 16.475 10.131 16.232 10.131 15.932V15.389C10.131 15.0888 10.3742 14.846 10.674 14.846H20.4476C20.7475 14.846 20.9906 15.0888 20.9906 15.389V15.932C20.9906 16.232 20.7475 16.475 20.4476 16.475H10.674ZM10.674 12.1311C10.3742 12.1311 10.131 11.8883 10.131 11.5881V11.0451C10.131 10.7449 10.3742 10.5021 10.674 10.5021H20.4476C20.7475 10.5021 20.9906 10.745 20.9906 11.0451V11.5881C20.9906 11.8883 20.7475 12.1311 20.4476 12.1311H10.674ZM22.6195 22.4477C23.5192 22.4477 24.2486 23.1769 24.2486 24.0766C24.2486 24.9764 23.519 25.7056 22.6195 25.7056C21.72 25.7056 20.9906 24.9765 20.9906 24.0766C20.9906 23.1768 21.72 22.4477 22.6195 22.4477ZM7.14462 22.2877C8.19418 22.2877 9.045 23.1388 9.04516 24.1881C9.04516 25.2375 8.19418 26.0886 7.14462 26.0886C6.09489 26.0886 5.24425 25.2376 5.24425 24.1881C5.2443 23.1388 6.09512 22.2877 7.14462 22.2877Z" fill="currentColor"/>
</svg>
