<svg width="45" height="45" viewBox="0 0 45 45" fill="none" xmlns="http://www.w3.org/2000/svg">
<g clip-path="url(#clip0_675_916)">
<path d="M15.6236 10.5663C15.4944 10.9642 15.6216 11.3906 15.9477 11.6528L18.8512 13.9865L17.8739 17.5811C17.7642 17.9847 17.912 18.4045 18.2506 18.6507C18.5893 18.8965 19.034 18.9073 19.384 18.6783L22.5007 16.638L25.6175 18.6783C25.7855 18.7883 25.9753 18.843 26.1647 18.843C26.37 18.843 26.5749 18.7787 26.7508 18.6507C27.0896 18.4047 27.2374 17.9847 27.1275 17.5811L26.1502 13.9866L29.0535 11.653C29.3798 11.3909 29.5071 10.9644 29.3777 10.5663C29.2484 10.1682 28.8948 9.89789 28.4769 9.87768L24.7562 9.69627L23.4339 6.21387C23.2855 5.82267 22.9191 5.5698 22.5006 5.5698C22.0822 5.5698 21.7158 5.82258 21.5674 6.21378L20.2451 9.69636L16.5247 9.87768C16.1066 9.89789 15.7529 10.1682 15.6236 10.5663ZM20.5803 11.0878C20.9769 11.0685 21.3241 10.8162 21.4648 10.4451L22.5006 7.71741L23.5363 10.4454C23.6772 10.8163 24.0246 11.0685 24.4208 11.0878L27.335 11.23L25.0607 13.0578C24.7513 13.3066 24.6187 13.7149 24.7229 14.0977L25.4883 16.9132L23.0471 15.3151C22.881 15.2065 22.6907 15.1522 22.5005 15.1522C22.3102 15.1522 22.1197 15.2066 21.9536 15.3152L19.5125 16.9132L20.278 14.0979C20.3822 13.7148 20.2496 13.3065 19.94 13.0578L17.6659 11.23L20.5803 11.0878ZM21.7974 3.28342V0.703125C21.7974 0.314824 22.1122 0 22.5006 0C22.8889 0 23.2037 0.314824 23.2037 0.703125V3.28342C23.2037 3.67172 22.8889 3.98654 22.5006 3.98654C22.1122 3.98654 21.7974 3.67172 21.7974 3.28342ZM26.0794 7.44926C25.8196 7.16071 25.8429 6.71607 26.1314 6.45627L29.0067 3.86719C29.2954 3.6073 29.7399 3.63059 29.9998 3.91922C30.2596 4.20776 30.2363 4.6524 29.9478 4.91221L27.0724 7.50129C26.938 7.62231 26.7697 7.6819 26.6021 7.6819C26.4098 7.6819 26.2182 7.60351 26.0794 7.44926ZM15.0013 3.91922C15.2611 3.63059 15.7056 3.6073 15.9944 3.86719L18.8698 6.45627C19.1583 6.71607 19.1816 7.16071 18.9218 7.44926C18.783 7.60342 18.5914 7.6819 18.399 7.6819C18.2314 7.6819 18.0632 7.62231 17.9287 7.50129L15.0533 4.91221C14.7647 4.6524 14.7415 4.20776 15.0013 3.91922ZM31.5211 11.6528L34.4246 13.9865L33.4473 17.5811C33.3376 17.9847 33.4854 18.4045 33.824 18.6507C34.1625 18.8965 34.6072 18.9072 34.9575 18.6783L38.0742 16.638L41.1909 18.6783C41.359 18.7883 41.5487 18.843 41.7381 18.843C41.9435 18.843 42.1483 18.7787 42.3242 18.6507C42.6628 18.4049 42.8107 17.9851 42.7009 17.5811L41.7236 13.9866L44.6269 11.653C44.9532 11.391 45.0804 10.9644 44.9511 10.5663C44.8218 10.1682 44.4681 9.89789 44.0503 9.87768L40.3296 9.69627L39.0075 6.21387C38.859 5.82267 38.4926 5.5698 38.0742 5.5698C37.6556 5.5698 37.2892 5.82258 37.1408 6.21378L35.8186 9.69627L32.0982 9.87759C31.68 9.8978 31.3263 10.1682 31.1971 10.5663C31.0677 10.9644 31.195 11.3909 31.5211 11.6528ZM36.1537 11.0878C36.5503 11.0685 36.8976 10.8162 37.0384 10.445L38.0741 7.71732L39.1096 10.4449C39.2505 10.8162 39.5978 11.0685 39.9943 11.0878L42.9085 11.2299L40.6345 13.0576C40.3249 13.3063 40.1921 13.7146 40.2964 14.0977L41.0618 16.9131L38.6206 15.315C38.4545 15.2064 38.2642 15.1521 38.0739 15.1521C37.8835 15.1521 37.6931 15.2065 37.5271 15.3151L35.086 16.9131L35.8515 14.0978C35.9556 13.7149 35.8231 13.3066 35.5135 13.0577L33.2394 11.2299L36.1537 11.0878ZM0.374089 11.6528L3.27756 13.9865L2.3003 17.5811C2.19061 17.9847 2.33836 18.4045 2.677 18.6507C3.01573 18.8965 3.46037 18.9073 3.81044 18.6783L6.92713 16.638L10.0439 18.6783C10.2119 18.7883 10.4017 18.843 10.5911 18.843C10.7964 18.843 11.0013 18.7787 11.1772 18.6507C11.5158 18.4049 11.6636 17.9851 11.5539 17.5811L10.5766 13.9866L13.4799 11.653C13.806 11.3912 13.9333 10.9647 13.804 10.5659C13.6745 10.168 13.3208 9.8978 12.9032 9.87759L9.18257 9.69618L7.86044 6.21387C7.71199 5.82267 7.34557 5.5698 6.92713 5.5698C6.50859 5.5698 6.14217 5.82258 5.99373 6.21378L4.67159 9.69627L0.951178 9.87759C0.533083 9.8978 0.179411 10.1682 0.0502117 10.5659C-0.0794269 10.9641 0.0477508 11.3908 0.374089 11.6528ZM5.00663 11.0878C5.40328 11.0685 5.75062 10.8162 5.89142 10.445L6.92704 7.71732L7.96256 10.4449C8.10345 10.8162 8.4508 11.0685 8.84727 11.0878L11.7615 11.2299L9.48747 13.0576C9.17783 13.3063 9.04511 13.7146 9.14935 14.0977L9.91479 16.9131L7.47354 15.315C7.30743 15.2064 7.11715 15.1521 6.92686 15.1521C6.73649 15.1521 6.54612 15.2065 6.38009 15.3151L3.93902 16.9131L4.70446 14.0978C4.80861 13.7149 4.67607 13.3066 4.36652 13.0577L2.09235 11.2299L5.00663 11.0878ZM44.8899 37.3476C44.3952 35.75 43.3819 34.3154 42.0365 33.308C41.3925 32.8257 40.6911 32.4501 39.9512 32.1841C40.977 31.3791 41.6379 30.1293 41.6379 28.7271C41.6379 26.3043 39.6668 24.3333 37.2441 24.3333C34.8213 24.3333 32.8502 26.3043 32.8502 28.7271C32.8502 30.1276 33.5096 31.3762 34.5333 32.1813C33.1612 32.6711 31.9457 33.5315 31.0149 34.691C30.5798 34.0823 30.078 33.517 29.5138 33.0068C28.377 31.9787 27.0429 31.2238 25.6062 30.7775C27.1297 29.7675 28.137 28.0381 28.137 26.0772C28.137 22.9693 25.6085 20.4409 22.5006 20.4409C19.3928 20.4409 16.8643 22.9693 16.8643 26.0772C16.8643 28.0381 17.8714 29.7675 19.395 30.7775C17.9582 31.2237 16.6241 31.9787 15.4873 33.0068C14.9232 33.517 14.4213 34.0823 13.9863 34.6909C13.0556 33.5313 11.84 32.6709 10.4679 32.1811C11.4915 31.3759 12.151 30.1273 12.151 28.7269C12.151 26.3041 10.1799 24.333 7.75716 24.333C5.33437 24.333 3.36325 26.3041 3.36325 28.7269C3.36325 30.1289 4.02419 31.3788 5.04987 32.1839C4.31001 32.4498 3.60864 32.8255 2.96449 33.3077C1.61915 34.315 0.605856 35.7497 0.11112 37.3473C-0.117484 38.0852 0.00916683 38.8341 0.467692 39.4562C0.92613 40.0781 1.60412 40.4205 2.37668 40.4205H12.0968V41.6895C12.0968 43.515 13.5819 45.0001 15.4073 45.0001H29.5938C31.4192 45.0001 32.9043 43.515 32.9044 41.6895V40.4209H42.6244C43.3971 40.4209 44.0751 40.0784 44.5334 39.4566C44.9918 38.8345 45.1185 38.0855 44.8899 37.3476ZM37.2441 25.7396C38.8914 25.7396 40.2317 27.0798 40.2317 28.7271C40.2317 30.3746 38.8914 31.7148 37.2441 31.7148C35.5967 31.7148 34.2565 30.3746 34.2565 28.7271C34.2565 27.0798 35.5967 25.7396 37.2441 25.7396ZM18.2706 26.0772C18.2706 23.7447 20.1682 21.8471 22.5006 21.8471C24.8331 21.8471 26.7307 23.7447 26.7307 26.0772C26.7307 28.4089 24.8343 30.3059 22.5029 30.3071C22.5021 30.3071 22.5013 30.3071 22.5006 30.3071C22.4998 30.3071 22.4991 30.3071 22.4983 30.3071C20.1669 30.3058 18.2706 28.4088 18.2706 26.0772ZM7.75716 25.7392C9.4045 25.7392 10.7447 27.0795 10.7447 28.7268C10.7447 30.3742 9.4045 31.7145 7.75716 31.7145C6.10974 31.7145 4.7695 30.3742 4.7695 28.7268C4.7695 27.0795 6.10974 25.7392 7.75716 25.7392ZM12.1881 39.0142H2.37676C2.05315 39.0142 1.79176 38.8822 1.59972 38.6217C1.40759 38.3612 1.35882 38.0724 1.45453 37.7633C2.31445 34.9864 4.84737 33.1207 7.75716 33.1207C9.95821 33.1207 11.9633 34.1842 13.1965 35.9844C12.7089 36.9316 12.3675 37.9524 12.1881 39.0142ZM31.4982 41.6894C31.4981 42.7395 30.6438 43.5938 29.5938 43.5938H15.4073C14.3573 43.5938 13.503 42.7395 13.503 41.6894V39.7556C14.0121 35.1687 17.8726 31.7145 22.4983 31.7134C22.4991 31.7134 22.4998 31.7135 22.5006 31.7135C22.5014 31.7135 22.5022 31.7134 22.5029 31.7134C27.1285 31.7146 30.9889 35.1687 31.4982 39.7556V41.6894ZM43.4015 38.6221C43.2094 38.8825 42.9481 39.0146 42.6244 39.0146H32.8132C32.6337 37.9527 32.2923 36.9318 31.8048 35.9846C33.0381 34.1844 35.0431 33.1211 37.244 33.1211C40.1538 33.1211 42.6867 34.9868 43.5467 37.7637C43.6424 38.0726 43.5935 38.3614 43.4015 38.6221Z" fill="#B113C0"/>
</g>
<defs>
<clipPath id="clip0_675_916">
<rect width="45" height="45" fill="white"/>
</clipPath>
</defs>
</svg>
