<svg width="74" height="74" viewBox="0 0 74 74" fill="none" xmlns="http://www.w3.org/2000/svg">
<path d="M73.1328 42.5826H0.867188C0.637195 42.5826 0.416623 42.4913 0.253993 42.3286C0.0913641 42.166 0 41.9454 0 41.7155C0 41.4855 0.0913641 41.2649 0.253993 41.1023C0.416623 40.9396 0.637195 40.8483 0.867188 40.8483H73.1328C73.3628 40.8483 73.5834 40.9396 73.746 41.1023C73.9086 41.2649 74 41.4855 74 41.7155C74 41.9454 73.9086 42.166 73.746 42.3286C73.5834 42.4913 73.3628 42.5826 73.1328 42.5826Z" fill="#6E55D5"/>
<path d="M73.1328 51.8326H0.867188C0.637195 51.8326 0.416623 51.7413 0.253993 51.5786C0.0913641 51.416 0 51.1954 0 50.9655C0 50.7355 0.0913641 50.5149 0.253993 50.3523C0.416623 50.1896 0.637195 50.0983 0.867188 50.0983H73.1328C73.3628 50.0983 73.5834 50.1896 73.746 50.3523C73.9086 50.5149 74 50.7355 74 50.9655C74 51.1954 73.9086 51.416 73.746 51.5786C73.5834 51.7413 73.3628 51.8326 73.1328 51.8326Z" fill="#6E55D5"/>
<path d="M9.23633 64.1381C8.55028 64.1381 7.87963 63.9346 7.3092 63.5535C6.73876 63.1723 6.29416 62.6306 6.03162 61.9967C5.76908 61.3629 5.70039 60.6655 5.83423 59.9926C5.96807 59.3197 6.29844 58.7017 6.78355 58.2165C7.26867 57.7314 7.88674 57.4011 8.55961 57.2672C9.23248 57.1334 9.92993 57.2021 10.5638 57.4646C11.1976 57.7271 11.7393 58.1717 12.1205 58.7422C12.5016 59.3126 12.7051 59.9833 12.7051 60.6693C12.7042 61.589 12.3385 62.4708 11.6882 63.1212C11.0378 63.7715 10.156 64.1372 9.23633 64.1381ZM9.23633 58.9367C8.8933 58.9367 8.55798 59.0384 8.27276 59.229C7.98755 59.4195 7.76525 59.6904 7.63398 60.0073C7.50271 60.3242 7.46836 60.673 7.53528 61.0094C7.6022 61.3458 7.76738 61.6549 8.00994 61.8974C8.2525 62.14 8.56153 62.3052 8.89797 62.3721C9.23441 62.439 9.58313 62.4047 9.90005 62.2734C10.217 62.1421 10.4878 61.9198 10.6784 61.6346C10.869 61.3494 10.9707 61.0141 10.9707 60.6711C10.9707 60.2111 10.788 59.7699 10.4627 59.4447C10.1375 59.1194 9.69631 58.9367 9.23633 58.9367Z" fill="#6E55D5"/>
<path d="M18.5 72.9334C17.8139 72.9334 17.1433 72.7299 16.5729 72.3488C16.0024 71.9676 15.5578 71.4259 15.2953 70.792C15.0328 70.1582 14.9641 69.4608 15.0979 68.7879C15.2317 68.115 15.5621 67.4969 16.0472 67.0118C16.5323 66.5267 17.1504 66.1963 17.8233 66.0625C18.4962 65.9287 19.1936 65.9974 19.8274 66.2599C20.4613 66.5224 21.003 66.967 21.3842 67.5375C21.7653 68.1079 21.9688 68.7785 21.9688 69.4646C21.9679 70.3843 21.6022 71.2661 20.9518 71.9164C20.3015 72.5668 19.4197 72.9325 18.5 72.9334ZM18.5 67.7302C18.157 67.7302 17.8217 67.8319 17.5364 68.0225C17.2512 68.2131 17.0289 68.484 16.8976 68.8009C16.7664 69.1178 16.732 69.4665 16.799 69.803C16.8659 70.1394 17.0311 70.4484 17.2736 70.691C17.5162 70.9335 17.8252 71.0987 18.1616 71.1657C18.4981 71.2326 18.8468 71.1982 19.1637 71.067C19.4806 70.9357 19.7515 70.7134 19.9421 70.4282C20.1327 70.143 20.2344 69.8076 20.2344 69.4646C20.234 69.0049 20.0511 68.5641 19.7259 68.2391C19.4007 67.9142 18.9597 67.7317 18.5 67.7317V67.7302Z" fill="#6E55D5"/>
<path d="M37 72.9334C36.3139 72.9334 35.6433 72.7299 35.0729 72.3488C34.5024 71.9676 34.0578 71.4259 33.7953 70.792C33.5328 70.1582 33.4641 69.4608 33.5979 68.7879C33.7317 68.115 34.0621 67.4969 34.5472 67.0118C35.0323 66.5267 35.6504 66.1963 36.3233 66.0625C36.9962 65.9287 37.6936 65.9974 38.3274 66.2599C38.9613 66.5224 39.503 66.967 39.8842 67.5375C40.2653 68.1079 40.4688 68.7785 40.4688 69.4646C40.4679 70.3843 40.1022 71.2661 39.4519 71.9164C38.8015 72.5668 37.9197 72.9325 37 72.9334ZM37 67.7302C36.657 67.7302 36.3217 67.8319 36.0364 68.0225C35.7512 68.2131 35.5289 68.484 35.3976 68.8009C35.2664 69.1178 35.232 69.4665 35.299 69.803C35.3659 70.1394 35.5311 70.4484 35.7736 70.691C36.0162 70.9335 36.3252 71.0987 36.6616 71.1657C36.9981 71.2326 37.3468 71.1982 37.6637 71.067C37.9806 70.9357 38.2515 70.7134 38.4421 70.4282C38.6327 70.143 38.7344 69.8076 38.7344 69.4646C38.734 69.0049 38.5511 68.5641 38.2259 68.2391C37.9007 67.9142 37.4597 67.7317 37 67.7317V67.7302Z" fill="#6E55D5"/>
<path d="M55.5 72.9334C54.8139 72.9334 54.1433 72.7299 53.5729 72.3488C53.0024 71.9676 52.5578 71.4259 52.2953 70.792C52.0328 70.1582 51.9641 69.4608 52.0979 68.7879C52.2317 68.115 52.5621 67.4969 53.0472 67.0118C53.5323 66.5267 54.1504 66.1963 54.8233 66.0625C55.4962 65.9287 56.1936 65.9974 56.8274 66.2599C57.4613 66.5224 58.003 66.967 58.3842 67.5375C58.7653 68.1079 58.9688 68.7785 58.9688 69.4646C58.9679 70.3843 58.6022 71.2661 57.9518 71.9164C57.3015 72.5668 56.4197 72.9325 55.5 72.9334ZM55.5 67.7302C55.157 67.7302 54.8217 67.8319 54.5364 68.0225C54.2512 68.2131 54.0289 68.484 53.8976 68.8009C53.7664 69.1178 53.732 69.4665 53.799 69.803C53.8659 70.1394 54.0311 70.4484 54.2736 70.691C54.5162 70.9335 54.8252 71.0987 55.1616 71.1657C55.4981 71.2326 55.8468 71.1982 56.1637 71.067C56.4806 70.9357 56.7515 70.7134 56.9421 70.4282C57.1327 70.143 57.2344 69.8076 57.2344 69.4646C57.234 69.0049 57.0511 68.5641 56.7259 68.2391C56.4007 67.9142 55.9597 67.7317 55.5 67.7317V67.7302Z" fill="#6E55D5"/>
<path d="M27.75 64.1381C27.0639 64.1381 26.3933 63.9346 25.8229 63.5535C25.2524 63.1723 24.8078 62.6306 24.5453 61.9967C24.2828 61.3629 24.2141 60.6655 24.3479 59.9926C24.4817 59.3197 24.8121 58.7017 25.2972 58.2165C25.7823 57.7314 26.4004 57.4011 27.0733 57.2672C27.7462 57.1334 28.4436 57.2021 29.0774 57.4646C29.7113 57.7271 30.253 58.1717 30.6342 58.7422C31.0153 59.3126 31.2188 59.9833 31.2188 60.6693C31.2179 61.589 30.8522 62.4708 30.2018 63.1212C29.5515 63.7715 28.6697 64.1372 27.75 64.1381ZM27.75 58.9367C27.407 58.9367 27.0717 59.0384 26.7864 59.229C26.5012 59.4195 26.2789 59.6904 26.1476 60.0073C26.0164 60.3242 25.982 60.673 26.049 61.0094C26.1159 61.3458 26.2811 61.6549 26.5236 61.8974C26.7662 62.14 27.0752 62.3052 27.4116 62.3721C27.7481 62.439 28.0968 62.4047 28.4137 62.2734C28.7306 62.1421 29.0015 61.9198 29.1921 61.6346C29.3827 61.3494 29.4844 61.0141 29.4844 60.6711C29.4844 60.2111 29.3016 59.7699 28.9764 59.4447C28.6511 59.1194 28.21 58.9367 27.75 58.9367Z" fill="#6E55D5"/>
<path d="M46.2637 64.1381C45.5776 64.1381 44.907 63.9346 44.3365 63.5535C43.7661 63.1723 43.3215 62.6306 43.059 61.9967C42.7964 61.3629 42.7277 60.6655 42.8616 59.9926C42.9954 59.3197 43.3258 58.7017 43.8109 58.2165C44.296 57.7314 44.9141 57.4011 45.587 57.2672C46.2598 57.1334 46.9573 57.2021 47.5911 57.4646C48.2249 57.7271 48.7667 58.1717 49.1478 58.7422C49.529 59.3126 49.7324 59.9833 49.7324 60.6693C49.7316 61.589 49.3659 62.4708 48.7155 63.1212C48.0652 63.7715 47.1834 64.1372 46.2637 64.1381ZM46.2637 58.9367C45.9206 58.9367 45.5853 59.0384 45.3001 59.229C45.0149 59.4195 44.7926 59.6904 44.6613 60.0073C44.5301 60.3242 44.4957 60.673 44.5626 61.0094C44.6295 61.3458 44.7947 61.6549 45.0373 61.8974C45.2798 62.14 45.5889 62.3052 45.9253 62.3721C46.2617 62.439 46.6105 62.4047 46.9274 62.2734C47.2443 62.1421 47.5152 61.9198 47.7058 61.6346C47.8963 61.3494 47.998 61.0141 47.998 60.6711C47.998 60.2111 47.8153 59.7699 47.4901 59.4447C47.1648 59.1194 46.7237 58.9367 46.2637 58.9367Z" fill="#6E55D5"/>
<path d="M64.7793 64.1381C64.0932 64.1381 63.4226 63.9346 62.8522 63.5535C62.2817 63.1723 61.8371 62.6306 61.5746 61.9967C61.312 61.3629 61.2434 60.6655 61.3772 59.9926C61.511 59.3197 61.8414 58.7017 62.3265 58.2165C62.8116 57.7314 63.4297 57.4011 64.1026 57.2672C64.7754 57.1334 65.4729 57.2021 66.1067 57.4646C66.7406 57.7271 67.2823 58.1717 67.6635 58.7422C68.0446 59.3126 68.248 59.9833 68.248 60.6693C68.2472 61.589 67.8815 62.4708 67.2311 63.1212C66.5808 63.7715 65.699 64.1372 64.7793 64.1381ZM64.7793 58.9367C64.4363 58.9367 64.1009 59.0384 63.8157 59.229C63.5305 59.4195 63.3082 59.6904 63.1769 60.0073C63.0457 60.3242 63.0113 60.673 63.0782 61.0094C63.1452 61.3458 63.3104 61.6549 63.5529 61.8974C63.7955 62.14 64.1045 62.3052 64.4409 62.3721C64.7774 62.439 65.1261 62.4047 65.443 62.2734C65.7599 62.1421 66.0308 61.9198 66.2214 61.6346C66.412 61.3494 66.5137 61.0141 66.5137 60.6711C66.5137 60.2111 66.3309 59.7699 66.0057 59.4447C65.6804 59.1194 65.2393 58.9367 64.7793 58.9367Z" fill="#6E55D5"/>
<path d="M14.2533 35.9727C14.0635 35.9728 13.8789 35.9106 13.7279 35.7958C13.5768 35.6809 13.4676 35.5197 13.417 35.3368L13.4141 35.3264C13.4112 35.3183 13.4086 35.3087 13.4054 35.2974C13.3014 34.9659 12.4836 32.5568 10.3876 31.4148C9.04609 30.6837 7.41578 30.6054 5.54208 31.1771C5.43248 31.2131 5.3168 31.2269 5.20181 31.2176C5.08683 31.2084 4.97484 31.1763 4.87243 31.1232C4.77001 31.0701 4.67921 30.9971 4.60535 30.9085C4.53149 30.8199 4.47605 30.7174 4.44228 30.6071C4.40851 30.4968 4.39709 30.3809 4.40869 30.2661C4.42028 30.1513 4.45466 30.04 4.50981 29.9387C4.56496 29.8374 4.63977 29.7481 4.72986 29.676C4.81995 29.604 4.92351 29.5506 5.03448 29.5191C6.90819 28.9456 8.21417 27.9668 8.91659 26.61C10.0913 24.3414 9.24005 21.6895 9.23138 21.6629C9.19658 21.5535 9.18386 21.4382 9.19397 21.3238C9.20408 21.2094 9.23681 21.0982 9.29027 20.9965C9.34373 20.8949 9.41684 20.8048 9.50538 20.7317C9.59391 20.6585 9.69609 20.6037 9.80599 20.5703C9.9159 20.537 10.0313 20.5258 10.1456 20.5374C10.2598 20.549 10.3707 20.5833 10.4716 20.6381C10.5725 20.6929 10.6616 20.7672 10.7335 20.8567C10.8055 20.9462 10.859 21.0491 10.8909 21.1594C10.8978 21.1843 11.6768 23.8581 13.9203 25.0805C15.2615 25.8107 16.8918 25.8899 18.7652 25.3176C18.8747 25.2819 18.9903 25.2684 19.105 25.2778C19.2198 25.2873 19.3316 25.3195 19.4338 25.3726C19.536 25.4258 19.6265 25.4987 19.7002 25.5872C19.7739 25.6757 19.8293 25.778 19.863 25.8881C19.8967 25.9982 19.9082 26.114 19.8967 26.2286C19.8852 26.3432 19.851 26.4543 19.7961 26.5556C19.7412 26.6568 19.6667 26.7461 19.5769 26.8182C19.4871 26.8903 19.3838 26.9438 19.2731 26.9756C17.3994 27.5494 16.0934 28.5282 15.391 29.885C14.2848 32.0215 14.9753 34.4979 15.067 34.8014L15.0704 34.813L15.0765 34.8321C15.1198 34.9624 15.1316 35.1012 15.1107 35.237C15.0899 35.3727 15.0371 35.5016 14.9567 35.613C14.8763 35.7244 14.7706 35.8151 14.6483 35.8776C14.526 35.9402 14.3906 35.9727 14.2533 35.9727ZM9.14061 29.1711C9.8741 29.297 10.5815 29.5443 11.2337 29.9027C11.9418 30.2955 12.5795 30.8035 13.1207 31.4058C13.232 30.6037 13.4762 29.8258 13.8434 29.104C14.1834 28.4419 14.6311 27.8409 15.1681 27.3257C14.4343 27.1996 13.7265 26.9522 13.0739 26.5938C12.3656 26.2011 11.7276 25.6931 11.1863 25.0907C11.075 25.8928 10.8307 26.6708 10.4637 27.3927C10.1241 28.0546 9.67697 28.6556 9.14061 29.1711Z" fill="#6E55D5"/>
<path d="M52.567 36.1921C52.4403 36.1922 52.3151 36.1646 52.2002 36.1111C52.0853 36.0576 51.9836 35.9796 51.9021 35.8825C51.8206 35.7855 51.7614 35.6718 51.7286 35.5494C51.6958 35.4269 51.6902 35.2988 51.7123 35.174C51.7146 35.1596 52.0013 33.3697 51.0376 32.0409C50.4647 31.2518 49.5362 30.7563 48.2782 30.5684C48.0729 30.5378 47.8854 30.4345 47.7497 30.2773C47.6141 30.1201 47.5393 29.9195 47.5391 29.7119C47.5391 29.6687 47.5423 29.6255 47.5486 29.5827C47.5654 29.4701 47.6043 29.3618 47.6629 29.2642C47.7216 29.1665 47.7989 29.0814 47.8905 29.0137C47.982 28.9459 48.086 28.8969 48.1966 28.8693C48.3071 28.8418 48.4219 28.8363 48.5346 28.8531C49.7978 29.041 50.8341 28.8366 51.6137 28.2435C52.911 27.2563 53.1622 25.4685 53.1642 25.452C53.1811 25.3394 53.22 25.2311 53.2786 25.1335C53.3373 25.0359 53.4146 24.9508 53.5062 24.8831C53.5978 24.8153 53.7018 24.7663 53.8123 24.7387C53.9228 24.7112 54.0377 24.7057 54.1504 24.7226C54.263 24.7394 54.3712 24.7783 54.4688 24.837C54.5665 24.8957 54.6516 24.973 54.7193 25.0646C54.7871 25.1561 54.8361 25.2601 54.8636 25.3707C54.8912 25.4812 54.8967 25.5961 54.8798 25.7087C54.8772 25.7229 54.5907 27.5124 55.5545 28.8413C56.1271 29.6304 57.0556 30.1259 58.3136 30.3138C58.519 30.3443 58.7065 30.4476 58.8422 30.6048C58.9779 30.762 59.0527 30.9626 59.053 31.1702C59.053 31.2135 59.0497 31.2567 59.0432 31.2995C59.0092 31.5269 58.8863 31.7316 58.7014 31.8684C58.5166 32.0052 58.2849 32.063 58.0575 32.0291C56.794 31.8403 55.7577 32.0455 54.9781 32.6387C53.6811 33.6258 53.4299 35.4137 53.4278 35.4302C53.4021 35.6404 53.3004 35.8339 53.1418 35.9743C52.9833 36.1147 52.7788 36.1921 52.567 36.1921ZM51.69 30.201C51.9758 30.4501 52.2318 30.7314 52.4528 31.0393C52.6931 31.3746 52.892 31.7377 53.0451 32.1207C53.3037 31.7992 53.6001 31.5101 53.9279 31.2596C54.229 31.0296 54.556 30.8356 54.9021 30.6814C54.6163 30.4324 54.3603 30.1511 54.1392 29.8432C53.8988 29.5079 53.6999 29.1448 53.5466 28.7618C53.2882 29.0833 52.9919 29.3725 52.6641 29.6229C52.3629 29.8527 52.036 30.0467 51.69 30.201Z" fill="#6E55D5"/>
<path d="M36.5089 16.5295C36.3877 16.5296 36.2679 16.5044 36.1571 16.4554C36.0464 16.4064 35.9471 16.3348 35.8657 16.2451C35.7843 16.1553 35.7226 16.0496 35.6845 15.9346C35.6465 15.8196 35.633 15.6979 35.6449 15.5773V15.5692C35.6449 15.56 35.6449 15.5499 35.6472 15.5403C35.6686 15.207 35.7671 12.7818 34.2955 11.0471C33.3538 9.93685 31.9304 9.30611 30.0651 9.17286C29.8465 9.15722 29.6419 9.05939 29.4925 8.89905C29.3431 8.7387 29.2599 8.52773 29.2598 8.30856C29.2598 8.28775 29.2598 8.26693 29.2618 8.24583C29.2694 8.13206 29.2994 8.02092 29.3502 7.91883C29.401 7.81674 29.4715 7.72573 29.5577 7.65106C29.6439 7.57639 29.744 7.51954 29.8523 7.48379C29.9605 7.44805 30.0748 7.43412 30.1885 7.44282C32.0547 7.57694 33.5529 7.15375 34.6436 6.18973C36.3594 4.67129 36.5982 2.23333 36.6216 1.92606V1.91045V1.89426C36.6383 1.66484 36.7455 1.45146 36.9195 1.30106C37.0057 1.22658 37.1057 1.16981 37.2138 1.13399C37.3219 1.09816 37.436 1.08398 37.5496 1.09226C37.6632 1.10053 37.7741 1.1311 37.8759 1.18222C37.9777 1.23334 38.0684 1.304 38.1428 1.39018C38.2173 1.47635 38.2741 1.57635 38.3099 1.68447C38.3457 1.79258 38.3599 1.9067 38.3516 2.02029V2.02839C38.3516 2.03764 38.3517 2.04775 38.3493 2.05874C38.3279 2.39232 38.2294 4.81726 39.701 6.55193C40.6428 7.66222 42.0661 8.29295 43.9314 8.4265C44.15 8.44213 44.3545 8.53991 44.5039 8.7002C44.6533 8.86049 44.7365 9.07139 44.7368 9.2905C44.7368 9.31132 44.7368 9.33213 44.7347 9.35323C44.7269 9.46691 44.6967 9.57792 44.6458 9.67988C44.5949 9.78184 44.5244 9.87275 44.4383 9.94737C44.3522 10.022 44.2521 10.0789 44.144 10.1147C44.0358 10.1505 43.9216 10.1647 43.808 10.1562C41.9418 10.0233 40.4436 10.4453 39.353 11.4093C37.6371 12.9278 37.3983 15.3657 37.3749 15.673V15.6886V15.7048C37.3634 15.927 37.2673 16.1363 37.1062 16.2897C36.9451 16.4431 36.7313 16.5289 36.5089 16.5295ZM34.0602 8.58779C34.653 8.95059 35.1834 9.40661 35.631 9.93829C36.116 10.5186 36.5038 11.1738 36.7791 11.8782C37.1522 11.2202 37.6294 10.627 38.1921 10.1216C38.7109 9.65914 39.3008 9.28327 39.9392 9.00838C39.3464 8.64559 38.816 8.18957 38.3684 7.65788C37.8834 7.07753 37.4957 6.4224 37.2203 5.71798C36.8472 6.37595 36.37 6.96917 35.8073 7.47461C35.2886 7.93698 34.6989 8.31285 34.0608 8.58779H34.0602Z" fill="#6E55D5"/>
<path d="M14.6678 12.4557H12.9141C12.6841 12.4557 12.4635 12.3643 12.3009 12.2017C12.1382 12.0391 12.0469 11.8185 12.0469 11.5885C12.0469 11.3585 12.1382 11.1379 12.3009 10.9753C12.4635 10.8127 12.6841 10.7213 12.9141 10.7213H14.6678C14.8978 10.7213 15.1184 10.8127 15.281 10.9753C15.4436 11.1379 15.535 11.3585 15.535 11.5885C15.535 11.8185 15.4436 12.0391 15.281 12.2017C15.1184 12.3643 14.8978 12.4557 14.6678 12.4557Z" fill="#6E55D5"/>
<path d="M16.4473 15.9852C16.2173 15.9852 15.9967 15.8938 15.8341 15.7312C15.6714 15.5686 15.5801 15.348 15.5801 15.118V13.3651C15.5801 13.1351 15.6714 12.9145 15.8341 12.7519C15.9967 12.5893 16.2173 12.4979 16.4473 12.4979C16.6773 12.4979 16.8978 12.5893 17.0605 12.7519C17.2231 12.9145 17.3145 13.1351 17.3145 13.3651V15.118C17.3145 15.348 17.2231 15.5686 17.0605 15.7312C16.8978 15.8938 16.6773 15.9852 16.4473 15.9852Z" fill="#6E55D5"/>
<path d="M19.9764 12.4548H18.2227C17.9927 12.4548 17.7721 12.3635 17.6095 12.2008C17.4468 12.0382 17.3555 11.8176 17.3555 11.5876C17.3555 11.3577 17.4468 11.1371 17.6095 10.9745C17.7721 10.8118 17.9927 10.7205 18.2227 10.7205H19.9764C20.2064 10.7205 20.427 10.8118 20.5896 10.9745C20.7522 11.1371 20.8436 11.3577 20.8436 11.5876C20.8436 11.8176 20.7522 12.0382 20.5896 12.2008C20.427 12.3635 20.2064 12.4548 19.9764 12.4548Z" fill="#6E55D5"/>
<path d="M16.4453 10.678C16.2153 10.678 15.9947 10.5866 15.8321 10.424C15.6695 10.2614 15.5781 10.0408 15.5781 9.81083V8.05737C15.5781 7.82738 15.6695 7.60681 15.8321 7.44418C15.9947 7.28155 16.2153 7.19019 16.4453 7.19019C16.6753 7.19019 16.8959 7.28155 17.0585 7.44418C17.2211 7.60681 17.3125 7.82738 17.3125 8.05737V9.81083C17.3125 10.0408 17.2211 10.2614 17.0585 10.424C16.8959 10.5866 16.6753 10.678 16.4453 10.678Z" fill="#6E55D5"/>
<path d="M62.2665 18.4026H60.5801C60.3501 18.4026 60.1295 18.3112 59.9669 18.1486C59.8043 17.986 59.7129 17.7654 59.7129 17.5354C59.7129 17.3054 59.8043 17.0848 59.9669 16.9222C60.1295 16.7596 60.3501 16.6682 60.5801 16.6682H62.2665C62.4965 16.6682 62.717 16.7596 62.8797 16.9222C63.0423 17.0848 63.1337 17.3054 63.1337 17.5354C63.1337 17.7654 63.0423 17.986 62.8797 18.1486C62.717 18.3112 62.4965 18.4026 62.2665 18.4026Z" fill="#6E55D5"/>
<path d="M63.9766 21.7976C63.7466 21.7976 63.526 21.7063 63.3634 21.5436C63.2007 21.381 63.1094 21.1604 63.1094 20.9305V19.2438C63.1094 19.0138 63.2007 18.7932 63.3634 18.6306C63.526 18.468 63.7466 18.3766 63.9766 18.3766C64.2066 18.3766 64.4271 18.468 64.5898 18.6306C64.7524 18.7932 64.8438 19.0138 64.8438 19.2438V20.9305C64.8438 21.1604 64.7524 21.381 64.5898 21.5436C64.4271 21.7063 64.2066 21.7976 63.9766 21.7976Z" fill="#6E55D5"/>
<path d="M67.3703 18.4017H65.6836C65.4536 18.4017 65.233 18.3104 65.0704 18.1477C64.9078 17.9851 64.8164 17.7645 64.8164 17.5345C64.8164 17.3046 64.9078 17.084 65.0704 16.9214C65.233 16.7587 65.4536 16.6674 65.6836 16.6674H67.3703C67.6003 16.6674 67.8208 16.7587 67.9835 16.9214C68.1461 17.084 68.2375 17.3046 68.2375 17.5345C68.2375 17.7645 68.1461 17.9851 67.9835 18.1477C67.8208 18.3104 67.6003 18.4017 67.3703 18.4017Z" fill="#6E55D5"/>
<path d="M63.9746 16.6933C63.7446 16.6933 63.524 16.602 63.3614 16.4394C63.1988 16.2767 63.1074 16.0562 63.1074 15.8262V14.1398C63.1074 13.9098 63.1988 13.6892 63.3614 13.5266C63.524 13.3639 63.7446 13.2726 63.9746 13.2726C64.2046 13.2726 64.4252 13.3639 64.5878 13.5266C64.7504 13.6892 64.8418 13.9098 64.8418 14.1398V15.8262C64.8418 16.0562 64.7504 16.2767 64.5878 16.4394C64.4252 16.602 64.2046 16.6933 63.9746 16.6933Z" fill="#6E55D5"/>
</svg>
