<svg width="66" height="66" viewBox="0 0 66 66" fill="none" xmlns="http://www.w3.org/2000/svg">
<g clip-path="url(#clip0_326_475)">
<path d="M35.1124 66.0001C29.3704 66.0001 23.1004 62.1721 18.2824 55.8361C12.8704 48.6421 9.90039 38.9401 9.90039 28.5121C9.90039 27.9181 10.3624 27.4561 10.9564 27.4561C11.5504 27.4561 12.0124 27.9181 12.0124 28.5121C12.0124 38.4781 14.8504 47.7181 19.9984 54.5821C24.4204 60.4561 30.0964 63.9541 35.1124 63.9541C35.7064 63.9541 36.1684 64.4161 36.1684 65.0101C36.1684 65.5381 35.7064 66.0001 35.1124 66.0001ZM36.1684 41.1841C36.1684 40.5901 35.7064 40.1281 35.1124 40.1281C34.7824 40.1281 32.1424 40.0621 32.1424 37.0921V23.4301C32.1424 19.0081 29.0404 15.5101 24.2224 14.3881C19.7344 13.3981 13.7944 14.7181 11.2204 20.0641C10.9564 20.5921 11.2204 21.1861 11.6824 21.4501C12.2104 21.7141 12.8044 21.4501 13.0684 20.9881C15.1144 16.6981 19.9984 15.6421 23.6944 16.4341C26.7304 17.0941 30.0304 19.3381 30.0304 23.4301V37.1581C30.0304 40.6561 32.6704 42.2401 35.1124 42.2401C35.7064 42.1741 36.1684 41.7121 36.1684 41.1841ZM27.4564 27.1921C27.8524 26.7961 27.8524 26.1361 27.3904 25.7401C26.9944 25.3441 26.3344 25.3441 25.9384 25.8061C23.7604 28.1161 19.3384 28.0501 16.7644 25.7401C16.3684 25.3441 15.7084 25.4101 15.3124 25.8061C14.9164 26.2021 14.9824 26.8621 15.3784 27.2581C17.0944 28.7761 19.3384 29.5681 21.5824 29.5681C23.7604 29.5021 26.0044 28.7101 27.4564 27.1921ZM43.5604 50.8201C44.0884 50.6221 44.3524 50.0281 44.1544 49.5001C43.9564 48.9721 43.3624 48.7081 42.7684 48.9061C41.6464 49.3681 40.5904 49.1041 39.0064 48.7081C38.6764 48.6421 38.3464 48.5101 37.9504 48.4441C37.2244 48.2461 36.4984 48.5101 35.9044 48.7741C35.6404 48.8401 35.3104 48.9721 35.1124 48.9721C34.9804 48.9721 34.6504 48.8401 34.3204 48.7741C33.7264 48.5761 33.0004 48.3121 32.2744 48.4441C31.8784 48.5101 31.5484 48.6421 31.2184 48.7081C29.5684 49.1041 28.5784 49.3681 27.4564 48.9061C26.9284 48.7081 26.3344 48.9721 26.0704 49.5001C25.8724 50.0281 26.1364 50.6221 26.6644 50.8201C28.4464 51.4801 29.8984 51.1501 31.7464 50.6881C32.0764 50.6221 32.4064 50.5561 32.8024 50.4241C32.9344 50.3581 33.3964 50.5561 33.6604 50.6881C34.1224 50.8861 34.5844 51.0181 35.1124 51.0181C35.6404 51.0181 36.1024 50.8201 36.5644 50.6881C36.8284 50.5561 37.2904 50.4241 37.4224 50.4241C37.8184 50.4901 38.1484 50.6221 38.4784 50.6881C39.6004 50.9521 40.5244 51.2161 41.5144 51.2161C42.1744 51.2161 42.8344 51.0841 43.5604 50.8201ZM39.3364 54.6481C39.8644 54.4501 40.1284 53.7901 39.8644 53.2621C39.6664 52.7341 39.0064 52.4701 38.4784 52.7341C37.8184 52.9981 36.4324 53.2621 35.1124 53.2621C33.7924 53.2621 32.4064 53.0641 31.7464 52.7341C31.2184 52.5361 30.6244 52.7341 30.3604 53.2621C30.1624 53.7901 30.3604 54.3841 30.8884 54.6481C31.8124 55.0441 33.4624 55.3081 35.1124 55.3081C36.7624 55.3081 38.4124 55.0441 39.3364 54.6481ZM56.1004 41.4481C56.1004 28.9741 49.8964 25.0801 43.8904 21.3841C37.7524 17.5561 31.9444 13.9261 31.9444 0.990082C31.9444 0.396082 31.4824 -0.065918 30.8884 -0.065918C30.2944 -0.065918 29.8324 0.396082 29.8324 0.990082C29.8324 15.0481 36.4324 19.1401 42.7684 23.1001C48.5104 26.6641 53.9884 30.0961 53.9884 41.3821C53.9884 41.9761 54.4504 42.4381 55.0444 42.4381C55.6384 42.4381 56.1004 42.0421 56.1004 41.4481Z" fill="#7EC891"/>
</g>
<defs>
<clipPath id="clip0_326_475">
<rect width="66" height="66" fill="white"/>
</clipPath>
</defs>
</svg>
