<svg width="70" height="70" viewBox="0 0 70 70" fill="none" xmlns="http://www.w3.org/2000/svg">
<g clip-path="url(#clip0_498_234)">
<path d="M43.0391 69.4531H11.4297C10.5547 69.4531 9.78906 68.7422 9.78906 67.8125V6.89062C9.78906 5.19531 10.4453 3.55469 11.6484 2.35156C12.8516 1.20313 14.4922 0.546875 16.1875 0.546875H53.7578C57.3125 0.546875 60.1562 3.44531 60.1562 6.94531V67.8672C60.1562 68.7422 59.4453 69.5078 58.5156 69.5078H43.0391V69.4531ZM56.9297 66.2266V6.94531C56.9297 5.19531 55.5078 3.77344 53.7578 3.77344H44.6797V66.2266H56.9297ZM40.8516 66.2266V3.77344H16.1875C14.4375 3.77344 13.0703 5.19531 13.0156 6.89062V66.1719H40.8516V66.2266ZM46.2656 50.8047V18.7578H49.5469V50.8047H46.2656ZM36.5312 50.8047V18.7578H39.8125V50.8047H36.5312ZM18.7031 42.4375C17.8281 42.4375 17.0625 41.7266 17.0625 40.7969V25.2656C17.0625 24.3906 17.7734 23.625 18.7031 23.625H33.0312C33.9062 23.625 34.6719 24.3359 34.6719 25.2656V40.7969C34.6719 41.6719 33.9609 42.4375 33.0312 42.4375H18.7031ZM31.4453 39.1562V37.8438H20.3438V39.1562H31.4453ZM31.4453 34.5625V26.9062H27.6719V30.5156H24.3906V26.9062H20.3438V34.6172H31.4453V34.5625Z" fill="#6E55D5"/>
</g>
<defs>
<clipPath id="clip0_498_234">
<rect width="70" height="70" fill="white"/>
</clipPath>
</defs>
</svg>
