<svg width="60" height="57" viewBox="0 0 60 57" fill="none" xmlns="http://www.w3.org/2000/svg">
<path d="M56.0528 3.63886C55.3321 3.14586 54.4955 2.82262 53.6136 2.69642C52.7317 2.57022 51.8303 2.64476 50.9856 2.91377L38.4747 6.83369C38.1688 6.52165 37.7971 6.27263 37.3831 6.10241C36.9692 5.9322 36.522 5.84451 36.07 5.84492H23.9293C23.4773 5.84451 23.0301 5.9322 22.6162 6.10241C22.2022 6.27263 21.8305 6.52165 21.5247 6.83369L9.01372 2.91377C8.16782 2.64983 7.26714 2.57804 6.38584 2.70431C5.50455 2.83058 4.66786 3.1513 3.94466 3.64006C3.22146 4.12883 2.63244 4.77164 2.2261 5.51559C1.81977 6.25954 1.60774 7.08333 1.60748 7.91914V14.5461C1.60272 15.567 1.91718 16.5669 2.51201 17.4221C3.10683 18.2773 3.95593 18.9504 4.95435 19.3581V48.3356C4.95559 49.7339 5.54862 51.0745 6.60325 52.0632C7.65787 53.0519 9.08789 53.6079 10.5794 53.6091H49.42C50.9114 53.6079 52.3415 53.0519 53.3961 52.0632C54.4507 51.0745 55.0437 49.7339 55.045 48.3356V19.3581C56.0434 18.9504 56.8925 18.2773 57.4873 17.4221C58.0821 16.5669 58.3966 15.567 58.3918 14.5461V7.91914C58.397 7.08207 58.1871 6.25615 57.78 5.51115C57.3729 4.76615 56.7804 4.12397 56.0528 3.63886ZM6.19185 15.2228C5.99986 15.4574 5.82299 15.7024 5.66216 15.9567C5.38144 16.4122 5.18343 16.9082 5.07623 17.4245C4.58257 17.1009 4.17978 16.67 3.90225 16.1688C3.62472 15.6676 3.4807 15.1108 3.48248 14.5461V7.91914C3.48123 6.98825 3.87384 6.09491 4.57419 5.43503C5.27455 4.77515 6.22548 4.40261 7.21841 4.39912C7.62791 4.39997 8.03462 4.46228 8.4231 4.58369L20.695 8.4289C20.6705 8.59212 20.6548 8.75639 20.6481 8.92109V13.2409H10.5794C9.44179 13.2481 8.33222 13.5724 7.39185 14.1726C6.93585 14.4618 6.53095 14.8162 6.19185 15.2228ZM22.6356 51.8513H10.5794C9.58521 51.85 8.63217 51.4792 7.92921 50.8201C7.22624 50.1611 6.83071 49.2676 6.82935 48.3356V40.3464H22.6356V51.8513ZM22.6356 38.5886H6.82935V28.2922H22.6356V38.5886ZM6.82935 26.5344V18.5144C6.83071 17.5823 7.22624 16.6889 7.92921 16.0298C8.63217 15.3708 9.58521 15 10.5794 14.9987H21.0512C21.409 15.6021 21.9645 16.0813 22.6356 16.3654V26.5344H6.82935ZM35.4887 51.8513H24.5106V16.6159H35.4887V51.8513ZM36.07 14.8581H23.9293C23.7195 14.8596 23.5123 14.8144 23.3247 14.7263C23.0134 14.5908 22.7676 14.3509 22.6356 14.0539C22.5681 13.8895 22.5301 13.7158 22.5231 13.5397V8.92109C22.5315 8.6426 22.6259 8.37239 22.795 8.14326C22.9252 7.9757 23.0959 7.83938 23.293 7.74544C23.4902 7.6515 23.7082 7.6026 23.9293 7.60273H36.07C36.2911 7.6026 36.5092 7.6515 36.7063 7.74544C36.9035 7.83938 37.0741 7.9757 37.2044 8.14326C37.3788 8.36982 37.4739 8.64165 37.4762 8.92109V13.5397C37.475 13.7037 37.4416 13.8661 37.3778 14.0187L37.3637 14.0539C37.3066 14.248 37.1911 14.4225 37.0309 14.5566C36.8706 14.6906 36.6726 14.7785 36.4604 14.8098C36.4604 14.8098 36.1075 14.8581 36.07 14.8581ZM53.17 48.3356C53.1686 49.2676 52.7731 50.1611 52.0701 50.8201C51.3672 51.4792 50.4141 51.85 49.42 51.8513H37.3637V40.3464H53.17V48.3356ZM53.17 38.5886H37.3637V28.2922H53.17V38.5886ZM53.17 26.5344H37.3637V16.3654C38.0448 16.0958 38.6049 15.6127 38.9481 14.9987H49.42C50.4141 15 51.3672 15.3708 52.0701 16.0298C52.7731 16.6889 53.1686 17.5823 53.17 18.5144V26.5344ZM56.5168 14.5461C56.5186 15.1108 56.3746 15.6676 56.0971 16.1688C55.8195 16.67 55.4168 17.1009 54.9231 17.4245C54.8628 17.1273 54.7685 16.8371 54.6418 16.5588C54.3347 15.8495 53.8696 15.2097 53.2778 14.6823C52.7807 14.2629 52.2179 13.9176 51.609 13.6584C51.2987 13.5348 50.9771 13.4377 50.6481 13.3684C50.2449 13.2841 49.8331 13.2414 49.42 13.2409H39.3512V8.92109C39.3512 8.85078 39.3184 8.49043 39.3043 8.4289L51.5762 4.58369C52.1402 4.40572 52.7414 4.3563 53.3298 4.43952C53.9182 4.52274 54.4771 4.7362 54.96 5.06222C55.4429 5.38824 55.836 5.81744 56.1068 6.31426C56.3775 6.81108 56.5181 7.36123 56.5168 7.91914V14.5461Z" fill="black"/>
</svg>
