<svg width="50" height="50" viewBox="0 0 50 50" fill="none" xmlns="http://www.w3.org/2000/svg">
<g clip-path="url(#clip0_390_438)">
<path d="M45.2425 41.3372C45.0569 41.75 44.6509 41.9947 44.2259 41.9947C44.0732 41.9947 43.9181 41.9631 43.7697 41.8965L42.8452 41.4809C42.2842 41.2286 42.0337 40.5693 42.2859 40.0083C42.5383 39.447 43.1977 39.1972 43.7586 39.449L44.6831 39.8646C45.2444 40.1169 45.4949 40.7762 45.2425 41.3372ZM13.2643 10.2145C11.2384 10.2145 9.59012 11.9513 9.59012 14.086C9.59012 14.7012 10.0888 15.1999 10.704 15.1999C11.3192 15.1999 11.8179 14.7012 11.8179 14.086C11.8179 13.1797 12.4668 12.4423 13.2643 12.4423C13.8795 12.4423 14.3782 11.9436 14.3782 11.3284C14.3782 10.7132 13.8794 10.2145 13.2643 10.2145ZM43.5513 33.2588C43.6827 33.2588 43.8164 33.2354 43.9463 33.1859L44.8941 32.8261C45.4691 32.6078 45.7585 31.9646 45.5402 31.3895C45.3217 30.8144 44.6789 30.5247 44.1035 30.7434L43.1557 31.1032C42.5807 31.3215 42.2915 31.9647 42.5097 32.5398C42.6787 32.9849 43.102 33.2588 43.5513 33.2588ZM6.61644 37.2596V40.5247C6.61644 42.3251 8.08107 43.7899 9.88146 43.7899H22.6805C23.2958 43.7899 23.7944 44.2885 23.7944 44.9038C23.7944 45.519 23.2958 46.0176 22.6805 46.0176H9.88146C6.85271 46.0176 4.38869 43.5536 4.38869 40.5247V36.1925C4.38807 36.177 4.3877 36.1614 4.3877 36.1457C4.3877 36.13 4.38794 36.1144 4.38869 36.0989V18.6765C4.38807 18.661 4.3877 18.6455 4.3877 18.6297C4.3877 18.614 4.38794 18.5984 4.38869 18.583V11.1092C4.38869 8.46188 6.27114 6.24613 8.76759 5.72979V1.11388C8.76759 0.498646 9.26623 0 9.88146 0H27.3976C28.0128 0 28.5114 0.498646 28.5114 1.11388V5.72979C31.0079 6.24613 32.8903 8.46188 32.8903 11.1092V26.2172C32.8903 26.8325 32.3917 27.3311 31.7765 27.3311C31.1612 27.3311 30.6626 26.8325 30.6626 26.2172V19.7436H6.61644V35.0317H22.6805C23.2958 35.0317 23.7944 35.5304 23.7944 36.1456C23.7944 36.7608 23.2958 37.2595 22.6805 37.2595H6.61644V37.2596ZM10.9953 5.6163H26.2837V2.22776H10.9953V5.6163ZM6.61644 17.5159H30.6626V11.1092C30.6626 9.3088 29.198 7.84405 27.3976 7.84405H9.88146C8.08107 7.84405 6.61644 9.3088 6.61644 11.1092V17.5159ZM9.59037 23.0088V31.7667C9.59037 32.3819 10.089 32.8806 10.7042 32.8806C11.3195 32.8806 11.8181 32.3819 11.8181 31.7667V23.0088C11.8181 22.3935 11.3195 21.8949 10.7042 21.8949C10.089 21.8949 9.59037 22.3937 9.59037 23.0088ZM37.5899 35.7492V44.5076C37.5899 47.5362 35.1259 50.0001 32.0973 50.0001C29.0681 50.0001 26.6042 47.5362 26.6042 44.5076V40.1513C26.6041 40.1435 26.604 40.136 26.604 40.1282C26.604 40.1204 26.6041 40.1129 26.6042 40.1051V35.7492C26.6042 32.7204 29.0681 30.2564 32.0968 30.2564H32.0973C35.1259 30.2564 37.5899 32.7204 37.5899 35.7492ZM35.3622 35.7492C35.3622 33.9488 33.8975 32.4841 32.0973 32.4841H32.0968C30.2966 32.4841 28.832 33.9488 28.832 35.7492V39.0143H32.097C32.7122 39.0143 33.2109 39.513 33.2109 40.1282C33.2109 40.7434 32.7122 41.2421 32.097 41.2421H28.832V44.5076C28.832 46.3077 30.2966 47.7724 32.0968 47.7724C33.8975 47.7724 35.3622 46.3077 35.3622 44.5076V35.7492ZM38.716 24.1445C38.1553 23.8923 37.4957 24.1426 37.2434 24.7038L36.8278 25.6285C36.5756 26.1896 36.8259 26.8489 37.3871 27.1011C37.5353 27.1677 37.6904 27.1993 37.8433 27.1993C38.2683 27.1993 38.6742 26.9546 38.8599 26.5419L39.2755 25.6172C39.5276 25.0561 39.2771 24.3968 38.716 24.1445Z" fill="black"/>
</g>
<defs>
<clipPath id="clip0_390_438">
<rect width="50" height="50" fill="white"/>
</clipPath>
</defs>
</svg>
