<svg width="44" height="45" viewBox="0 0 44 45" fill="none" xmlns="http://www.w3.org/2000/svg">
<g clip-path="url(#clip0_390_333)">
<path d="M36.6667 24.5412H35.7501V22.7078H36.6667C37.4946 22.7086 38.312 22.5225 39.058 22.1634C39.8039 21.8043 40.4592 21.2814 40.9748 20.6337C41.4905 19.986 41.8533 19.2303 42.0362 18.4228C42.2191 17.6154 42.2174 16.7771 42.0311 15.9704C41.8448 15.1637 41.4789 14.4095 40.9605 13.764C40.4421 13.1185 39.7847 12.5983 39.0372 12.2423C38.2898 11.8863 37.4716 11.7036 36.6437 11.7079C35.8159 11.7122 34.9996 11.9033 34.2559 12.267L33.4492 10.6262C34.4408 10.1389 35.5297 9.88202 36.6345 9.87467C37.7393 9.86733 38.8315 10.1097 39.8295 10.5837C40.8275 11.0577 41.7055 11.7511 42.3979 12.6121C43.0903 13.4731 43.5792 14.4793 43.8281 15.5558C44.077 16.6322 44.0795 17.751 43.8353 18.8285C43.5911 19.906 43.1066 20.9145 42.418 21.7785C41.7294 22.6425 40.8545 23.3397 39.8586 23.8181C38.8627 24.2965 37.7716 24.5437 36.6667 24.5412Z" fill="#DBDBDB"/>
<path d="M8.25027 24.541C6.96785 24.5421 5.70283 24.2442 4.55564 23.671C3.40846 23.0978 2.41069 22.2651 1.64157 21.2389C0.872449 20.2127 0.353146 19.0213 0.124893 17.7594C-0.103361 16.4975 -0.0342797 15.1997 0.326652 13.9691C0.687583 12.7385 1.33043 11.609 2.20414 10.6703C3.07786 9.73154 4.15839 9.00942 5.35994 8.56123C6.5615 8.11305 7.85099 7.95115 9.12605 8.08839C10.4011 8.22564 11.6266 8.65823 12.7053 9.35185C13.8487 10.0971 14.7927 11.1103 15.4553 12.3035L13.8511 13.2202C13.3082 12.2241 12.5109 11.3897 11.5404 10.8022C10.57 10.2146 9.46115 9.8948 8.32687 9.87537C7.19258 9.85595 6.07342 10.1376 5.08345 10.6916C4.09347 11.2456 3.26806 12.0522 2.69135 13.0291C2.11463 14.006 1.80723 15.1184 1.80046 16.2528C1.79369 17.3872 2.08779 18.5032 2.65281 19.4869C3.21782 20.4707 4.03354 21.287 5.01683 21.8528C6.00012 22.4186 7.11584 22.7136 8.25027 22.7077V24.541Z" fill="#DBDBDB"/>
<path d="M34.4762 15.5119L32.6979 15.0719C32.8993 14.2717 33.0009 13.4496 33.0004 12.6244C33.0004 12.2761 33.0004 11.9186 32.9454 11.5427C32.6849 9.17981 31.598 6.98488 29.8765 5.34548C28.1549 3.70608 25.9095 2.72764 23.5367 2.5829C21.1639 2.43816 18.8162 3.13643 16.9082 4.55444C15.0001 5.97244 13.6545 8.01898 13.1087 10.3327L11.2754 9.92024C11.9227 7.18851 13.5137 4.77302 15.7678 3.09962C18.0219 1.42623 20.7945 0.602391 23.5966 0.773348C26.3988 0.944305 29.0506 2.09908 31.0846 4.03409C33.1186 5.9691 34.4041 8.56008 34.7146 11.3502C34.7764 11.7726 34.8162 12.1979 34.8337 12.6244C34.8352 13.598 34.7151 14.568 34.4762 15.5119Z" fill="#DBDBDB"/>
<path d="M22.0007 32.7911C21.2755 32.7911 20.5665 32.5761 19.9636 32.1732C19.3606 31.7703 18.8906 31.1976 18.6131 30.5276C18.3356 29.8576 18.263 29.1204 18.4044 28.4091C18.5459 27.6978 18.8951 27.0445 19.4079 26.5317C19.9207 26.0189 20.5741 25.6697 21.2853 25.5282C21.9966 25.3867 22.7338 25.4594 23.4038 25.7369C24.0738 26.0144 24.6465 26.4844 25.0494 27.0873C25.4523 27.6903 25.6673 28.3992 25.6673 29.1244C25.6673 30.0969 25.281 31.0295 24.5934 31.7172C23.9057 32.4048 22.9731 32.7911 22.0007 32.7911ZM22.0007 27.2911C21.6381 27.2911 21.2836 27.3986 20.9821 27.6001C20.6806 27.8015 20.4456 28.0878 20.3069 28.4228C20.1681 28.7578 20.1318 29.1265 20.2025 29.4821C20.2733 29.8377 20.4479 30.1644 20.7043 30.4208C20.9607 30.6772 21.2874 30.8518 21.643 30.9225C21.9986 30.9933 22.3672 30.957 22.7022 30.8182C23.0372 30.6795 23.3236 30.4445 23.525 30.143C23.7265 29.8415 23.834 29.487 23.834 29.1244C23.834 28.6382 23.6408 28.1719 23.297 27.8281C22.9532 27.4843 22.4869 27.2911 22.0007 27.2911Z" fill="#DBDBDB"/>
<path d="M19.8806 31.0991L15.7002 38.7698L17.31 39.6471L21.4904 31.9765L19.8806 31.0991Z" fill="#DBDBDB"/>
<path d="M29.8028 23.7345L23.9541 26.9858L24.8449 28.5882L30.6936 25.3369L29.8028 23.7345Z" fill="#DBDBDB"/>
<path d="M34.8333 28.2078H33V30.0411H34.8333V28.2078Z" fill="#DBDBDB"/>
<path d="M11.0003 28.2078H9.16699V30.0411H11.0003V28.2078Z" fill="#DBDBDB"/>
<path d="M22.9173 16.291H21.084V18.1243H22.9173V16.291Z" fill="#DBDBDB"/>
<path d="M22.9173 40.1245H21.084V41.9578H22.9173V40.1245Z" fill="#DBDBDB"/>
<path d="M22 44.7077C18.4367 44.7085 14.9808 43.4881 12.2081 41.2499C9.43546 39.0117 7.51362 35.8909 6.76289 32.4075C6.01215 28.9242 6.47787 25.2888 8.08243 22.1072C9.68698 18.9256 12.3334 16.39 15.5808 14.923C18.8281 13.456 22.4801 13.1461 25.9281 14.0452C29.3761 14.9442 32.4119 16.9977 34.5295 19.8636C36.6471 22.7294 37.7186 26.2344 37.5654 29.7944C37.4121 33.3544 36.0435 36.7544 33.6875 39.4277L32.3125 38.2177C34.5895 35.6358 35.8152 32.2937 35.7473 28.8519C35.6795 25.41 34.323 22.1189 31.946 19.6287C29.5689 17.1386 26.3443 15.6307 22.9094 15.4031C19.4744 15.1754 16.079 16.2445 13.3941 18.3991C10.7092 20.5537 8.93025 23.6371 8.40871 27.0398C7.88717 30.4426 8.66102 33.9172 10.5773 36.7771C12.4936 39.6369 15.413 41.6739 18.7585 42.4854C22.104 43.297 25.6322 42.8241 28.6459 41.1602L29.5625 42.7644C27.2475 44.0434 24.6449 44.7122 22 44.7077Z" fill="#DBDBDB"/>
<path d="M37.5837 40.1244H32.0837C31.8405 40.1244 31.6074 40.0279 31.4355 39.8559C31.2636 39.684 31.167 39.4509 31.167 39.2078V33.7078H33.0003V38.2911H37.5837V40.1244Z" fill="#DBDBDB"/>
</g>
<defs>
<clipPath id="clip0_390_333">
<rect width="44" height="44" fill="white" transform="translate(0 0.707764)"/>
</clipPath>
</defs>
</svg>
