<svg width="50" height="27" viewBox="0 0 50 27" fill="none" xmlns="http://www.w3.org/2000/svg">
<g clip-path="url(#clip0_390_451)">
<path d="M43.583 17.7779C43.6608 17.8114 43.7312 17.86 43.7904 17.9211C43.8495 17.9821 43.8962 18.0543 43.9278 18.1335C43.9593 18.2128 43.9751 18.2976 43.9743 18.383C43.9734 18.4684 43.9559 18.5528 43.9228 18.6314C43.8897 18.71 43.8415 18.7813 43.7812 18.8411C43.7208 18.9008 43.6494 18.948 43.571 18.9799C43.4926 19.0118 43.4087 19.0278 43.3242 19.0269C43.2397 19.0261 43.1562 19.0084 43.0785 18.9749C41.8578 18.4443 41.0196 17.3666 40.4702 15.9063C39.4913 15.2462 38.3537 14.8667 37.1784 14.8081C36.2845 14.802 35.4071 15.0515 34.6475 15.5279C35.121 16.0062 35.5104 16.5627 35.799 17.1733C35.844 17.251 35.8726 17.3373 35.8831 17.4267C35.8936 17.5161 35.8857 17.6068 35.8599 17.693C35.8341 17.7792 35.7909 17.859 35.7332 17.9276C35.6754 17.9962 35.6043 18.0519 35.5242 18.0914C35.4442 18.1309 35.3569 18.1532 35.2679 18.157C35.1789 18.1608 35.0901 18.146 35.007 18.1135C34.9239 18.0809 34.8484 18.0314 34.7851 17.968C34.7219 17.9046 34.6722 17.8287 34.6393 17.745C34.1891 16.7787 33.4191 16.0018 32.4624 15.5485C31.2846 15.0405 30.0048 14.8206 28.7271 14.9068C28.5641 14.8986 28.4102 14.8284 28.2963 14.7103C28.1824 14.5922 28.1167 14.435 28.1126 14.2701C28.1085 14.1052 28.1662 13.9448 28.2741 13.8211C28.382 13.6974 28.5322 13.6194 28.6945 13.6029C30.1767 13.5199 31.6573 13.7919 33.0158 14.3967C33.2071 14.4876 33.3932 14.5892 33.5733 14.7011C34.6263 13.9335 35.8923 13.5217 37.1906 13.5247C38.154 13.5489 39.1024 13.7715 39.9779 14.1787V14.1499C39.5771 11.8546 39.4067 9.52423 39.4693 7.19427C38.5863 7.49866 37.7114 7.79894 36.8244 8.09098C36.5156 8.25458 36.1721 8.34004 35.8234 8.34004C35.4748 8.34004 35.1313 8.25458 34.8225 8.09098C34.2652 7.73922 33.8421 7.20716 33.6221 6.58139L32.7635 5.18285C32.2549 4.32727 32.1898 3.53751 32.5764 2.81356C32.9263 2.16777 33.6343 1.62892 34.7126 1.20113C35.6729 0.863836 36.6861 0.534769 37.6545 0.226268C38.3541 -0.0535844 39.1301 -0.0681942 39.8395 0.185134C40.5412 0.478778 41.1325 0.990099 41.5282 1.64537C44.0021 3.25369 45.8006 5.62709 47.058 8.60104C48.3153 11.575 49.0233 15.1084 49.3447 19.0901C49.9103 20.7354 50.1586 22.0887 49.8819 23.1006C49.5523 24.2564 48.6327 24.9269 46.8627 25.0339C43.3291 25.9975 39.7156 26.6323 36.0676 26.9301C32.9141 27.1275 30.3058 26.8437 28.3364 26.0046C28.2515 25.9769 28.1731 25.9317 28.1063 25.8718C28.0395 25.812 27.9856 25.7388 27.9481 25.6569C27.9106 25.575 27.8903 25.4861 27.8884 25.3959C27.8866 25.3057 27.9032 25.216 27.9373 25.1326C27.9714 25.0492 28.0222 24.9738 28.0865 24.9112C28.1508 24.8486 28.2272 24.8001 28.3109 24.7688C28.3947 24.7375 28.4839 24.7241 28.573 24.7293C28.6622 24.7346 28.7492 24.7584 28.8288 24.7994C30.6273 25.5604 33.0443 25.8154 36.0025 25.6221C39.5877 25.3257 43.1385 24.6979 46.6104 23.7464H46.7365C47.9043 23.6847 48.4821 23.335 48.6489 22.7551C48.8565 22.027 48.6164 20.9123 48.124 19.4891C48.0973 19.422 48.0809 19.3513 48.0752 19.2793C47.77 15.3963 47.0824 11.9534 45.8861 9.11932C44.6898 6.28523 43.0378 4.13395 40.7388 2.67782C40.6498 2.62693 40.5744 2.55494 40.5191 2.46804C40.265 1.99934 39.8683 1.62579 39.3879 1.40268C38.9638 1.2603 38.5033 1.27636 38.0899 1.44793L35.1683 2.41868C34.3952 2.72718 33.9069 3.06448 33.7157 3.42645C33.6395 3.60603 33.6133 3.80322 33.6399 3.99675C33.6664 4.19028 33.7447 4.37283 33.8662 4.52471L34.7411 5.94793C34.7625 5.98505 34.7815 6.02352 34.798 6.0631C34.9053 6.43274 35.1297 6.75649 35.4369 6.98449C35.5742 7.04241 35.723 7.06699 35.8714 7.05628C36.0198 7.04556 36.1636 6.99985 36.2914 6.92279L36.3931 6.87755L36.6332 6.79939C36.7186 6.45387 36.8 6.16594 36.8692 5.92736C36.9587 5.60652 37.1906 5.6929 37.1011 5.55716C36.9099 5.27334 37.0563 5.9397 36.5111 6.16182L36.3239 6.23998C36.1653 6.30434 35.9878 6.30237 35.8307 6.23448C35.6735 6.1666 35.5494 6.03837 35.4857 5.878C35.422 5.71764 35.424 5.53827 35.4911 5.37936C35.5583 5.22045 35.6851 5.09502 35.8438 5.03065L36.0309 4.9525C37.2517 4.45479 37.7766 4.24089 38.1712 4.83321C38.4113 5.1993 38.3015 5.59007 38.1102 6.277V6.30168L39.9169 5.68468C39.9844 5.65913 40.0564 5.64793 40.1284 5.65177C40.2132 5.65231 40.297 5.66979 40.3751 5.7032C40.4532 5.73662 40.5239 5.78531 40.5833 5.84648C40.6427 5.90765 40.6895 5.98009 40.7211 6.05962C40.7527 6.13915 40.7684 6.22421 40.7673 6.30991C40.7307 9.144 40.8039 11.8094 41.2434 13.9031C41.6503 15.8446 42.3583 17.2637 43.5912 17.7985L43.583 17.7779ZM11.8976 6.28523V6.25643C11.7023 5.5695 11.5965 5.17874 11.8366 4.81265C12.2435 4.22033 12.7562 4.43422 13.9769 4.93193L14.1641 5.01009C14.2426 5.04196 14.3142 5.08916 14.3747 5.14899C14.4352 5.20882 14.4835 5.28011 14.5167 5.3588C14.55 5.43748 14.5676 5.52201 14.5685 5.60757C14.5694 5.69313 14.5537 5.77803 14.5222 5.85744C14.4906 5.93684 14.4439 6.00919 14.3848 6.07036C14.3256 6.13152 14.255 6.1803 14.1772 6.21392C14.0994 6.24753 14.0158 6.26531 13.9311 6.26626C13.8465 6.2672 13.7625 6.25128 13.6839 6.21941L13.4968 6.14126C12.9515 5.91914 13.0899 5.25278 12.9068 5.5366C12.8172 5.67234 13.0492 5.58596 13.1387 5.9068C13.2079 6.14537 13.2892 6.43331 13.3747 6.77883L13.6148 6.85698L13.7165 6.90223C13.8443 6.97928 13.9881 7.025 14.1365 7.03571C14.2849 7.04643 14.4337 7.02184 14.571 6.96393C14.8781 6.73592 15.1026 6.41217 15.2098 6.04254C15.2264 6.00295 15.2454 5.96448 15.2668 5.92736L16.1335 4.52471C16.2537 4.37203 16.3305 4.18909 16.3556 3.99558C16.3807 3.80207 16.3532 3.60531 16.2759 3.42645C16.086 3.06173 15.6032 2.72581 14.8273 2.41868L11.9099 1.44793C11.4965 1.27636 11.0359 1.2603 10.6118 1.40268C10.1314 1.62579 9.73476 1.99934 9.48065 2.46804C9.42876 2.55349 9.35766 2.62536 9.27313 2.67782C6.97821 4.13395 5.28957 6.33459 4.12584 9.11932C2.9621 11.9041 2.24188 15.3963 1.93671 19.2793C1.93106 19.3513 1.9146 19.422 1.88788 19.4891C1.39553 20.9123 1.15546 22.027 1.36298 22.7551C1.52981 23.3433 2.10761 23.6847 3.27541 23.7464C3.318 23.7492 3.36024 23.7561 3.40155 23.7669C6.87393 24.7153 10.4246 25.3418 14.0095 25.6385C16.9676 25.8236 19.3846 25.5686 21.1831 24.8158C21.2627 24.7749 21.3498 24.751 21.4389 24.7458C21.528 24.7405 21.6173 24.754 21.701 24.7852C21.7847 24.8165 21.8612 24.865 21.9255 24.9276C21.9898 24.9902 22.0406 25.0656 22.0746 25.149C22.1087 25.2325 22.1253 25.3221 22.1235 25.4123C22.1216 25.5026 22.1013 25.5914 22.0638 25.6733C22.0263 25.7553 21.9725 25.8284 21.9056 25.8883C21.8388 25.9481 21.7604 25.9933 21.6755 26.0211C19.6939 26.8437 17.0856 27.144 13.9444 26.9466C10.2919 26.6471 6.67432 26.0096 3.13707 25.0421C1.36705 24.9351 0.44745 24.2688 0.11786 23.1088C-0.17104 22.0969 0.0893766 20.7519 0.654969 19.0983C0.976421 15.1166 1.69257 11.5668 2.94175 8.60927C4.19094 5.65177 5.99758 3.26192 8.47154 1.64537C8.86971 0.986566 9.46561 0.473526 10.1724 0.181021C10.8818 -0.0723076 11.6579 -0.0576977 12.3574 0.222154C13.3259 0.530655 14.3391 0.859723 15.2993 1.19702C16.3654 1.64537 17.0897 2.16365 17.4234 2.80945C17.8303 3.5334 17.7448 4.32316 17.2362 5.17874L16.3776 6.58139C16.1637 7.21353 15.7432 7.7532 15.1854 8.11155C14.8766 8.27515 14.5331 8.36061 14.1844 8.36061C13.8358 8.36061 13.4923 8.27515 13.1835 8.11155C12.2964 7.8195 11.4216 7.51923 10.5386 7.21484C10.6009 9.54343 10.4305 11.8724 10.03 14.1664V14.1952C10.9054 13.7879 11.8538 13.5654 12.8172 13.5412C14.1155 13.5382 15.3816 13.9499 16.4346 14.7176C16.6116 14.6003 16.795 14.4932 16.9839 14.3967C18.3444 13.8004 19.825 13.5368 21.3052 13.6275C21.4675 13.6441 21.6177 13.722 21.7256 13.8458C21.8335 13.9695 21.8912 14.1299 21.8871 14.2948C21.883 14.4597 21.8174 14.6169 21.7034 14.735C21.5895 14.853 21.4356 14.9232 21.2726 14.9315C19.9949 14.8453 18.7151 15.0652 17.5373 15.5732C16.5806 16.0265 15.8106 16.8034 15.3604 17.7697C15.2794 17.9156 15.1463 18.0246 14.9882 18.0743C14.8302 18.124 14.6593 18.1106 14.5108 18.0369C14.3623 17.9631 14.2473 17.8346 14.1896 17.6778C14.132 17.521 14.1359 17.3478 14.2007 17.1938C14.4893 16.5832 14.8787 16.0268 15.3522 15.5485C14.5948 15.0649 13.7172 14.8081 12.8213 14.8081C11.6476 14.8618 10.5101 15.2356 9.52948 15.8899C8.98016 17.3666 8.13788 18.4443 6.91718 18.9749C6.83943 19.0084 6.75592 19.0261 6.67141 19.0269C6.5869 19.0278 6.50305 19.0118 6.42465 18.9799C6.34625 18.948 6.27483 18.9008 6.21447 18.8411C6.15411 18.7813 6.10599 18.71 6.07286 18.6314C6.03973 18.5528 6.02224 18.4684 6.02138 18.383C6.02053 18.2976 6.03632 18.2128 6.06787 18.1335C6.09942 18.0543 6.14611 17.9821 6.20526 17.9211C6.26441 17.86 6.33487 17.8114 6.41262 17.7779C7.63332 17.2432 8.35761 15.8241 8.76044 13.8826C9.19989 11.7889 9.27313 9.12343 9.23651 6.28934C9.23544 6.20365 9.25114 6.11859 9.28271 6.03905C9.31429 5.95952 9.36111 5.88708 9.42048 5.82591C9.47986 5.76475 9.55061 5.71605 9.62868 5.68263C9.70674 5.64922 9.79057 5.63174 9.87535 5.6312C9.94736 5.62736 10.0194 5.63856 10.0869 5.66411L11.8936 6.28523H11.8976Z" fill="black"/>
</g>
<defs>
<clipPath id="clip0_390_451">
<rect width="50" height="27" fill="white"/>
</clipPath>
</defs>
</svg>
