<svg width="50" height="50" viewBox="0 0 50 50" fill="none" xmlns="http://www.w3.org/2000/svg">
<g clip-path="url(#clip0_390_585)">
<path d="M29.4919 48.6369C29.892 49.0705 30.3679 49.4142 30.892 49.6482C31.4162 49.8821 31.9781 50.0018 32.5454 50.0001C33.6987 50.0001 34.7837 49.5159 35.599 48.6369C36.0068 48.1961 36.3284 47.6715 36.545 47.0943C36.7615 46.5171 36.8685 45.899 36.8597 45.2764H36.9268C38.0801 45.2764 39.1651 44.7922 39.9803 43.9132C40.7891 43.0395 41.2433 41.8555 41.2433 40.6211C41.2433 39.3867 40.7891 38.2028 39.9803 37.329C39.3967 36.7116 38.6646 36.2824 37.8667 36.0899C37.0687 35.8973 36.2368 35.9492 35.4647 36.2396L32.1244 32.6396C32.3514 30.454 31.8803 28.179 30.7758 26.1264C31.0052 21.2501 29.061 16.1093 25.5218 12.2948C22.1656 8.67509 17.7549 6.60009 13.4211 6.60009C9.95747 6.60009 6.79408 7.95141 4.51918 10.4054C1.91842 13.2093 0.68699 17.1343 1.04946 21.4554C1.40583 25.6869 3.2609 29.8053 6.27051 33.0488C9.80979 36.8659 14.5366 38.9527 19.0974 38.7132C20.9817 39.8922 23.1065 40.4132 25.141 40.1685L28.4813 43.7698C28.206 44.601 28.1547 45.4993 28.3333 46.3607C28.5119 47.2221 28.9132 48.0113 29.4906 48.6369H29.4919ZM20.0554 36.2606C19.8325 36.1089 19.5701 36.0388 19.3073 36.0606C15.3445 36.4027 11.1413 34.579 7.99744 31.1882C5.39057 28.379 3.78691 24.8369 3.4818 21.2172C3.18401 17.6882 4.16525 14.5093 6.24488 12.2672C8.0609 10.3093 10.6092 9.23167 13.4211 9.23167C17.1129 9.23167 20.8939 11.0264 23.7948 14.1554C26.9399 17.5448 28.6302 22.104 28.3154 26.3501C28.2958 26.6317 28.3593 26.9146 28.5009 27.1554C29.4589 28.7961 29.8543 30.6869 29.6603 32.4238L24.9408 37.5119C23.3323 37.7211 21.5785 37.2988 20.0554 36.2606ZM27.2609 38.7317L30.7929 34.9251L34.3553 38.7646C34.7666 39.208 35.411 39.2751 35.8919 38.9317C36.2555 38.6829 36.6861 38.573 37.1146 38.6198C37.5431 38.6666 37.9446 38.8672 38.2546 39.1896C38.9857 39.979 38.9857 41.2646 38.2546 42.0527C37.9448 42.3752 37.5434 42.5761 37.1149 42.6232C36.6864 42.6702 36.2556 42.5606 35.8919 42.3119C35.657 42.1445 35.3758 42.0695 35.0956 42.0997C34.8155 42.1299 34.5535 42.2634 34.3541 42.4777L34.2675 42.5738C34.0687 42.7882 33.9448 43.07 33.9165 43.3716C33.8883 43.6732 33.9575 43.9761 34.1125 44.229C34.6031 45.0277 34.5018 46.0975 33.8733 46.7764C33.163 47.5396 31.9279 47.5396 31.2176 46.7764C30.9126 46.4464 30.7224 46.0133 30.6788 45.5498C30.6353 45.0864 30.741 44.6209 30.9784 44.2317C31.1346 43.9788 31.2046 43.6754 31.1766 43.3731C31.1486 43.0707 31.0242 42.7883 30.8246 42.5738L27.2609 38.7317ZM44.9817 19.4843C46.7062 18.9751 48.8481 18.3422 49.6609 15.2659C50.3834 12.5264 49.8562 9.36194 49.8 9.03562C49.8781 7.83825 49.5681 6.56457 48.8725 5.41852C47.7497 3.56062 45.1929 1.16457 39.3896 0.294834C33.1288 -0.649903 25.1105 1.05799 19.8894 4.43299C19.6119 4.61253 19.4118 4.9036 19.3333 5.24215C19.2548 5.5807 19.3043 5.93901 19.4708 6.23825C19.6373 6.53749 19.9073 6.75315 20.2213 6.83779C20.5354 6.92243 20.8677 6.86911 21.1453 6.68957C25.9318 3.59615 33.296 2.03825 39.0528 2.9001C44.2055 3.67246 46.1375 5.71062 46.8295 6.85536C47.3262 7.67641 47.5032 8.5593 47.314 9.27641C46.8954 10.8593 46.0984 11.1567 44.3385 11.6764C41.761 12.4383 38.229 13.4817 37.0891 21.4922C36.7205 24.0725 35.527 26.1382 33.6377 27.4606C33.3801 27.6571 33.203 27.9534 33.1435 28.2875C33.0839 28.6216 33.1466 28.9676 33.3184 29.2529C33.4902 29.5383 33.7577 29.7409 34.065 29.8184C34.3723 29.8959 34.6954 29.8422 34.9668 29.6685C35.649 29.1886 36.2748 28.6213 36.8304 27.979C36.4398 29.4514 35.7613 30.7198 34.7776 31.7461C34.5463 31.989 34.4137 32.3208 34.4088 32.6689C34.4039 33.017 34.5272 33.353 34.7516 33.6033C34.976 33.8536 35.2833 33.9978 35.6061 34.0043C35.9289 34.0109 36.241 33.8792 36.474 33.6382C38.1143 31.9277 39.1321 29.7475 39.5007 27.1619C40.4026 20.8382 42.6275 20.1804 44.9829 19.4843H44.9817ZM40.0292 19.2988C41.1154 15.3725 43.0022 14.8001 44.9829 14.2146C45.8043 13.9725 46.7184 13.6922 47.541 13.1422C47.4983 13.6159 47.4336 14.0935 47.314 14.5461C46.8954 16.129 46.0984 16.4251 44.3385 16.9461C43.0022 17.3409 41.4119 17.8211 40.0292 19.2988Z" fill="white"/>
</g>
<defs>
<clipPath id="clip0_390_585">
<rect width="50" height="50" fill="white"/>
</clipPath>
</defs>
</svg>
