<svg width="50" height="50" viewBox="0 0 50 50" fill="none" xmlns="http://www.w3.org/2000/svg">
<g clip-path="url(#clip0_390_443)">
<path d="M29.4919 48.6368C29.892 49.0704 30.3679 49.4141 30.892 49.648C31.4162 49.882 31.9781 50.0016 32.5454 50C33.6987 50 34.7837 49.5158 35.599 48.6368C36.0068 48.1959 36.3284 47.6714 36.545 47.0942C36.7615 46.517 36.8685 45.8988 36.8597 45.2763H36.9268C38.0801 45.2763 39.1651 44.7921 39.9803 43.9131C40.7891 43.0394 41.2433 41.8554 41.2433 40.621C41.2433 39.3866 40.7891 38.2027 39.9803 37.3289C39.3967 36.7115 38.6646 36.2822 37.8667 36.0897C37.0687 35.8972 36.2368 35.9491 35.4647 36.2394L32.1244 32.6394C32.3514 30.4539 31.8803 28.1789 30.7758 26.1263C31.0052 21.25 29.061 16.1092 25.5218 12.2947C22.1656 8.67497 17.7549 6.59997 13.4211 6.59997C9.95747 6.59997 6.79408 7.95129 4.51918 10.4052C1.91842 13.2092 0.68699 17.1342 1.04946 21.4552C1.40583 25.6868 3.2609 29.8052 6.27051 33.0486C9.80979 36.8658 14.5366 38.9526 19.0974 38.7131C20.9817 39.8921 23.1065 40.4131 25.141 40.1684L28.4813 43.7697C28.206 44.6009 28.1547 45.4992 28.3333 46.3606C28.5119 47.2219 28.9132 48.0111 29.4906 48.6368H29.4919ZM20.0554 36.2605C19.8325 36.1088 19.5701 36.0387 19.3073 36.0605C15.3445 36.4026 11.1413 34.5789 7.99744 31.1881C5.39057 28.3789 3.78691 24.8368 3.4818 21.2171C3.18401 17.6881 4.16525 14.5092 6.24488 12.2671C8.0609 10.3092 10.6092 9.23155 13.4211 9.23155C17.1129 9.23155 20.8939 11.0263 23.7948 14.1552C26.9399 17.5447 28.6302 22.1039 28.3154 26.35C28.2958 26.6315 28.3593 26.9144 28.5009 27.1552C29.4589 28.796 29.8543 30.6868 29.6603 32.4236L24.9408 37.5118C23.3323 37.721 21.5785 37.2986 20.0554 36.2605ZM27.2609 38.7315L30.7929 34.925L34.3553 38.7644C34.7666 39.2079 35.411 39.275 35.8919 38.9315C36.2555 38.6827 36.6861 38.5729 37.1146 38.6197C37.5431 38.6665 37.9446 38.8671 38.2546 39.1894C38.9857 39.9789 38.9857 41.2644 38.2546 42.0526C37.9448 42.3751 37.5434 42.576 37.1149 42.623C36.6864 42.67 36.2556 42.5604 35.8919 42.3118C35.657 42.1444 35.3758 42.0694 35.0956 42.0996C34.8155 42.1298 34.5535 42.2633 34.3541 42.4776L34.2675 42.5736C34.0687 42.7881 33.9448 43.0699 33.9165 43.3715C33.8883 43.6731 33.9575 43.976 34.1125 44.2289C34.6031 45.0276 34.5018 46.0973 33.8733 46.7763C33.163 47.5394 31.9279 47.5394 31.2176 46.7763C30.9126 46.4463 30.7224 46.0131 30.6788 45.5497C30.6353 45.0863 30.741 44.6208 30.9784 44.2315C31.1346 43.9787 31.2046 43.6752 31.1766 43.3729C31.1486 43.0706 31.0242 42.7882 30.8246 42.5736L27.2609 38.7315ZM44.9817 19.4842C46.7062 18.975 48.8481 18.3421 49.6609 15.2658C50.3834 12.5263 49.8562 9.36181 49.8 9.0355C49.8781 7.83813 49.5681 6.56445 48.8725 5.41839C47.7497 3.5605 45.1929 1.16445 39.3896 0.294712C33.1288 -0.650025 25.1105 1.05787 19.8894 4.43287C19.6119 4.61241 19.4118 4.90348 19.3333 5.24203C19.2548 5.58058 19.3043 5.93889 19.4708 6.23813C19.6373 6.53737 19.9073 6.75303 20.2213 6.83767C20.5354 6.92231 20.8677 6.86899 21.1453 6.68945C25.9318 3.59603 33.296 2.03813 39.0528 2.89997C44.2055 3.67234 46.1375 5.7105 46.8295 6.85524C47.3262 7.67629 47.5032 8.55918 47.314 9.27629C46.8954 10.8592 46.0984 11.1566 44.3385 11.6763C41.761 12.4381 38.229 13.4815 37.0891 21.4921C36.7205 24.0723 35.527 26.1381 33.6377 27.4605C33.3801 27.657 33.203 27.9533 33.1435 28.2874C33.0839 28.6215 33.1466 28.9674 33.3184 29.2528C33.4902 29.5382 33.7577 29.7408 34.065 29.8183C34.3723 29.8958 34.6954 29.842 34.9668 29.6684C35.649 29.1885 36.2748 28.6212 36.8304 27.9789C36.4398 29.4513 35.7613 30.7197 34.7776 31.746C34.5463 31.9889 34.4137 32.3207 34.4088 32.6688C34.4039 33.0169 34.5272 33.3528 34.7516 33.6031C34.976 33.8534 35.2833 33.9977 35.6061 34.0042C35.9289 34.0108 36.241 33.8791 36.474 33.6381C38.1143 31.9276 39.1321 29.7473 39.5007 27.1618C40.4026 20.8381 42.6275 20.1802 44.9829 19.4842H44.9817ZM40.0292 19.2987C41.1154 15.3723 43.0022 14.8 44.9829 14.2144C45.8043 13.9723 46.7184 13.6921 47.541 13.1421C47.4983 13.6158 47.4336 14.0934 47.314 14.546C46.8954 16.1289 46.0984 16.425 44.3385 16.946C43.0022 17.3408 41.4119 17.821 40.0292 19.2987Z" fill="#231F1F"/>
</g>
<defs>
<clipPath id="clip0_390_443">
<rect width="50" height="50" fill="white"/>
</clipPath>
</defs>
</svg>
