<svg width="55" height="55" viewBox="0 0 55 55" fill="none" xmlns="http://www.w3.org/2000/svg">
<path fill-rule="evenodd" clip-rule="evenodd" d="M11.1746 8.59375H43.8254L48.125 20.3198V24.0625C48.125 25.7849 47.4781 27.3774 46.4062 28.5695V48.125H8.59375V28.5695C7.52203 27.3774 6.875 25.7849 6.875 24.0625V20.3198L11.1746 8.59375ZM41.6797 30.6921C42.1224 30.6921 42.5535 30.6467 42.9688 30.5605V44.6875H34.375V34.375H20.625V44.6875H12.0312V30.5605C12.4465 30.6467 12.8775 30.6921 13.3203 30.6921C15.2082 30.6921 16.8795 29.8682 18.0469 28.5695C19.2143 29.8682 20.8856 30.6921 22.7734 30.6921C24.6613 30.6921 26.3326 29.8682 27.5 28.5695C28.6674 29.8682 30.3387 30.6921 32.2266 30.6921C34.1144 30.6921 35.7858 29.8682 36.9531 28.5695C38.1205 29.8682 39.7918 30.6921 41.6797 30.6921ZM24.0625 44.6875H30.9375V37.8125H24.0625V44.6875ZM44.6875 22.3438V24.0625C44.6875 25.8878 43.2795 27.2546 41.6797 27.2546C40.0799 27.2546 38.6719 25.8878 38.6719 24.0625V22.3438H44.6875ZM43.9455 18.9062L41.4246 12.0312H13.5754L11.0546 18.9062H43.9455ZM10.3125 22.3438V24.0625C10.3125 25.8878 11.7205 27.2546 13.3203 27.2546C14.9201 27.2546 16.3281 25.8878 16.3281 24.0625V22.3438H10.3125ZM19.7656 22.3438V24.0625C19.7656 25.8878 21.1736 27.2546 22.7734 27.2546C24.3733 27.2546 25.7812 25.8878 25.7812 24.0625V22.3438H19.7656ZM29.2188 22.3438V24.0625C29.2188 25.8878 30.6268 27.2546 32.2266 27.2546C33.8264 27.2546 35.2344 25.8878 35.2344 24.0625V22.3438H29.2188Z" fill="white"/>
</svg>
