<svg width="230" height="51" viewBox="0 0 230 51" fill="none" xmlns="http://www.w3.org/2000/svg">
<g clip-path="url(#clip0_465_615)">
<path d="M5.17382 18.0761V33.4958C7.77614 34.9919 9.36815 37.7502 9.36815 40.7323V41.801L2.62253 37.9232L0.0610352 36.4474V12.1831L2.61233 10.7073L7.73532 13.6589L9.36815 14.5953V20.4985L5.17382 18.0761Z" fill="#FD6907"/>
<path d="M42.188 12.1831V36.4474L39.6265 37.9232L34.5137 34.9716L21.1245 27.2668L17.0425 24.9157V19.0227L21.1245 21.3636L25.2066 23.7147L37.0752 30.5543V15.1347C35.7792 14.3815 34.728 13.323 34.0035 12.0711C33.2789 10.8192 32.8809 9.38411 32.8809 7.89813V6.81926L39.6367 10.7073L42.188 12.1831Z" fill="#FD6907"/>
<path d="M39.6265 37.9232L32.8809 41.801V35.908L34.5137 34.9716L39.6265 37.9232Z" fill="#FD6907"/>
<path d="M9.36812 6.81926V12.7225L7.7353 13.6589L2.6123 10.7073L9.36812 6.81926Z" fill="#FD6907"/>
<path d="M26.482 15.9794V9.03805L21.1243 5.95412L15.7665 9.03805V39.5924L21.1243 42.6763L26.482 39.5924V32.5594L31.605 35.5008V42.544L21.1243 48.5796L10.6436 42.544V6.08644L21.1243 0.0508881L30.962 5.72003L31.605 6.08644V18.9311L26.482 15.9794Z" fill="#FD6907"/>
<g style="mix-blend-mode:overlay" opacity="0.5">
<path d="M8.54149 40.3863L8.19452 40.1929C7.97 37.7807 6.5821 35.5924 4.44922 34.3711L4.04102 34.137V16.8344L4.36758 17.0176V33.964L4.77579 34.1981C7.00051 35.4907 8.42924 37.8418 8.54149 40.3863Z" fill="#FD6907"/>
<path d="M8.55176 15.0736V19.0837L8.2354 18.9005V15.2364L2.31641 11.8268L2.62256 11.6538L8.55176 15.0736Z" fill="#FD6907"/>
<path d="M17.8691 20.4272L37.5651 31.7757V32.1217L17.8691 20.7834V20.4272Z" fill="#FD6907"/>
<path d="M41.3716 12.6512V35.9792L39.6367 36.9766L39.6163 36.9665L41.0552 36.142V12.8243L33.7279 8.6004C33.7211 8.47826 33.7143 8.35952 33.7075 8.24417L41.3716 12.6512Z" fill="#FD6907"/>
<path d="M21.1146 43.6127L20.8084 43.7857L14.6343 40.2336V8.7327L14.9506 8.56985V40.0707L21.1146 43.6127Z" fill="#FD6907"/>
<path d="M30.7888 6.55462V17.5265L30.4622 17.3433V6.72765L20.8184 1.17046L21.1245 0.997437L30.7888 6.55462Z" fill="#FD6907"/>
<path d="M27.2988 33.964L30.789 35.9792V42.0758L30.4624 42.2387V36.142L27.2988 34.3202V33.964Z" fill="#FD6907"/>
</g>
</g>
<path d="M60.2517 39.5293V11.8929H65.2581V23.5925H78.0642V11.8929H83.0841V39.5293H78.0642V27.7892H65.2581V39.5293H60.2517ZM97.4893 39.9341C95.4112 39.9341 93.6164 39.5023 92.1051 38.6387C90.6027 37.766 89.4467 36.5335 88.637 34.9412C87.8274 33.3399 87.4225 31.4552 87.4225 29.2871C87.4225 27.155 87.8274 25.2838 88.637 23.6735C89.4557 22.0541 90.5982 20.7947 92.0646 19.895C93.531 18.9864 95.2537 18.5321 97.2329 18.5321C98.5104 18.5321 99.7159 18.739 100.849 19.1529C101.992 19.5577 102.999 20.1874 103.872 21.0421C104.754 21.8967 105.446 22.9852 105.95 24.3077C106.454 25.6211 106.706 27.1865 106.706 29.0037V30.5016H89.7166V27.209H102.023C102.014 26.2734 101.812 25.4412 101.416 24.7125C101.02 23.9748 100.467 23.3946 99.7563 22.9718C99.0546 22.5489 98.236 22.3375 97.3004 22.3375C96.3018 22.3375 95.4247 22.5804 94.669 23.0662C93.9133 23.543 93.3241 24.1727 92.9012 24.9554C92.4874 25.7291 92.276 26.5792 92.267 27.5058V30.3801C92.267 31.5856 92.4874 32.6202 92.9282 33.4838C93.369 34.3385 93.9853 34.9952 94.7769 35.454C95.5686 35.9038 96.4952 36.1287 97.5568 36.1287C98.2675 36.1287 98.9107 36.0298 99.4865 35.8318C100.062 35.6249 100.562 35.3236 100.984 34.9277C101.407 34.5319 101.727 34.0416 101.942 33.4568L106.504 33.9696C106.216 35.1751 105.667 36.2277 104.857 37.1273C104.057 38.0179 103.031 38.7106 101.78 39.2054C100.53 39.6912 99.0996 39.9341 97.4893 39.9341ZM118.53 39.8936C116.902 39.8936 115.445 39.4753 114.158 38.6387C112.872 37.802 111.855 36.5875 111.108 34.9952C110.362 33.4029 109.988 31.4687 109.988 29.1926C109.988 26.8896 110.366 24.9464 111.122 23.3631C111.887 21.7708 112.917 20.5698 114.212 19.7601C115.508 18.9415 116.951 18.5321 118.544 18.5321C119.758 18.5321 120.757 18.739 121.54 19.1529C122.322 19.5577 122.943 20.048 123.402 20.6237C123.861 21.1905 124.216 21.7258 124.468 22.2296H124.67V11.8929H129.569V39.5293H124.765V36.2637H124.468C124.216 36.7674 123.852 37.3027 123.375 37.8695C122.898 38.4272 122.268 38.904 121.486 39.2999C120.703 39.6957 119.718 39.8936 118.53 39.8936ZM119.893 35.8858C120.928 35.8858 121.809 35.6069 122.538 35.0492C123.267 34.4824 123.82 33.6952 124.198 32.6877C124.576 31.6801 124.765 30.5061 124.765 29.1656C124.765 27.8252 124.576 26.6602 124.198 25.6706C123.829 24.681 123.28 23.9119 122.552 23.3631C121.832 22.8143 120.946 22.5399 119.893 22.5399C118.805 22.5399 117.896 22.8233 117.167 23.3901C116.439 23.9568 115.89 24.7395 115.521 25.7381C115.152 26.7367 114.968 27.8792 114.968 29.1656C114.968 30.4611 115.152 31.6171 115.521 32.6337C115.899 33.6413 116.452 34.4374 117.181 35.0222C117.919 35.5979 118.823 35.8858 119.893 35.8858ZM134.99 39.5293V11.8929H145.354C147.477 11.8929 149.258 12.2888 150.697 13.0804C152.146 13.8721 153.239 14.9606 153.977 16.346C154.723 17.7225 155.097 19.2878 155.097 21.0421C155.097 22.8143 154.723 24.3887 153.977 25.7651C153.23 27.1415 152.128 28.2255 150.67 29.0172C149.213 29.7999 147.418 30.1912 145.286 30.1912H138.418V26.0754H144.611C145.853 26.0754 146.87 25.8595 147.661 25.4277C148.453 24.9959 149.038 24.4022 149.415 23.6465C149.802 22.8908 149.996 22.0227 149.996 21.0421C149.996 20.0615 149.802 19.1978 149.415 18.4512C149.038 17.7045 148.448 17.1242 147.648 16.7104C146.856 16.2876 145.835 16.0762 144.584 16.0762H139.996V39.5293H134.99ZM159.229 39.5293V18.802H163.966V22.2566H164.182C164.559 21.0601 165.207 20.1379 166.125 19.4902C167.051 18.8335 168.108 18.5051 169.296 18.5051C169.566 18.5051 169.867 18.5186 170.2 18.5456C170.542 18.5636 170.825 18.5951 171.05 18.6401V23.1337C170.843 23.0617 170.515 22.9987 170.065 22.9448C169.624 22.8818 169.197 22.8503 168.783 22.8503C167.893 22.8503 167.092 23.0437 166.381 23.4306C165.679 23.8084 165.126 24.3347 164.721 25.0094C164.317 25.6841 164.114 26.4623 164.114 27.3439V39.5293H159.229ZM182.483 39.9341C180.459 39.9341 178.705 39.4888 177.22 38.5982C175.736 37.7075 174.585 36.4616 173.766 34.8602C172.956 33.2589 172.551 31.3877 172.551 29.2466C172.551 27.1055 172.956 25.2298 173.766 23.6195C174.585 22.0092 175.736 20.7587 177.22 19.8681C178.705 18.9774 180.459 18.5321 182.483 18.5321C184.507 18.5321 186.262 18.9774 187.746 19.8681C189.23 20.7587 190.377 22.0092 191.187 23.6195C192.006 25.2298 192.415 27.1055 192.415 29.2466C192.415 31.3877 192.006 33.2589 191.187 34.8602C190.377 36.4616 189.23 37.7075 187.746 38.5982C186.262 39.4888 184.507 39.9341 182.483 39.9341ZM182.51 36.0208C183.608 36.0208 184.525 35.7194 185.263 35.1166C186.001 34.5049 186.55 33.6862 186.909 32.6607C187.278 31.6351 187.463 30.4926 187.463 29.2331C187.463 27.9647 187.278 26.8176 186.909 25.7921C186.55 24.7575 186.001 23.9343 185.263 23.3226C184.525 22.7109 183.608 22.405 182.51 22.405C181.386 22.405 180.45 22.7109 179.703 23.3226C178.966 23.9343 178.412 24.7575 178.044 25.7921C177.684 26.8176 177.504 27.9647 177.504 29.2331C177.504 30.4926 177.684 31.6351 178.044 32.6607C178.412 33.6862 178.966 34.5049 179.703 35.1166C180.45 35.7194 181.386 36.0208 182.51 36.0208Z" fill="#313131"/>
<defs>
<clipPath id="clip0_465_615">
<rect width="42.2494" height="48.6508" fill="white"/>
</clipPath>
</defs>
</svg>
