<svg width="234" height="65" viewBox="0 0 234 65" fill="none" xmlns="http://www.w3.org/2000/svg">
<g clip-path="url(#clip0_667_334)">
<path d="M6.70085 25.4075V45.3751C10.0707 47.3125 12.1323 50.8843 12.1323 54.746V56.1299L3.39707 51.1083L0.0800781 49.1972V17.7763L3.38385 15.8652L10.0178 19.6874L12.1323 20.9V28.5443L6.70085 25.4075Z" fill="#B113C0"/>
<path d="M54.6323 17.7764V49.1973L51.3153 51.1084L44.6946 47.2862L27.3564 37.309L22.0703 34.2645V26.6333L27.3564 29.6647L32.6424 32.7092L48.0116 41.5661V21.5986C46.3332 20.6232 44.9721 19.2525 44.0338 17.6314C43.0955 16.0103 42.5802 14.1519 42.5802 12.2276V10.8306L51.3285 15.8653L54.6323 17.7764Z" fill="#B113C0"/>
<path d="M51.3153 51.1083L42.5801 56.1299V48.4987L44.6945 47.2861L51.3153 51.1083Z" fill="#B113C0"/>
<path d="M12.1332 10.8306V18.4749L10.0187 19.6875L3.38477 15.8653L12.1332 10.8306Z" fill="#B113C0"/>
<path d="M34.293 22.6925V13.7038L27.3551 9.71027L20.4172 13.7038V53.2699L27.3551 57.2634L34.293 53.2699V44.1626L40.927 47.9716V57.0921L27.3551 64.9078L13.7832 57.0921V9.88161L27.3551 2.06592L40.0945 9.40713L40.927 9.88161V26.5147L34.293 22.6925Z" fill="#B113C0"/>
<g style="mix-blend-mode:overlay" opacity="0.5">
<path d="M11.0603 54.2976L10.611 54.0472C10.3202 50.9236 8.52298 48.0899 5.76103 46.5083L5.23242 46.2052V23.7993L5.65531 24.0366V45.9811L6.18391 46.2843C9.0648 47.9581 10.9149 51.0027 11.0603 54.2976Z" fill="white"/>
<path d="M11.0744 21.5193V26.7122L10.6648 26.4749V21.7302L3 17.3149L3.39645 17.0908L11.0744 21.5193Z" fill="white"/>
<path d="M23.1387 28.4521L48.6438 43.1478V43.5959L23.1387 28.9134V28.4521Z" fill="white"/>
<path d="M53.573 18.3827V48.5911L51.3264 49.8827L51.3 49.8695L53.1633 48.8019V18.6067L43.6749 13.1371C43.6661 12.9789 43.6572 12.8252 43.6484 12.6758L53.573 18.3827Z" fill="white"/>
<path d="M27.3428 58.4756L26.9463 58.6997L18.9512 54.0999V13.308L19.3608 13.0972V53.889L27.3428 58.4756Z" fill="white"/>
<path d="M39.8701 10.4877V24.6957L39.4473 24.4584V10.7118L26.959 3.51556L27.3554 3.2915L39.8701 10.4877Z" fill="white"/>
<path d="M35.3496 45.9814L39.8692 48.5911V56.4858L39.4463 56.6967V48.8019L35.3496 46.4427V45.9814Z" fill="white"/>
</g>
</g>
<path d="M72.8445 43V10.2727H79.7638V23.7759H93.8104V10.2727H100.714V43H93.8104V29.4808H79.7638V43H72.8445ZM117.477 43.4794C114.952 43.4794 112.779 42.968 110.957 41.9453C109.146 40.9119 107.75 39.4524 106.77 37.5668C105.79 35.6705 105.3 33.4279 105.3 30.8391C105.3 28.3143 105.79 26.0984 106.77 24.1914C107.75 22.2844 109.13 20.7983 110.909 19.733C112.699 18.6676 114.798 18.1349 117.205 18.1349C118.825 18.1349 120.332 18.396 121.728 18.918C123.134 19.4293 124.359 20.2017 125.403 21.2351C126.458 22.2685 127.278 23.5682 127.864 25.1342C128.45 26.6896 128.743 28.5114 128.743 30.5994V32.4691H108.017V28.2504H122.335C122.335 27.2702 122.122 26.402 121.696 25.6456C121.27 24.8892 120.678 24.2979 119.922 23.8718C119.176 23.435 118.308 23.2166 117.317 23.2166C116.284 23.2166 115.368 23.4563 114.569 23.9357C113.78 24.4045 113.162 25.0384 112.715 25.8374C112.267 26.6257 112.038 27.5046 112.028 28.4741V32.4851C112.028 33.6996 112.251 34.7489 112.699 35.6332C113.157 36.5174 113.801 37.1992 114.632 37.6786C115.463 38.158 116.449 38.3977 117.589 38.3977C118.345 38.3977 119.038 38.2912 119.666 38.0781C120.295 37.8651 120.833 37.5455 121.28 37.1193C121.728 36.6932 122.069 36.1712 122.303 35.5533L128.599 35.9688C128.279 37.4815 127.624 38.8026 126.634 39.9318C125.653 41.0504 124.386 41.924 122.83 42.5526C121.286 43.1705 119.501 43.4794 117.477 43.4794ZM142.23 43.3995C140.366 43.3995 138.677 42.9201 137.164 41.9613C135.662 40.9918 134.469 39.5696 133.585 37.6946C132.711 35.8089 132.275 33.4972 132.275 30.7592C132.275 27.9467 132.727 25.6083 133.633 23.744C134.538 21.869 135.742 20.468 137.244 19.5412C138.757 18.6037 140.414 18.1349 142.214 18.1349C143.588 18.1349 144.734 18.3693 145.65 18.8381C146.577 19.2962 147.322 19.8714 147.887 20.5639C148.462 21.2457 148.899 21.9169 149.197 22.5774H149.405V10.2727H156.197V43H149.485V39.0689H149.197C148.878 39.7507 148.425 40.4272 147.839 41.0984C147.264 41.7589 146.513 42.3075 145.586 42.7443C144.67 43.1811 143.551 43.3995 142.23 43.3995ZM144.387 37.9822C145.485 37.9822 146.412 37.6839 147.168 37.0874C147.935 36.4801 148.521 35.6332 148.926 34.5465C149.341 33.4599 149.549 32.1868 149.549 30.7273C149.549 29.2678 149.347 28 148.942 26.924C148.537 25.848 147.951 25.017 147.184 24.4311C146.417 23.8452 145.485 23.5522 144.387 23.5522C143.269 23.5522 142.326 23.8558 141.559 24.4631C140.792 25.0703 140.211 25.9119 139.817 26.9879C139.423 28.0639 139.226 29.3104 139.226 30.7273C139.226 32.1548 139.423 33.4173 139.817 34.5146C140.222 35.6012 140.803 36.4535 141.559 37.0714C142.326 37.6786 143.269 37.9822 144.387 37.9822ZM161.922 43V10.2727H174.834C177.316 10.2727 179.43 10.7468 181.178 11.695C182.925 12.6325 184.256 13.9375 185.173 15.6101C186.1 17.272 186.563 19.1896 186.563 21.3629C186.563 23.5362 186.094 25.4538 185.157 27.1158C184.219 28.7777 182.861 30.0721 181.082 30.9989C179.313 31.9258 177.172 32.3892 174.658 32.3892H166.428V26.8441H173.539C174.871 26.8441 175.968 26.6151 176.831 26.157C177.705 25.6882 178.354 25.0437 178.781 24.2234C179.217 23.3924 179.436 22.4389 179.436 21.3629C179.436 20.2763 179.217 19.3281 178.781 18.5185C178.354 17.6982 177.705 17.0643 176.831 16.6168C175.957 16.1587 174.85 15.9297 173.507 15.9297H168.841V43H161.922ZM190.93 43V18.4545H197.529V22.7372H197.785C198.232 21.2138 198.983 20.0632 200.038 19.2855C201.093 18.4972 202.307 18.103 203.682 18.103C204.023 18.103 204.39 18.1243 204.784 18.1669C205.178 18.2095 205.525 18.2681 205.823 18.3427V24.3832C205.503 24.2873 205.061 24.2021 204.497 24.1275C203.932 24.0529 203.415 24.0156 202.947 24.0156C201.945 24.0156 201.05 24.234 200.262 24.6708C199.484 25.0969 198.866 25.6935 198.408 26.4606C197.961 27.2276 197.737 28.1119 197.737 29.1133V43H190.93ZM219.29 43.4794C216.808 43.4794 214.661 42.9521 212.85 41.8974C211.05 40.832 209.66 39.3512 208.679 37.4549C207.699 35.5479 207.209 33.3374 207.209 30.8232C207.209 28.2876 207.699 26.0717 208.679 24.1754C209.66 22.2685 211.05 20.7876 212.85 19.733C214.661 18.6676 216.808 18.1349 219.29 18.1349C221.772 18.1349 223.914 18.6676 225.714 19.733C227.525 20.7876 228.921 22.2685 229.901 24.1754C230.881 26.0717 231.371 28.2876 231.371 30.8232C231.371 33.3374 230.881 35.5479 229.901 37.4549C228.921 39.3512 227.525 40.832 225.714 41.8974C223.914 42.9521 221.772 43.4794 219.29 43.4794ZM219.322 38.206C220.451 38.206 221.394 37.8864 222.151 37.2472C222.907 36.5973 223.477 35.7131 223.861 34.5945C224.255 33.4759 224.452 32.2028 224.452 30.7752C224.452 29.3477 224.255 28.0746 223.861 26.956C223.477 25.8374 222.907 24.9531 222.151 24.3033C221.394 23.6534 220.451 23.3285 219.322 23.3285C218.182 23.3285 217.223 23.6534 216.446 24.3033C215.679 24.9531 215.098 25.8374 214.704 26.956C214.32 28.0746 214.129 29.3477 214.129 30.7752C214.129 32.2028 214.32 33.4759 214.704 34.5945C215.098 35.7131 215.679 36.5973 216.446 37.2472C217.223 37.8864 218.182 38.206 219.322 38.206Z" fill="#282D33"/>
<defs>
<clipPath id="clip0_667_334">
<rect width="54.7105" height="63" fill="white" transform="translate(0 2)"/>
</clipPath>
</defs>
</svg>
