<svg version="1.2" xmlns="http://www.w3.org/2000/svg" viewBox="0 0 185 51" width="185" height="51"><defs><clipPath clipPathUnits="userSpaceOnUse" id="cp1"><path d="m0 0h42.25v48.65h-42.25z"/></clipPath></defs><style>.a{fill:#fd6907}.b{mix-blend-mode:overlay;fill:#fd6907}.c{fill:#313131}</style><g clip-path="url(#cp1)"><path class="a" d="m5.2 18.1v15.4c2.6 1.5 4.2 4.3 4.2 7.2v1.1l-6.8-3.9-2.5-1.5v-24.2l2.5-1.5 5.1 3 1.7 0.9v5.9z"/><path class="a" d="m42.2 12.2v24.2l-2.6 1.5-5.1-2.9-13.4-7.7-4.1-2.4v-5.9l4.1 2.4 4.1 2.3 11.9 6.9v-15.5c-1.3-0.7-2.4-1.8-3.1-3-0.7-1.3-1.1-2.7-1.1-4.2v-1.1l6.7 3.9z"/><path class="a" d="m39.6 37.9l-6.7 3.9v-5.9l1.6-0.9z"/><path class="a" d="m9.4 6.8v5.9l-1.7 1-5.1-3z"/><path class="a" d="m26.5 16v-7l-5.4-3-5.3 3v30.6l5.3 3.1 5.4-3.1v-7l5.1 2.9v7l-10.5 6.1-10.5-6.1v-36.4l10.5-6 9.9 5.6 0.6 0.4v12.8z"/><g style="opacity:.5"><path class="b" d="m8.5 40.4l-0.3-0.2c-0.2-2.4-1.6-4.6-3.8-5.8l-0.4-0.3v-17.3l0.4 0.2v17l0.4 0.2c2.2 1.3 3.6 3.6 3.7 6.2z"/><path class="b" d="m8.6 15.1v4l-0.4-0.2v-3.7l-5.9-3.4 0.3-0.1z"/><path class="b" d="m17.9 20.4l19.7 11.4v0.3l-19.7-11.3z"/><path class="b" d="m41.4 12.7v23.3l-1.8 1 1.5-0.9v-23.3l-7.4-4.2q0-0.2 0-0.4z"/><path class="b" d="m21.1 43.6l-0.3 0.2-6.2-3.6v-31.5l0.4-0.1v31.5z"/><path class="b" d="m30.8 6.6v10.9l-0.3-0.2v-10.6l-9.7-5.5 0.3-0.2z"/><path class="b" d="m27.3 34l3.5 2v6.1l-0.3 0.1v-6.1l-3.2-1.8z"/></g></g><path class="c" d="m60.3 39.5v-27.6h5v23.4h12.1v4.2zm27.3 0.4q-2 0-3.5-0.7-1.6-0.7-2.5-2.1-0.9-1.3-0.9-3.4 0-1.7 0.6-2.9 0.7-1.1 1.8-1.8 1.1-0.7 2.5-1.1 1.4-0.3 2.9-0.5 1.9-0.2 3-0.3 1.1-0.2 1.6-0.5 0.6-0.3 0.6-1.1 0-1.6-0.9-2.4-0.9-0.8-2.6-0.8-1.8 0-2.9 0.8-1 0.7-1.4 1.8l-4.6-0.6q0.6-1.9 1.8-3.2 1.3-1.3 3.1-1.9 1.8-0.7 3.9-0.7 1.5 0 3 0.4 1.5 0.3 2.7 1.1 1.2 0.8 2 2.2 0.7 1.4 0.7 3.5v13.8h-4.7v-2.8h-0.1q-0.5 0.8-1.3 1.6-0.8 0.7-2 1.2-1.2 0.4-2.8 0.4zm1.3-3.5q1.4 0 2.5-0.6 1.1-0.6 1.7-1.6 0.6-1 0.6-2.1v-2.4q-0.3 0.1-0.8 0.3-0.5 0.2-1.2 0.3-0.7 0.1-1.4 0.2-0.6 0.1-1.1 0.2-1.1 0.1-2 0.4-0.8 0.4-1.3 1-0.5 0.6-0.5 1.5 0 1.4 1 2.1 0.9 0.7 2.5 0.7zm19.4-9v12.1h-4.8v-20.7h4.6v3.5h0.3q0.7-1.7 2.3-2.7 1.5-1.1 3.9-1.1 2.1 0 3.7 0.9 1.6 1 2.5 2.7 0.9 1.7 0.8 4.2v13.2h-4.8v-12.4q0-2.1-1.1-3.3-1.1-1.1-3-1.1-1.3 0-2.3 0.5-0.9 0.6-1.5 1.6-0.6 1.1-0.6 2.6zm18.5 12.1v-27.6h10.4q3.2 0 5.3 1.2 2.2 1.2 3.3 3.2 1.1 2.1 1.1 4.7 0 2.7-1.1 4.8-1.1 2-3.3 3.2-2.2 1.2-5.4 1.2h-6.8v-4.1h6.2q1.8 0 3-0.7 1.2-0.6 1.8-1.8 0.5-1.1 0.5-2.6 0-1.4-0.5-2.5-0.6-1.2-1.8-1.8-1.2-0.6-3.1-0.6h-4.6v23.4zm24.3 0v-20.7h4.7v3.5h0.2q0.6-1.8 2-2.8 1.4-1 3.1-1 0.4 0 0.9 0 0.6 0.1 0.9 0.1v4.5q-0.3-0.1-1-0.2-0.6 0-1.3 0-1.3 0-2.4 0.5-1 0.6-1.6 1.6-0.6 1-0.6 2.3v12.2zm23.2 0.4q-3 0-5.2-1.3-2.3-1.3-3.5-3.7-1.2-2.4-1.2-5.7 0-3.2 1.2-5.6 1.2-2.4 3.5-3.7 2.2-1.4 5.2-1.4 3.1 0 5.3 1.4 2.2 1.3 3.4 3.7 1.2 2.4 1.2 5.6 0 3.3-1.2 5.7-1.2 2.4-3.4 3.7-2.2 1.3-5.3 1.3zm0-3.9q1.7 0 2.8-0.9 1.1-0.9 1.6-2.4 0.6-1.6 0.6-3.5 0-1.9-0.6-3.4-0.5-1.6-1.6-2.5-1.1-0.9-2.8-0.9-1.6 0-2.8 0.9-1.1 0.9-1.6 2.5-0.6 1.5-0.6 3.4 0 1.9 0.6 3.5 0.5 1.5 1.6 2.4 1.2 0.9 2.8 0.9z"/></svg>