<svg width="224" height="64" viewBox="0 0 224 64" fill="none" xmlns="http://www.w3.org/2000/svg">
<g clip-path="url(#clip0_454_463)">
<path d="M6.70043 23.7591V43.7266C10.0703 45.6641 12.1318 49.2358 12.1318 53.0975V54.4814L3.39665 49.4599L0.0796585 47.5488V16.1279L3.38343 14.2168L10.0174 18.039L12.1318 19.2515V26.8959L6.70043 23.7591Z" fill="#B113C0"/>
<path d="M54.6316 16.1279V47.5489L51.3146 49.46L44.6938 45.6378L27.3556 35.6606L22.0696 32.616V24.9848L27.3556 28.0162L32.6417 31.0608L48.0108 39.9177V19.9501C46.3325 18.9748 44.9714 17.6041 44.0331 15.983C43.0948 14.3618 42.5794 12.5035 42.5794 10.5792V9.18213L51.3278 14.2169L54.6316 16.1279Z" fill="#B113C0"/>
<path d="M51.3146 49.4599L42.5794 54.4814V46.8502L44.6938 45.6377L51.3146 49.4599Z" fill="#B113C0"/>
<path d="M12.1318 9.18213V16.8265L10.0174 18.039L3.38343 14.2169L12.1318 9.18213Z" fill="#B113C0"/>
<path d="M34.2936 21.044V12.0553L27.3556 8.06183L20.4177 12.0553V51.6215L27.3556 55.615L34.2936 51.6215V42.5141L40.9275 46.3231V55.4436L27.3556 63.2593L13.7837 55.4436V8.23317L27.3556 0.41748L40.095 7.75869L40.9275 8.23317V24.8662L34.2936 21.044Z" fill="#B113C0"/>
<g style="mix-blend-mode:overlay" opacity="0.5">
<path d="M11.061 52.6492L10.6117 52.3988C10.3209 49.2751 8.52367 46.4415 5.76171 44.8599L5.23311 44.5567V22.1509L5.65599 22.3881V44.3327L6.1846 44.6358C9.06549 46.3097 10.9156 49.3542 11.061 52.6492Z" fill="white"/>
<path d="M11.0742 19.8708V25.0637L10.6645 24.8265V20.0817L2.99976 15.6664L3.39621 15.4424L11.0742 19.8708Z" fill="white"/>
<path d="M23.1393 26.8037L48.6444 41.4993V41.9474L23.1393 27.265V26.8037Z" fill="white"/>
<path d="M53.5735 16.7342V46.9426L51.3269 48.2342L51.3005 48.2211L53.1638 47.1535V16.9583L43.6754 11.4886C43.6666 11.3305 43.6577 11.1767 43.6489 11.0273L53.5735 16.7342Z" fill="white"/>
<path d="M27.342 56.8272L26.9455 57.0512L18.9504 52.4514V11.6596L19.3601 11.4487V52.2406L27.342 56.8272Z" fill="white"/>
<path d="M39.8699 8.8393V23.0472L39.447 22.81V9.06336L26.9587 1.86712L27.3552 1.64307L39.8699 8.8393Z" fill="white"/>
<path d="M35.3501 44.333L39.8696 46.9426V54.8374L39.4468 55.0483V47.1535L35.3501 44.7943V44.333Z" fill="white"/>
</g>
</g>
<path d="M72.8445 48.3516V15.6243H79.7638V42.6467H93.7944V48.3516H72.8445ZM105.248 48.815C103.682 48.815 102.286 48.5433 101.061 48C99.8362 47.446 98.8667 46.631 98.153 45.555C97.4498 44.4684 97.0983 43.1154 97.0983 41.4961C97.0983 40.1325 97.3486 38.9872 97.8493 38.0604C98.3501 37.1335 99.0319 36.3878 99.8948 35.8232C100.758 35.2585 101.738 34.8324 102.835 34.5447C103.943 34.2571 105.104 34.0547 106.319 33.9375C107.746 33.7884 108.897 33.6499 109.771 33.522C110.644 33.3835 111.278 33.1811 111.672 32.9148C112.066 32.6484 112.263 32.2543 112.263 31.7322V31.6364C112.263 30.6243 111.944 29.8413 111.305 29.2873C110.676 28.7333 109.781 28.4563 108.62 28.4563C107.395 28.4563 106.42 28.728 105.696 29.2713C104.971 29.804 104.492 30.4751 104.257 31.2848L97.9612 30.7734C98.2808 29.282 98.9094 27.9929 99.8469 26.9062C100.784 25.8089 101.994 24.9673 103.474 24.3814C104.966 23.7848 106.692 23.4865 108.652 23.4865C110.016 23.4865 111.321 23.6463 112.567 23.9659C113.824 24.2855 114.937 24.7809 115.907 25.4521C116.887 26.1232 117.659 26.9862 118.224 28.0408C118.789 29.0849 119.071 30.3366 119.071 31.7962V48.3516H112.615V44.9478H112.423C112.029 45.7148 111.502 46.3913 110.841 46.9773C110.181 47.5526 109.387 48.0053 108.46 48.3356C107.533 48.6552 106.463 48.815 105.248 48.815ZM107.198 44.1168C108.199 44.1168 109.083 43.9197 109.85 43.5256C110.617 43.1207 111.219 42.5774 111.656 41.8956C112.093 41.2138 112.311 40.4414 112.311 39.5785V36.9737C112.098 37.1122 111.805 37.2401 111.432 37.3572C111.07 37.4638 110.66 37.565 110.202 37.6609C109.744 37.7461 109.286 37.826 108.828 37.9006C108.37 37.9645 107.954 38.0231 107.581 38.0763C106.782 38.1935 106.084 38.38 105.488 38.6357C104.891 38.8913 104.428 39.2376 104.098 39.6744C103.767 40.1005 103.602 40.6332 103.602 41.2724C103.602 42.1992 103.938 42.9077 104.609 43.3977C105.291 43.8771 106.154 44.1168 107.198 44.1168ZM131.16 34.1612V48.3516H124.352V23.8061H130.84V28.1367H131.128C131.671 26.7092 132.582 25.5799 133.861 24.7489C135.139 23.9073 136.689 23.4865 138.511 23.4865C140.215 23.4865 141.701 23.8594 142.969 24.6051C144.237 25.3509 145.222 26.4162 145.926 27.8011C146.629 29.1754 146.98 30.8161 146.98 32.723V48.3516H140.173V33.9375C140.183 32.4354 139.8 31.2635 139.022 30.4219C138.244 29.5696 137.174 29.1435 135.81 29.1435C134.894 29.1435 134.084 29.3406 133.381 29.7347C132.689 30.1289 132.145 30.7042 131.751 31.4606C131.368 32.2063 131.171 33.1065 131.16 34.1612ZM152.473 48.3516V15.6243H165.385C167.868 15.6243 169.982 16.0984 171.729 17.0465C173.477 17.984 174.808 19.2891 175.724 20.9616C176.651 22.6236 177.115 24.5412 177.115 26.7145C177.115 28.8878 176.646 30.8054 175.708 32.4673C174.771 34.1293 173.413 35.4236 171.634 36.3505C169.865 37.2773 167.724 37.7408 165.21 37.7408H156.98V32.1957H164.091C165.423 32.1957 166.52 31.9666 167.383 31.5085C168.256 31.0398 168.906 30.3952 169.332 29.5749C169.769 28.744 169.988 27.7905 169.988 26.7145C169.988 25.6278 169.769 24.6797 169.332 23.87C168.906 23.0497 168.256 22.4158 167.383 21.9684C166.509 21.5103 165.401 21.2812 164.059 21.2812H159.393V48.3516H152.473ZM181.481 48.3516V23.8061H188.081V28.0888H188.337C188.784 26.5653 189.535 25.4148 190.59 24.6371C191.645 23.8487 192.859 23.4545 194.233 23.4545C194.574 23.4545 194.942 23.4759 195.336 23.5185C195.73 23.5611 196.076 23.6197 196.375 23.6942V29.7347C196.055 29.6388 195.613 29.5536 195.048 29.479C194.484 29.4045 193.967 29.3672 193.498 29.3672C192.497 29.3672 191.602 29.5856 190.814 30.0224C190.036 30.4485 189.418 31.0451 188.96 31.8121C188.513 32.5792 188.289 33.4634 188.289 34.4648V48.3516H181.481ZM209.842 48.831C207.36 48.831 205.213 48.3036 203.402 47.2489C201.602 46.1836 200.211 44.7028 199.231 42.8065C198.251 40.8995 197.761 38.6889 197.761 36.1747C197.761 33.6392 198.251 31.4233 199.231 29.527C200.211 27.62 201.602 26.1392 203.402 25.0845C205.213 24.0192 207.36 23.4865 209.842 23.4865C212.324 23.4865 214.466 24.0192 216.266 25.0845C218.077 26.1392 219.473 27.62 220.453 29.527C221.433 31.4233 221.923 33.6392 221.923 36.1747C221.923 38.6889 221.433 40.8995 220.453 42.8065C219.473 44.7028 218.077 46.1836 216.266 47.2489C214.466 48.3036 212.324 48.831 209.842 48.831ZM209.874 43.5575C211.003 43.5575 211.946 43.2379 212.702 42.5987C213.459 41.9489 214.029 41.0646 214.412 39.946C214.806 38.8274 215.004 37.5543 215.004 36.1268C215.004 34.6992 214.806 33.4261 214.412 32.3075C214.029 31.1889 213.459 30.3047 212.702 29.6548C211.946 29.005 211.003 28.68 209.874 28.68C208.734 28.68 207.775 29.005 206.998 29.6548C206.23 30.3047 205.65 31.1889 205.256 32.3075C204.872 33.4261 204.68 34.6992 204.68 36.1268C204.68 37.5543 204.872 38.8274 205.256 39.946C205.65 41.0646 206.23 41.9489 206.998 42.5987C207.775 43.2379 208.734 43.5575 209.874 43.5575Z" fill="white"/>
<defs>
<clipPath id="clip0_454_463">
<rect width="54.7105" height="63" fill="white" transform="translate(0 0.351562)"/>
</clipPath>
</defs>
</svg>
