<svg width="230" height="51" viewBox="0 0 230 51" fill="none" xmlns="http://www.w3.org/2000/svg">
<g clip-path="url(#clip0_465_615)">
<path d="M5.17382 18.0761V33.4958C7.77614 34.9919 9.36815 37.7502 9.36815 40.7323V41.801L2.62253 37.9232L0.0610352 36.4474V12.1831L2.61233 10.7073L7.73532 13.6589L9.36815 14.5953V20.4985L5.17382 18.0761Z" fill="#FD6907"/>
<path d="M42.188 12.1831V36.4474L39.6265 37.9232L34.5137 34.9716L21.1245 27.2668L17.0425 24.9157V19.0227L21.1245 21.3636L25.2066 23.7147L37.0752 30.5543V15.1347C35.7792 14.3815 34.728 13.323 34.0035 12.0711C33.2789 10.8192 32.8809 9.38411 32.8809 7.89813V6.81926L39.6367 10.7073L42.188 12.1831Z" fill="#FD6907"/>
<path d="M39.6265 37.9232L32.8809 41.801V35.908L34.5137 34.9716L39.6265 37.9232Z" fill="#FD6907"/>
<path d="M9.36812 6.81926V12.7225L7.7353 13.6589L2.6123 10.7073L9.36812 6.81926Z" fill="#FD6907"/>
<path d="M26.482 15.9794V9.03805L21.1243 5.95412L15.7665 9.03805V39.5924L21.1243 42.6763L26.482 39.5924V32.5594L31.605 35.5008V42.544L21.1243 48.5796L10.6436 42.544V6.08644L21.1243 0.0508881L30.962 5.72003L31.605 6.08644V18.9311L26.482 15.9794Z" fill="#FD6907"/>
<g style="mix-blend-mode:overlay" opacity="0.5">
<path d="M8.54149 40.3863L8.19452 40.1929C7.97 37.7807 6.5821 35.5924 4.44922 34.3711L4.04102 34.137V16.8344L4.36758 17.0176V33.964L4.77579 34.1981C7.00051 35.4907 8.42924 37.8418 8.54149 40.3863Z" fill="#FD6907"/>
<path d="M8.55176 15.0736V19.0837L8.2354 18.9005V15.2364L2.31641 11.8268L2.62256 11.6538L8.55176 15.0736Z" fill="#FD6907"/>
<path d="M17.8691 20.4272L37.5651 31.7757V32.1217L17.8691 20.7834V20.4272Z" fill="#FD6907"/>
<path d="M41.3716 12.6512V35.9792L39.6367 36.9766L39.6163 36.9665L41.0552 36.142V12.8243L33.7279 8.6004C33.7211 8.47826 33.7143 8.35952 33.7075 8.24417L41.3716 12.6512Z" fill="#FD6907"/>
<path d="M21.1146 43.6127L20.8084 43.7857L14.6343 40.2336V8.7327L14.9506 8.56985V40.0707L21.1146 43.6127Z" fill="#FD6907"/>
<path d="M30.7888 6.55462V17.5265L30.4622 17.3433V6.72765L20.8184 1.17046L21.1245 0.997437L30.7888 6.55462Z" fill="#FD6907"/>
<path d="M27.2988 33.964L30.789 35.9792V42.0758L30.4624 42.2387V36.142L27.2988 34.3202V33.964Z" fill="#FD6907"/>
</g>
</g>
<path d="M60.2517 39.5293V11.8929H65.2581V35.3325H77.43V39.5293H60.2517ZM87.5237 39.9476C86.2103 39.9476 85.0273 39.7137 83.9747 39.2459C82.9312 38.7691 82.1035 38.0674 81.4918 37.1408C80.889 36.2142 80.5877 35.0717 80.5877 33.7132C80.5877 32.5437 80.8036 31.5766 81.2354 30.812C81.6672 30.0473 82.2565 29.4355 83.0032 28.9767C83.7498 28.5179 84.591 28.1716 85.5266 27.9377C86.4712 27.6948 87.4473 27.5193 88.4549 27.4114C89.6693 27.2854 90.6544 27.173 91.4101 27.074C92.1658 26.9661 92.7146 26.8041 93.0564 26.5882C93.4073 26.3633 93.5827 26.017 93.5827 25.5492V25.4682C93.5827 24.4516 93.2813 23.6645 92.6786 23.1067C92.0758 22.5489 91.2077 22.27 90.0742 22.27C88.8777 22.27 87.9286 22.5309 87.2269 23.0527C86.5342 23.5745 86.0664 24.1907 85.8235 24.9014L81.2624 24.2537C81.6222 22.9942 82.216 21.9417 83.0436 21.096C83.8713 20.2414 84.8834 19.6027 86.0799 19.1798C87.2764 18.748 88.5988 18.5321 90.0472 18.5321C91.0458 18.5321 92.0398 18.6491 93.0294 18.883C94.019 19.1169 94.9231 19.5037 95.7418 20.0435C96.5604 20.5743 97.2172 21.2985 97.712 22.2161C98.2157 23.1337 98.4676 24.2807 98.4676 25.6571V39.5293H93.7716V36.682H93.6097C93.3128 37.2577 92.8945 37.7975 92.3547 38.3013C91.8239 38.7961 91.1537 39.1964 90.3441 39.5023C89.5434 39.7992 88.6033 39.9476 87.5237 39.9476ZM88.7922 36.3581C89.7728 36.3581 90.6229 36.1647 91.3426 35.7779C92.0623 35.382 92.6156 34.8602 93.0024 34.2125C93.3983 33.5648 93.5962 32.8586 93.5962 32.0939V29.6514C93.4433 29.7774 93.1824 29.8943 92.8135 30.0023C92.4537 30.1102 92.0488 30.2047 91.599 30.2857C91.1492 30.3666 90.7039 30.4386 90.2631 30.5016C89.8223 30.5646 89.4399 30.6185 89.1161 30.6635C88.3874 30.7625 87.7352 30.9244 87.1594 31.1493C86.5836 31.3742 86.1293 31.6891 85.7965 32.0939C85.4636 32.4897 85.2972 33.0025 85.2972 33.6323C85.2972 34.5319 85.6255 35.2111 86.2823 35.6699C86.939 36.1287 87.7756 36.3581 88.7922 36.3581ZM108.265 27.3844V39.5293H103.38V18.802H108.049V22.324H108.292C108.768 21.1635 109.528 20.2414 110.572 19.5577C111.625 18.874 112.925 18.5321 114.472 18.5321C115.902 18.5321 117.148 18.838 118.21 19.4497C119.28 20.0615 120.108 20.9476 120.693 22.1081C121.287 23.2686 121.579 24.6765 121.57 26.3318V39.5293H116.685V27.0875C116.685 25.7021 116.325 24.6181 115.605 23.8354C114.895 23.0527 113.91 22.6614 112.65 22.6614C111.796 22.6614 111.035 22.8503 110.37 23.2281C109.713 23.597 109.196 24.1323 108.818 24.834C108.449 25.5357 108.265 26.3858 108.265 27.3844ZM126.752 39.5293V11.8929H137.115C139.238 11.8929 141.02 12.2888 142.459 13.0804C143.908 13.8721 145.001 14.9606 145.738 16.346C146.485 17.7225 146.858 19.2878 146.858 21.0421C146.858 22.8143 146.485 24.3887 145.738 25.7651C144.992 27.1415 143.89 28.2255 142.432 29.0172C140.975 29.7999 139.18 30.1912 137.048 30.1912H130.179V26.0754H136.373C137.615 26.0754 138.631 25.8595 139.423 25.4277C140.215 24.9959 140.799 24.4022 141.177 23.6465C141.564 22.8908 141.757 22.0227 141.757 21.0421C141.757 20.0615 141.564 19.1978 141.177 18.4512C140.799 17.7045 140.21 17.1242 139.409 16.7104C138.618 16.2876 137.597 16.0762 136.346 16.0762H131.758V39.5293H126.752ZM150.991 39.5293V18.802H155.727V22.2566H155.943C156.321 21.0601 156.969 20.1379 157.886 19.4902C158.813 18.8335 159.87 18.5051 161.058 18.5051C161.328 18.5051 161.629 18.5186 161.962 18.5456C162.304 18.5636 162.587 18.5951 162.812 18.6401V23.1337C162.605 23.0617 162.277 22.9987 161.827 22.9448C161.386 22.8818 160.959 22.8503 160.545 22.8503C159.654 22.8503 158.854 23.0437 158.143 23.4306C157.441 23.8084 156.888 24.3347 156.483 25.0094C156.078 25.6841 155.876 26.4623 155.876 27.3439V39.5293H150.991ZM174.245 39.9341C172.221 39.9341 170.467 39.4888 168.982 38.5982C167.498 37.7075 166.346 36.4616 165.528 34.8602C164.718 33.2589 164.313 31.3877 164.313 29.2466C164.313 27.1055 164.718 25.2298 165.528 23.6195C166.346 22.0092 167.498 20.7587 168.982 19.8681C170.467 18.9774 172.221 18.5321 174.245 18.5321C176.269 18.5321 178.023 18.9774 179.508 19.8681C180.992 20.7587 182.139 22.0092 182.949 23.6195C183.767 25.2298 184.177 27.1055 184.177 29.2466C184.177 31.3877 183.767 33.2589 182.949 34.8602C182.139 36.4616 180.992 37.7075 179.508 38.5982C178.023 39.4888 176.269 39.9341 174.245 39.9341ZM174.272 36.0208C175.37 36.0208 176.287 35.7194 177.025 35.1166C177.763 34.5049 178.311 33.6862 178.671 32.6607C179.04 31.6351 179.224 30.4926 179.224 29.2331C179.224 27.9647 179.04 26.8176 178.671 25.7921C178.311 24.7575 177.763 23.9343 177.025 23.3226C176.287 22.7109 175.37 22.405 174.272 22.405C173.147 22.405 172.212 22.7109 171.465 23.3226C170.727 23.9343 170.174 24.7575 169.805 25.7921C169.446 26.8176 169.266 27.9647 169.266 29.2331C169.266 30.4926 169.446 31.6351 169.805 32.6607C170.174 33.6862 170.727 34.5049 171.465 35.1166C172.212 35.7194 173.147 36.0208 174.272 36.0208Z" fill="#313131"/>
<defs>
<clipPath id="clip0_465_615">
<rect width="42.2494" height="48.6508" fill="white"/>
</clipPath>
</defs>
</svg>
