<svg width="279" height="76" viewBox="0 0 279 76" fill="none" xmlns="http://www.w3.org/2000/svg">
<g clip-path="url(#clip0_296_712)">
<path d="M8.08266 28.2377V52.3255C12.1479 54.6628 14.6348 58.9715 14.6348 63.6301V65.2996L4.09715 59.2418L0.0957031 56.9364V19.0318L4.08121 16.7264L12.0841 21.3372L14.6348 22.8V32.0218L8.08266 28.2377Z" fill="#FDA015"/>
<path d="M65.9042 19.0318V56.9364L61.9028 59.2418L53.9158 54.631L32.9999 42.595L26.623 38.9222V29.7163L32.9999 33.3732L39.3767 37.046L57.9172 47.7306V23.6427C55.8926 22.4661 54.2506 20.8126 53.1187 18.8569C51.9868 16.9013 51.3651 14.6594 51.3651 12.3381V10.6527L61.9187 16.7264L65.9042 19.0318Z" fill="#FDA015"/>
<path d="M61.9029 59.2418L51.3652 65.2996V56.0937L53.916 54.631L61.9029 59.2418Z" fill="#FDA015"/>
<path d="M14.6347 10.6527V19.8745L12.084 21.3372L4.08105 16.7264L14.6347 10.6527Z" fill="#FDA015"/>
<path d="M41.37 24.9623V14.1188L33.0004 9.30126L24.6308 14.1188V61.8494L33.0004 66.6669L41.37 61.8494V50.8628L49.3729 55.4577V66.4603L33.0004 75.8887L16.6279 66.4603V9.50795L33.0004 0.0794983L48.3685 8.93557L49.3729 9.50795V29.5732L41.37 24.9623Z" fill="#FDA015"/>
<g style="mix-blend-mode:overlay" opacity="0.5">
<path d="M13.3439 63.0895L12.8019 62.7874C12.4512 59.0192 10.283 55.6008 6.95116 53.6929L6.31348 53.3272V26.2979L6.82362 26.5841V53.0569L7.4613 53.4226C10.9367 55.4418 13.1685 59.1146 13.3439 63.0895Z" fill="white"/>
<path d="M13.3597 23.5473V29.8117L12.8655 29.5255V23.8017L3.61914 18.4753L4.0974 18.205L13.3597 23.5473Z" fill="white"/>
<path d="M27.915 31.9105L58.6832 49.6385V50.1791L27.915 32.4669V31.9105Z" fill="white"/>
<path d="M64.6297 19.7632V56.205L61.9195 57.7632L61.8877 57.7473L64.1355 56.4594V20.0335L52.6891 13.4351C52.6785 13.2444 52.6679 13.0589 52.6572 12.8787L64.6297 19.7632Z" fill="white"/>
<path d="M32.9845 68.1297L32.5063 68.4L22.8613 62.851V13.6418L23.3555 13.3875V62.5967L32.9845 68.1297Z" fill="white"/>
<path d="M48.0978 10.2393V27.3791L47.5877 27.0929V10.5096L32.5225 1.82846L33.0007 1.55817L48.0978 10.2393Z" fill="white"/>
<path d="M42.6455 53.0569L48.0977 56.205V65.7289L47.5875 65.9833V56.4594L42.6455 53.6134V53.0569Z" fill="white"/>
</g>
</g>
<path d="M82.4766 59V19H90.9336V35.5039H108.102V19H116.539V59H108.102V42.4766H90.9336V59H82.4766ZM137.027 59.5859C133.941 59.5859 131.285 58.9609 129.059 57.7109C126.845 56.4479 125.139 54.6641 123.941 52.3594C122.743 50.0417 122.145 47.3008 122.145 44.1367C122.145 41.0508 122.743 38.3424 123.941 36.0117C125.139 33.681 126.826 31.8646 129 30.5625C131.188 29.2604 133.753 28.6094 136.695 28.6094C138.674 28.6094 140.517 28.9284 142.223 29.5664C143.941 30.1914 145.439 31.1354 146.715 32.3984C148.004 33.6615 149.007 35.25 149.723 37.1641C150.439 39.0651 150.797 41.2917 150.797 43.8437V46.1289H125.465V40.9727H142.965C142.965 39.7747 142.704 38.7135 142.184 37.7891C141.663 36.8646 140.94 36.1419 140.016 35.6211C139.104 35.0872 138.043 34.8203 136.832 34.8203C135.569 34.8203 134.449 35.1133 133.473 35.6992C132.509 36.2721 131.754 37.0469 131.207 38.0234C130.66 38.987 130.38 40.0612 130.367 41.2461V46.1484C130.367 47.6328 130.641 48.9154 131.188 49.9961C131.747 51.0768 132.535 51.9102 133.551 52.4961C134.566 53.082 135.771 53.375 137.164 53.375C138.089 53.375 138.935 53.2448 139.703 52.9844C140.471 52.724 141.129 52.3333 141.676 51.8125C142.223 51.2917 142.639 50.6536 142.926 49.8984L150.621 50.4062C150.23 52.2552 149.43 53.8698 148.219 55.25C147.021 56.6172 145.471 57.6849 143.57 58.4531C141.682 59.2083 139.501 59.5859 137.027 59.5859ZM167.281 59.4883C165.003 59.4883 162.939 58.9023 161.09 57.7305C159.254 56.5456 157.796 54.8073 156.715 52.5156C155.647 50.2109 155.113 47.3854 155.113 44.0391C155.113 40.6016 155.667 37.7435 156.773 35.4648C157.88 33.1732 159.352 31.4609 161.188 30.3281C163.036 29.1823 165.061 28.6094 167.262 28.6094C168.941 28.6094 170.341 28.8958 171.461 29.4688C172.594 30.0286 173.505 30.7318 174.195 31.5781C174.898 32.4115 175.432 33.2318 175.797 34.0391H176.051V19H184.352V59H176.148V54.1953H175.797C175.406 55.0286 174.853 55.8555 174.137 56.6758C173.434 57.4831 172.516 58.1536 171.383 58.6875C170.263 59.2214 168.896 59.4883 167.281 59.4883ZM169.918 52.8672C171.259 52.8672 172.392 52.5026 173.316 51.7734C174.254 51.0312 174.97 49.9961 175.465 48.668C175.973 47.3398 176.227 45.7839 176.227 44C176.227 42.2161 175.979 40.6667 175.484 39.3516C174.99 38.0365 174.273 37.0208 173.336 36.3047C172.398 35.5885 171.259 35.2305 169.918 35.2305C168.551 35.2305 167.398 35.6016 166.461 36.3437C165.523 37.0859 164.814 38.1146 164.332 39.4297C163.85 40.7448 163.609 42.2682 163.609 44C163.609 45.7448 163.85 47.2878 164.332 48.6289C164.827 49.957 165.536 50.9987 166.461 51.7539C167.398 52.4961 168.551 52.8672 169.918 52.8672ZM191.349 59V19H207.13C210.164 19 212.748 19.5794 214.884 20.7383C217.019 21.8841 218.647 23.4792 219.767 25.5234C220.899 27.5547 221.466 29.8984 221.466 32.5547C221.466 35.2109 220.893 37.5547 219.747 39.5859C218.601 41.6172 216.941 43.1992 214.767 44.332C212.605 45.4648 209.988 46.0312 206.915 46.0312H196.856V39.2539H205.548C207.175 39.2539 208.517 38.974 209.571 38.4141C210.639 37.8411 211.433 37.0534 211.954 36.0508C212.488 35.0352 212.755 33.8698 212.755 32.5547C212.755 31.2266 212.488 30.0677 211.954 29.0781C211.433 28.0755 210.639 27.3008 209.571 26.7539C208.504 26.194 207.149 25.9141 205.509 25.9141H199.806V59H191.349ZM226.803 59V29H234.869V34.2344H235.182C235.729 32.3724 236.646 30.9661 237.936 30.0156C239.225 29.0521 240.709 28.5703 242.389 28.5703C242.805 28.5703 243.255 28.5964 243.736 28.6484C244.218 28.7005 244.641 28.7721 245.006 28.8633V36.2461C244.615 36.1289 244.075 36.0247 243.385 35.9336C242.695 35.8424 242.063 35.7969 241.49 35.7969C240.266 35.7969 239.173 36.0638 238.209 36.5977C237.258 37.1185 236.503 37.8477 235.943 38.7852C235.396 39.7227 235.123 40.8034 235.123 42.0273V59H226.803ZM261.466 59.5859C258.432 59.5859 255.808 58.9414 253.595 57.6523C251.394 56.3503 249.695 54.5404 248.497 52.2227C247.299 49.8919 246.7 47.1901 246.7 44.1172C246.7 41.0182 247.299 38.3099 248.497 35.9922C249.695 33.6615 251.394 31.8516 253.595 30.5625C255.808 29.2604 258.432 28.6094 261.466 28.6094C264.5 28.6094 267.117 29.2604 269.317 30.5625C271.531 31.8516 273.237 33.6615 274.435 35.9922C275.632 38.3099 276.231 41.0182 276.231 44.1172C276.231 47.1901 275.632 49.8919 274.435 52.2227C273.237 54.5404 271.531 56.3503 269.317 57.6523C267.117 58.9414 264.5 59.5859 261.466 59.5859ZM261.505 53.1406C262.885 53.1406 264.037 52.75 264.962 51.9688C265.886 51.1745 266.583 50.0937 267.052 48.7266C267.534 47.3594 267.774 45.8034 267.774 44.0586C267.774 42.3138 267.534 40.7578 267.052 39.3906C266.583 38.0234 265.886 36.9427 264.962 36.1484C264.037 35.3542 262.885 34.957 261.505 34.957C260.112 34.957 258.94 35.3542 257.989 36.1484C257.052 36.9427 256.342 38.0234 255.86 39.3906C255.392 40.7578 255.157 42.3138 255.157 44.0586C255.157 45.8034 255.392 47.3594 255.86 48.7266C256.342 50.0937 257.052 51.1745 257.989 51.9688C258.94 52.75 260.112 53.1406 261.505 53.1406Z" fill="white"/>
<defs>
<clipPath id="clip0_296_712">
<rect width="66" height="76" fill="white"/>
</clipPath>
</defs>
</svg>
