<svg width="232" height="63" viewBox="0 0 232 63" fill="none" xmlns="http://www.w3.org/2000/svg">
<g clip-path="url(#clip0_181_749)">
<path d="M6.69987 23.4075V43.3751C10.0697 45.3126 12.1313 48.8843 12.1313 52.746V54.1299L3.39609 49.1084L0.0791016 47.1973V15.7764L3.38288 13.8653L10.0169 17.6875L12.1313 18.9V26.5444L6.69987 23.4075Z" fill="white"/>
<path d="M54.6309 15.7764V47.1973L51.3139 49.1084L44.6931 45.2862L27.3549 35.309L22.0688 32.2644V24.6333L27.3549 27.6646L32.6409 30.7092L48.0101 39.5661V19.5985C46.3318 18.6232 44.9706 17.2525 44.0323 15.6314C43.0941 14.0103 42.5787 12.1519 42.5787 10.2276V8.83055L51.3271 13.8653L54.6309 15.7764Z" fill="white"/>
<path d="M51.3138 49.1084L42.5786 54.1299V46.4987L44.693 45.2862L51.3138 49.1084Z" fill="white"/>
<path d="M12.1312 8.83055V16.4749L10.0168 17.6875L3.38281 13.8653L12.1312 8.83055Z" fill="white"/>
<path d="M34.293 20.6925V11.7038L27.3551 7.71025L20.4172 11.7038V51.2699L27.3551 55.2634L34.293 51.2699V42.1626L40.927 45.9715V55.0921L27.3551 62.9077L13.7832 55.0921V7.88159L27.3551 0.0659027L40.0945 7.40712L40.927 7.88159V24.5146L34.293 20.6925Z" fill="white"/>
<g style="mix-blend-mode:overlay" opacity="0.5">
<path d="M11.0608 52.2979L10.6115 52.0475C10.3207 48.9239 8.52347 46.0902 5.76151 44.5086L5.23291 44.2054V21.7996L5.65579 22.0368V43.9814L6.1844 44.2845C9.06529 45.9584 10.9154 49.0029 11.0608 52.2979Z" fill="white"/>
<path d="M11.0739 19.5195V24.7124L10.6643 24.4751V19.7303L2.99951 15.3151L3.39596 15.091L11.0739 19.5195Z" fill="white"/>
<path d="M23.1392 26.4521L48.6443 41.1477V41.5958L23.1392 26.9134V26.4521Z" fill="white"/>
<path d="M53.5735 16.3826V46.591L51.3269 47.8826L51.3005 47.8695L53.1638 46.8019V16.6067L43.6754 11.137C43.6665 10.9789 43.6577 10.8251 43.6489 10.6757L53.5735 16.3826Z" fill="white"/>
<path d="M27.3418 56.476L26.9453 56.7L18.9502 52.1002V11.3084L19.3599 11.0975V51.8893L27.3418 56.476Z" fill="white"/>
<path d="M39.8697 8.48788V22.6958L39.4468 22.4586V8.71193L26.9585 1.5157L27.3549 1.29164L39.8697 8.48788Z" fill="white"/>
<path d="M35.3501 43.9814L39.8697 46.591V54.4858L39.4468 54.6967V46.8019L35.3501 44.4427V43.9814Z" fill="white"/>
</g>
</g>
<path d="M73.228 48V15.2727H79.1566V29.1275H94.3217V15.2727H100.266V48H94.3217V34.0973H79.1566V48H73.228ZM117.325 48.4794C114.864 48.4794 112.739 47.968 110.949 46.9453C109.17 45.9119 107.801 44.4524 106.842 42.5668C105.883 40.6705 105.404 38.4386 105.404 35.8711C105.404 33.3462 105.883 31.1303 106.842 29.2234C107.812 27.3058 109.165 25.8143 110.901 24.7489C112.638 23.6729 114.678 23.1349 117.021 23.1349C118.534 23.1349 119.962 23.38 121.304 23.87C122.657 24.3494 123.85 25.0952 124.884 26.1072C125.928 27.1193 126.748 28.4084 127.345 29.9744C127.941 31.5298 128.24 33.3835 128.24 35.5355V37.3093H108.121V33.4102H122.694C122.684 32.3022 122.444 31.3168 121.975 30.4538C121.507 29.5803 120.851 28.8931 120.01 28.3924C119.179 27.8917 118.209 27.6413 117.101 27.6413C115.919 27.6413 114.88 27.929 113.985 28.5043C113.09 29.0689 112.393 29.8146 111.892 30.7415C111.402 31.6577 111.151 32.6644 111.141 33.7617V37.1655C111.141 38.593 111.402 39.8182 111.924 40.8409C112.446 41.853 113.176 42.6307 114.113 43.174C115.051 43.7067 116.148 43.973 117.405 43.973C118.247 43.973 119.008 43.8558 119.69 43.6214C120.372 43.3764 120.963 43.0195 121.464 42.5508C121.965 42.082 122.343 41.5014 122.599 40.8089L128 41.4162C127.659 42.8437 127.009 44.0902 126.05 45.1555C125.102 46.2102 123.888 47.0305 122.407 47.6165C120.926 48.1918 119.232 48.4794 117.325 48.4794ZM142.242 48.4315C140.314 48.4315 138.588 47.9361 137.065 46.9453C135.541 45.9545 134.337 44.5163 133.453 42.6307C132.569 40.745 132.127 38.4545 132.127 35.7592C132.127 33.032 132.574 30.7308 133.469 28.8558C134.375 26.9702 135.594 25.5479 137.128 24.5891C138.663 23.6197 140.372 23.1349 142.258 23.1349C143.696 23.1349 144.879 23.38 145.806 23.87C146.733 24.3494 147.468 24.93 148.011 25.6119C148.554 26.283 148.975 26.9169 149.273 27.5135H149.513V15.2727H155.314V48H149.625V44.1328H149.273C148.975 44.7294 148.544 45.3633 147.979 46.0344C147.414 46.695 146.669 47.2596 145.742 47.7283C144.815 48.1971 143.648 48.4315 142.242 48.4315ZM143.856 43.6854C145.081 43.6854 146.125 43.3551 146.988 42.6946C147.851 42.0234 148.506 41.0913 148.954 39.8981C149.401 38.7049 149.625 37.3146 149.625 35.7273C149.625 34.1399 149.401 32.7603 148.954 31.5884C148.517 30.4165 147.867 29.5057 147.004 28.8558C146.152 28.206 145.103 27.881 143.856 27.881C142.567 27.881 141.491 28.2166 140.628 28.8878C139.765 29.5589 139.115 30.4858 138.679 31.6683C138.242 32.8509 138.023 34.2038 138.023 35.7273C138.023 37.2614 138.242 38.6303 138.679 39.8342C139.126 41.0273 139.781 41.9702 140.644 42.6626C141.518 43.3445 142.588 43.6854 143.856 43.6854ZM161.734 48V15.2727H174.007C176.521 15.2727 178.63 15.7415 180.335 16.679C182.05 17.6165 183.344 18.9055 184.218 20.5462C185.102 22.1761 185.544 24.0298 185.544 26.1072C185.544 28.206 185.102 30.0703 184.218 31.7003C183.334 33.3303 182.029 34.614 180.303 35.5515C178.577 36.4783 176.452 36.9418 173.927 36.9418H165.793V32.0678H173.128C174.598 32.0678 175.802 31.8121 176.739 31.3008C177.677 30.7894 178.369 30.0863 178.817 29.1914C179.275 28.2965 179.504 27.2685 179.504 26.1072C179.504 24.946 179.275 23.9233 178.817 23.0391C178.369 22.1548 177.671 21.4677 176.723 20.9776C175.786 20.4769 174.577 20.2266 173.096 20.2266H167.662V48H161.734ZM190.438 48V23.4545H196.047V27.5455H196.303C196.75 26.1286 197.517 25.0366 198.604 24.2695C199.701 23.4918 200.953 23.103 202.359 23.103C202.679 23.103 203.036 23.119 203.43 23.1509C203.835 23.1722 204.17 23.2095 204.437 23.2628V28.5842C204.192 28.4989 203.803 28.4244 203.27 28.3604C202.748 28.2859 202.242 28.2486 201.752 28.2486C200.697 28.2486 199.749 28.4776 198.908 28.9357C198.077 29.3832 197.421 30.0064 196.942 30.8054C196.463 31.6044 196.223 32.5259 196.223 33.57V48H190.438ZM217.976 48.4794C215.579 48.4794 213.501 47.9521 211.744 46.8974C209.986 45.8427 208.622 44.3672 207.653 42.4709C206.694 40.5746 206.214 38.3587 206.214 35.8232C206.214 33.2876 206.694 31.0664 207.653 29.1594C208.622 27.2525 209.986 25.7717 211.744 24.717C213.501 23.6623 215.579 23.1349 217.976 23.1349C220.373 23.1349 222.45 23.6623 224.208 24.717C225.966 25.7717 227.324 27.2525 228.283 29.1594C229.252 31.0664 229.737 33.2876 229.737 35.8232C229.737 38.3587 229.252 40.5746 228.283 42.4709C227.324 44.3672 225.966 45.8427 224.208 46.8974C222.45 47.9521 220.373 48.4794 217.976 48.4794ZM218.008 43.8452C219.308 43.8452 220.394 43.4883 221.268 42.7745C222.141 42.0501 222.791 41.0806 223.217 39.8661C223.654 38.6516 223.873 37.2987 223.873 35.8072C223.873 34.305 223.654 32.9467 223.217 31.7322C222.791 30.5071 222.141 29.5323 221.268 28.8079C220.394 28.0835 219.308 27.7212 218.008 27.7212C216.676 27.7212 215.568 28.0835 214.684 28.8079C213.81 29.5323 213.155 30.5071 212.718 31.7322C212.292 32.9467 212.079 34.305 212.079 35.8072C212.079 37.2987 212.292 38.6516 212.718 39.8661C213.155 41.0806 213.81 42.0501 214.684 42.7745C215.568 43.4883 216.676 43.8452 218.008 43.8452Z" fill="white"/>
<defs>
<clipPath id="clip0_181_749">
<rect width="54.7105" height="63" fill="white"/>
</clipPath>
</defs>
</svg>
