<svg width="230" height="51" viewBox="0 0 230 51" fill="none" xmlns="http://www.w3.org/2000/svg">
<g clip-path="url(#clip0_603_613)">
<path d="M5.17333 18.0761V33.4958C7.77565 34.9919 9.36766 37.7502 9.36766 40.7323V41.801L2.62204 37.9232L0.0605469 36.4474V12.1831L2.61184 10.7073L7.73483 13.6589L9.36766 14.5953V20.4985L5.17333 18.0761Z" fill="#0095F6"/>
<path d="M42.1865 12.1831V36.4474L39.625 37.9232L34.5123 34.9716L21.1231 27.2668L17.041 24.9157V19.0227L21.1231 21.3636L25.2051 23.7147L37.0738 30.5543V15.1347C35.7777 14.3815 34.7266 13.323 34.002 12.0711C33.2774 10.8192 32.8794 9.38411 32.8794 7.89813V6.81926L39.6353 10.7073L42.1865 12.1831Z" fill="#0095F6"/>
<path d="M39.6245 37.9232L32.8789 41.801V35.908L34.5117 34.9716L39.6245 37.9232Z" fill="#0095F6"/>
<path d="M9.36715 6.81926V12.7225L7.73432 13.6589L2.61133 10.7073L9.36715 6.81926Z" fill="#0095F6"/>
<path d="M26.481 15.9794V9.03805L21.1233 5.95412L15.7656 9.03805V39.5924L21.1233 42.6763L26.481 39.5924V32.5594L31.604 35.5008V42.544L21.1233 48.5796L10.6426 42.544V6.08644L21.1233 0.0508881L30.9611 5.72003L31.604 6.08644V18.9311L26.481 15.9794Z" fill="#0095F6"/>
<g style="mix-blend-mode:overlay" opacity="0.5">
<path d="M8.54149 40.3863L8.19452 40.1929C7.97 37.7807 6.5821 35.5924 4.44922 34.3711L4.04102 34.137V16.8344L4.36758 17.0176V33.964L4.77579 34.1981C7.00051 35.4907 8.42924 37.8418 8.54149 40.3863Z" fill="#0095F6"/>
<path d="M8.55176 15.0736V19.0837L8.2354 18.9005V15.2364L2.31641 11.8268L2.62256 11.6538L8.55176 15.0736Z" fill="#0095F6"/>
<path d="M17.8691 20.4272L37.5651 31.7757V32.1217L17.8691 20.7834V20.4272Z" fill="#0095F6"/>
<path d="M41.3711 12.6512V35.9792L39.6362 36.9766L39.6158 36.9665L41.0547 36.142V12.8243L33.7274 8.6004C33.7206 8.47826 33.7138 8.35952 33.707 8.24417L41.3711 12.6512Z" fill="#0095F6"/>
<path d="M21.115 43.6127L20.8089 43.7857L14.6348 40.2336V8.7327L14.9511 8.56985V40.0707L21.115 43.6127Z" fill="#0095F6"/>
<path d="M30.7888 6.55462V17.5265L30.4622 17.3433V6.72765L20.8184 1.17046L21.1245 0.997437L30.7888 6.55462Z" fill="#0095F6"/>
<path d="M27.2988 33.964L30.789 35.9792V42.0758L30.4624 42.2387V36.142L27.2988 34.3202V33.964Z" fill="#0095F6"/>
</g>
</g>
<path d="M60.2512 39.5293V11.8929H65.2576V23.5925H78.0637V11.8929H83.0836V39.5293H78.0637V27.7892H65.2576V39.5293H60.2512ZM97.4888 39.9341C95.4107 39.9341 93.6159 39.5023 92.1046 38.6387C90.6022 37.766 89.4462 36.5335 88.6365 34.9412C87.8269 33.3399 87.4221 31.4552 87.4221 29.2871C87.4221 27.155 87.8269 25.2838 88.6365 23.6735C89.4552 22.0541 90.5977 20.7947 92.0641 19.895C93.5305 18.9864 95.2533 18.5321 97.2324 18.5321C98.5099 18.5321 99.7154 18.739 100.849 19.1529C101.991 19.5577 102.999 20.1874 103.872 21.0421C104.753 21.8967 105.446 22.9852 105.95 24.3077C106.454 25.6211 106.705 27.1865 106.705 29.0037V30.5016H89.7161V27.209H102.023C102.014 26.2734 101.811 25.4412 101.416 24.7125C101.02 23.9748 100.467 23.3946 99.7559 22.9718C99.0542 22.5489 98.2355 22.3375 97.2999 22.3375C96.3013 22.3375 95.4242 22.5804 94.6685 23.0662C93.9128 23.543 93.3236 24.1727 92.9007 24.9554C92.4869 25.7291 92.2755 26.5792 92.2665 27.5058V30.3801C92.2665 31.5856 92.4869 32.6202 92.9277 33.4838C93.3685 34.3385 93.9848 34.9952 94.7765 35.454C95.5681 35.9038 96.4947 36.1287 97.5563 36.1287C98.267 36.1287 98.9102 36.0298 99.486 35.8318C100.062 35.6249 100.561 35.3236 100.984 34.9277C101.407 34.5319 101.726 34.0416 101.942 33.4568L106.503 33.9696C106.215 35.1751 105.666 36.2277 104.857 37.1273C104.056 38.0179 103.03 38.7106 101.78 39.2054C100.53 39.6912 99.0991 39.9341 97.4888 39.9341ZM118.53 39.8936C116.902 39.8936 115.444 39.4753 114.158 38.6387C112.871 37.802 111.855 36.5875 111.108 34.9952C110.361 33.4029 109.988 31.4687 109.988 29.1926C109.988 26.8896 110.366 24.9464 111.121 23.3631C111.886 21.7708 112.916 20.5698 114.212 19.7601C115.507 18.9415 116.951 18.5321 118.543 18.5321C119.758 18.5321 120.756 18.739 121.539 19.1529C122.322 19.5577 122.942 20.048 123.401 20.6237C123.86 21.1905 124.215 21.7258 124.467 22.2296H124.67V11.8929H129.568V39.5293H124.764V36.2637H124.467C124.215 36.7674 123.851 37.3027 123.374 37.8695C122.897 38.4272 122.268 38.904 121.485 39.2999C120.702 39.6957 119.717 39.8936 118.53 39.8936ZM119.893 35.8858C120.927 35.8858 121.809 35.6069 122.538 35.0492C123.266 34.4824 123.82 33.6952 124.197 32.6877C124.575 31.6801 124.764 30.5061 124.764 29.1656C124.764 27.8252 124.575 26.6602 124.197 25.6706C123.829 24.681 123.28 23.9119 122.551 23.3631C121.831 22.8143 120.945 22.5399 119.893 22.5399C118.804 22.5399 117.896 22.8233 117.167 23.3901C116.438 23.9568 115.889 24.7395 115.521 25.7381C115.152 26.7367 114.967 27.8792 114.967 29.1656C114.967 30.4611 115.152 31.6171 115.521 32.6337C115.898 33.6413 116.452 34.4374 117.18 35.0222C117.918 35.5979 118.822 35.8858 119.893 35.8858ZM134.99 39.5293V11.8929H145.353C147.476 11.8929 149.258 12.2888 150.697 13.0804C152.145 13.8721 153.238 14.9606 153.976 16.346C154.723 17.7225 155.096 19.2878 155.096 21.0421C155.096 22.8143 154.723 24.3887 153.976 25.7651C153.229 27.1415 152.127 28.2255 150.67 29.0172C149.213 29.7999 147.418 30.1912 145.286 30.1912H138.417V26.0754H144.611C145.852 26.0754 146.869 25.8595 147.661 25.4277C148.452 24.9959 149.037 24.4022 149.415 23.6465C149.802 22.8908 149.995 22.0227 149.995 21.0421C149.995 20.0615 149.802 19.1978 149.415 18.4512C149.037 17.7045 148.448 17.1242 147.647 16.7104C146.856 16.2876 145.834 16.0762 144.584 16.0762H139.996V39.5293H134.99ZM159.229 39.5293V18.802H163.965V22.2566H164.181C164.559 21.0601 165.207 20.1379 166.124 19.4902C167.051 18.8335 168.108 18.5051 169.295 18.5051C169.565 18.5051 169.867 18.5186 170.2 18.5456C170.541 18.5636 170.825 18.5951 171.05 18.6401V23.1337C170.843 23.0617 170.514 22.9987 170.065 22.9448C169.624 22.8818 169.196 22.8503 168.783 22.8503C167.892 22.8503 167.091 23.0437 166.381 23.4306C165.679 23.8084 165.126 24.3347 164.721 25.0094C164.316 25.6841 164.114 26.4623 164.114 27.3439V39.5293H159.229ZM182.483 39.9341C180.459 39.9341 178.704 39.4888 177.22 38.5982C175.736 37.7075 174.584 36.4616 173.765 34.8602C172.956 33.2589 172.551 31.3877 172.551 29.2466C172.551 27.1055 172.956 25.2298 173.765 23.6195C174.584 22.0092 175.736 20.7587 177.22 19.8681C178.704 18.9774 180.459 18.5321 182.483 18.5321C184.507 18.5321 186.261 18.9774 187.746 19.8681C189.23 20.7587 190.377 22.0092 191.187 23.6195C192.005 25.2298 192.415 27.1055 192.415 29.2466C192.415 31.3877 192.005 33.2589 191.187 34.8602C190.377 36.4616 189.23 37.7075 187.746 38.5982C186.261 39.4888 184.507 39.9341 182.483 39.9341ZM182.51 36.0208C183.607 36.0208 184.525 35.7194 185.263 35.1166C186 34.5049 186.549 33.6862 186.909 32.6607C187.278 31.6351 187.462 30.4926 187.462 29.2331C187.462 27.9647 187.278 26.8176 186.909 25.7921C186.549 24.7575 186 23.9343 185.263 23.3226C184.525 22.7109 183.607 22.405 182.51 22.405C181.385 22.405 180.45 22.7109 179.703 23.3226C178.965 23.9343 178.412 24.7575 178.043 25.7921C177.683 26.8176 177.503 27.9647 177.503 29.2331C177.503 30.4926 177.683 31.6351 178.043 32.6607C178.412 33.6862 178.965 34.5049 179.703 35.1166C180.45 35.7194 181.385 36.0208 182.51 36.0208Z" fill="white"/>
<defs>
<clipPath id="clip0_603_613">
<rect width="42.2494" height="48.6508" fill="white"/>
</clipPath>
</defs>
</svg>
