<svg width="267" height="77" viewBox="0 0 267 77" fill="none" xmlns="http://www.w3.org/2000/svg">
<g clip-path="url(#clip0_175_175)">
<path d="M8.08266 28.3258V52.4136C12.1479 54.7509 14.6348 59.0596 14.6348 63.7182V65.3877L4.09715 59.3299L0.0957031 57.0245V19.1199L4.08121 16.8145L12.0841 21.4253L14.6348 22.8881V32.1098L8.08266 28.3258Z" fill="#007AFF"/>
<path d="M65.9044 19.1198V57.0244L61.903 59.3298L53.916 54.719L33.0001 42.683L26.6233 39.0102V29.8043L33.0001 33.4612L39.3769 37.134L57.9175 47.8186V23.7307C55.8929 22.5541 54.2508 20.9006 53.1189 18.9449C51.9871 16.9893 51.3653 14.7474 51.3653 12.4261V10.7407L61.9189 16.8144L65.9044 19.1198Z" fill="#007AFF"/>
<path d="M61.9029 59.3296L51.3652 65.3874V56.1815L53.916 54.7188L61.9029 59.3296Z" fill="#007AFF"/>
<path d="M14.6349 10.7407V19.9625L12.0842 21.4252L4.0813 16.8144L14.6349 10.7407Z" fill="#007AFF"/>
<path d="M41.3697 25.0503V14.2068L33.0001 9.38924L24.6306 14.2068V61.9374L33.0001 66.7549L41.3697 61.9374V50.9507L49.3726 55.5457V66.5482L33.0001 75.9767L16.6277 66.5482V9.59593L33.0001 0.16748L48.3683 9.02355L49.3726 9.59593V29.6612L41.3697 25.0503Z" fill="#007AFF"/>
<g style="mix-blend-mode:overlay" opacity="0.5">
<path d="M13.3434 63.1774L12.8014 62.8753C12.4507 59.1071 10.2826 55.6887 6.95067 53.7807L6.31299 53.415V26.3857L6.82313 26.6719V53.1447L7.46081 53.5104C10.9362 55.5297 13.1681 59.2025 13.3434 63.1774Z" fill="white"/>
<path d="M13.3595 23.6352V29.8997L12.8653 29.6135V23.8896L3.6189 18.5633L4.09716 18.293L13.3595 23.6352Z" fill="white"/>
<path d="M27.9146 31.9985L58.6827 49.7266V50.2672L27.9146 32.555V31.9985Z" fill="white"/>
<path d="M64.629 19.8508V56.2927L61.9188 57.8508L61.8869 57.8349L64.1348 56.5471V20.1211L52.6884 13.5228C52.6778 13.332 52.6671 13.1465 52.6565 12.9663L64.629 19.8508Z" fill="white"/>
<path d="M32.984 68.2174L32.5058 68.4876L22.8608 62.9387V13.7295L23.355 13.4751V62.6843L32.984 68.2174Z" fill="white"/>
<path d="M48.0971 10.3272V27.4669L47.5869 27.1807V10.5975L32.5217 1.91629L33 1.646L48.0971 10.3272Z" fill="white"/>
<path d="M42.645 53.1445L48.0972 56.2926V65.8165L47.587 66.0709V56.547L42.645 53.701V53.1445Z" fill="white"/>
</g>
</g>
<path d="M82.4766 59.0879V19.0879H90.9336V52.1152H108.082V59.0879H82.4766ZM122.081 59.6543C120.167 59.6543 118.461 59.3223 116.964 58.6582C115.466 57.9811 114.282 56.985 113.409 55.6699C112.55 54.3418 112.12 52.6882 112.12 50.709C112.12 49.0423 112.426 47.6426 113.038 46.5098C113.65 45.377 114.483 44.4655 115.538 43.7754C116.593 43.0853 117.791 42.5645 119.132 42.2129C120.486 41.8613 121.905 41.6139 123.39 41.4707C125.134 41.2884 126.541 41.1191 127.608 40.9629C128.676 40.7936 129.451 40.5462 129.933 40.2207C130.414 39.8952 130.655 39.4134 130.655 38.7754V38.6582C130.655 37.4212 130.265 36.4642 129.483 35.7871C128.715 35.11 127.621 34.7715 126.202 34.7715C124.705 34.7715 123.513 35.1035 122.628 35.7676C121.743 36.4186 121.157 37.2389 120.87 38.2285L113.175 37.6035C113.565 35.7806 114.334 34.2051 115.479 32.877C116.625 31.5358 118.103 30.5072 119.913 29.791C121.736 29.0618 123.845 28.6973 126.241 28.6973C127.908 28.6973 129.503 28.8926 131.026 29.2832C132.563 29.6738 133.924 30.2793 135.108 31.0996C136.306 31.9199 137.25 32.9746 137.94 34.2637C138.631 35.5397 138.976 37.0697 138.976 38.8535V59.0879H131.085V54.9277H130.851C130.369 55.8652 129.724 56.6921 128.917 57.4082C128.11 58.1113 127.14 58.6647 126.007 59.0684C124.874 59.459 123.565 59.6543 122.081 59.6543ZM124.464 53.9121C125.688 53.9121 126.769 53.6712 127.706 53.1895C128.644 52.6947 129.379 52.0306 129.913 51.1973C130.447 50.3639 130.714 49.4199 130.714 48.3652V45.1816C130.453 45.3509 130.095 45.5072 129.64 45.6504C129.197 45.7806 128.696 45.9043 128.136 46.0215C127.576 46.1257 127.016 46.2233 126.456 46.3145C125.896 46.3926 125.388 46.4642 124.933 46.5293C123.956 46.6725 123.103 46.9004 122.374 47.2129C121.645 47.5254 121.078 47.9486 120.675 48.4824C120.271 49.0033 120.069 49.6543 120.069 50.4355C120.069 51.5684 120.479 52.4342 121.3 53.0332C122.133 53.6191 123.188 53.9121 124.464 53.9121ZM153.751 41.7441V59.0879H145.431V29.0879H153.36V34.3809H153.712C154.376 32.6361 155.489 31.2559 157.052 30.2402C158.614 29.2116 160.509 28.6973 162.735 28.6973C164.819 28.6973 166.635 29.153 168.185 30.0645C169.734 30.9759 170.938 32.278 171.798 33.9707C172.657 35.6504 173.087 37.6556 173.087 39.9863V59.0879H164.767V41.4707C164.78 39.6348 164.311 38.2025 163.36 37.1738C162.41 36.1322 161.101 35.6113 159.435 35.6113C158.315 35.6113 157.325 35.8522 156.466 36.334C155.619 36.8158 154.955 37.5189 154.474 38.4434C154.005 39.3548 153.764 40.4551 153.751 41.7441ZM179.801 59.0879V19.0879H195.582C198.616 19.0879 201.201 19.6673 203.336 20.8262C205.471 21.972 207.099 23.5671 208.219 25.6113C209.352 27.6426 209.918 29.9863 209.918 32.6426C209.918 35.2988 209.345 37.6426 208.199 39.6738C207.053 41.7051 205.393 43.2871 203.219 44.4199C201.057 45.5527 198.44 46.1191 195.367 46.1191H185.309V39.3418H194C195.628 39.3418 196.969 39.0618 198.023 38.502C199.091 37.929 199.885 37.1413 200.406 36.1387C200.94 35.123 201.207 33.9577 201.207 32.6426C201.207 31.3145 200.94 30.1556 200.406 29.166C199.885 28.1634 199.091 27.3887 198.023 26.8418C196.956 26.2819 195.602 26.002 193.961 26.002H188.258V59.0879H179.801ZM215.255 59.0879V29.0879H223.321V34.3223H223.634C224.181 32.4603 225.099 31.054 226.388 30.1035C227.677 29.14 229.161 28.6582 230.841 28.6582C231.257 28.6582 231.707 28.6842 232.188 28.7363C232.67 28.7884 233.093 28.86 233.458 28.9512V36.334C233.067 36.2168 232.527 36.1126 231.837 36.0215C231.147 35.9303 230.515 35.8848 229.942 35.8848C228.718 35.8848 227.625 36.1517 226.661 36.6855C225.711 37.2064 224.955 37.9355 224.396 38.873C223.849 39.8105 223.575 40.8913 223.575 42.1152V59.0879H215.255ZM249.918 59.6738C246.884 59.6738 244.26 59.0293 242.047 57.7402C239.846 56.4382 238.147 54.6283 236.949 52.3105C235.751 49.9798 235.152 47.278 235.152 44.2051C235.152 41.1061 235.751 38.3978 236.949 36.0801C238.147 33.7493 239.846 31.9395 242.047 30.6504C244.26 29.3483 246.884 28.6973 249.918 28.6973C252.952 28.6973 255.569 29.3483 257.77 30.6504C259.983 31.9395 261.689 33.7493 262.887 36.0801C264.085 38.3978 264.684 41.1061 264.684 44.2051C264.684 47.278 264.085 49.9798 262.887 52.3105C261.689 54.6283 259.983 56.4382 257.77 57.7402C255.569 59.0293 252.952 59.6738 249.918 59.6738ZM249.957 53.2285C251.337 53.2285 252.49 52.8379 253.414 52.0566C254.339 51.2624 255.035 50.1816 255.504 48.8145C255.986 47.4473 256.227 45.8913 256.227 44.1465C256.227 42.4017 255.986 40.8457 255.504 39.4785C255.035 38.1113 254.339 37.0306 253.414 36.2363C252.49 35.4421 251.337 35.0449 249.957 35.0449C248.564 35.0449 247.392 35.4421 246.441 36.2363C245.504 37.0306 244.794 38.1113 244.313 39.4785C243.844 40.8457 243.609 42.4017 243.609 44.1465C243.609 45.8913 243.844 47.4473 244.313 48.8145C244.794 50.1816 245.504 51.2624 246.441 52.0566C247.392 52.8379 248.564 53.2285 249.957 53.2285Z" fill="white"/>
<defs>
<clipPath id="clip0_175_175">
<rect width="66" height="76" fill="white" transform="translate(0 0.0878906)"/>
</clipPath>
</defs>
</svg>
