<svg width="230" height="61" viewBox="0 0 230 61" fill="none" xmlns="http://www.w3.org/2000/svg">
<path d="M5.63626 19.6921V36.4902C8.47121 38.1201 10.2055 41.1249 10.2055 44.3736V45.5379L2.85689 41.3134L0.0664062 39.7057V13.2722L2.84577 11.6644L8.42674 14.8799L10.2055 15.9V22.331L5.63626 19.6921Z" fill="black"/>
<path d="M45.9598 13.2722V39.7057L43.1694 41.3134L37.5995 38.0979L23.0134 29.7044L18.5664 27.1431V20.7232L23.0134 23.2734L27.4604 25.8347L40.39 33.2858V16.4877C38.9781 15.6672 37.833 14.514 37.0436 13.1502C36.2543 11.7864 35.8207 10.223 35.8207 8.60419V7.42888L43.1805 11.6644L45.9598 13.2722Z" fill="black"/>
<path d="M43.168 41.3134L35.8193 45.5379V39.118L37.5981 38.0979L43.168 41.3134Z" fill="black"/>
<path d="M10.2055 7.42889V13.8599L8.42667 14.8799L2.8457 11.6645L10.2055 7.42889Z" fill="black"/>
<path d="M28.85 17.408V9.84604L23.0133 6.48641L17.1767 9.84604V43.1318L23.0133 46.4914L28.85 43.1318V35.4701L34.431 38.6745V46.3473L23.0133 52.9224L11.5957 46.3473V6.63056L23.0133 0.0554504L33.7306 6.23139L34.431 6.63056V20.6234L28.85 17.408Z" fill="black"/>
<g style="mix-blend-mode:overlay" opacity="0.5">
<path d="M9.30417 43.9966L8.92618 43.786C8.68159 41.1582 7.16962 38.7743 4.84607 37.4437L4.40137 37.1887V18.3393L4.75713 18.5389V37.0002L5.20182 37.2552C7.62543 38.6634 9.18188 41.2247 9.30417 43.9966Z" fill="black"/>
<path d="M9.31523 16.4211V20.7897L8.97059 20.5902V16.5985L2.52246 12.8841L2.85598 12.6956L9.31523 16.4211Z" fill="black"/>
<path d="M19.4658 22.2534L40.9225 34.6163V34.9933L19.4658 22.6414V22.2534Z" fill="black"/>
<path d="M45.0689 13.7822V39.1956L43.179 40.2822L43.1567 40.2711L44.7243 39.373V13.9707L36.742 9.36925C36.7346 9.23619 36.7271 9.10683 36.7197 8.98117L45.0689 13.7822Z" fill="black"/>
<path d="M23.001 47.5115L22.6675 47.7L15.9414 43.8303V9.51339L16.286 9.33598V43.6529L23.001 47.5115Z" fill="black"/>
<path d="M33.5405 7.14058V19.0933L33.1847 18.8937V7.32908L22.6787 1.2751L23.0122 1.08661L33.5405 7.14058Z" fill="black"/>
<path d="M29.7383 37.0002L33.5405 39.1956V45.8372L33.1847 46.0146V39.373L29.7383 37.3883V37.0002Z" fill="black"/>
</g>
<path d="M60.2512 40V12.3636H65.2576V24.0632H78.0637V12.3636H83.0836V40H78.0637V28.2599H65.2576V40H60.2512ZM97.4888 40.4048C95.4107 40.4048 93.6159 39.973 92.1046 39.1094C90.6022 38.2367 89.4462 37.0043 88.6365 35.4119C87.8269 33.8106 87.4221 31.9259 87.4221 29.7578C87.4221 27.6257 87.8269 25.7545 88.6365 24.1442C89.4552 22.5249 90.5977 21.2654 92.0641 20.3658C93.5305 19.4571 95.2533 19.0028 97.2324 19.0028C98.5099 19.0028 99.7154 19.2098 100.849 19.6236C101.991 20.0284 102.999 20.6581 103.872 21.5128C104.753 22.3674 105.446 23.456 105.95 24.7784C106.454 26.0919 106.705 27.6572 106.705 29.4744V30.9723H89.7161V27.6797H102.023C102.014 26.7441 101.811 25.9119 101.416 25.1832C101.02 24.4455 100.467 23.8653 99.7559 23.4425C99.0542 23.0196 98.2355 22.8082 97.2999 22.8082C96.3013 22.8082 95.4242 23.0511 94.6685 23.5369C93.9128 24.0137 93.3236 24.6435 92.9007 25.4261C92.4869 26.1998 92.2755 27.05 92.2665 27.9766V30.8509C92.2665 32.0563 92.4869 33.0909 92.9277 33.9545C93.3685 34.8092 93.9848 35.4659 94.7765 35.9247C95.5681 36.3745 96.4947 36.5994 97.5563 36.5994C98.267 36.5994 98.9102 36.5005 99.486 36.3026C100.062 36.0956 100.561 35.7943 100.984 35.3984C101.407 35.0026 101.726 34.5123 101.942 33.9276L106.503 34.4403C106.215 35.6458 105.666 36.6984 104.857 37.598C104.056 38.4886 103.03 39.1813 101.78 39.6761C100.53 40.1619 99.0991 40.4048 97.4888 40.4048ZM118.53 40.3643C116.902 40.3643 115.444 39.946 114.158 39.1094C112.871 38.2727 111.855 37.0582 111.108 35.4659C110.361 33.8736 109.988 31.9394 109.988 29.6634C109.988 27.3603 110.366 25.4171 111.121 23.8338C111.886 22.2415 112.916 21.0405 114.212 20.2308C115.507 19.4122 116.951 19.0028 118.543 19.0028C119.758 19.0028 120.756 19.2098 121.539 19.6236C122.322 20.0284 122.942 20.5187 123.401 21.0945C123.86 21.6612 124.215 22.1965 124.467 22.7003H124.67V12.3636H129.568V40H124.764V36.7344H124.467C124.215 37.2382 123.851 37.7734 123.374 38.3402C122.897 38.898 122.268 39.3748 121.485 39.7706C120.702 40.1664 119.717 40.3643 118.53 40.3643ZM119.893 36.3565C120.927 36.3565 121.809 36.0777 122.538 35.5199C123.266 34.9531 123.82 34.166 124.197 33.1584C124.575 32.1508 124.764 30.9768 124.764 29.6364C124.764 28.2959 124.575 27.1309 124.197 26.1413C123.829 25.1518 123.28 24.3826 122.551 23.8338C121.831 23.285 120.945 23.0107 119.893 23.0107C118.804 23.0107 117.896 23.294 117.167 23.8608C116.438 24.4276 115.889 25.2102 115.521 26.2088C115.152 27.2074 114.967 28.3499 114.967 29.6364C114.967 30.9318 115.152 32.0878 115.521 33.1044C115.898 34.112 116.452 34.9081 117.18 35.4929C117.918 36.0687 118.822 36.3565 119.893 36.3565ZM134.99 40V12.3636H145.353C147.476 12.3636 149.258 12.7595 150.697 13.5511C152.145 14.3428 153.238 15.4313 153.976 16.8168C154.723 18.1932 155.096 19.7585 155.096 21.5128C155.096 23.285 154.723 24.8594 153.976 26.2358C153.229 27.6122 152.127 28.6963 150.67 29.4879C149.213 30.2706 147.418 30.6619 145.286 30.6619H138.417V26.5462H144.611C145.852 26.5462 146.869 26.3303 147.661 25.8984C148.452 25.4666 149.037 24.8729 149.415 24.1172C149.802 23.3615 149.995 22.4934 149.995 21.5128C149.995 20.5322 149.802 19.6686 149.415 18.9219C149.037 18.1752 148.448 17.5949 147.647 17.1811C146.856 16.7583 145.834 16.5469 144.584 16.5469H139.996V40H134.99ZM159.229 40V19.2727H163.965V22.7273H164.181C164.559 21.5308 165.207 20.6087 166.124 19.9609C167.051 19.3042 168.108 18.9759 169.295 18.9759C169.565 18.9759 169.867 18.9893 170.2 19.0163C170.541 19.0343 170.825 19.0658 171.05 19.1108V23.6044C170.843 23.5324 170.514 23.4695 170.065 23.4155C169.624 23.3525 169.196 23.321 168.783 23.321C167.892 23.321 167.091 23.5144 166.381 23.9013C165.679 24.2791 165.126 24.8054 164.721 25.4801C164.316 26.1548 164.114 26.933 164.114 27.8146V40H159.229ZM182.483 40.4048C180.459 40.4048 178.704 39.9595 177.22 39.0689C175.736 38.1783 174.584 36.9323 173.765 35.331C172.956 33.7296 172.551 31.8584 172.551 29.7173C172.551 27.5762 172.956 25.7005 173.765 24.0902C174.584 22.4799 175.736 21.2294 177.22 20.3388C178.704 19.4482 180.459 19.0028 182.483 19.0028C184.507 19.0028 186.261 19.4482 187.746 20.3388C189.23 21.2294 190.377 22.4799 191.187 24.0902C192.005 25.7005 192.415 27.5762 192.415 29.7173C192.415 31.8584 192.005 33.7296 191.187 35.331C190.377 36.9323 189.23 38.1783 187.746 39.0689C186.261 39.9595 184.507 40.4048 182.483 40.4048ZM182.51 36.4915C183.607 36.4915 184.525 36.1901 185.263 35.5874C186 34.9756 186.549 34.157 186.909 33.1314C187.278 32.1058 187.462 30.9633 187.462 29.7038C187.462 28.4354 187.278 27.2884 186.909 26.2628C186.549 25.2282 186 24.4051 185.263 23.7933C184.525 23.1816 183.607 22.8757 182.51 22.8757C181.385 22.8757 180.45 23.1816 179.703 23.7933C178.965 24.4051 178.412 25.2282 178.043 26.2628C177.683 27.2884 177.503 28.4354 177.503 29.7038C177.503 30.9633 177.683 32.1058 178.043 33.1314C178.412 34.157 178.965 34.9756 179.703 35.5874C180.45 36.1901 181.385 36.4915 182.51 36.4915Z" fill="black"/>
</svg>
