<svg width="234" height="63" viewBox="0 0 234 63" fill="none" xmlns="http://www.w3.org/2000/svg">
<g clip-path="url(#clip0_454_463)">
<path d="M6.70042 23.4075V43.3751C10.0703 45.3125 12.1318 48.8843 12.1318 52.746V54.1299L3.39664 49.1083L0.0796509 47.1972V15.7763L3.38343 13.8652L10.0174 17.6874L12.1318 18.9V26.5443L6.70042 23.4075Z" fill="#B113C0"/>
<path d="M54.6316 15.7764V47.1973L51.3146 49.1084L44.6938 45.2862L27.3556 35.309L22.0696 32.2645V24.6333L27.3556 27.6647L32.6417 30.7092L48.0108 39.5661V19.5986C46.3325 18.6232 44.9714 17.2525 44.0331 15.6314C43.0948 14.0103 42.5794 12.1519 42.5794 10.2276V8.83057L51.3278 13.8653L54.6316 15.7764Z" fill="#B113C0"/>
<path d="M51.3146 49.1083L42.5794 54.1299V46.4987L44.6938 45.2861L51.3146 49.1083Z" fill="#B113C0"/>
<path d="M12.1318 8.83057V16.4749L10.0174 17.6875L3.38342 13.8653L12.1318 8.83057Z" fill="#B113C0"/>
<path d="M34.2936 20.6925V11.7038L27.3556 7.71027L20.4177 11.7038V51.2699L27.3556 55.2634L34.2936 51.2699V42.1626L40.9275 45.9716V55.0921L27.3556 62.9078L13.7837 55.0921V7.88161L27.3556 0.065918L40.095 7.40713L40.9275 7.88161V24.5147L34.2936 20.6925Z" fill="#B113C0"/>
<g style="mix-blend-mode:overlay" opacity="0.5">
<path d="M11.061 52.2976L10.6116 52.0472C10.3209 48.9236 8.52365 46.0899 5.7617 44.5083L5.23309 44.2052V21.7993L5.65598 22.0366V43.9811L6.18458 44.2843C9.06547 45.9581 10.9156 49.0027 11.061 52.2976Z" fill="white"/>
<path d="M11.0742 19.5193V24.7122L10.6645 24.4749V19.7302L2.99976 15.3149L3.39621 15.0908L11.0742 19.5193Z" fill="white"/>
<path d="M23.1393 26.4521L48.6444 41.1478V41.5959L23.1393 26.9134V26.4521Z" fill="white"/>
<path d="M53.5735 16.3827V46.5911L51.3269 47.8827L51.3005 47.8695L53.1638 46.8019V16.6067L43.6754 11.1371C43.6665 10.9789 43.6577 10.8252 43.6489 10.6758L53.5735 16.3827Z" fill="white"/>
<path d="M27.342 56.4756L26.9455 56.6997L18.9504 52.0999V11.308L19.36 11.0972V51.889L27.342 56.4756Z" fill="white"/>
<path d="M39.8699 8.48774V22.6957L39.447 22.4584V8.7118L26.9587 1.51556L27.3552 1.2915L39.8699 8.48774Z" fill="white"/>
<path d="M35.3501 43.9814L39.8696 46.5911V54.4858L39.4467 54.6967V46.8019L35.3501 44.4427V43.9814Z" fill="white"/>
</g>
</g>
<path d="M72.8445 48V15.2727H79.7638V28.7759H93.8104V15.2727H100.714V48H93.8104V34.4808H79.7638V48H72.8445ZM117.477 48.4794C114.952 48.4794 112.779 47.968 110.957 46.9453C109.146 45.9119 107.75 44.4524 106.77 42.5668C105.79 40.6705 105.3 38.4279 105.3 35.8391C105.3 33.3143 105.79 31.0984 106.77 29.1914C107.75 27.2844 109.13 25.7983 110.909 24.733C112.699 23.6676 114.798 23.1349 117.205 23.1349C118.825 23.1349 120.332 23.396 121.728 23.918C123.134 24.4293 124.359 25.2017 125.403 26.2351C126.458 27.2685 127.278 28.5682 127.864 30.1342C128.45 31.6896 128.743 33.5114 128.743 35.5994V37.4691H108.017V33.2504H122.335C122.335 32.2702 122.122 31.402 121.696 30.6456C121.27 29.8892 120.678 29.2979 119.922 28.8718C119.176 28.435 118.308 28.2166 117.317 28.2166C116.284 28.2166 115.368 28.4563 114.569 28.9357C113.78 29.4045 113.162 30.0384 112.715 30.8374C112.267 31.6257 112.038 32.5046 112.028 33.4741V37.4851C112.028 38.6996 112.251 39.7489 112.699 40.6332C113.157 41.5174 113.801 42.1992 114.632 42.6786C115.463 43.158 116.449 43.3977 117.589 43.3977C118.345 43.3977 119.038 43.2912 119.666 43.0781C120.295 42.8651 120.833 42.5455 121.28 42.1193C121.728 41.6932 122.069 41.1712 122.303 40.5533L128.599 40.9688C128.279 42.4815 127.624 43.8026 126.634 44.9318C125.653 46.0504 124.386 46.924 122.83 47.5526C121.286 48.1705 119.501 48.4794 117.477 48.4794ZM142.23 48.3995C140.366 48.3995 138.677 47.9201 137.164 46.9613C135.662 45.9918 134.469 44.5696 133.585 42.6946C132.711 40.8089 132.275 38.4972 132.275 35.7592C132.275 32.9467 132.727 30.6083 133.633 28.744C134.538 26.869 135.742 25.468 137.244 24.5412C138.757 23.6037 140.414 23.1349 142.214 23.1349C143.588 23.1349 144.734 23.3693 145.65 23.8381C146.577 24.2962 147.322 24.8714 147.887 25.5639C148.462 26.2457 148.899 26.9169 149.197 27.5774H149.405V15.2727H156.197V48H149.485V44.0689H149.197C148.878 44.7507 148.425 45.4272 147.839 46.0984C147.264 46.7589 146.513 47.3075 145.586 47.7443C144.67 48.1811 143.551 48.3995 142.23 48.3995ZM144.387 42.9822C145.485 42.9822 146.412 42.6839 147.168 42.0874C147.935 41.4801 148.521 40.6332 148.926 39.5465C149.341 38.4599 149.549 37.1868 149.549 35.7273C149.549 34.2678 149.347 33 148.942 31.924C148.537 30.848 147.951 30.017 147.184 29.4311C146.417 28.8452 145.485 28.5522 144.387 28.5522C143.269 28.5522 142.326 28.8558 141.559 29.4631C140.792 30.0703 140.211 30.9119 139.817 31.9879C139.423 33.0639 139.226 34.3104 139.226 35.7273C139.226 37.1548 139.423 38.4173 139.817 39.5146C140.222 40.6012 140.803 41.4535 141.559 42.0714C142.326 42.6786 143.269 42.9822 144.387 42.9822ZM161.922 48V15.2727H174.834C177.316 15.2727 179.43 15.7468 181.178 16.695C182.925 17.6325 184.256 18.9375 185.173 20.6101C186.1 22.272 186.563 24.1896 186.563 26.3629C186.563 28.5362 186.094 30.4538 185.157 32.1158C184.219 33.7777 182.861 35.0721 181.082 35.9989C179.313 36.9258 177.172 37.3892 174.658 37.3892H166.428V31.8441H173.539C174.871 31.8441 175.968 31.6151 176.831 31.157C177.705 30.6882 178.354 30.0437 178.781 29.2234C179.217 28.3924 179.436 27.4389 179.436 26.3629C179.436 25.2763 179.217 24.3281 178.781 23.5185C178.354 22.6982 177.705 22.0643 176.831 21.6168C175.957 21.1587 174.85 20.9297 173.507 20.9297H168.841V48H161.922ZM190.93 48V23.4545H197.529V27.7372H197.785C198.232 26.2138 198.983 25.0632 200.038 24.2855C201.093 23.4972 202.307 23.103 203.682 23.103C204.023 23.103 204.39 23.1243 204.784 23.1669C205.178 23.2095 205.525 23.2681 205.823 23.3427V29.3832C205.503 29.2873 205.061 29.2021 204.497 29.1275C203.932 29.0529 203.415 29.0156 202.947 29.0156C201.945 29.0156 201.05 29.234 200.262 29.6708C199.484 30.0969 198.866 30.6935 198.408 31.4606C197.961 32.2276 197.737 33.1119 197.737 34.1133V48H190.93ZM219.29 48.4794C216.808 48.4794 214.661 47.9521 212.85 46.8974C211.05 45.832 209.66 44.3512 208.679 42.4549C207.699 40.5479 207.209 38.3374 207.209 35.8232C207.209 33.2876 207.699 31.0717 208.679 29.1754C209.66 27.2685 211.05 25.7876 212.85 24.733C214.661 23.6676 216.808 23.1349 219.29 23.1349C221.772 23.1349 223.914 23.6676 225.714 24.733C227.525 25.7876 228.921 27.2685 229.901 29.1754C230.881 31.0717 231.371 33.2876 231.371 35.8232C231.371 38.3374 230.881 40.5479 229.901 42.4549C228.921 44.3512 227.525 45.832 225.714 46.8974C223.914 47.9521 221.772 48.4794 219.29 48.4794ZM219.322 43.206C220.451 43.206 221.394 42.8864 222.151 42.2472C222.907 41.5973 223.477 40.7131 223.861 39.5945C224.255 38.4759 224.452 37.2028 224.452 35.7752C224.452 34.3477 224.255 33.0746 223.861 31.956C223.477 30.8374 222.907 29.9531 222.151 29.3033C221.394 28.6534 220.451 28.3285 219.322 28.3285C218.182 28.3285 217.223 28.6534 216.446 29.3033C215.679 29.9531 215.098 30.8374 214.704 31.956C214.32 33.0746 214.129 34.3477 214.129 35.7752C214.129 37.2028 214.32 38.4759 214.704 39.5945C215.098 40.7131 215.679 41.5973 216.446 42.2472C217.223 42.8864 218.182 43.206 219.322 43.206Z" fill="white"/>
<defs>
<clipPath id="clip0_454_463">
<rect width="54.7105" height="63" fill="white"/>
</clipPath>
</defs>
</svg>
