<svg width="230" height="61" viewBox="0 0 230 61" fill="none" xmlns="http://www.w3.org/2000/svg">
<path d="M5.63626 19.6921V36.4902C8.47121 38.1201 10.2055 41.1249 10.2055 44.3736V45.5379L2.85689 41.3134L0.0664062 39.7057V13.2722L2.84577 11.6644L8.42674 14.8799L10.2055 15.9V22.331L5.63626 19.6921Z" fill="black"/>
<path d="M45.9598 13.2722V39.7057L43.1694 41.3134L37.5995 38.0979L23.0134 29.7044L18.5664 27.1431V20.7232L23.0134 23.2734L27.4604 25.8347L40.39 33.2858V16.4877C38.9781 15.6672 37.833 14.514 37.0436 13.1502C36.2543 11.7864 35.8207 10.223 35.8207 8.60419V7.42888L43.1805 11.6644L45.9598 13.2722Z" fill="black"/>
<path d="M43.168 41.3134L35.8193 45.5379V39.118L37.5981 38.0979L43.168 41.3134Z" fill="black"/>
<path d="M10.2055 7.42889V13.8599L8.42667 14.8799L2.8457 11.6645L10.2055 7.42889Z" fill="black"/>
<path d="M28.85 17.408V9.84604L23.0133 6.48641L17.1767 9.84604V43.1318L23.0133 46.4914L28.85 43.1318V35.4701L34.431 38.6745V46.3473L23.0133 52.9224L11.5957 46.3473V6.63056L23.0133 0.0554504L33.7306 6.23139L34.431 6.63056V20.6234L28.85 17.408Z" fill="black"/>
<g style="mix-blend-mode:overlay" opacity="0.5">
<path d="M9.30417 43.9966L8.92618 43.786C8.68159 41.1582 7.16962 38.7743 4.84607 37.4437L4.40137 37.1887V18.3393L4.75713 18.5389V37.0002L5.20182 37.2552C7.62543 38.6634 9.18188 41.2247 9.30417 43.9966Z" fill="black"/>
<path d="M9.31523 16.4211V20.7897L8.97059 20.5902V16.5985L2.52246 12.8841L2.85598 12.6956L9.31523 16.4211Z" fill="black"/>
<path d="M19.4658 22.2534L40.9225 34.6163V34.9933L19.4658 22.6414V22.2534Z" fill="black"/>
<path d="M45.0689 13.7822V39.1956L43.179 40.2822L43.1567 40.2711L44.7243 39.373V13.9707L36.742 9.36925C36.7346 9.23619 36.7271 9.10683 36.7197 8.98117L45.0689 13.7822Z" fill="black"/>
<path d="M23.001 47.5115L22.6675 47.7L15.9414 43.8303V9.51339L16.286 9.33598V43.6529L23.001 47.5115Z" fill="black"/>
<path d="M33.5405 7.14058V19.0933L33.1847 18.8937V7.32908L22.6787 1.2751L23.0122 1.08661L33.5405 7.14058Z" fill="black"/>
<path d="M29.7383 37.0002L33.5405 39.1956V45.8372L33.1847 46.0146V39.373L29.7383 37.3883V37.0002Z" fill="black"/>
</g>
<path d="M60.2512 40V12.3636H65.2576V35.8033H77.4295V40H60.2512ZM87.5233 40.4183C86.2098 40.4183 85.0268 40.1844 83.9743 39.7166C82.9307 39.2398 82.103 38.5381 81.4913 37.6115C80.8886 36.6849 80.5872 35.5424 80.5872 34.1839C80.5872 33.0144 80.8031 32.0473 81.2349 31.2827C81.6667 30.518 82.256 29.9062 83.0027 29.4474C83.7493 28.9886 84.5905 28.6423 85.5261 28.4084C86.4707 28.1655 87.4468 27.9901 88.4544 27.8821C89.6689 27.7562 90.6539 27.6437 91.4096 27.5447C92.1653 27.4368 92.7141 27.2749 93.0559 27.0589C93.4068 26.834 93.5822 26.4877 93.5822 26.0199V25.9389C93.5822 24.9223 93.2808 24.1352 92.6781 23.5774C92.0753 23.0196 91.2072 22.7408 90.0737 22.7408C88.8772 22.7408 87.9281 23.0017 87.2264 23.5234C86.5337 24.0452 86.0659 24.6615 85.823 25.3722L81.2619 24.7244C81.6217 23.465 82.2155 22.4124 83.0431 21.5668C83.8708 20.7121 84.8829 20.0734 86.0794 19.6506C87.2759 19.2188 88.5983 19.0028 90.0467 19.0028C91.0453 19.0028 92.0394 19.1198 93.0289 19.3537C94.0185 19.5876 94.9226 19.9744 95.7413 20.5142C96.56 21.045 97.2167 21.7692 97.7115 22.6868C98.2153 23.6044 98.4672 24.7514 98.4672 26.1278V40H93.7711V37.1527H93.6092C93.3123 37.7285 92.894 38.2682 92.3542 38.772C91.8234 39.2668 91.1532 39.6671 90.3436 39.973C89.5429 40.2699 88.6028 40.4183 87.5233 40.4183ZM88.7917 36.8288C89.7723 36.8288 90.6225 36.6354 91.3422 36.2486C92.0618 35.8527 92.6151 35.331 93.002 34.6832C93.3978 34.0355 93.5957 33.3293 93.5957 32.5646V30.1222C93.4428 30.2481 93.1819 30.3651 92.813 30.473C92.4532 30.581 92.0484 30.6754 91.5985 30.7564C91.1487 30.8374 90.7034 30.9093 90.2626 30.9723C89.8218 31.0353 89.4395 31.0893 89.1156 31.1342C88.3869 31.2332 87.7347 31.3951 87.1589 31.62C86.5832 31.8449 86.1288 32.1598 85.796 32.5646C85.4631 32.9605 85.2967 33.4732 85.2967 34.103C85.2967 35.0026 85.6251 35.6818 86.2818 36.1406C86.9385 36.5994 87.7752 36.8288 88.7917 36.8288ZM108.264 27.8551V40H103.379V19.2727H108.048V22.7947H108.291C108.768 21.6342 109.528 20.7121 110.572 20.0284C111.624 19.3447 112.924 19.0028 114.471 19.0028C115.902 19.0028 117.148 19.3087 118.209 19.9205C119.28 20.5322 120.108 21.4183 120.692 22.5788C121.286 23.7393 121.578 25.1473 121.569 26.8026V40H116.684V27.5582C116.684 26.1728 116.325 25.0888 115.605 24.3061C114.894 23.5234 113.909 23.1321 112.65 23.1321C111.795 23.1321 111.035 23.321 110.369 23.6989C109.712 24.0677 109.195 24.603 108.817 25.3047C108.448 26.0064 108.264 26.8565 108.264 27.8551ZM126.751 40V12.3636H137.115C139.238 12.3636 141.019 12.7595 142.459 13.5511C143.907 14.3428 145 15.4313 145.738 16.8168C146.484 18.1932 146.858 19.7585 146.858 21.5128C146.858 23.285 146.484 24.8594 145.738 26.2358C144.991 27.6122 143.889 28.6963 142.432 29.4879C140.974 30.2706 139.18 30.6619 137.047 30.6619H130.179V26.5462H136.373C137.614 26.5462 138.631 26.3303 139.422 25.8984C140.214 25.4666 140.799 24.8729 141.177 24.1172C141.564 23.3615 141.757 22.4934 141.757 21.5128C141.757 20.5322 141.564 19.6686 141.177 18.9219C140.799 18.1752 140.21 17.5949 139.409 17.1811C138.617 16.7583 137.596 16.5469 136.346 16.5469H131.758V40H126.751ZM150.99 40V19.2727H155.727V22.7273H155.943C156.321 21.5308 156.968 20.6087 157.886 19.9609C158.813 19.3042 159.87 18.9759 161.057 18.9759C161.327 18.9759 161.628 18.9893 161.961 19.0163C162.303 19.0343 162.587 19.0658 162.811 19.1108V23.6044C162.605 23.5324 162.276 23.4695 161.826 23.4155C161.386 23.3525 160.958 23.321 160.544 23.321C159.654 23.321 158.853 23.5144 158.142 23.9013C157.441 24.2791 156.887 24.8054 156.483 25.4801C156.078 26.1548 155.875 26.933 155.875 27.8146V40H150.99ZM174.244 40.4048C172.22 40.4048 170.466 39.9595 168.982 39.0689C167.497 38.1783 166.346 36.9323 165.527 35.331C164.718 33.7296 164.313 31.8584 164.313 29.7173C164.313 27.5762 164.718 25.7005 165.527 24.0902C166.346 22.4799 167.497 21.2294 168.982 20.3388C170.466 19.4482 172.22 19.0028 174.244 19.0028C176.269 19.0028 178.023 19.4482 179.507 20.3388C180.992 21.2294 182.139 22.4799 182.948 24.0902C183.767 25.7005 184.176 27.5762 184.176 29.7173C184.176 31.8584 183.767 33.7296 182.948 35.331C182.139 36.9323 180.992 38.1783 179.507 39.0689C178.023 39.9595 176.269 40.4048 174.244 40.4048ZM174.271 36.4915C175.369 36.4915 176.287 36.1901 177.024 35.5874C177.762 34.9756 178.311 34.157 178.671 33.1314C179.039 32.1058 179.224 30.9633 179.224 29.7038C179.224 28.4354 179.039 27.2884 178.671 26.2628C178.311 25.2282 177.762 24.4051 177.024 23.7933C176.287 23.1816 175.369 22.8757 174.271 22.8757C173.147 22.8757 172.211 23.1816 171.465 23.7933C170.727 24.4051 170.174 25.2282 169.805 26.2628C169.445 27.2884 169.265 28.4354 169.265 29.7038C169.265 30.9633 169.445 32.1058 169.805 33.1314C170.174 34.157 170.727 34.9756 171.465 35.5874C172.211 36.1901 173.147 36.4915 174.271 36.4915Z" fill="black"/>
</svg>
