<svg width="100" height="100" viewBox="0 0 100 100" fill="none" xmlns="http://www.w3.org/2000/svg">
<g clip-path="url(#clip0_713_1198)">
<path d="M82.166 0H4.94336C2.21322 0 0 2.21322 0 4.94336V54.7467C0 57.4768 2.21322 59.69 4.94336 59.69H82.166C84.8962 59.69 87.1094 57.4768 87.1094 54.7467V4.94336C87.1094 2.21322 84.8962 0 82.166 0Z" fill="#E57E25"/>
<path d="M85.1057 58.6352C85.7293 58.1584 86.2346 57.5442 86.5822 56.8404C86.9298 56.1365 87.1103 55.362 87.1098 54.577V5.11309C87.1098 3.75701 86.5711 2.45648 85.6122 1.49759C84.6533 0.538699 83.3528 0 81.9967 0L32.5215 0L85.0004 58.5965L85.1057 58.6352Z" fill="#F7921E"/>
<path d="M54.5883 0H5.11309C3.75701 0 2.45648 0.538699 1.49759 1.49759C0.5387 2.45648 1.29229e-06 3.75701 1.29229e-06 5.11309V54.577C-0.000540568 55.3383 0.169326 56.0902 0.497147 56.7774C0.824968 57.4646 1.30243 58.0698 1.89453 58.5484L2.10938 58.5965L54.5883 0Z" fill="#F7921E"/>
<path d="M81.9963 0H5.11309C3.75701 0 2.45648 0.538699 1.49759 1.49759C0.538699 2.45648 0 3.75701 0 5.11309L0 7.07852L36.8977 32.5037C38.8555 33.8529 41.177 34.5753 43.5547 34.5753C45.9323 34.5753 48.2539 33.8529 50.2117 32.5037L87.1094 7.07852V5.11309C87.1094 3.75701 86.5707 2.45648 85.6118 1.49759C84.6529 0.538699 83.3524 0 81.9963 0V0Z" fill="#F0C419"/>
<path d="M22.6804 100C22.3599 100 22.0471 99.9017 21.7845 99.7181C21.5218 99.5345 21.322 99.2745 21.212 98.9735C21.1021 98.6725 21.0873 98.345 21.1698 98.0353C21.2523 97.7256 21.428 97.4488 21.6732 97.2423L43.2724 79.29C43.4287 79.1532 43.6106 79.049 43.8077 78.9834C44.0047 78.9178 44.2128 78.8921 44.4199 78.9078C44.627 78.9236 44.8288 78.9805 45.0137 79.0751C45.1985 79.1698 45.3626 79.3004 45.4964 79.4592C45.6302 79.618 45.731 79.8019 45.7929 80.0002C45.8548 80.1984 45.8765 80.407 45.8569 80.6137C45.8372 80.8205 45.7765 81.0212 45.6784 81.2042C45.5802 81.3873 45.4466 81.5489 45.2853 81.6796L23.6862 99.6326C23.405 99.8701 23.0486 100 22.6804 100Z" fill="#FF5364"/>
<path d="M41.0008 96.5992C40.6829 96.5994 40.3725 96.5026 40.1111 96.3217C39.8496 96.1409 39.6496 95.8845 39.5376 95.587C39.4257 95.2895 39.4071 94.9649 39.4845 94.6565C39.5618 94.3482 39.7314 94.0708 39.9705 93.8613L45.2873 89.0039C45.4415 88.8678 45.6211 88.7634 45.8157 88.6968C46.0103 88.6302 46.2162 88.6027 46.4215 88.6159C46.6268 88.629 46.8274 88.6826 47.0119 88.7735C47.1965 88.8644 47.3612 88.9908 47.4968 89.1456C47.6323 89.3003 47.736 89.4803 47.8018 89.6752C47.8677 89.87 47.8944 90.076 47.8804 90.2813C47.8664 90.4865 47.8121 90.6869 47.7204 90.8711C47.6288 91.0553 47.5017 91.2196 47.3465 91.3545L42.0307 96.2119C41.746 96.4621 41.3798 96.5999 41.0008 96.5992Z" fill="#35ACEF"/>
<path d="M46.7969 65.693L56.6545 89.3053L74.6637 62.2893L99.982 38.1653L46.7969 65.693Z" fill="#285680"/>
<path d="M99.9818 37.9915L48.0229 68.2995L32.7344 64.3332L99.9818 37.9915Z" fill="#7ED0FC"/>
<path d="M81.6834 58.0348L56.6543 89.3053L59.608 71.3949L81.6834 58.0348Z" fill="#35ACEF"/>
<path d="M99.9813 38.1653C99.9955 38.1209 100.014 38.0871 99.9813 38.1199L59.6074 71.3949L84.618 78.2031L99.9813 38.1653Z" fill="#7ED0FC"/>
</g>
<defs>
<clipPath id="clip0_713_1198">
<rect width="100" height="100" fill="white"/>
</clipPath>
</defs>
</svg>
