<svg width="68" height="66" viewBox="0 0 68 66" fill="none" xmlns="http://www.w3.org/2000/svg">
<path fill-rule="evenodd" clip-rule="evenodd" d="M36.6827 0H31.3133C30.3787 0 29.4795 0.302205 28.6509 0.670977C27.9673 0.975243 27.2351 1.37111 26.4937 1.77258L26.0258 2.02501C24.8496 2.65651 24.0533 3.61497 23.5307 4.43764C23.0489 5.19609 22.7572 5.91066 22.6167 6.25499L22.5819 6.33982L22.5598 6.39284L21.5892 9.71886C21.4692 10.1295 21.4001 10.5716 21.4174 11.0325C21.438 11.576 21.4834 12.209 21.5393 12.9883C21.5961 13.7792 21.664 14.7211 21.7272 15.8725L21.2125 16.0107C20.9381 16.0844 20.6961 16.2378 20.5217 16.4487L19.8684 17.238C19.6442 17.509 19.8936 17.8958 20.2558 17.8374L21.8096 17.5871C21.8832 19.3617 21.9368 21.5428 21.9368 24.2633C21.9368 29.5224 21.7379 33.7686 21.5267 36.6728C21.3353 39.3007 21.6732 41.9829 22.7085 44.4854L22.8967 44.9401C23.4445 46.2641 24.6188 47.3678 26.2108 47.7095C28.0788 48.11 30.8678 48.5265 33.9978 48.5265C37.1279 48.5265 39.9166 48.11 41.7845 47.7095C43.3769 47.3678 44.5511 46.2641 45.0986 44.9401L45.2868 44.4854C46.3222 41.9829 46.6603 39.3007 46.4687 36.6728C46.2571 33.7686 46.0585 29.5224 46.0585 24.2633C46.0585 21.5428 46.1125 19.362 46.1858 17.5871L47.7399 17.8374C48.1014 17.8958 48.3515 17.509 48.127 17.238L47.4737 16.4487C47.2994 16.2377 47.0573 16.0842 46.7829 16.0107L46.2682 15.8722C46.3316 14.7208 46.3992 13.7795 46.4561 12.9886C46.5123 12.209 46.5577 11.576 46.5779 11.0322C46.5953 10.5716 46.5261 10.1295 46.4062 9.71856L45.4362 6.39313L45.4141 6.34011L45.3793 6.25469C45.2388 5.91066 44.9468 5.19609 44.4653 4.43764C43.9427 3.61497 43.1461 2.65651 41.9702 2.02501C41.8138 1.94077 41.6578 1.85662 41.5023 1.77258C40.7606 1.37141 40.0287 0.975243 39.3447 0.670977C38.5162 0.302205 37.6176 0 36.6827 0ZM27.2073 3.93956L27.7122 3.6671C28.4511 3.2677 29.0813 2.9272 29.6708 2.66476C30.3891 2.34488 30.906 2.2091 31.3133 2.2091H36.6827C37.09 2.2091 37.6072 2.34488 38.3252 2.66476C38.915 2.92691 39.5449 3.2677 40.2838 3.6671L40.7887 3.93956C41.4773 4.30922 42.0166 4.91569 42.428 5.56369C42.8022 6.15278 43.0292 6.70653 43.1688 7.04702L43.183 7.08149L44.1217 10.2988C44.1893 10.5313 44.2193 10.7501 44.2117 10.9551C44.1937 11.4305 44.1517 12.0169 44.0987 12.7547C44.0691 13.1612 44.0406 13.5676 44.0131 13.9742L43.9673 13.9462C42.7027 13.1824 39.1531 11.8911 34.0007 11.8911V14.1002C37.7054 14.1002 40.3867 14.8248 41.7858 15.3792L39.4133 20.3496C38.066 19.9096 36.0407 19.4021 33.9982 19.4021C31.9556 19.4021 29.93 19.9096 28.5831 20.3496L26.2102 15.3792C27.6093 14.8248 30.2909 14.1002 33.9956 14.1002V11.8911C28.8429 11.8911 25.2933 13.1824 24.029 13.9462L23.9832 13.9739C23.9529 13.5268 23.9239 13.122 23.8976 12.7547C23.8446 12.0169 23.8023 11.4305 23.7843 10.9551C23.7767 10.7501 23.8068 10.5313 23.8746 10.2988L24.813 7.08178L24.8272 7.04732C24.9671 6.70653 25.1941 6.15278 25.568 5.56398C25.9797 4.91598 26.5187 4.30922 27.2073 3.93956ZM41.2541 45.5566C39.5231 45.928 36.9151 46.3177 33.9982 46.3177C31.0809 46.3177 28.4729 45.928 26.7419 45.5566C26.0223 45.4023 25.4126 44.8853 25.1063 44.1449L24.9181 43.6904C24.8673 43.5672 24.8183 43.4434 24.771 43.319L24.8083 43.3413C26.0473 44.0901 29.4327 45.3967 33.9982 45.3967C38.5636 45.3967 41.949 44.0901 43.1877 43.3413L43.225 43.319C43.1782 43.4435 43.1291 43.5673 43.0778 43.6904L42.89 44.1449C42.5834 44.8853 41.9737 45.4023 41.2541 45.5566ZM41.2907 41.7982C40.0255 42.3661 37.4247 43.1876 33.9982 43.1876C30.5716 43.1876 27.9705 42.3661 26.7053 41.7982L27.2705 36.3355C27.6628 36.4323 28.0569 36.5227 28.4526 36.6065C29.9686 36.9279 32.008 37.2598 33.9982 37.2598C35.9883 37.2598 38.0274 36.9279 39.5433 36.6065C39.9813 36.5138 40.3798 36.4207 40.7258 36.3355L41.2907 41.7982ZM39.0186 34.4522C37.5825 34.7568 35.737 35.0507 33.9982 35.0507C32.2593 35.0507 30.4138 34.7568 28.9774 34.4522C28.3962 34.3293 27.8187 34.191 27.2459 34.0375C27.0841 33.9943 26.9228 33.9493 26.7621 33.9026L26.6384 33.8664L26.609 33.8572L26.6017 33.8552L25.1929 33.4187L24.317 41.888C23.8935 40.2507 23.7647 38.5376 23.8898 36.8227C24.1048 33.8693 24.3053 29.5731 24.3053 24.2633C24.3053 20.9761 24.2257 18.4321 24.1281 16.4481L27.3538 23.2053L28.4287 22.7723C29.4027 22.3799 31.7465 21.6112 33.9982 21.6112C36.2498 21.6112 38.5933 22.3799 39.5673 22.7726L40.6422 23.2056L43.8682 16.4478C43.7706 18.4318 43.6907 20.9758 43.6907 24.2633C43.6907 29.5728 43.8912 33.869 44.1066 36.8224C44.2313 38.5373 44.1028 40.2504 43.6794 41.8877L42.8031 33.4184L41.3943 33.8549L41.387 33.8569L41.3576 33.8661L41.2339 33.9023C41.0732 33.949 40.9119 33.994 40.7501 34.0372C40.1773 34.1907 39.5998 34.3293 39.0186 34.4522Z" fill="#5E5E5E" fill-opacity="0.960784"/>
<path d="M40.3145 63.285V65.4941H40.3542C53.8178 65.477 65.0872 56.7254 68.0003 44.988L65.7613 44.2048C63.2009 55.1169 52.7802 63.285 40.3145 63.285Z" fill="#5E5E5E" fill-opacity="0.960784"/>
<path d="M40.3145 59.6036C51.0878 59.6036 60.0608 52.4134 62.0197 42.8967L59.7662 42.1082C58.1761 50.7878 50.0724 57.3945 40.3145 57.3945V59.6036Z" fill="#5E5E5E" fill-opacity="0.960784"/>
<path d="M40.3149 53.7118C48.3823 53.7118 55.0351 48.0683 55.9855 40.7842L53.6932 39.983C53.1469 46.4307 47.3687 51.5027 40.3149 51.5027V53.7118ZM27.6849 65.4937V63.2846C15.2191 63.2846 4.79939 55.1168 2.23866 44.2039L0 44.9874C2.91437 56.728 14.1866 65.479 27.6533 65.4937H27.6849Z" fill="#5E5E5E" fill-opacity="0.960784"/>
<path d="M5.97852 42.8967C7.93743 52.4134 16.9104 59.6036 27.6838 59.6036V57.3945C17.9258 57.3945 9.82182 50.7878 8.23234 42.1082L5.97852 42.8967Z" fill="#5E5E5E" fill-opacity="0.960784"/>
<path d="M12.0137 40.7854C12.9653 48.0698 19.6185 53.7124 27.6843 53.7124V51.5033C20.633 51.5033 14.8523 46.4301 14.307 39.983L12.0137 40.7854Z" fill="#5E5E5E" fill-opacity="0.960784"/>
</svg>
