<svg width="60" height="57" viewBox="0 0 60 57" fill="none" xmlns="http://www.w3.org/2000/svg">
<g clip-path="url(#clip0_326_606)">
<path d="M35.1891 56.2498L8.6232 31.0432L6.99805 16.3936L7.7532 15.6777L8.78867 16.6375L8.91102 16.6256L8.92648 16.7654L9.0882 16.9152L8.95695 17.0396L10.4223 30.246L35.1896 53.7462L57.114 32.9447L32.333 9.43618L18.4341 8.04751L12.7543 13.4356L11.4193 12.1986L17.7348 6.20752L33.1974 7.75264L59.753 32.9443L35.1891 56.2498ZM18.1341 20.415C17.1005 20.415 16.1298 20.034 15.4004 19.3423C13.9023 17.9198 13.9027 15.6065 15.4009 14.1854C16.1284 13.4945 17.0977 13.1135 18.1295 13.1126C18.1304 13.1126 18.1313 13.1126 18.1323 13.1126C19.1645 13.1126 20.1352 13.4932 20.8655 14.1849C22.3655 15.6079 22.3651 17.9211 20.866 19.3419C20.1371 20.034 19.1673 20.4146 18.1341 20.415ZM18.1327 14.8722H18.1313C17.6049 14.8727 17.1095 15.0678 16.7368 15.422C15.9568 16.162 15.9568 17.3652 16.7363 18.1053C17.1099 18.4599 17.6059 18.655 18.1337 18.655C18.661 18.655 19.1579 18.4595 19.5315 18.1048L19.532 18.1044C20.3115 17.3652 20.3115 16.162 19.5315 15.422C19.1574 15.0678 18.6605 14.8722 18.1327 14.8722Z" fill="#282D33"/>
<path d="M16.4873 18.316C13.8356 18.3164 9.78937 16.1038 6.17999 12.6795C1.90359 8.62163 -1.34016 3.07573 1.07109 0.789258C1.44984 0.429785 2.14874 0 3.32624 0C3.32624 0 3.32671 0 3.32718 0C5.97843 0 10.0237 2.21177 13.6331 5.63555C14.1698 6.14355 14.6873 6.6709 15.1711 7.20176L13.7442 8.34565C13.2895 7.84687 12.803 7.35117 12.2986 6.87261C8.59452 3.36006 5.05171 1.76001 3.32718 1.76001C2.90249 1.76001 2.59265 1.84966 2.40656 2.02588C1.42406 2.95752 2.9264 7.08838 7.51499 11.442C11.2191 14.9559 14.7623 16.5564 16.4869 16.556C16.9125 16.556 17.2223 16.4667 17.4084 16.2896C17.7286 15.9873 17.7811 15.311 17.5542 14.4347L19.3786 14.0186C19.8787 15.9486 19.3092 16.9919 18.7434 17.5271C18.3647 17.8866 17.6648 18.316 16.4873 18.316Z" fill="#282D33"/>
<path d="M38.7416 27.2134L37.4062 25.9756L27.8287 35.0567L29.164 36.2945L38.7416 27.2134Z" fill="#282D33"/>
<path d="M38.7349 35.0549L29.1621 25.9731L27.8264 27.2106L37.3993 36.2924L38.7349 35.0549Z" fill="#282D33"/>
</g>
<defs>
<clipPath id="clip0_326_606">
<rect width="60" height="56.25" fill="white"/>
</clipPath>
</defs>
</svg>
