<svg width="131" height="32" viewBox="0 0 131 32" fill="none" xmlns="http://www.w3.org/2000/svg">
<mask id="mask0_107_16" style="mask-type:luminance" maskUnits="userSpaceOnUse" x="0" y="0" width="131" height="32">
<path d="M130.213 0H0.0800781V32H130.213V0Z" fill="white"/>
</mask>
<g mask="url(#mask0_107_16)">
<path d="M20.1167 6.60645L17.3281 10.7355H23.4216L14.8494 24.258H28.4824L29.3086 19.9225H23.4216L29.7217 10.529L30.5479 6.60645H20.1167Z" fill="#1C274C"/>
<path d="M33.0262 6.60645L32.2005 10.529H34.6786L31.8904 24.258H37.2607L40.7724 6.60645H33.0262Z" fill="#1C274C"/>
<path d="M87.6617 20.8515C89.418 18.4773 90.2438 15.5871 90.1408 12.6968C90.1408 10.4257 89.521 8.77416 88.3845 7.63865C87.0419 6.39996 85.1836 5.88379 82.6015 5.88379C78.8829 5.88379 75.8879 7.22575 74.0286 9.8064C72.2732 12.1806 71.4465 14.9677 71.5505 17.9613C71.5505 20.2322 72.1702 21.8838 73.3058 23.0193C74.6484 24.258 76.5077 24.7742 79.0898 24.7742C82.8075 24.6709 85.8024 23.4322 87.6617 20.8515ZM77.0236 17.5484C77.0236 15.8968 77.4373 14.2451 78.0571 12.8C78.9858 11.1484 80.2254 10.2193 81.7748 10.2193C83.7371 10.2193 84.5638 11.1484 84.5638 13.3161C84.5638 16.2064 83.2213 20.7484 79.8125 20.7484C77.9532 20.6451 77.0236 19.6129 77.0236 17.5484Z" fill="#1C274C"/>
<path d="M102.947 6.09013C99.5395 5.98695 96.3376 7.43209 94.3753 10.1159C92.619 12.5934 91.7933 15.4837 91.8963 18.4772C91.8963 22.503 93.8586 24.774 97.3703 24.774C99.7455 24.774 101.915 23.4321 103.257 21.4708L103.567 20.9546V24.1546H107.492L110.693 7.32882C108.214 6.6063 105.632 6.09013 102.947 6.09013ZM104.084 14.0385C103.464 17.0321 101.192 20.3353 99.2296 20.3353C97.6802 20.3353 97.5772 18.6837 97.5772 17.445C97.5772 15.7934 97.8871 14.245 98.6098 12.7998C99.3326 11.2514 100.778 10.3224 102.431 10.3224C103.154 10.3224 103.877 10.5288 104.6 10.8385H104.704L104.084 14.0385Z" fill="#1C274C"/>
<path d="M70.9306 0L65.4566 0.929066C65.4566 1.85804 65.3536 2.68383 65.2497 3.50972L62.0479 19.7162C61.738 21.4709 61.8419 22.8129 62.5646 23.5355C63.1844 24.258 64.1141 24.5678 65.6635 24.5678C66.7991 24.5678 67.8318 24.4645 68.8644 24.0516L69.5881 20.2322H68.7614C68.2446 20.2322 67.9357 20.1291 67.8318 19.9226C67.6258 19.7162 67.5219 19.2 67.7288 18.3742C67.7288 18.2709 70.7237 2.89028 70.7237 2.58066C70.8267 1.65159 70.9306 0.51617 70.9306 0Z" fill="#1C274C"/>
<path d="M129.284 16.7228L130.006 13.5228C130.11 12.6969 130.213 11.9744 130.213 11.1486C130.213 7.84534 128.458 5.9873 125.152 5.9873C122.674 5.9873 120.402 7.32926 119.059 9.29048L118.852 9.70347L118.645 6.60664H114.515L114.411 9.6002L111.519 24.2582H116.89L118.44 16.6195C118.749 15.0711 119.369 13.626 120.402 12.284C121.331 10.9422 122.467 10.2195 123.397 10.2195C124.842 10.2195 125.049 11.4582 125.049 12.284C125.049 12.9035 124.946 13.5228 124.842 14.2453L123.914 19.3035V19.4066C123.707 20.9551 123.397 22.1938 123.19 24.0518V24.1551H128.561C128.664 21.7809 128.974 19.5099 129.594 17.2389C129.181 17.0324 129.284 16.826 129.284 16.7228Z" fill="#1C274C"/>
<path d="M14.4362 15.2773L8.5492 24.258H1.42285L7.20658 15.2773H14.4362Z" fill="white" fill-opacity="0.2"/>
<path d="M13.0934 6.29639H6.07033L0.0800781 15.277H7.10316L13.0934 6.29639Z" fill="white" fill-opacity="0.2"/>
<path d="M60.3954 12.284C60.3954 8.25824 58.4331 5.9873 54.9223 5.9873C52.7531 5.9873 50.6878 7.01955 49.4483 8.87758L49.2414 9.1873L49.0345 6.60665H44.4901L44.3871 9.49693L40.3596 30.2451L40.0497 31.6909L39.8428 32.0002L45.4198 31.0712C45.6267 30.0385 46.7623 24.7744 46.7623 24.6711V24.4647H46.9692C47.7959 24.6711 48.5186 24.6711 49.3444 24.6711C52.7531 24.7744 55.955 23.3293 57.9173 20.6453C59.6727 18.0647 60.4993 15.1744 60.3954 12.284ZM49.7582 20.4389C49.0345 20.4389 48.3117 20.2324 47.589 19.9228H47.486L48.1058 16.7228C48.4157 15.1744 49.0345 13.7293 50.0681 12.3873C50.9968 11.0453 52.1334 10.3228 53.063 10.3228C54.6124 10.3228 54.7154 11.9744 54.7154 13.2131C54.7154 16.7228 53.166 20.4389 49.7582 20.4389Z" fill="#1C274C"/>
</g>
</svg>
