<svg width="101" height="32" viewBox="0 0 101 32" fill="none" xmlns="http://www.w3.org/2000/svg">
<path d="M0.462158 1.11111C1.46957 1.22963 2.31401 1.31852 2.99549 1.37778C3.7066 1.40741 4.28438 1.45185 4.72883 1.51111C5.26216 1.57037 5.67697 1.6 5.97327 1.6C6.2992 1.62963 6.78808 1.61481 7.43994 1.55556C8.0029 1.4963 8.75845 1.42222 9.7066 1.33333C10.6844 1.24444 11.9288 1.11111 13.4399 0.933333C12.7585 1.52593 12.2103 2.1037 11.7955 2.66667C11.4103 3.2 11.114 3.67407 10.9066 4.08889C10.6399 4.59259 10.477 5.06667 10.4177 5.51111C10.2992 6.22222 10.1955 7.2 10.1066 8.44444C10.0473 9.65926 9.98808 10.9926 9.92883 12.4444C9.86957 13.8963 9.83994 15.3926 9.83994 16.9333C9.83994 18.4741 9.85475 19.9407 9.88438 21.3333C9.94364 22.6963 10.0325 23.9111 10.151 24.9778C10.2992 26.0444 10.477 26.8148 10.6844 27.2889C10.9807 27.8222 11.2918 28.3556 11.6177 28.8889C11.914 29.3333 12.2696 29.7926 12.6844 30.2667C13.0992 30.7407 13.5733 31.1259 14.1066 31.4222C12.3585 31.3333 10.9659 31.2889 9.92883 31.2889H8.32882C7.85475 31.2889 7.24734 31.3185 6.5066 31.3778C5.88438 31.437 5.0992 31.4963 4.15105 31.5556C3.2029 31.6148 2.06216 31.7037 0.728825 31.8222C1.41031 31.0815 1.94364 30.3704 2.32882 29.6889C2.71401 29.0074 3.02512 28.4148 3.26216 27.9111C3.52882 27.3185 3.7066 26.7556 3.79549 26.2222C3.91401 25.4519 4.0029 24.5037 4.06216 23.3778C4.15105 22.2222 4.21031 20.9926 4.23994 19.6889C4.26957 18.3556 4.26957 17.0074 4.23994 15.6444C4.23994 14.2519 4.21031 12.9185 4.15105 11.6444C4.09179 10.3704 4.0029 9.21482 3.88438 8.17778C3.79549 7.14074 3.67697 6.31111 3.52882 5.68889C3.43994 5.3037 3.26216 4.87407 2.99549 4.4C2.75845 3.98519 2.43253 3.51111 2.01771 2.97778C1.63253 2.41481 1.11401 1.79259 0.462158 1.11111Z" fill="#1C274C"/>
<path d="M15.351 0C16.3585 0.148148 17.2473 0.251852 18.0177 0.311111C18.8177 0.37037 19.4844 0.42963 20.0177 0.488889C20.6399 0.548148 21.1733 0.577778 21.6177 0.577778H23.351C24.5066 0.577778 26.4177 0.533333 29.0844 0.444444C28.4325 0.651852 27.8844 0.948148 27.4399 1.33333C27.0251 1.71852 26.6844 2.11852 26.4177 2.53333C26.0918 3.00741 25.8548 3.4963 25.7066 4C25.5288 4.62222 25.3659 5.45185 25.2177 6.48889C25.0696 7.40741 24.9214 8.60741 24.7733 10.0889C24.6548 11.5704 24.5362 13.4222 24.4177 15.6444C25.6918 14.1926 26.8029 12.9037 27.751 11.7778C28.7288 10.6519 29.5733 9.65926 30.2844 8.8C30.9955 7.94074 31.5881 7.2 32.0622 6.57778C32.5659 5.95556 32.9807 5.42222 33.3066 4.97778C34.077 3.97037 34.5214 3.28889 34.6399 2.93333C34.6696 2.72593 34.6548 2.47407 34.5955 2.17778C34.5362 1.94074 34.4473 1.65926 34.3288 1.33333C34.2103 0.977778 34.0325 0.592593 33.7955 0.177778C34.9807 0.237037 35.9881 0.281481 36.8177 0.311111C37.677 0.340741 38.3881 0.37037 38.951 0.4C39.6029 0.42963 40.1362 0.444444 40.551 0.444444H42.4177C43.0992 0.444444 43.9881 0.444444 45.0844 0.444444C46.1807 0.414815 47.5585 0.385185 49.2177 0.355556C48.1214 0.622222 47.0844 0.977778 46.1066 1.42222C45.1288 1.86667 44.2548 2.2963 43.4844 2.71111C42.5955 3.21481 41.7659 3.73333 40.9955 4.26667C40.2251 4.85926 39.3659 5.55556 38.4177 6.35556C37.6177 7.03704 36.6844 7.88148 35.6177 8.88889C34.551 9.86667 33.3955 11.0074 32.151 12.3111C33.4844 14.9185 34.6399 17.0667 35.6177 18.7556C36.6251 20.4148 37.4696 21.7481 38.151 22.7556C38.9214 23.9407 39.5733 24.8444 40.1066 25.4667C40.6399 26.0296 41.2622 26.6074 41.9733 27.2C42.5659 27.7037 43.3066 28.2667 44.1955 28.8889C45.0844 29.4815 46.1066 30.0593 47.2622 30.6222L34.5955 31.2444C34.7733 31.0074 34.877 30.7259 34.9066 30.4C34.9659 30.0444 34.9955 29.7185 34.9955 29.4222C34.9955 29.0963 34.9659 28.7407 34.9066 28.3556C34.7881 27.8815 34.477 27.1111 33.9733 26.0444C33.5585 25.1259 32.9214 23.837 32.0622 22.1778C31.2029 20.4889 30.0177 18.2667 28.5066 15.5111L24.7288 19.4667C24.5807 20.4148 24.5066 21.2741 24.5066 22.0444C24.5066 22.8148 24.5362 23.4519 24.5955 23.9556C24.6844 24.5778 24.8029 25.1111 24.951 25.5556C25.1288 26 25.3807 26.5037 25.7066 27.0667C25.9733 27.5704 26.3288 28.163 26.7733 28.8444C27.2177 29.5259 27.7807 30.2815 28.4622 31.1111C27.7807 30.9333 27.0992 30.8148 26.4177 30.7556C25.7362 30.6667 25.114 30.6074 24.551 30.5778C23.8992 30.5481 23.277 30.563 22.6844 30.6222C22.0622 30.6815 21.3362 30.7704 20.5066 30.8889C19.7955 31.0074 18.9214 31.1556 17.8844 31.3333C16.8473 31.5111 15.6622 31.7333 14.3288 32C14.9807 31.6148 15.4992 31.2 15.8844 30.7556C16.2696 30.3111 16.5807 29.8815 16.8177 29.4667C17.0844 28.9926 17.2622 28.5333 17.351 28.0889C17.4103 27.7037 17.4548 26.8741 17.4844 25.6C17.5436 24.3259 17.5733 22.8444 17.5733 21.1556C17.6029 19.437 17.6029 17.6296 17.5733 15.7333C17.5436 13.837 17.514 12.0593 17.4844 10.4C17.4548 8.74074 17.4103 7.33333 17.351 6.17778C17.3214 4.99259 17.2918 4.26667 17.2622 4C17.1733 3.58519 17.0548 3.14074 16.9066 2.66667C16.7585 2.25185 16.551 1.82222 16.2844 1.37778C16.0473 0.903704 15.7362 0.444444 15.351 0Z" fill="#1C274C"/>
<path d="M41.7066 1.37778C43.7807 1.43704 45.4992 1.48148 46.8622 1.51111C48.2548 1.51111 49.3807 1.51111 50.2399 1.51111H65.8399C65.8992 2.1037 65.9436 2.68148 65.9733 3.24444C66.0325 3.77778 66.0622 4.25185 66.0622 4.66667C66.0622 5.17037 66.0473 5.62963 66.0177 6.04444C65.9881 6.45926 65.9436 6.9037 65.8844 7.37778C65.8251 7.79259 65.7659 8.23704 65.7066 8.71111C65.6473 9.18519 65.5436 9.67407 65.3955 10.1778C64.9807 8.57778 64.4177 7.36296 63.7066 6.53333C63.0251 5.7037 62.3288 5.0963 61.6177 4.71111C60.7881 4.26667 59.914 4.02963 58.9955 4C57.7807 4.05926 56.8325 4.16296 56.151 4.31111C55.4696 4.45926 54.9362 4.66667 54.551 4.93333C54.1659 5.2 53.8696 5.51111 53.6622 5.86667C53.4844 6.19259 53.2918 6.56296 53.0844 6.97778C52.9066 7.33333 52.7436 7.88148 52.5955 8.62222C52.4473 9.24444 52.2992 10.0889 52.151 11.1556C52.0325 12.2222 51.8992 13.6 51.751 15.2889C52.551 15.0519 53.1881 14.8296 53.6622 14.6222C54.1659 14.4148 54.5659 14.237 54.8622 14.0889C55.1881 13.9111 55.4251 13.7481 55.5733 13.6C55.6918 13.4222 55.8696 13.0963 56.1066 12.6222C56.2844 12.2074 56.5214 11.6444 56.8177 10.9333C57.1436 10.2222 57.5288 9.24444 57.9733 8C58.0325 9.36296 58.0622 10.5037 58.0622 11.4222C58.0622 12.3111 58.077 13.037 58.1066 13.6C58.1066 14.2519 58.1214 14.7704 58.151 15.1556V16.8444C58.151 17.4667 58.151 18.3111 58.151 19.3778C58.1807 20.4148 58.2251 21.7333 58.2844 23.3333C57.9288 22.237 57.6029 21.3778 57.3066 20.7556C57.0399 20.1037 56.8029 19.6148 56.5955 19.2889C56.3585 18.9037 56.151 18.637 55.9733 18.4889C55.7659 18.4296 55.4844 18.3704 55.1288 18.3111C54.8029 18.2815 54.3881 18.2667 53.8844 18.2667C53.4103 18.2667 52.8029 18.3407 52.0622 18.4889C51.9733 20.1185 51.9585 21.437 52.0177 22.4444C52.1066 23.4222 52.2251 24.1778 52.3733 24.7111C52.5214 25.3333 52.6992 25.7778 52.9066 26.0444C53.1733 26.3111 53.7066 26.5333 54.5066 26.7111C55.3066 26.8593 56.2103 26.9185 57.2177 26.8889C58.2548 26.8296 59.3066 26.6519 60.3733 26.3556C61.4399 26.0593 62.3881 25.5704 63.2177 24.8889C63.8399 24.3259 64.5066 23.6148 65.2177 22.7556C65.8103 22.0148 66.4622 21.0815 67.1733 19.9556C67.914 18.8296 68.6399 17.4667 69.3511 15.8667C69.2325 17.2 69.1436 18.3111 69.0844 19.2C69.0547 20.0593 69.0103 20.7556 68.951 21.2889C68.8918 21.9111 68.8473 22.3852 68.8177 22.7111C68.8177 23.0667 68.7733 23.5704 68.6844 24.2222C68.6251 24.7852 68.5214 25.5556 68.3733 26.5333C68.2548 27.4815 68.0918 28.6963 67.8844 30.1778C66.4918 30.2074 65.1733 30.237 63.9288 30.2667C62.6844 30.2667 61.5881 30.2815 60.6399 30.3111C59.514 30.3407 58.477 30.3704 57.5288 30.4C56.551 30.4 55.4696 30.4444 54.2844 30.5333C53.2473 30.5926 52.0177 30.6815 50.5955 30.8C49.2029 30.9185 47.6622 31.0815 45.9733 31.2889C46.1214 29.2741 46.2251 27.3778 46.2844 25.6C46.3733 23.7926 46.4325 22.2074 46.4622 20.8444C46.4918 19.2444 46.4918 17.763 46.4622 16.4C46.6103 12.9926 46.551 10.237 46.2844 8.13333C46.0177 6.02963 45.7066 4.68148 45.351 4.08889C45.1733 3.88148 44.9214 3.62963 44.5955 3.33333C44.3288 3.0963 43.9585 2.81481 43.4844 2.48889C43.0103 2.16296 42.4177 1.79259 41.7066 1.37778Z" fill="#1C274C"/>
<path d="M76.1066 1.64444C77.5881 1.73333 78.8325 1.80741 79.8399 1.86667C80.877 1.8963 81.7362 1.92593 82.4177 1.95556C83.1881 1.98519 83.8399 1.98519 84.3733 1.95556C84.9066 1.92593 85.6325 1.85185 86.551 1.73333C87.3214 1.64444 88.3436 1.51111 89.6177 1.33333C90.9214 1.12593 92.5362 0.859259 94.4622 0.533333C93.7807 1.21481 93.2473 1.83704 92.8622 2.4C92.5066 2.93333 92.2251 3.39259 92.0177 3.77778C91.7807 4.25185 91.6177 4.65185 91.5288 4.97778C91.4696 5.27407 91.5288 6.01481 91.7066 7.2C91.8844 8.38519 92.1362 9.79259 92.4622 11.4222C92.7881 13.0222 93.1436 14.7407 93.5288 16.5778C93.914 18.3852 94.2992 20.0889 94.6844 21.6889C95.0696 23.2593 95.4103 24.6074 95.7066 25.7333C96.0325 26.8296 96.2696 27.4815 96.4177 27.6889C96.8622 28.3111 97.1436 28.7259 97.2622 28.9333C97.3807 29.1111 97.5881 29.2741 97.8844 29.4222C98.0029 29.4815 98.1955 29.5704 98.4622 29.6889C98.6992 29.8074 99.0103 29.9556 99.3955 30.1333C99.8103 30.3111 100.329 30.5185 100.951 30.7556C99.7955 30.8148 98.8029 30.8593 97.9733 30.8889C97.1436 30.8889 96.4622 30.9037 95.9288 30.9333C95.3066 30.963 94.7733 30.9926 94.3288 31.0222C93.8844 31.0222 93.3511 31.0519 92.7288 31.1111C92.1955 31.1704 91.4992 31.2296 90.6399 31.2889C89.8103 31.3481 88.8325 31.4074 87.7066 31.4667C88.2992 31.0519 88.7733 30.6815 89.1288 30.3556C89.514 30 89.8103 29.7037 90.0177 29.4667C90.2548 29.1704 90.4177 28.9037 90.5066 28.6667C90.5659 28.4 90.6103 28 90.6399 27.4667C90.6696 26.9926 90.6696 26.3704 90.6399 25.6C90.6103 24.8 90.5362 23.763 90.4177 22.4889L78.7288 23.6889C78.4325 24.1926 78.2103 24.637 78.0622 25.0222C77.914 25.3778 77.8103 25.6889 77.751 25.9556C77.6622 26.2815 77.6325 26.5481 77.6622 26.7556C77.7214 26.9926 77.8251 27.2741 77.9733 27.6C78.1214 27.8963 78.3288 28.2519 78.5955 28.6667C78.8918 29.0519 79.3214 29.5111 79.8844 30.0444C79.1436 30.0148 78.3881 30 77.6177 30C76.8473 30 76.1362 30.0148 75.4844 30.0444C74.714 30.0741 73.9585 30.1037 73.2177 30.1333C72.477 30.163 71.6325 30.2074 70.6844 30.2667C69.8844 30.3259 68.951 30.4 67.8844 30.4889C66.7881 30.5481 65.6177 30.637 64.3733 30.7556C65.1436 30.4 65.7955 30.0444 66.3288 29.6889C66.8622 29.3037 67.3066 28.9481 67.6622 28.6222C68.077 28.2667 68.4325 27.9259 68.7288 27.6C68.9362 27.3037 69.3511 26.6222 69.9733 25.5556C70.5955 24.4593 71.2918 23.1704 72.0622 21.6889C72.8622 20.2074 73.6918 18.6222 74.551 16.9333C75.4399 15.2444 76.2399 13.6593 76.951 12.1778C77.6622 10.6667 78.2399 9.36296 78.6844 8.26667C79.1288 7.17037 79.3511 6.45926 79.3511 6.13333C79.2918 5.74815 79.1436 5.31852 78.9066 4.84444C78.6992 4.42963 78.3733 3.95556 77.9288 3.42222C77.514 2.88889 76.9066 2.2963 76.1066 1.64444ZM89.8844 19.2C89.7066 18.163 89.5436 17.2741 89.3955 16.5333C89.2473 15.763 89.1288 15.1259 89.0399 14.6222C88.9214 14.0296 88.8325 13.5111 88.7733 13.0667C88.6844 12.6519 88.5807 12.1185 88.4622 11.4667C88.3436 10.9037 88.1955 10.2074 88.0177 9.37778C87.8696 8.51852 87.677 7.4963 87.4399 6.31111C85.751 9.68889 84.4325 12.3111 83.4844 14.1778C82.5659 16.0148 81.8992 17.363 81.4844 18.2222C80.9807 19.2296 80.6992 19.8222 80.6399 20L89.8844 19.2Z" fill="#1C274C"/>
</svg>
