<svg width="133" height="32" viewBox="0 0 133 32" fill="none" xmlns="http://www.w3.org/2000/svg">
<mask id="mask0_107_48" style="mask-type:luminance" maskUnits="userSpaceOnUse" x="0" y="0" width="133" height="32">
<path d="M132.462 0H0.0532227V32H132.462V0Z" fill="white"/>
</mask>
<g mask="url(#mask0_107_48)">
<path d="M47.1576 5.37261C46.6899 6.38477 46.4561 7.47474 46.4561 9.96628V23.5137C46.5336 24.9151 46.6125 25.8494 47.1576 26.9395V27.0173H46.4561H45.0532H42.0938C41.0021 26.5501 39.8344 25.2265 38.2765 23.5915C37.0299 22.2679 31.1871 15.4943 31.1871 15.4943H31.1082C31.1082 15.4943 31.1082 21.8786 31.1082 21.9564C29.3954 22.1122 27.3699 22.5793 25.812 22.9686V21.5672V9.8883C25.812 7.31909 25.5781 6.3068 25.1105 5.29465V5.21682H29.4729H31.2646L41.1585 17.2071V10.0441C41.1585 7.47474 40.9246 6.46259 40.457 5.45044V5.37261H45.0532H47.1576ZM36.951 27.0952C28.3037 27.173 26.2782 31.8448 15.2941 31.8448C9.99642 31.8448 5.32275 30.4431 5.32275 30.4431V30.3657C5.94533 28.9638 6.02422 27.8737 6.02422 25.7716V5.76188C6.02422 3.19252 5.79041 1.32387 5.32275 0.31172V0.233887H23.0061L23.5526 5.13899C22.2271 4.59394 20.5918 4.43829 18.2549 4.43829H13.5798V12.9249H15.8392C19.3452 12.9249 21.3707 12.6913 21.9158 12.5355H22.0722V17.6742H21.9933C21.2932 17.4406 18.8775 17.2071 15.9956 17.2071H13.6587V25.6937C13.6587 25.6937 16.3843 26.3166 18.8775 26.3166C25.4218 26.3166 28.2263 23.9807 34.6931 23.9807C34.9255 23.9807 35.0818 23.9807 35.2382 23.9807C36.4848 25.4601 37.575 26.6281 38.0427 27.0952C37.575 27.0952 37.575 27.0952 36.951 27.0952ZM74.5798 10.0441V22.4237C74.5798 24.5258 74.6573 25.6937 75.2813 27.0952V27.173H66.8664V27.0952C67.4904 25.6937 67.5679 24.5258 67.5679 22.4237V10.0441C67.5679 7.47474 67.3341 6.46259 66.8664 5.45044V5.37261H75.2813V5.45044C74.8137 6.46259 74.5798 7.47474 74.5798 10.0441ZM57.6741 14.7934H58.2981C61.4138 14.7934 62.4266 14.5599 62.8943 14.482H63.0492V18.9978H62.8943C62.2702 18.7643 60.9462 18.5307 58.3755 18.5307H57.6741V21.1779V22.2679C57.6741 24.448 57.7515 25.9272 58.453 27.0173V27.0952H49.9621V27.0173C50.5847 25.6158 50.6636 24.448 50.6636 22.3457V10.0441C50.6636 7.47474 50.4297 6.46259 49.9621 5.45044V5.37261H64.4521L64.9973 9.81048H64.9198C63.907 9.34339 62.583 9.10977 60.4785 9.10977H57.6741V12.6913V14.7934ZM93.6661 22.5793L93.121 27.0952H83.0708H78.1633V27.0173C78.7859 25.6158 78.8647 24.448 78.8647 22.3457V10.0441C78.8647 7.47474 78.6309 6.46259 78.1633 5.45044V5.37261H92.6533L93.1985 9.81048H93.121C92.1082 9.34339 90.7842 9.10977 88.6797 9.10977H85.8752V14.0927H86.4204C89.5376 14.0927 90.5503 13.8592 91.018 13.7813H91.1729V18.2971H91.018C90.394 18.0635 89.0699 17.83 86.4993 17.83H85.7978V22.9686C86.8106 23.1244 87.512 23.2022 88.6797 23.2022C91.3293 23.2022 92.2646 23.0466 93.3548 22.5793H93.6661ZM132.229 16.8957C132.229 24.3702 126.776 30.2094 117.582 30.2094C110.493 30.2094 108.234 27.0952 99.4314 27.0952H95.7691V27.0173C96.3931 25.6158 96.4706 24.448 96.4706 22.3457V9.96628C96.4706 7.39692 96.2368 6.38477 95.7691 5.37261V5.29465H104.184V5.37261C103.716 6.38477 103.483 8.0198 103.483 10.0441V23.28C108.701 23.28 111.04 24.8372 115.636 24.8372C122.024 24.8372 125.139 21.3336 125.139 16.3506C125.139 12.0684 122.959 8.87615 119.142 8.87615C118.44 8.87615 117.427 8.87615 116.649 8.87615V22.3457C114.31 22.4237 111.585 22.1122 109.637 21.4115V9.96628C109.637 7.39692 109.403 6.38477 108.935 5.37261V5.29465H118.829C127.01 5.29465 132.229 10.3555 132.229 16.8957Z" fill="#1C274C"/>
</g>
</svg>
