<svg width="117" height="32" viewBox="0 0 117 32" fill="none" xmlns="http://www.w3.org/2000/svg">
<path d="M13.9629 0C6.19038 1.10789 0.213379 7.81322 0.213379 15.9195C0.213379 18.1008 0.646157 20.1808 1.43029 22.0775C10.9955 15.8854 13.5539 11.4425 13.9629 0Z" fill="#1C274C"/>
<path d="M3.90674 26.19C6.84581 29.7398 11.278 32.0003 16.2362 32.0003C21.2328 32.0003 25.6956 29.705 28.6333 26.1072C26.6833 24.2501 23.082 22.2161 16.6046 22.0191C10.64 21.8377 6.53791 23.9706 3.90674 26.19Z" fill="#1C274C"/>
<path d="M31.1799 21.7321C31.8773 19.9293 32.259 17.9692 32.259 15.9194C32.259 7.90888 26.4223 1.26637 18.7841 0.0415039C18.6698 3.50107 19.0242 8.60839 21.393 13.147C23.5476 17.2748 27.7333 20.0438 31.1799 21.7321Z" fill="#1C274C"/>
<path d="M54.2599 1.85693V14.8568H50.5956V9.78685H45.5996V14.8568H41.9353V1.85693H45.5996V6.74113H50.5956V1.85693H54.2599Z" fill="#1C274C"/>
<path fill-rule="evenodd" clip-rule="evenodd" d="M66.7447 9.84248C66.7447 9.86725 66.7259 10.1582 66.6891 10.7154H59.3982C59.5462 11.2354 59.8299 11.6377 60.2493 11.9224C60.6809 12.1948 61.2172 12.331 61.859 12.331C62.3406 12.331 62.7534 12.2629 63.0993 12.1267C63.4565 11.9905 63.8146 11.7677 64.1718 11.4582L66.0228 13.3896C65.0483 14.4792 63.6233 15.0238 61.7478 15.0238C60.5763 15.0238 59.5462 14.801 58.6574 14.3553C57.7696 13.9096 57.0788 13.2906 56.585 12.4982C56.1043 11.7058 55.863 10.8082 55.863 9.80537C55.863 8.81493 56.0977 7.9297 56.5661 7.14966C57.0477 6.35729 57.7074 5.73832 58.5462 5.29254C59.386 4.84686 60.3294 4.62402 61.3783 4.62402C62.3773 4.62402 63.284 4.83443 64.0983 5.25544C64.9126 5.66401 65.5534 6.26443 66.0228 7.0568C66.5034 7.83683 66.7447 8.76539 66.7447 9.84248ZM61.3962 7.13111C60.8534 7.13111 60.3972 7.28585 60.0268 7.59543C59.6696 7.90492 59.4406 8.32584 59.3426 8.85826H63.4508C63.3519 8.32584 63.1172 7.90492 62.7477 7.59543C62.3896 7.28585 61.9391 7.13111 61.3962 7.13111Z" fill="#1C274C"/>
<path d="M71.5294 5.99826C71.8876 5.54015 72.3503 5.19968 72.9177 4.97684C73.4973 4.74166 74.157 4.62402 74.8978 4.62402V7.79972C74.5764 7.76252 74.3116 7.74396 74.1014 7.74396C73.3493 7.74396 72.7575 7.94825 72.3258 8.35682C71.9055 8.76539 71.6963 9.39059 71.6963 10.2325V14.8567H68.1799V4.7911H71.5294V5.99826Z" fill="#1C274C"/>
<path fill-rule="evenodd" clip-rule="evenodd" d="M81.1069 15.0238C80.0334 15.0238 79.0645 14.801 78.2012 14.3553C77.3379 13.9096 76.6594 13.2906 76.1655 12.4982C75.6849 11.7058 75.4436 10.8082 75.4436 9.80537C75.4436 8.81493 75.6849 7.92348 76.1655 7.13111C76.6594 6.33874 77.3314 5.72588 78.1824 5.29254C79.0466 4.84686 80.0212 4.62402 81.1069 4.62402C82.1926 4.62402 83.1671 4.84686 84.0304 5.29254C84.8937 5.72588 85.5666 6.33874 86.0473 7.13111C86.5289 7.91114 86.7692 8.8025 86.7692 9.80537C86.7692 10.8082 86.5289 11.7058 86.0473 12.4982C85.5666 13.2906 84.8937 13.9096 84.0304 14.3553C83.1671 14.801 82.1926 15.0238 81.1069 15.0238ZM81.1069 12.2196C81.7232 12.2196 82.2293 12.0092 82.6242 11.5882C83.0191 11.1548 83.2161 10.5606 83.2161 9.80537C83.2161 9.06254 83.0191 8.48058 82.6242 8.05967C82.2293 7.63876 81.7232 7.42826 81.1069 7.42826C80.4896 7.42826 79.9844 7.63876 79.5895 8.05967C79.1946 8.48058 78.9967 9.06254 78.9967 9.80537C78.9967 10.5606 79.1946 11.1548 79.5895 11.5882C79.9844 12.0092 80.4896 12.2196 81.1069 12.2196Z" fill="#1C274C"/>
<path d="M49.8037 29.9993V28.3803H43.9558V25.5124H48.9593V23.9229H43.9558V21.219H49.5964V19.5996H42.0312V29.9993H49.8037Z" fill="#1C274C"/>
<path d="M53.4738 18.9756H51.6238V29.9994H53.4738V18.9756Z" fill="#1C274C"/>
<path fill-rule="evenodd" clip-rule="evenodd" d="M63.1569 26.6269C63.1767 26.3896 63.1861 26.2059 63.1861 26.0778C63.1861 25.2654 63.0136 24.5522 62.6687 23.9382C62.3332 23.3142 61.8591 22.8338 61.2474 22.497C60.6452 22.1504 59.9591 21.9771 59.1891 21.9771C58.4097 21.9771 57.7085 22.1504 57.0874 22.497C56.4654 22.8436 55.9772 23.329 55.6219 23.953C55.276 24.5671 55.1035 25.2604 55.1035 26.0326C55.1035 26.8153 55.2807 27.5188 55.636 28.1423C56.0017 28.7564 56.5144 29.2368 57.176 29.5834C57.8376 29.9309 58.6019 30.1042 59.4709 30.1042C60.1514 30.1042 60.763 29.9949 61.3059 29.7774C61.8487 29.5589 62.2983 29.2368 62.6536 28.811L61.6612 27.6677C61.0995 28.2412 60.3832 28.5285 59.5152 28.5285C58.8338 28.5285 58.2617 28.3608 57.798 28.0237C57.3438 27.6771 57.0629 27.2118 56.9536 26.6269H63.1569ZM57.6793 23.9976C58.094 23.641 58.5972 23.4627 59.1891 23.4627C59.7913 23.4627 60.2946 23.641 60.6989 23.9976C61.1042 24.3542 61.3455 24.8196 61.4246 25.3941H56.9394C57.028 24.8097 57.275 24.3442 57.6793 23.9976Z" fill="#1C274C"/>
<path d="M66.2365 29.5834C66.8878 29.9309 67.6239 30.1042 68.4429 30.1042C69.2128 30.1042 69.8886 29.945 70.471 29.6286C71.0629 29.3017 71.5115 28.8412 71.8178 28.2469L70.3966 27.4143C70.1694 27.7807 69.8839 28.0585 69.538 28.2469C69.2025 28.4249 68.8321 28.5144 68.4278 28.5144C67.7275 28.5144 67.1498 28.2912 66.6955 27.8457C66.2516 27.3898 66.0292 26.7861 66.0292 26.0326C66.0292 25.2802 66.2563 24.681 66.7106 24.2353C67.1649 23.7796 67.7369 23.5518 68.4278 23.5518C68.8321 23.5518 69.2025 23.6459 69.538 23.8342C69.8839 24.0125 70.1694 24.2848 70.3966 24.6512L71.8178 23.8193C71.5219 23.225 71.078 22.7694 70.4852 22.4524C69.9037 22.1355 69.2223 21.9771 68.4429 21.9771C67.6135 21.9771 66.8736 22.1504 66.2224 22.497C65.5806 22.8436 65.0773 23.3241 64.7116 23.9382C64.3469 24.5522 64.1641 25.2505 64.1641 26.0326C64.1641 26.8153 64.3469 27.5188 64.7116 28.1423C65.0773 28.7564 65.5853 29.2368 66.2365 29.5834Z" fill="#1C274C"/>
<path d="M77.3241 29.9704C77.6398 29.881 77.9065 29.7472 78.1233 29.5692L77.6049 28.2469C77.3288 28.4644 76.9829 28.5737 76.5692 28.5737C76.2138 28.5737 75.9424 28.4748 75.7549 28.2761C75.5673 28.0679 75.4731 27.7712 75.4731 27.3851V23.6112H77.5898V22.1256H75.4731V20.313H73.623V22.1256H72.3196V23.6112H73.623V27.4293C73.623 28.3015 73.8596 28.9645 74.3336 29.4204C74.8067 29.8762 75.4778 30.1042 76.3467 30.1042C76.6926 30.1042 77.0178 30.059 77.3241 29.9704Z" fill="#1C274C"/>
<path d="M84.0718 21.9771C82.7297 21.9771 81.792 22.393 81.2585 23.225V22.0661H79.4971V29.9996H81.3481V26.1522C81.3481 25.3595 81.5498 24.7553 81.955 24.3393C82.3593 23.9134 82.922 23.7004 83.642 23.7004C83.7702 23.7004 83.9135 23.7153 84.0718 23.745V21.9771Z" fill="#1C274C"/>
<path fill-rule="evenodd" clip-rule="evenodd" d="M86.8126 29.5834C87.4544 29.9309 88.1744 30.1042 88.9746 30.1042C89.7832 30.1042 90.5089 29.9309 91.1507 29.5834C91.7916 29.2368 92.2902 28.7564 92.6455 28.1423C93.0112 27.5188 93.1931 26.8153 93.1931 26.0326C93.1931 25.2505 93.0112 24.5522 92.6455 23.9382C92.2902 23.3241 91.7916 22.8436 91.1507 22.497C90.5089 22.1504 89.7832 21.9771 88.9746 21.9771C88.1744 21.9771 87.4544 22.1504 86.8126 22.497C86.1717 22.8436 85.6675 23.3241 85.3028 23.9382C84.9474 24.5522 84.7703 25.2505 84.7703 26.0326C84.7703 26.8153 84.9474 27.5188 85.3028 28.1423C85.6675 28.7564 86.1717 29.2368 86.8126 29.5834ZM90.6616 27.8306C90.2177 28.2864 89.655 28.5144 88.9746 28.5144C88.2932 28.5144 87.7306 28.2864 87.2867 27.8306C86.8522 27.3747 86.6354 26.7757 86.6354 26.0326C86.6354 25.2901 86.8522 24.6909 87.2867 24.2353C87.7306 23.7796 88.2932 23.5518 88.9746 23.5518C89.655 23.5518 90.2177 23.7796 90.6616 24.2353C91.1055 24.6909 91.3279 25.2901 91.3279 26.0326C91.3279 26.7757 91.1055 27.3747 90.6616 27.8306Z" fill="#1C274C"/>
<path d="M101.699 22.8535C101.096 22.2692 100.297 21.9771 99.3001 21.9771C98.7177 21.9771 98.1946 22.0711 97.7309 22.2593C97.2672 22.4475 96.8827 22.7248 96.5764 23.0912V22.0661H94.8149V29.9996H96.665V25.9884C96.665 25.2159 96.8629 24.6265 97.2578 24.2204C97.6518 23.8044 98.1899 23.5965 98.8713 23.5965C99.4735 23.5965 99.9372 23.7747 100.262 24.1312C100.588 24.4779 100.752 24.9979 100.752 25.6917V29.9996H102.602V25.4534C102.602 24.3046 102.301 23.4379 101.699 22.8535Z" fill="#1C274C"/>
<path d="M106.651 22.0659H104.801V29.9994H106.651V22.0659Z" fill="#1C274C"/>
<path d="M104.89 20.4468C105.117 20.6548 105.398 20.7589 105.734 20.7589C106.079 20.7589 106.36 20.6499 106.578 20.4319C106.805 20.2041 106.918 19.9268 106.918 19.6C106.918 19.293 106.805 19.0404 106.578 18.8423C106.351 18.6343 106.069 18.5303 105.734 18.5303C105.398 18.5303 105.117 18.6392 104.89 18.8571C104.663 19.0651 104.55 19.3276 104.55 19.6446C104.55 19.9615 104.663 20.2289 104.89 20.4468Z" fill="#1C274C"/>
<path d="M111.938 27.2511L113.966 29.9994H116.053L112.959 25.9439L115.92 22.0659H113.922L111.982 24.6659L110.042 22.0659H107.985L110.931 25.9731L107.852 29.9994H109.894L111.938 27.2511Z" fill="#1C274C"/>
</svg>
