<svg width="46" height="39" viewBox="0 0 46 39" fill="none" xmlns="http://www.w3.org/2000/svg">
<path d="M18.8984 0.0449219H2.49219C1.19984 0.0449219 0.148438 1.09633 0.148438 2.38867V17.623C0.148438 18.9154 1.19984 19.9668 2.49219 19.9668H12.2029C11.1046 25.3566 6.28988 29.3418 0.734375 29.3418C0.41082 29.3418 0.148438 29.6041 0.148438 29.9277V37.5449C0.148438 37.8686 0.41082 38.1309 0.734375 38.1309C12.0424 38.1309 21.2422 28.9311 21.2422 17.623V2.38867C21.2422 1.09633 20.1908 0.0449219 18.8984 0.0449219ZM20.0703 17.623C20.0703 28.0891 11.7124 36.6395 1.32031 36.9503V30.5004C4.22891 30.3681 7.00953 29.2544 9.20621 27.3303C11.5256 25.2988 13.0429 22.5052 13.479 19.4641C13.5031 19.2958 13.4531 19.1254 13.3418 18.9971C13.2304 18.8686 13.0688 18.7949 12.899 18.7949H2.49219C1.84602 18.7949 1.32031 18.2692 1.32031 17.623V2.38867C1.32031 1.7425 1.84602 1.2168 2.49219 1.2168H18.8984C19.5446 1.2168 20.0703 1.7425 20.0703 2.38867V17.623ZM43.5078 0.0449219H27.1016C25.8092 0.0449219 24.7578 1.09633 24.7578 2.38867V17.623C24.7578 18.9154 25.8092 19.9668 27.1016 19.9668H36.8128C35.7145 25.3566 30.8996 29.3418 25.3438 29.3418C25.0201 29.3418 24.7578 29.6041 24.7578 29.9277V37.5449C24.7578 37.8686 25.0201 38.1309 25.3438 38.1309C36.6518 38.1309 45.8516 28.9311 45.8516 17.623V2.38867C45.8516 1.09633 44.8003 0.0449219 43.5078 0.0449219ZM44.6797 17.623C44.6797 28.0891 36.3218 36.6395 25.9297 36.9503V30.5004C28.8383 30.3682 31.619 29.2544 33.8158 27.3303C36.1353 25.2988 37.6528 22.5052 38.0888 19.4641C38.113 19.2958 38.0628 19.1254 37.9516 18.9971C37.8403 18.8686 37.6788 18.7949 37.5089 18.7949H27.1016C26.4554 18.7949 25.9297 18.2692 25.9297 17.623V2.38867C25.9297 1.7425 26.4554 1.2168 27.1016 1.2168H43.5078C44.154 1.2168 44.6797 1.7425 44.6797 2.38867V17.623Z" fill="#007AFF"/>
</svg>
