<svg width="95" height="46" viewBox="0 0 95 46" fill="none" xmlns="http://www.w3.org/2000/svg">
<path d="M1.001 44.3837C8.77386 26.3004 20.0186 8.69421 39.7853 2.25409C50.3386 -1.18583 63.0766 2.21695 61.8305 15.3885C60.9841 24.3617 54.7831 37.9316 44.2192 37.915C32.5537 37.8966 52.2836 19.7964 54.7524 18.2501C66.3074 11.0112 77.5405 8.30123 90.8306 6.88698C95.8093 6.35705 93.3185 4.76599 90.1108 3.86515C87.2386 2.94904 84.2604 2.40666 81.2497 2.25138C80.3675 2.2467 85.9234 3.43453 86.809 3.57905C90.6055 4.19921 94.9605 5.0636 93.1062 9.83753C92.8096 10.6006 89.4153 17.4939 88.2785 17.2542C87.6854 17.1282 87.2612 11.6888 87.0305 10.954C85.5524 6.19063 83.498 3.95713 78.8958 2.41244" stroke="#6E55D5" stroke-width="2" stroke-linecap="round"/>
</svg>
