<svg width="60" height="60" viewBox="0 0 60 60" fill="none" xmlns="http://www.w3.org/2000/svg">
<g clip-path="url(#clip0_326_626)">
<path d="M14.8454 59.9998H0.189453V10.8457H36.1866V25.5326H34.3116V12.7207H2.06398V58.1248H14.8454V59.9998Z" fill="#282D33"/>
<path d="M31.4941 15.7412H29.6191V25.7851H31.4941V15.7412Z" fill="#282D33"/>
<path d="M22.4028 16.0698H13.6367V17.9448H22.4028V16.0698Z" fill="#282D33"/>
<path d="M14.8447 54.7759H4.88281V15.7412H6.75781V52.9009H14.8447V54.7759Z" fill="#282D33"/>
<path d="M27.4516 18.4097H25.5766V8.52047C25.5766 4.85625 22.6352 1.875 19.0198 1.875H17.3571C13.7412 1.875 10.7988 4.85625 10.7988 8.52047V18.4097H8.92383V8.52047C8.92383 3.82219 12.7066 0 17.3566 0H19.0193C23.6684 0 27.4512 3.82219 27.4512 8.52047L27.4516 18.4097Z" fill="#282D33"/>
<path d="M59.813 60.0002H17.3457V28.1289H59.8126L59.813 60.0002ZM19.2207 58.1252H57.9376V30.0039H19.2207V58.1252Z" fill="#282D33"/>
<path d="M39.0962 45.9426H38.0598C33.4098 45.9426 29.627 42.1209 29.627 37.4226V33.2329H31.502V37.4226C31.502 41.0868 34.4434 44.0681 38.0598 44.0681H39.0962C42.7116 44.0681 45.653 41.0873 45.653 37.4226V33.2329H47.529V37.4226C47.5295 42.1204 43.7462 45.9426 39.0962 45.9426Z" fill="#282D33"/>
<path d="M58.2339 52.4375H19.1172V54.3125H58.2339V52.4375Z" fill="#282D33"/>
</g>
<defs>
<clipPath id="clip0_326_626">
<rect width="60" height="60" fill="white"/>
</clipPath>
</defs>
</svg>
