<svg width="74" height="74" viewBox="0 0 74 74" fill="none" xmlns="http://www.w3.org/2000/svg">
<path d="M17.0098 39.8502L10.7256 34.7812L21.2625 21.5005H38.9924V23.813H22.3794L13.9631 34.4216L16.6473 36.5867L24.0219 27.2916H28.2734V29.6041H25.1388L17.0098 39.8502Z" fill="#282D33"/>
<path d="M44.303 26.4043C40.2654 26.4043 36.9805 23.0963 36.9805 19.0303C36.9805 14.9649 40.2654 11.6575 44.303 11.6575C48.3383 11.6575 51.6215 14.9649 51.6215 19.0303C51.6215 23.0963 48.3383 26.4043 44.303 26.4043ZM44.303 13.97C41.5407 13.97 39.293 16.2403 39.293 19.0303C39.293 21.8215 41.5407 24.0918 44.303 24.0918C47.063 24.0918 49.309 21.8215 49.309 19.0303C49.309 16.2403 47.063 13.97 44.303 13.97Z" fill="#282D33"/>
<path d="M14.066 71.4125L8.79297 65.2879L21.2787 54.3613L22.3384 48.6211L24.6128 49.0408L23.4062 55.5719L12.042 65.5168L14.2973 68.1369L26.557 57.4098L27.1479 54.2052L29.4222 54.6249L28.6845 58.6198L14.066 71.4125Z" fill="#282D33"/>
<path d="M42.3259 72.1385L34.2882 71.6222L35.1485 57.9473L25.9407 48.6626C24.0976 46.8056 23.083 44.3353 23.083 41.7071C23.083 39.0784 24.0976 36.6087 25.9407 34.7511L38.9566 21.4485L44.2129 26.6753V36.8914H54.3561V44.9944L36.2521 44.9949V35.7652L31.663 40.4555C31.3172 40.8035 31.138 41.2342 31.138 41.7071C31.138 42.1737 31.3178 42.6113 31.6439 42.9403L43.418 54.8121L42.3259 72.1385ZM36.7412 69.4623L40.1637 69.6826L41.0442 55.7024L30.0009 44.5689C29.2424 43.804 28.8249 42.7877 28.8249 41.7077C28.8249 40.6272 29.2476 39.6057 30.0153 38.8327L38.5646 30.0955V42.6824H52.0436V39.2039H41.9004V27.6373L38.9791 24.7328L27.5883 36.3745C26.1725 37.8013 25.3961 39.693 25.3961 41.7077C25.3961 43.7213 26.1725 45.6135 27.5831 47.0346L37.5217 57.0569L36.7412 69.4623Z" fill="#282D33"/>
<path d="M64.2685 73.0503V70.7378C68.3593 70.7378 71.6876 67.3772 71.6876 63.247C71.6876 59.1158 68.3593 55.7551 64.2685 55.7551C60.1783 55.7551 56.8506 59.1158 56.8506 63.247H54.5381C54.5381 57.8404 58.9035 53.4426 64.2685 53.4426C69.6347 53.4426 74.0001 57.8404 74.0001 63.247C74.0001 68.6531 69.6347 73.0503 64.2685 73.0503Z" fill="#282D33"/>
<path d="M15.9379 44.1626H6.44336V46.4751H15.9379V44.1626Z" fill="#282D33"/>
<path d="M18.6783 50.2866H9.18262V52.5991H18.6783V50.2866Z" fill="#282D33"/>
<path d="M3.73064 44.1626H0V46.4751H3.73064V44.1626Z" fill="#282D33"/>
<path d="M61.6723 60.7048H52.1777V63.0173H61.6723V60.7048Z" fill="#282D33"/>
<path d="M63.9654 66.7395H54.4697V69.052H63.9654V66.7395Z" fill="#282D33"/>
<path d="M49.4643 60.7048H46.5332V63.0173H49.4643V60.7048Z" fill="#282D33"/>
<path d="M31.835 14.3984C31.6593 9.62714 27.82 5.89014 23.0938 5.89014C20.8576 5.89014 18.7301 6.74229 17.1021 8.28936L15.5088 6.61395C17.5681 4.65584 20.2616 3.57764 23.0938 3.57764C29.0693 3.57764 33.9238 8.29282 34.1458 14.3128L31.835 14.3984Z" fill="#282D33"/>
<path d="M34.1906 15.5118H1.18602L1.04438 14.5185C0.997555 14.1884 0.975586 13.9075 0.975586 13.6346C0.975586 10.5127 3.27884 7.92156 6.26427 7.49548C7.58182 3.60181 11.2055 0.949951 15.3512 0.949951C17.8152 0.949951 20.1994 1.92409 21.9835 3.6417C22.3714 3.59892 22.7385 3.57811 23.0941 3.57811C29.069 3.57811 33.9241 8.2933 34.1467 14.3133L34.1906 15.5118ZM3.31179 13.1993H31.7116C30.9965 9.01595 27.4156 5.89003 23.0941 5.89003C22.6819 5.89003 22.2402 5.92819 21.743 6.00681L21.1284 6.10451L20.7081 5.64548C19.3045 4.10883 17.4019 3.26245 15.3512 3.26245C11.9889 3.26245 9.07801 5.56628 8.2721 8.86622L8.05646 9.74786L7.04995 9.7467C5.11323 9.78891 3.52338 11.2862 3.31179 13.1993Z" fill="#282D33"/>
</svg>
