<svg width="43" height="46" viewBox="0 0 43 46" fill="none" xmlns="http://www.w3.org/2000/svg">
<path d="M10.5443 39.1709H2.2595C1.66024 39.1709 1.08553 38.9328 0.661792 38.509C0.238054 38.0852 0 37.5104 0 36.9111V7.53304C0 6.93369 0.238054 6.35889 0.661792 5.93509C1.08553 5.51128 1.66024 5.27319 2.2595 5.27319H5.27217C5.47192 5.27319 5.66349 5.35256 5.80474 5.49382C5.94598 5.63509 6.02533 5.82669 6.02533 6.02648C6.02533 6.22626 5.94598 6.41786 5.80474 6.55913C5.66349 6.7004 5.47192 6.77976 5.27217 6.77976H2.2595C2.05975 6.77976 1.86818 6.85912 1.72693 7.00039C1.58568 7.14166 1.50633 7.33326 1.50633 7.53304V36.9111C1.50633 37.1109 1.58568 37.3025 1.72693 37.4437C1.86818 37.585 2.05975 37.6644 2.2595 37.6644H10.5443C10.7441 37.6644 10.9357 37.7437 11.0769 37.885C11.2181 38.0263 11.2975 38.2179 11.2975 38.4176C11.2975 38.6174 11.2181 38.809 11.0769 38.9503C10.9357 39.0916 10.7441 39.1709 10.5443 39.1709Z" fill="#B113C0"/>
<path d="M27.8659 14.3127C27.6662 14.3127 27.4746 14.2333 27.3333 14.0921C27.1921 13.9508 27.1127 13.7592 27.1127 13.5594V7.53316C27.1127 7.33338 27.0334 7.14178 26.8922 7.00051C26.7509 6.85924 26.5593 6.77988 26.3596 6.77988H23.3469C23.1472 6.77988 22.9556 6.70052 22.8143 6.55925C22.6731 6.41798 22.5938 6.22638 22.5938 6.0266C22.5938 5.82682 22.6731 5.63521 22.8143 5.49395C22.9556 5.35268 23.1472 5.27332 23.3469 5.27332H26.3596C26.9588 5.27332 27.5336 5.51141 27.9573 5.93521C28.381 6.35901 28.6191 6.93381 28.6191 7.53316V13.5594C28.6191 13.7592 28.5397 13.9508 28.3985 14.0921C28.2572 14.2333 28.0657 14.3127 27.8659 14.3127Z" fill="#B113C0"/>
<path d="M19.5831 9.04062H9.0388C8.43954 9.04062 7.86483 8.80249 7.44109 8.37862C7.01735 7.95475 6.7793 7.37986 6.7793 6.78042V5.27362C6.7793 4.67418 7.01735 4.09929 7.44109 3.67542C7.86483 3.25156 8.43954 3.01343 9.0388 3.01343H19.5831C20.1824 3.01343 20.7571 3.25156 21.1808 3.67542C21.6046 4.09929 21.8426 4.67418 21.8426 5.27362V6.78042C21.8426 7.37986 21.6046 7.95475 21.1808 8.37862C20.7571 8.80249 20.1824 9.04062 19.5831 9.04062ZM9.0388 4.52023C8.83904 4.52023 8.64747 4.5996 8.50623 4.74089C8.36498 4.88218 8.28563 5.07381 8.28563 5.27362V6.78042C8.28563 6.98024 8.36498 7.17187 8.50623 7.31316C8.64747 7.45445 8.83904 7.53382 9.0388 7.53382H19.5831C19.7829 7.53382 19.9745 7.45445 20.1157 7.31316C20.2569 7.17187 20.3363 6.98024 20.3363 6.78042V5.27362C20.3363 5.07381 20.2569 4.88218 20.1157 4.74089C19.9745 4.5996 19.7829 4.52023 19.5831 4.52023H9.0388Z" fill="#B113C0"/>
<path d="M17.3215 4.52039H11.2961C11.0964 4.52039 10.9048 4.44102 10.7636 4.29973C10.6223 4.15844 10.543 3.96681 10.543 3.767V2.2602C10.543 1.66076 10.781 1.08587 11.2048 0.661996C11.6285 0.238127 12.2032 0 12.8025 0H15.8151C16.4144 0 16.9891 0.238127 17.4128 0.661996C17.8366 1.08587 18.0746 1.66076 18.0746 2.2602V3.767C18.0746 3.96681 17.9953 4.15844 17.854 4.29973C17.7128 4.44102 17.5212 4.52039 17.3215 4.52039ZM12.0493 3.0136H16.5683V2.2602C16.5683 2.06038 16.489 1.86875 16.3477 1.72746C16.2065 1.58617 16.0149 1.5068 15.8151 1.5068H12.8025C12.6027 1.5068 12.4111 1.58617 12.2699 1.72746C12.1287 1.86875 12.0493 2.06038 12.0493 2.2602V3.0136Z" fill="#B113C0"/>
<path d="M23.3477 36.9113C22.0765 36.912 20.8222 36.6201 19.6819 36.0582C18.5416 35.4963 17.5459 34.6795 16.7718 33.6711C15.9977 32.6626 15.4661 31.4895 15.2179 30.2426C14.9698 28.9956 15.0119 27.7083 15.341 26.4803C15.67 25.2523 16.2772 24.1164 17.1155 23.1607C17.9539 22.205 19.0008 21.455 20.1754 20.9688C21.35 20.4827 22.6206 20.2734 23.8891 20.3571C25.1575 20.4408 26.3896 20.8154 27.4901 21.4517C27.6541 21.5559 27.7714 21.7195 27.8176 21.9082C27.8638 22.0969 27.8353 22.2962 27.7381 22.4644C27.6409 22.6326 27.4825 22.7567 27.2959 22.8109C27.1093 22.865 26.9091 22.8449 26.7369 22.7549C25.3116 21.9295 23.6349 21.6504 22.0191 21.9698C20.4034 22.2893 18.9588 23.1853 17.9547 24.491C16.9505 25.7967 16.4552 27.423 16.5611 29.0668C16.667 30.7107 17.3669 32.26 18.5302 33.426C19.6936 34.5921 21.2412 35.2953 22.8846 35.4047C24.5279 35.5141 26.155 35.0222 27.4627 34.0206C28.7703 33.0191 29.6692 31.5763 29.992 29.9609C30.3148 28.3456 30.0394 26.668 29.2171 25.2407C29.1243 25.0683 29.1023 24.8664 29.1558 24.678C29.2093 24.4896 29.334 24.3295 29.5036 24.2315C29.6732 24.1335 29.8742 24.1055 30.0641 24.1532C30.254 24.201 30.4178 24.3209 30.5209 24.4874C31.2466 25.7468 31.6284 27.175 31.6278 28.6286C31.6272 30.0822 31.2443 31.5101 30.5175 32.7689C29.7907 34.0277 28.7456 35.0731 27.4871 35.8002C26.2287 36.5273 24.8011 36.9105 23.3477 36.9113Z" fill="#B113C0"/>
<path d="M23.3483 42.9372C21.1131 42.9383 18.9087 42.4157 16.9118 41.4112C14.9148 40.4068 13.181 38.9484 11.8491 37.153C10.5172 35.3577 9.62433 33.2752 9.24207 31.0725C8.8598 28.8699 8.99876 26.6083 9.6478 24.469C10.2968 22.3298 11.4379 20.3723 12.9796 18.7535C14.5212 17.1348 16.4206 15.8997 18.5255 15.1474C20.6303 14.395 22.8821 14.1462 25.1004 14.421C27.3187 14.6958 29.4418 15.4865 31.2995 16.7298C31.3821 16.7847 31.4531 16.8553 31.5084 16.9377C31.5636 17.0201 31.6021 17.1126 31.6215 17.2099C31.6409 17.3072 31.6409 17.4074 31.6215 17.5047C31.6021 17.602 31.5636 17.6945 31.5084 17.7769C31.4531 17.8593 31.3821 17.9299 31.2995 17.9848C31.2169 18.0397 31.1242 18.0777 31.0268 18.0967C30.9295 18.1157 30.8293 18.1152 30.7321 18.0953C30.6349 18.0755 30.5426 18.0366 30.4605 17.981C27.8151 16.2112 24.606 15.4889 21.4575 15.9547C18.3091 16.4205 15.4465 18.0411 13.4267 20.5011C11.4069 22.9611 10.3743 26.0847 10.5298 29.264C10.6853 32.4434 12.0178 35.4513 14.2681 37.7023C16.5183 39.9534 19.5254 41.2868 22.7043 41.443C25.8831 41.5992 29.0064 40.5671 31.4665 38.5475C33.9265 36.5279 35.5475 33.6652 36.0139 30.5164C36.4803 27.3676 35.7588 24.1578 33.9898 21.5116C33.8786 21.3456 33.8378 21.1422 33.8765 20.9461C33.9152 20.75 34.0302 20.5773 34.1962 20.4661C34.3622 20.3548 34.5656 20.314 34.7616 20.3527C34.9577 20.3914 35.1303 20.5064 35.2416 20.6725C36.6832 22.8267 37.5125 25.3322 37.6409 27.9213C37.7693 30.5103 37.192 33.0856 35.9707 35.372C34.7494 37.6583 32.9299 39.5699 30.7067 40.9024C28.4835 42.2349 25.9402 42.9382 23.3483 42.9372Z" fill="#B113C0"/>
<path d="M23.3469 24.1046C23.1472 24.1046 22.9556 24.0253 22.8143 23.884C22.6731 23.7428 22.5938 23.5511 22.5938 23.3514V12.8054C22.5938 12.6056 22.6731 12.414 22.8143 12.2728C22.9556 12.1315 23.1472 12.0521 23.3469 12.0521C23.5467 12.0521 23.7382 12.1315 23.8795 12.2728C24.0207 12.414 24.1001 12.6056 24.1001 12.8054V23.3514C24.1001 23.5511 24.0207 23.7428 23.8795 23.884C23.7382 24.0253 23.5467 24.1046 23.3469 24.1046Z" fill="#B113C0"/>
<path d="M18.0768 29.3785H7.53246C7.33271 29.3785 7.14114 29.2991 6.99989 29.1578C6.85865 29.0165 6.7793 28.8248 6.7793 28.625C6.7793 28.4251 6.85865 28.2335 6.99989 28.0922C7.14114 27.9508 7.33271 27.8715 7.53246 27.8715H18.0768C18.2765 27.8715 18.4681 27.9508 18.6094 28.0922C18.7506 28.2335 18.83 28.4251 18.83 28.625C18.83 28.8248 18.7506 29.0165 18.6094 29.1578C18.4681 29.2991 18.2765 29.3785 18.0768 29.3785Z" fill="#B113C0"/>
<path d="M23.3469 45.1973C23.1472 45.1973 22.9556 45.1179 22.8143 44.9767C22.6731 44.8354 22.5938 44.6438 22.5938 44.444V33.8981C22.5938 33.6983 22.6731 33.5067 22.8143 33.3654C22.9556 33.2241 23.1472 33.1448 23.3469 33.1448C23.5467 33.1448 23.7382 33.2241 23.8795 33.3654C24.0207 33.5067 24.1001 33.6983 24.1001 33.8981V44.444C24.1001 44.6438 24.0207 44.8354 23.8795 44.9767C23.7382 45.1179 23.5467 45.1973 23.3469 45.1973Z" fill="#B113C0"/>
<path d="M39.1647 29.3785H28.6204C28.4206 29.3785 28.229 29.2991 28.0878 29.1578C27.9465 29.0165 27.8672 28.8248 27.8672 28.625C27.8672 28.4251 27.9465 28.2335 28.0878 28.0922C28.229 27.9508 28.4206 27.8715 28.6204 27.8715H39.1647C39.3644 27.8715 39.556 27.9508 39.6973 28.0922C39.8385 28.2335 39.9179 28.4251 39.9179 28.625C39.9179 28.8248 39.8385 29.0165 39.6973 29.1578C39.556 29.2991 39.3644 29.3785 39.1647 29.3785Z" fill="#B113C0"/>
<path d="M23.3468 29.3782C23.1978 29.3781 23.0522 29.3339 22.9284 29.2512C22.8046 29.1684 22.7081 29.0508 22.6511 28.9131C22.5941 28.7755 22.5792 28.6241 22.6082 28.478C22.6373 28.3319 22.709 28.1977 22.8143 28.0923L31.6316 19.2736V15.0658C31.6316 14.866 31.711 14.6745 31.8523 14.5332L36.3713 10.0135C36.4766 9.9082 36.6108 9.83649 36.7569 9.80743C36.9029 9.77838 37.0544 9.7933 37.192 9.8503C37.3296 9.9073 37.4472 10.0038 37.5299 10.1277C37.6127 10.2515 37.6569 10.3971 37.6569 10.5461V14.3125H41.4228C41.5717 14.3125 41.7173 14.3567 41.8411 14.4395C41.9649 14.5223 42.0614 14.6399 42.1184 14.7775C42.1754 14.9152 42.1903 15.0666 42.1613 15.2127C42.1322 15.3588 42.0605 15.493 41.9552 15.5984L37.4362 20.1181C37.295 20.2593 37.1035 20.3387 36.9038 20.3388H32.6966L23.8792 29.1574C23.738 29.2987 23.5465 29.3781 23.3468 29.3782ZM34.2029 18.8322H36.5919L39.6046 15.8191H37.2156L34.2029 18.8322ZM33.1379 15.3776V17.7671L36.1506 14.7539V12.3645L33.1379 15.3776Z" fill="#B113C0"/>
<path d="M6.02512 13.5593H4.51879C4.31904 13.5593 4.12747 13.4799 3.98622 13.3386C3.84498 13.1973 3.76562 13.0056 3.76562 12.8058C3.76562 12.6059 3.84498 12.4143 3.98622 12.2729C4.12747 12.1316 4.31904 12.0522 4.51879 12.0522H6.02512C6.22488 12.0522 6.41645 12.1316 6.55769 12.2729C6.69894 12.4143 6.77829 12.6059 6.77829 12.8058C6.77829 13.0056 6.69894 13.1973 6.55769 13.3386C6.41645 13.4799 6.22488 13.5593 6.02512 13.5593Z" fill="#B113C0"/>
<path d="M20.3358 13.5592H9.03832C8.83857 13.5592 8.647 13.4798 8.50575 13.3385C8.36451 13.1971 8.28516 13.0055 8.28516 12.8056C8.28516 12.6058 8.36451 12.4141 8.50575 12.2728C8.647 12.1315 8.83857 12.0521 9.03832 12.0521H20.3358C20.5356 12.0521 20.7271 12.1315 20.8684 12.2728C21.0096 12.4141 21.089 12.6058 21.089 12.8056C21.089 13.0055 21.0096 13.1971 20.8684 13.3385C20.7271 13.4798 20.5356 13.5592 20.3358 13.5592Z" fill="#B113C0"/>
<path d="M6.02512 20.3387H4.51879C4.31904 20.3387 4.12747 20.2593 3.98622 20.118C3.84498 19.9767 3.76562 19.785 3.76562 19.5852C3.76562 19.3853 3.84498 19.1937 3.98622 19.0524C4.12747 18.9111 4.31904 18.8317 4.51879 18.8317H6.02512C6.22488 18.8317 6.41645 18.9111 6.55769 19.0524C6.69894 19.1937 6.77829 19.3853 6.77829 19.5852C6.77829 19.785 6.69894 19.9767 6.55769 20.118C6.41645 20.2593 6.22488 20.3387 6.02512 20.3387Z" fill="#B113C0"/>
<path d="M10.5447 20.3386H9.03832C8.83857 20.3386 8.647 20.2592 8.50575 20.1179C8.36451 19.9766 8.28516 19.7849 8.28516 19.5851C8.28516 19.3852 8.36451 19.1936 8.50575 19.0522C8.647 18.9109 8.83857 18.8315 9.03832 18.8315H10.5447C10.7444 18.8315 10.936 18.9109 11.0772 19.0522C11.2185 19.1936 11.2978 19.3852 11.2978 19.5851C11.2978 19.7849 11.2185 19.9766 11.0772 20.1179C10.936 20.2592 10.7444 20.3386 10.5447 20.3386Z" fill="#B113C0"/>
</svg>
