<svg width="65" height="65" viewBox="0 0 65 65" fill="none" xmlns="http://www.w3.org/2000/svg">
<path d="M58.1127 21.8986V44.1843H6.11272V21.8986H58.1127ZM58.4841 18.1843H6.48415C4.43294 18.1843 2.39844 20.4751 2.39844 22.5263V44.812C2.39844 46.8633 4.43294 47.8986 6.48415 47.8986H58.4841C60.5354 47.8986 61.827 46.8633 61.827 44.812V22.5263C61.827 20.4751 60.5354 18.1843 58.4841 18.1843Z" fill="white"/>
<path d="M53.4699 16.1729C52.4447 16.1729 51.6127 15.3409 51.6127 14.3158V9.82708H12.6127V14.3158C12.6127 15.3409 11.7807 16.1729 10.7556 16.1729C9.73044 16.1729 8.89844 15.3409 8.89844 14.3158V8.74436C8.89844 7.71922 10.1177 6.11279 11.1428 6.11279H53.8571C54.8822 6.11279 55.327 7.71829 55.327 8.74436V14.3158C55.327 15.3409 54.4959 16.1729 53.4699 16.1729Z" fill="white"/>
<path d="M53.8571 58.1128H11.1428C10.1177 58.1128 8.89844 58.0553 8.89844 57.0301V51.4587C8.89844 50.4336 9.73044 49.6016 10.7556 49.6016C11.7807 49.6016 12.6127 50.4336 12.6127 51.4587V54.3986H51.6127V51.4587C51.6127 50.4336 52.4447 49.6016 53.4699 49.6016C54.495 49.6016 55.327 50.4336 55.327 51.4587V57.0301C55.327 58.0553 54.8822 58.1128 53.8571 58.1128Z" fill="white"/>
<path d="M31.3381 40.1087H27.9553V34.7899H23.5956V40.1087H20.2119V27.2285H23.5956V31.8222H27.9553V27.2285H31.3381V40.1087Z" fill="white"/>
<path d="M33.6801 27.2285H39.1986C43.1608 27.2285 45.5306 29.5444 45.5306 33.5957C45.5306 37.9192 43.3057 40.1087 39.0166 40.1087H33.6792L33.6801 27.2285ZM38.8727 37.3054C41.1347 37.3054 42.1468 35.9487 42.1468 33.6877C42.1468 31.3532 40.9351 30.0152 38.6368 30.0152H37.0267V37.3063L38.8727 37.3054Z" fill="white"/>
<path d="M8.8983 34.7444C8.38573 34.7444 7.96973 34.3294 7.96973 33.8159V24.5301C7.96973 24.0166 8.77294 22.8271 9.28551 22.8271H16.7141C17.2267 22.8271 17.6427 23.2422 17.6427 23.7557C17.6427 24.2692 17.2267 24.6843 16.7141 24.6843H9.82687V33.8159C9.82687 34.3294 9.41087 34.7444 8.8983 34.7444Z" fill="white"/>
<path d="M55.7141 41.3984H51.9999C51.4864 41.3984 51.0713 40.9834 51.0713 40.4699C51.0713 39.9564 51.4864 39.5413 51.9999 39.5413H54.3984V36.6014C54.3984 36.0879 54.8134 35.6729 55.3269 35.6729C55.8404 35.6729 56.2555 36.0879 56.2555 36.6014V40.3157C56.2555 40.8292 56.2276 41.3984 55.7141 41.3984Z" fill="white"/>
<path d="M8.8983 40.3158C8.38573 40.3158 7.96973 39.9008 7.96973 39.3873V37.5301C7.96973 37.0166 8.38573 36.6016 8.8983 36.6016C9.41087 36.6016 9.82687 37.0166 9.82687 37.5301V39.3873C9.82687 39.9008 9.41087 40.3158 8.8983 40.3158Z" fill="white"/>
</svg>
