<svg width="234" height="63" viewBox="0 0 234 63" fill="none" xmlns="http://www.w3.org/2000/svg">
<g clip-path="url(#clip0_291_448)">
<path d="M6.69987 23.4075V43.3751C10.0697 45.3125 12.1313 48.8843 12.1313 52.746V54.1299L3.39609 49.1083L0.0791016 47.1972V15.7763L3.38288 13.8652L10.0169 17.6874L12.1313 18.9V26.5443L6.69987 23.4075Z" fill="url(#paint0_linear_291_448)"/>
<path d="M54.6309 15.7759V47.1968L51.3139 49.1079L44.6931 45.2857L27.3549 35.3085L22.0688 32.264V24.6328L27.3549 27.6642L32.6409 30.7087L48.0101 39.5656V19.5981C46.3318 18.6228 44.9706 17.252 44.0323 15.6309C43.0941 14.0098 42.5787 12.1514 42.5787 10.2271V8.83008L51.3271 13.8648L54.6309 15.7759Z" fill="url(#paint1_linear_291_448)"/>
<path d="M51.3138 49.1083L42.5786 54.1299V46.4987L44.693 45.2861L51.3138 49.1083Z" fill="url(#paint2_linear_291_448)"/>
<path d="M12.1312 8.83008V16.4744L10.0168 17.687L3.38281 13.8648L12.1312 8.83008Z" fill="url(#paint3_linear_291_448)"/>
<path d="M34.293 20.692V11.7033L27.3551 7.70978L20.4172 11.7033V51.2694L27.3551 55.2629L34.293 51.2694V42.1621L40.927 45.9711V55.0916L27.3551 62.9073L13.7832 55.0916V7.88112L27.3551 0.0654297L40.0945 7.40664L40.927 7.88112V24.5142L34.293 20.692Z" fill="url(#paint4_linear_291_448)"/>
<g style="mix-blend-mode:overlay" opacity="0.5">
<path d="M11.0608 52.2972L10.6115 52.0467C10.3207 48.9231 8.52347 46.0894 5.76151 44.5078L5.23291 44.2047V21.7988L5.65579 22.0361V43.9806L6.1844 44.2838C9.06529 45.9576 10.9154 49.0022 11.0608 52.2972Z" fill="white"/>
<path d="M11.0739 19.5193V24.7122L10.6643 24.4749V19.7302L2.99951 15.3149L3.39596 15.0908L11.0739 19.5193Z" fill="white"/>
<path d="M23.1396 26.4512L48.6448 41.1468V41.5949L23.1396 26.9125V26.4512Z" fill="white"/>
<path d="M53.574 16.3817V46.5901L51.3274 47.8817L51.301 47.8685L53.1643 46.801V16.6058L43.6758 11.1361C43.667 10.9779 43.6582 10.8242 43.6494 10.6748L53.574 16.3817Z" fill="white"/>
<path d="M27.3418 56.4751L26.9453 56.6992L18.9502 52.0994V11.3076L19.3599 11.0967V51.8885L27.3418 56.4751Z" fill="white"/>
<path d="M39.8697 8.48725V22.6952L39.4468 22.458V8.71131L26.9585 1.51507L27.3549 1.29102L39.8697 8.48725Z" fill="white"/>
<path d="M35.3501 43.9805L39.8697 46.5901V54.4849L39.4468 54.6957V46.801L35.3501 44.4418V43.9805Z" fill="white"/>
</g>
</g>
<path d="M75.228 48V15.2727H81.1566V29.1275H96.3217V15.2727H102.266V48H96.3217V34.0973H81.1566V48H75.228ZM119.325 48.4794C116.864 48.4794 114.739 47.968 112.949 46.9453C111.17 45.9119 109.801 44.4524 108.842 42.5668C107.883 40.6705 107.404 38.4386 107.404 35.8711C107.404 33.3462 107.883 31.1303 108.842 29.2234C109.812 27.3058 111.165 25.8143 112.901 24.7489C114.638 23.6729 116.678 23.1349 119.021 23.1349C120.534 23.1349 121.962 23.38 123.304 23.87C124.657 24.3494 125.85 25.0952 126.884 26.1072C127.928 27.1193 128.748 28.4084 129.345 29.9744C129.941 31.5298 130.24 33.3835 130.24 35.5355V37.3093H110.121V33.4102H124.694C124.684 32.3022 124.444 31.3168 123.975 30.4538C123.507 29.5803 122.851 28.8931 122.01 28.3924C121.179 27.8917 120.209 27.6413 119.101 27.6413C117.919 27.6413 116.88 27.929 115.985 28.5043C115.09 29.0689 114.393 29.8146 113.892 30.7415C113.402 31.6577 113.151 32.6644 113.141 33.7617V37.1655C113.141 38.593 113.402 39.8182 113.924 40.8409C114.446 41.853 115.176 42.6307 116.113 43.174C117.051 43.7067 118.148 43.973 119.405 43.973C120.247 43.973 121.008 43.8558 121.69 43.6214C122.372 43.3764 122.963 43.0195 123.464 42.5508C123.965 42.082 124.343 41.5014 124.599 40.8089L130 41.4162C129.659 42.8437 129.009 44.0902 128.05 45.1555C127.102 46.2102 125.888 47.0305 124.407 47.6165C122.926 48.1918 121.232 48.4794 119.325 48.4794ZM144.242 48.4315C142.314 48.4315 140.588 47.9361 139.065 46.9453C137.541 45.9545 136.337 44.5163 135.453 42.6307C134.569 40.745 134.127 38.4545 134.127 35.7592C134.127 33.032 134.574 30.7308 135.469 28.8558C136.375 26.9702 137.594 25.5479 139.128 24.5891C140.663 23.6197 142.372 23.1349 144.258 23.1349C145.696 23.1349 146.879 23.38 147.806 23.87C148.733 24.3494 149.468 24.93 150.011 25.6119C150.554 26.283 150.975 26.9169 151.273 27.5135H151.513V15.2727H157.314V48H151.625V44.1328H151.273C150.975 44.7294 150.544 45.3633 149.979 46.0344C149.414 46.695 148.669 47.2596 147.742 47.7283C146.815 48.1971 145.648 48.4315 144.242 48.4315ZM145.856 43.6854C147.081 43.6854 148.125 43.3551 148.988 42.6946C149.851 42.0234 150.506 41.0913 150.954 39.8981C151.401 38.7049 151.625 37.3146 151.625 35.7273C151.625 34.1399 151.401 32.7603 150.954 31.5884C150.517 30.4165 149.867 29.5057 149.004 28.8558C148.152 28.206 147.103 27.881 145.856 27.881C144.567 27.881 143.491 28.2166 142.628 28.8878C141.765 29.5589 141.115 30.4858 140.679 31.6683C140.242 32.8509 140.023 34.2038 140.023 35.7273C140.023 37.2614 140.242 38.6303 140.679 39.8342C141.126 41.0273 141.781 41.9702 142.644 42.6626C143.518 43.3445 144.588 43.6854 145.856 43.6854ZM163.734 48V15.2727H176.007C178.521 15.2727 180.63 15.7415 182.335 16.679C184.05 17.6165 185.344 18.9055 186.218 20.5462C187.102 22.1761 187.544 24.0298 187.544 26.1072C187.544 28.206 187.102 30.0703 186.218 31.7003C185.334 33.3303 184.029 34.614 182.303 35.5515C180.577 36.4783 178.452 36.9418 175.927 36.9418H167.793V32.0678H175.128C176.598 32.0678 177.802 31.8121 178.739 31.3008C179.677 30.7894 180.369 30.0863 180.817 29.1914C181.275 28.2965 181.504 27.2685 181.504 26.1072C181.504 24.946 181.275 23.9233 180.817 23.0391C180.369 22.1548 179.671 21.4677 178.723 20.9776C177.786 20.4769 176.577 20.2266 175.096 20.2266H169.662V48H163.734ZM192.438 48V23.4545H198.047V27.5455H198.303C198.75 26.1286 199.517 25.0366 200.604 24.2695C201.701 23.4918 202.953 23.103 204.359 23.103C204.679 23.103 205.036 23.119 205.43 23.1509C205.835 23.1722 206.17 23.2095 206.437 23.2628V28.5842C206.192 28.4989 205.803 28.4244 205.27 28.3604C204.748 28.2859 204.242 28.2486 203.752 28.2486C202.697 28.2486 201.749 28.4776 200.908 28.9357C200.077 29.3832 199.421 30.0064 198.942 30.8054C198.463 31.6044 198.223 32.5259 198.223 33.57V48H192.438ZM219.976 48.4794C217.579 48.4794 215.501 47.9521 213.744 46.8974C211.986 45.8427 210.622 44.3672 209.653 42.4709C208.694 40.5746 208.214 38.3587 208.214 35.8232C208.214 33.2876 208.694 31.0664 209.653 29.1594C210.622 27.2525 211.986 25.7717 213.744 24.717C215.501 23.6623 217.579 23.1349 219.976 23.1349C222.373 23.1349 224.45 23.6623 226.208 24.717C227.966 25.7717 229.324 27.2525 230.283 29.1594C231.252 31.0664 231.737 33.2876 231.737 35.8232C231.737 38.3587 231.252 40.5746 230.283 42.4709C229.324 44.3672 227.966 45.8427 226.208 46.8974C224.45 47.9521 222.373 48.4794 219.976 48.4794ZM220.008 43.8452C221.308 43.8452 222.394 43.4883 223.268 42.7745C224.141 42.0501 224.791 41.0806 225.217 39.8661C225.654 38.6516 225.873 37.2987 225.873 35.8072C225.873 34.305 225.654 32.9467 225.217 31.7322C224.791 30.5071 224.141 29.5323 223.268 28.8079C222.394 28.0835 221.308 27.7212 220.008 27.7212C218.676 27.7212 217.568 28.0835 216.684 28.8079C215.81 29.5323 215.155 30.5071 214.718 31.7322C214.292 32.9467 214.079 34.305 214.079 35.8072C214.079 37.2987 214.292 38.6516 214.718 39.8661C215.155 41.0806 215.81 42.0501 216.684 42.7745C217.568 43.4883 218.676 43.8452 220.008 43.8452Z" fill="white"/>
<defs>
<linearGradient id="paint0_linear_291_448" x1="6.10519" y1="13.8652" x2="6.10519" y2="54.1299" gradientUnits="userSpaceOnUse">
<stop stop-color="#E026B2"/>
<stop offset="1" stop-color="#007AFF"/>
</linearGradient>
<linearGradient id="paint1_linear_291_448" x1="38.3499" y1="8.83008" x2="38.3499" y2="49.1079" gradientUnits="userSpaceOnUse">
<stop stop-color="#E026B2"/>
<stop offset="1" stop-color="#007AFF"/>
</linearGradient>
<linearGradient id="paint2_linear_291_448" x1="46.9462" y1="45.2861" x2="46.9462" y2="54.1299" gradientUnits="userSpaceOnUse">
<stop stop-color="#E026B2"/>
<stop offset="1" stop-color="#007AFF"/>
</linearGradient>
<linearGradient id="paint3_linear_291_448" x1="7.75701" y1="8.83008" x2="7.75701" y2="17.687" gradientUnits="userSpaceOnUse">
<stop stop-color="#E026B2"/>
<stop offset="1" stop-color="#007AFF"/>
</linearGradient>
<linearGradient id="paint4_linear_291_448" x1="27.3551" y1="0.0654297" x2="27.3551" y2="62.9073" gradientUnits="userSpaceOnUse">
<stop stop-color="#E026B2"/>
<stop offset="1" stop-color="#007AFF"/>
</linearGradient>
<clipPath id="clip0_291_448">
<rect width="54.7105" height="63" fill="white"/>
</clipPath>
</defs>
</svg>
