<svg width="222" height="64" viewBox="0 0 222 64" fill="none" xmlns="http://www.w3.org/2000/svg">
<g clip-path="url(#clip0_291_448)">
<path d="M6.69987 24.0276V43.9952C10.0697 45.9326 12.1313 49.5044 12.1313 53.3661V54.75L3.39609 49.7284L0.0791016 47.8174V16.3964L3.38288 14.4854L10.0169 18.3075L12.1313 19.5201V27.1644L6.69987 24.0276Z" fill="url(#paint0_linear_291_448)"/>
<path d="M54.6309 16.396V47.8169L51.3139 49.728L44.6931 45.9058L27.3549 35.9286L22.0688 32.8841V25.2529L27.3549 28.2843L32.6409 31.3289L48.0101 40.1858V20.2182C46.3318 19.2429 44.9706 17.8722 44.0323 16.251C43.0941 14.6299 42.5787 12.7715 42.5787 10.8473V9.4502L51.3271 14.4849L54.6309 16.396Z" fill="url(#paint1_linear_291_448)"/>
<path d="M51.3138 49.7284L42.5786 54.75V47.1188L44.693 45.9062L51.3138 49.7284Z" fill="url(#paint2_linear_291_448)"/>
<path d="M12.1312 9.4502V17.0945L10.0168 18.3071L3.38281 14.4849L12.1312 9.4502Z" fill="url(#paint3_linear_291_448)"/>
<path d="M34.293 21.3121V12.3234L27.3551 8.3299L20.4172 12.3234V51.8895L27.3551 55.883L34.293 51.8895V42.7822L40.927 46.5912V55.7117L27.3551 63.5274L13.7832 55.7117V8.50124L27.3551 0.685547L40.0945 8.02676L40.927 8.50124V25.1343L34.293 21.3121Z" fill="url(#paint4_linear_291_448)"/>
<g style="mix-blend-mode:overlay" opacity="0.5">
<path d="M11.0608 52.9173L10.6115 52.6669C10.3207 49.5432 8.52347 46.7095 5.76151 45.1279L5.23291 44.8248V22.4189L5.65579 22.6562V44.6007L6.1844 44.9039C9.06529 46.5777 10.9154 49.6223 11.0608 52.9173Z" fill="white"/>
<path d="M11.0739 20.1394V25.3323L10.6643 25.095V20.3503L2.99951 15.935L3.39596 15.7109L11.0739 20.1394Z" fill="white"/>
<path d="M23.1396 27.0713L48.6448 41.7669V42.215L23.1396 27.5326V27.0713Z" fill="white"/>
<path d="M53.574 17.0018V47.2102L51.3274 48.5018L51.301 48.4886L53.1643 47.4211V17.2259L43.6758 11.7562C43.667 11.5981 43.6582 11.4443 43.6494 11.2949L53.574 17.0018Z" fill="white"/>
<path d="M27.3418 57.0952L26.9453 57.3193L18.9502 52.7195V11.9277L19.3599 11.7168V52.5086L27.3418 57.0952Z" fill="white"/>
<path d="M39.8697 9.10737V23.3153L39.4468 23.0781V9.33143L26.9585 2.13519L27.3549 1.91113L39.8697 9.10737Z" fill="white"/>
<path d="M35.3501 44.6006L39.8697 47.2102V55.105L39.4468 55.3159V47.4211L35.3501 45.0619V44.6006Z" fill="white"/>
</g>
</g>
<path d="M73.228 48.6201V15.8928H79.1566V43.6503H93.5707V48.6201H73.228ZM105.524 49.1155C103.968 49.1155 102.567 48.8385 101.321 48.2845C100.085 47.7199 99.1051 46.8889 98.3807 45.7916C97.6669 44.6943 97.31 43.3414 97.31 41.7327C97.31 40.3477 97.5657 39.2025 98.0771 38.297C98.5884 37.3914 99.2862 36.667 100.17 36.1237C101.055 35.5803 102.051 35.1702 103.159 34.8932C104.277 34.6056 105.433 34.3978 106.626 34.27C108.065 34.1208 109.231 33.9877 110.126 33.8705C111.021 33.7426 111.671 33.5509 112.076 33.2952C112.491 33.0289 112.699 32.6187 112.699 32.0647V31.9688C112.699 30.765 112.342 29.8328 111.628 29.1723C110.914 28.5118 109.886 28.1816 108.544 28.1816C107.127 28.1816 106.003 28.4905 105.172 29.1084C104.352 29.7263 103.798 30.4561 103.51 31.2977L98.109 30.5306C98.5352 29.0392 99.2383 27.7927 100.218 26.7913C101.199 25.7792 102.397 25.0228 103.814 24.5221C105.231 24.0107 106.797 23.7551 108.512 23.7551C109.695 23.7551 110.872 23.8936 112.044 24.1705C113.216 24.4475 114.286 24.9056 115.256 25.5448C116.225 26.1734 117.003 27.031 117.589 28.1176C118.185 29.2043 118.484 30.5626 118.484 32.1926V48.6201H112.923V45.2483H112.731C112.379 45.9301 111.884 46.5693 111.245 47.1659C110.616 47.7519 109.822 48.2259 108.864 48.5882C107.915 48.9397 106.802 49.1155 105.524 49.1155ZM107.026 44.8648C108.187 44.8648 109.194 44.6357 110.046 44.1776C110.898 43.7089 111.554 43.091 112.012 42.324C112.48 41.5569 112.715 40.7206 112.715 39.8151V36.9227C112.534 37.0718 112.225 37.2103 111.788 37.3382C111.362 37.466 110.882 37.5779 110.35 37.6737C109.817 37.7696 109.29 37.8548 108.768 37.9294C108.246 38.004 107.793 38.0679 107.409 38.1212C106.547 38.2384 105.774 38.4301 105.092 38.6965C104.411 38.9628 103.873 39.3357 103.478 39.8151C103.084 40.2838 102.887 40.8911 102.887 41.6368C102.887 42.7021 103.276 43.5065 104.054 44.0498C104.831 44.5931 105.822 44.8648 107.026 44.8648ZM130.085 34.238V48.6201H124.3V24.0747H129.83V28.2455H130.117C130.682 26.8712 131.582 25.7792 132.818 24.9695C134.064 24.1599 135.604 23.7551 137.436 23.7551C139.13 23.7551 140.605 24.1173 141.863 24.8417C143.13 25.5661 144.11 26.6155 144.803 27.9898C145.506 29.3641 145.852 31.0313 145.842 32.9916V48.6201H140.057V33.8865C140.057 32.2458 139.631 30.9621 138.778 30.0352C137.937 29.1084 136.77 28.645 135.279 28.645C134.267 28.645 133.366 28.8687 132.578 29.3161C131.8 29.7529 131.188 30.3868 130.74 31.2178C130.304 32.0487 130.085 33.0555 130.085 34.238ZM151.978 48.6201V15.8928H164.251C166.765 15.8928 168.874 16.3616 170.579 17.2991C172.294 18.2366 173.588 19.5257 174.462 21.1663C175.346 22.7963 175.788 24.6499 175.788 26.7274C175.788 28.8261 175.346 30.6904 174.462 32.3204C173.578 33.9504 172.273 35.2341 170.547 36.1716C168.821 37.0985 166.696 37.5619 164.171 37.5619H156.037V32.6879H163.372C164.842 32.6879 166.046 32.4323 166.983 31.9209C167.921 31.4095 168.613 30.7064 169.061 29.8115C169.519 28.9166 169.748 27.8886 169.748 26.7274C169.748 25.5661 169.519 24.5434 169.061 23.6592C168.613 22.7749 167.915 22.0878 166.967 21.5977C166.03 21.097 164.821 20.8467 163.34 20.8467H157.907V48.6201H151.978ZM180.682 48.6201V24.0747H186.291V28.1656H186.547C186.994 26.7487 187.761 25.6567 188.848 24.8896C189.945 24.1119 191.197 23.7231 192.603 23.7231C192.923 23.7231 193.28 23.7391 193.674 23.771C194.079 23.7923 194.415 23.8296 194.681 23.8829V29.2043C194.436 29.1191 194.047 29.0445 193.514 28.9806C192.992 28.906 192.486 28.8687 191.996 28.8687C190.941 28.8687 189.993 29.0977 189.152 29.5558C188.321 30.0033 187.666 30.6265 187.186 31.4255C186.707 32.2245 186.467 33.146 186.467 34.1901V48.6201H180.682ZM208.22 49.0995C205.823 49.0995 203.746 48.5722 201.988 47.5175C200.23 46.4628 198.866 44.9873 197.897 43.091C196.938 41.1947 196.459 38.9788 196.459 36.4433C196.459 33.9078 196.938 31.6865 197.897 29.7796C198.866 27.8726 200.23 26.3918 201.988 25.3371C203.746 24.2824 205.823 23.7551 208.22 23.7551C210.617 23.7551 212.694 24.2824 214.452 25.3371C216.21 26.3918 217.568 27.8726 218.527 29.7796C219.497 31.6865 219.981 33.9078 219.981 36.4433C219.981 38.9788 219.497 41.1947 218.527 43.091C217.568 44.9873 216.21 46.4628 214.452 47.5175C212.694 48.5722 210.617 49.0995 208.22 49.0995ZM208.252 44.4653C209.552 44.4653 210.638 44.1084 211.512 43.3946C212.385 42.6702 213.035 41.7007 213.461 40.4862C213.898 39.2718 214.117 37.9188 214.117 36.4273C214.117 34.9252 213.898 33.5668 213.461 32.3524C213.035 31.1272 212.385 30.1524 211.512 29.428C210.638 28.7036 209.552 28.3414 208.252 28.3414C206.92 28.3414 205.812 28.7036 204.928 29.428C204.055 30.1524 203.399 31.1272 202.963 32.3524C202.536 33.5668 202.323 34.9252 202.323 36.4273C202.323 37.9188 202.536 39.2718 202.963 40.4862C203.399 41.7007 204.055 42.6702 204.928 43.3946C205.812 44.1084 206.92 44.4653 208.252 44.4653Z" fill="white"/>
<defs>
<linearGradient id="paint0_linear_291_448" x1="6.10519" y1="14.4854" x2="6.10519" y2="54.75" gradientUnits="userSpaceOnUse">
<stop stop-color="#E026B2"/>
<stop offset="1" stop-color="#007AFF"/>
</linearGradient>
<linearGradient id="paint1_linear_291_448" x1="38.3499" y1="9.4502" x2="38.3499" y2="49.728" gradientUnits="userSpaceOnUse">
<stop stop-color="#E026B2"/>
<stop offset="1" stop-color="#007AFF"/>
</linearGradient>
<linearGradient id="paint2_linear_291_448" x1="46.9462" y1="45.9062" x2="46.9462" y2="54.75" gradientUnits="userSpaceOnUse">
<stop stop-color="#E026B2"/>
<stop offset="1" stop-color="#007AFF"/>
</linearGradient>
<linearGradient id="paint3_linear_291_448" x1="7.75701" y1="9.4502" x2="7.75701" y2="18.3071" gradientUnits="userSpaceOnUse">
<stop stop-color="#E026B2"/>
<stop offset="1" stop-color="#007AFF"/>
</linearGradient>
<linearGradient id="paint4_linear_291_448" x1="27.3551" y1="0.685547" x2="27.3551" y2="63.5274" gradientUnits="userSpaceOnUse">
<stop stop-color="#E026B2"/>
<stop offset="1" stop-color="#007AFF"/>
</linearGradient>
<clipPath id="clip0_291_448">
<rect width="54.7105" height="63" fill="white" transform="translate(0 0.620117)"/>
</clipPath>
</defs>
</svg>
