<svg width="91" height="90" viewBox="0 0 91 90" fill="none" xmlns="http://www.w3.org/2000/svg">
<g clip-path="url(#clip0_291_388)">
<path fill-rule="evenodd" clip-rule="evenodd" d="M8.66538 53.4279C16.7237 59.4037 25.4068 64.4708 33.7266 69.512C41.9948 74.6148 50.0658 80.0765 58.4868 81.8787C58.2659 79.3135 55.4393 78.2647 53.406 76.9386C42.7562 70.2167 32.6111 64.0595 21.3445 56.5737C17.8286 54.1401 8.28986 46.6385 8.66538 53.4279Z" fill="white"/>
<path fill-rule="evenodd" clip-rule="evenodd" d="M18.8757 23.7036C17.9316 26.8632 21.466 29.7322 23.6345 32.1868C30.1111 39.876 39.0308 49.2361 46.5215 56.344C48.8624 58.5937 54.8621 64.9368 56.9252 62.1939C58.6705 59.9535 51.0089 54.1714 48.7942 52.0629C39.9492 43.5705 32.4098 35.8967 23.8536 27.2274C22.4345 25.7535 21.1337 23.2242 18.8757 23.7036Z" fill="white"/>
<path fill-rule="evenodd" clip-rule="evenodd" d="M41.6048 3.42847C38.9661 6.10691 41.061 10.354 42.4063 13.6205C43.9328 17.0045 45.9487 20.5553 47.6088 23.9467C51.4155 31.5238 54.1722 38.6022 58.9687 44.2128C59.8648 45.3518 61.453 46.5832 62.6124 45.7043C64.9723 43.981 60.7204 36.3092 59.9265 34.5914C56.4788 27.2114 52.3878 20.3049 48.6588 12.9682C46.8855 9.5865 45.8704 4.63838 41.6048 3.42847Z" fill="white"/>
</g>
<defs>
<clipPath id="clip0_291_388">
<rect width="67.7376" height="60" fill="white" transform="matrix(0.765156 0.643845 0.643845 -0.765156 0 46.1357)"/>
</clipPath>
</defs>
</svg>
