<svg width="65" height="65" viewBox="0 0 65 65" fill="none" xmlns="http://www.w3.org/2000/svg">
<path d="M29.0526 4.09034V18.5907H31.2981V4.09009H29.0528L29.0526 4.09034ZM15.31 4.16956C13.3413 4.16956 11.7433 5.76739 11.7433 7.73605C11.7433 9.70472 13.3413 11.2987 15.31 11.2987C16.9166 11.2987 18.2731 10.2359 18.7179 8.77555H24.4228V18.5907H26.6683V6.53013H18.6661C18.1725 5.15434 16.8555 4.16956 15.31 4.16956ZM39.8437 4.16956C37.875 4.16956 36.281 5.76739 36.281 7.73605C36.281 9.27523 37.2556 10.5862 38.622 11.0846V18.5905H40.8633V11.152C42.3355 10.7137 43.4104 9.35014 43.4104 7.73618C43.4104 5.76739 41.8125 4.16956 39.8438 4.16956H39.8437ZM33.7855 11.7431V18.5907H36.0271V11.7431H33.7857H33.7855ZM57.7202 12.2547C55.7515 12.2547 54.1536 13.8528 54.1536 15.8214C54.1536 17.4824 55.2895 18.8777 56.8276 19.273V22.7602H45.0288V25.0018H59.0729V19.1185C60.3707 18.5864 61.2827 17.3116 61.2827 15.8216C61.2827 13.8529 59.6886 12.255 57.7199 12.255L57.7202 12.2547ZM3.83252 15.6986V17.9441H12.2829V25.0019H20.2573V22.7601H14.5284V15.6984H3.83265L3.83252 15.6986ZM22.4987 20.8363V41.113H42.7871V20.8361H22.4988L22.4987 20.8363ZM24.728 22.8238H26.9696V32.8017L31.0838 36.9157H40.6408V39.1575H30.1516L29.8222 38.8281L28.4575 37.4634C28.3263 38.4009 27.5231 39.1217 26.5494 39.1217C25.484 39.1217 24.621 38.2589 24.621 37.1936C24.621 36.2184 25.3441 35.4188 26.2834 35.2893L25.0577 34.0632L24.7284 33.734V22.8235L24.728 22.8238ZM31.7028 22.8437H33.9481V29.8659H40.6169L40.6172 32.1114H31.7029V22.8439L31.7028 22.8437ZM6.74444 27.5963V39.0182C5.28575 39.4641 4.22519 40.8207 4.22519 42.4261C4.22519 44.3945 5.81934 45.9926 7.788 45.9926C9.75666 45.9926 11.3545 44.3947 11.3545 42.4263C11.3545 40.8781 10.3655 39.5617 8.98605 39.0699V29.8378H20.2572V27.5965H6.74444V27.5963ZM45.0288 27.5963V29.8378H51.8802V27.5965H45.0286L45.0288 27.5963ZM57.7201 30.3855C56.3365 30.3855 55.1376 31.1739 54.5462 32.3254H45.0286L45.0288 34.5709H54.2092C54.5043 36.2426 55.9642 37.5146 57.7202 37.5146C59.6888 37.5146 61.2829 35.9165 61.2829 33.9479C61.2829 31.9793 59.6887 30.3854 57.7201 30.3854V30.3855ZM13.4055 32.3254V34.5709H20.2572V32.3254H13.4055ZM15.5836 36.9553V47.6469C14.1238 48.0929 13.0604 49.4497 13.0604 51.0549C13.0604 53.0234 14.6583 54.6215 16.627 54.6215C18.5955 54.6215 20.1893 53.0234 20.1893 51.0549C20.1893 49.5068 19.2034 48.1903 17.8249 47.6986V39.2004H20.2568V36.9551H15.5837L15.5836 36.9553ZM45.0288 36.9553V39.2006H50.7615V51.2971C49.324 51.7572 48.2821 53.1075 48.2821 54.6969C48.2819 56.6654 49.8798 58.2596 51.8485 58.2596C53.8171 58.2596 55.4112 56.6654 55.4112 54.697C55.4112 53.133 54.4038 51.8053 53.0029 51.3248V36.9553H45.0284H45.0288ZM24.4228 43.3582V50.2179H26.6683V43.3582H24.4228ZM29.0528 43.3582V54.3478C27.6546 54.8294 26.6483 56.1547 26.6483 57.7159C26.6483 59.6844 28.2464 61.2826 30.215 61.2826C32.1837 61.2826 33.7777 59.6843 33.7777 57.7159C33.7777 56.1251 32.7363 54.7782 31.2981 54.3199V43.3582H29.0528ZM33.7856 43.3582V50.2179H36.0311L36.0271 43.3583H33.7857L33.7856 43.3582ZM38.6217 43.3582V61.1398H40.8631V43.3582H38.6219H38.6217Z" fill="white"/>
</svg>
