<svg width="65" height="65" viewBox="0 0 65 65" fill="none" xmlns="http://www.w3.org/2000/svg">
<path d="M6.09375 34.5312V54.8438C6.09375 57.0781 7.92187 58.9062 10.1562 58.9062H22.75C23.7656 58.9062 24.7813 58.5 25.5938 57.6875L29.6563 53.625C31.2813 52 33.7187 52 35.3437 53.625L39.4062 57.6875C40.2187 58.5 41.2344 58.9062 42.25 58.9062H54.8438C57.0781 58.9062 58.9062 57.0781 58.9062 54.8438V34.5312C58.9062 32.2969 57.0781 30.4688 54.8438 30.4688H10.1562C7.92187 30.4688 6.09375 32.2969 6.09375 34.5312Z" stroke="white" stroke-width="4" stroke-miterlimit="10" stroke-linecap="round" stroke-linejoin="round"/>
<path d="M18.2812 50.7812C21.6467 50.7812 24.375 48.053 24.375 44.6875C24.375 41.322 21.6467 38.5938 18.2812 38.5938C14.9158 38.5938 12.1875 41.322 12.1875 44.6875C12.1875 48.053 14.9158 50.7812 18.2812 50.7812Z" stroke="white" stroke-width="4" stroke-miterlimit="10" stroke-linecap="round" stroke-linejoin="round"/>
<path d="M46.7188 50.7812C50.0842 50.7812 52.8125 48.053 52.8125 44.6875C52.8125 41.322 50.0842 38.5938 46.7188 38.5938C43.3533 38.5938 40.625 41.322 40.625 44.6875C40.625 48.053 43.3533 50.7812 46.7188 50.7812Z" stroke="white" stroke-width="4" stroke-miterlimit="10" stroke-linecap="round" stroke-linejoin="round"/>
<path d="M41.4375 24.375C39.2031 21.9375 35.9531 20.3125 32.5 20.3125C29.0469 20.3125 25.7969 21.9375 23.5625 24.375" stroke="white" stroke-width="4" stroke-miterlimit="10" stroke-linecap="round" stroke-linejoin="round"/>
<path d="M47.125 18.6875C43.4688 14.625 38.1875 12.1875 32.5 12.1875C26.8125 12.1875 21.5312 14.625 17.875 18.6875" stroke="white" stroke-width="4" stroke-miterlimit="10" stroke-linecap="round" stroke-linejoin="round"/>
<path d="M52.8125 12.7969C47.7344 7.51563 40.4219 4.0625 32.5 4.0625C24.5781 4.0625 17.2656 7.51563 12.1875 12.7969" stroke="white" stroke-width="4" stroke-miterlimit="10" stroke-linecap="round" stroke-linejoin="round"/>
</svg>
