<svg width="229" height="52" viewBox="0 0 229 52" fill="none" xmlns="http://www.w3.org/2000/svg">
<g clip-path="url(#clip0_635_445)">
<path d="M5.17333 18.0764V33.496C7.77565 34.9922 9.36766 37.7504 9.36766 40.7326V41.8013L2.62204 37.9235L0.0605469 36.4477V12.1833L2.61184 10.7075L7.73483 13.6591L9.36766 14.5955V20.4987L5.17333 18.0764Z" fill="white"/>
<path d="M42.1865 12.1831V36.4475L39.625 37.9233L34.5123 34.9717L21.1231 27.2669L17.041 24.9158V19.0227L21.1231 21.3637L25.2051 23.7148L37.0738 30.5544V15.1348C35.7777 14.3816 34.7266 13.3231 34.002 12.0712C33.2774 10.8193 32.8794 9.38419 32.8794 7.8982V6.81934L39.6353 10.7073L42.1865 12.1831Z" fill="white"/>
<path d="M39.6245 37.9233L32.8789 41.8011V35.9081L34.5117 34.9717L39.6245 37.9233Z" fill="white"/>
<path d="M9.36715 6.81934V12.7226L7.73432 13.6589L2.61133 10.7073L9.36715 6.81934Z" fill="white"/>
<path d="M26.481 15.9793V9.03795L21.1233 5.95402L15.7656 9.03795V39.5923L21.1233 42.6762L26.481 39.5923V32.5593L31.604 35.5007V42.5439L21.1233 48.5794L10.6426 42.5439V6.08633L21.1233 0.0507812L30.9611 5.71992L31.604 6.08633V18.931L26.481 15.9793Z" fill="white"/>
<g style="mix-blend-mode:overlay" opacity="0.5">
<path d="M8.54149 40.3863L8.19452 40.193C7.97 37.7808 6.5821 35.5925 4.44922 34.3712L4.04102 34.1371V16.8345L4.36758 17.0177V33.964L4.77579 34.1981C7.00051 35.4907 8.42924 37.8418 8.54149 40.3863Z" fill="white"/>
<path d="M8.55176 15.0736V19.0837L8.2354 18.9005V15.2365L2.31641 11.8268L2.62256 11.6538L8.55176 15.0736Z" fill="white"/>
<path d="M17.8691 20.4272L37.5651 31.7757V32.1218L17.8691 20.7835V20.4272Z" fill="white"/>
<path d="M41.3711 12.6512V35.9792L39.6362 36.9766L39.6158 36.9664L41.0547 36.142V12.8242L33.7274 8.60037C33.7206 8.47823 33.7138 8.35949 33.707 8.24414L41.3711 12.6512Z" fill="white"/>
<path d="M21.115 43.6126L20.8089 43.7857L14.6348 40.2336V8.73267L14.9511 8.56982V40.0707L21.115 43.6126Z" fill="white"/>
<path d="M30.7888 6.55474V17.5266L30.4622 17.3434V6.72777L20.8184 1.17058L21.1245 0.997559L30.7888 6.55474Z" fill="white"/>
<path d="M27.2988 33.9639L30.789 35.9791V42.0757L30.4624 42.2386V36.142L27.2988 34.3201V33.9639Z" fill="white"/>
</g>
</g>
<path d="M58.7259 40V12.3636H63.7322V24.0632H76.5384V12.3636H81.5582V40H76.5384V28.2599H63.7322V40H58.7259ZM95.9634 40.4048C93.8853 40.4048 92.0906 39.973 90.5792 39.1094C89.0768 38.2367 87.9208 37.0043 87.1112 35.4119C86.3015 33.8106 85.8967 31.9259 85.8967 29.7578C85.8967 27.6257 86.3015 25.7545 87.1112 24.1442C87.9298 22.5249 89.0723 21.2654 90.5387 20.3658C92.0051 19.4571 93.7279 19.0028 95.707 19.0028C96.9845 19.0028 98.19 19.2098 99.3235 19.6236C100.466 20.0284 101.474 20.6581 102.346 21.5128C103.228 22.3674 103.921 23.456 104.424 24.7784C104.928 26.0919 105.18 27.6572 105.18 29.4744V30.9723H88.1907V27.6797H100.498C100.489 26.7441 100.286 25.9119 99.8903 25.1832C99.4944 24.4455 98.9412 23.8653 98.2305 23.4425C97.5288 23.0196 96.7101 22.8082 95.7745 22.8082C94.7759 22.8082 93.8988 23.0511 93.1431 23.5369C92.3874 24.0137 91.7982 24.6435 91.3754 25.4261C90.9615 26.1998 90.7501 27.05 90.7411 27.9766V30.8509C90.7411 32.0563 90.9615 33.0909 91.4023 33.9545C91.8432 34.8092 92.4594 35.4659 93.2511 35.9247C94.0427 36.3745 94.9693 36.5994 96.0309 36.5994C96.7416 36.5994 97.3848 36.5005 97.9606 36.3026C98.5363 36.0956 99.0356 35.7943 99.4585 35.3984C99.8813 35.0026 100.201 34.5123 100.417 33.9276L104.978 34.4403C104.69 35.6458 104.141 36.6984 103.331 37.598C102.531 38.4886 101.505 39.1813 100.255 39.6761C99.0041 40.1619 97.5737 40.4048 95.9634 40.4048ZM117.004 40.3643C115.376 40.3643 113.919 39.946 112.632 39.1094C111.346 38.2727 110.329 37.0582 109.583 35.4659C108.836 33.8736 108.463 31.9394 108.463 29.6634C108.463 27.3603 108.84 25.4171 109.596 23.8338C110.361 22.2415 111.391 21.0405 112.686 20.2308C113.982 19.4122 115.426 19.0028 117.018 19.0028C118.232 19.0028 119.231 19.2098 120.014 19.6236C120.796 20.0284 121.417 20.5187 121.876 21.0945C122.335 21.6612 122.69 22.1965 122.942 22.7003H123.144V12.3636H128.043V40H123.239V36.7344H122.942C122.69 37.2382 122.326 37.7734 121.849 38.3402C121.372 38.898 120.742 39.3748 119.96 39.7706C119.177 40.1664 118.192 40.3643 117.004 40.3643ZM118.367 36.3565C119.402 36.3565 120.284 36.0777 121.012 35.5199C121.741 34.9531 122.294 34.166 122.672 33.1584C123.05 32.1508 123.239 30.9768 123.239 29.6364C123.239 28.2959 123.05 27.1309 122.672 26.1413C122.303 25.1518 121.754 24.3826 121.026 23.8338C120.306 23.285 119.42 23.0107 118.367 23.0107C117.279 23.0107 116.37 23.294 115.642 23.8608C114.913 24.4276 114.364 25.2102 113.995 26.2088C113.626 27.2074 113.442 28.3499 113.442 29.6364C113.442 30.9318 113.626 32.0878 113.995 33.1044C114.373 34.112 114.926 34.9081 115.655 35.4929C116.393 36.0687 117.297 36.3565 118.367 36.3565ZM133.248 47.7727V19.2727H138.052V22.7003H138.336C138.587 22.1965 138.943 21.6612 139.402 21.0945C139.86 20.5187 140.481 20.0284 141.264 19.6236C142.047 19.2098 143.045 19.0028 144.26 19.0028C145.861 19.0028 147.305 19.4122 148.591 20.2308C149.887 21.0405 150.912 22.2415 151.668 23.8338C152.433 25.4171 152.815 27.3603 152.815 29.6634C152.815 31.9394 152.442 33.8736 151.695 35.4659C150.948 37.0582 149.932 38.2727 148.645 39.1094C147.359 39.946 145.901 40.3643 144.273 40.3643C143.086 40.3643 142.1 40.1664 141.318 39.7706C140.535 39.3748 139.905 38.898 139.429 38.3402C138.961 37.7734 138.596 37.2382 138.336 36.7344H138.133V47.7727H133.248ZM138.039 29.6364C138.039 30.9768 138.228 32.1508 138.605 33.1584C138.992 34.166 139.546 34.9531 140.265 35.5199C140.994 36.0777 141.876 36.3565 142.91 36.3565C143.99 36.3565 144.894 36.0687 145.623 35.4929C146.351 34.9081 146.9 34.112 147.269 33.1044C147.647 32.0878 147.836 30.9318 147.836 29.6364C147.836 28.3499 147.651 27.2074 147.282 26.2088C146.913 25.2102 146.365 24.4276 145.636 23.8608C144.907 23.294 143.999 23.0107 142.91 23.0107C141.867 23.0107 140.98 23.285 140.252 23.8338C139.523 24.3826 138.97 25.1518 138.592 26.1413C138.223 27.1309 138.039 28.2959 138.039 29.6364ZM156.998 40V19.2727H161.735V22.7273H161.951C162.328 21.5308 162.976 20.6087 163.894 19.9609C164.82 19.3042 165.877 18.9759 167.065 18.9759C167.335 18.9759 167.636 18.9893 167.969 19.0163C168.311 19.0343 168.594 19.0658 168.819 19.1108V23.6044C168.612 23.5324 168.284 23.4695 167.834 23.4155C167.393 23.3525 166.966 23.321 166.552 23.321C165.662 23.321 164.861 23.5144 164.15 23.9013C163.449 24.2791 162.895 24.8054 162.49 25.4801C162.086 26.1548 161.883 26.933 161.883 27.8146V40H156.998ZM180.252 40.4048C178.228 40.4048 176.474 39.9595 174.99 39.0689C173.505 38.1783 172.354 36.9323 171.535 35.331C170.725 33.7296 170.32 31.8584 170.32 29.7173C170.32 27.5762 170.725 25.7005 171.535 24.0902C172.354 22.4799 173.505 21.2294 174.99 20.3388C176.474 19.4482 178.228 19.0028 180.252 19.0028C182.276 19.0028 184.031 19.4482 185.515 20.3388C186.999 21.2294 188.146 22.4799 188.956 24.0902C189.775 25.7005 190.184 27.5762 190.184 29.7173C190.184 31.8584 189.775 33.7296 188.956 35.331C188.146 36.9323 186.999 38.1783 185.515 39.0689C184.031 39.9595 182.276 40.4048 180.252 40.4048ZM180.279 36.4915C181.377 36.4915 182.294 36.1901 183.032 35.5874C183.77 34.9756 184.319 34.157 184.678 33.1314C185.047 32.1058 185.232 30.9633 185.232 29.7038C185.232 28.4354 185.047 27.2884 184.678 26.2628C184.319 25.2282 183.77 24.4051 183.032 23.7933C182.294 23.1816 181.377 22.8757 180.279 22.8757C179.155 22.8757 178.219 23.1816 177.472 23.7933C176.735 24.4051 176.182 25.2282 175.813 26.2628C175.453 27.2884 175.273 28.4354 175.273 29.7038C175.273 30.9633 175.453 32.1058 175.813 33.1314C176.182 34.157 176.735 34.9756 177.472 35.5874C178.219 36.1901 179.155 36.4915 180.279 36.4915Z" fill="white"/>
<defs>
<clipPath id="clip0_635_445">
<rect width="42.2494" height="48.6508" fill="white"/>
</clipPath>
</defs>
</svg>
