<svg width="84" height="84" viewBox="0 0 84 84" fill="none" xmlns="http://www.w3.org/2000/svg">
<path d="M62.9269 57.9139H61.1944V45.3599C61.186 41.4234 59.9446 37.5884 57.6447 34.3936C55.3447 31.1989 52.1017 28.8049 48.3713 27.5479V26.2499C48.3713 24.6686 47.7431 23.1522 46.625 22.0341C45.507 20.916 43.9905 20.2878 42.4093 20.2878C40.828 20.2878 39.3116 20.916 38.1935 22.0341C37.0754 23.1522 36.4472 24.6686 36.4472 26.2499V27.5479C32.7168 28.8049 29.4738 31.1989 27.1738 34.3936C24.8739 37.5884 23.6325 41.4234 23.6241 45.3599V57.9139H21.8916C20.3687 57.9141 18.9083 58.5191 17.8315 59.596C16.7546 60.6728 16.1496 62.1333 16.1494 63.6561C16.1512 65.1785 16.7567 66.6381 17.8332 67.7145C18.9097 68.791 20.3692 69.3966 21.8916 69.3983H34.321C34.5939 71.3493 35.5628 73.136 37.0492 74.4289C38.5356 75.7218 40.4392 76.4339 42.4093 76.4339C44.3793 76.4339 46.2829 75.7218 47.7693 74.4289C49.2557 73.136 50.2246 71.3493 50.4975 69.3983H62.9269C64.4498 69.3983 65.9104 68.7933 66.9873 67.7165C68.0641 66.6396 68.6691 65.179 68.6691 63.6561C68.6691 62.1332 68.0641 60.6726 66.9873 59.5958C65.9104 58.5189 64.4498 57.9139 62.9269 57.9139ZM42.4053 74.1351C41.0452 74.1328 39.7278 73.6597 38.6769 72.7962C37.6259 71.9328 36.9063 70.7322 36.6402 69.3983H48.1784C47.9114 70.7332 47.1904 71.9345 46.138 72.798C45.0856 73.6615 43.7667 74.134 42.4053 74.1351ZM65.3616 66.0921C65.0424 66.4131 64.6626 66.6676 64.2444 66.8408C63.8261 67.0141 63.3777 67.1027 62.9249 67.1014H21.8916C21.2097 67.1015 20.5431 66.8992 19.9763 66.5202C19.4094 66.1411 18.9678 65.6024 18.7073 64.9723C18.4468 64.3421 18.3792 63.6488 18.513 62.9802C18.6468 62.3115 18.976 61.6976 19.4589 61.2162C19.7771 60.8952 20.1562 60.641 20.5739 60.4684C20.9917 60.2957 21.4396 60.2082 21.8916 60.2108H24.7725C25.0771 60.2106 25.3691 60.0896 25.5844 59.8742C25.7998 59.6589 25.9208 59.3669 25.921 59.0624V45.3599C25.9279 41.774 27.1009 38.2876 29.2632 35.427C31.4254 32.5663 34.4594 30.4866 37.9074 29.5016C38.1482 29.4336 38.3603 29.2887 38.5113 29.0891C38.6624 28.8895 38.7441 28.6461 38.7441 28.3958V26.2499C38.7441 25.2778 39.1303 24.3456 39.8176 23.6582C40.5049 22.9709 41.4372 22.5847 42.4093 22.5847C43.3813 22.5847 44.3136 22.9709 45.0009 23.6582C45.6883 24.3456 46.0744 25.2778 46.0744 26.2499V28.3958C46.0744 28.6461 46.1562 28.8895 46.3072 29.0891C46.4582 29.2887 46.6703 29.4336 46.9111 29.5016C50.3591 30.4866 53.3931 32.5663 55.5554 35.427C57.7176 38.2876 58.8906 41.774 58.8975 45.3599V59.0624C58.8977 59.3669 59.0188 59.6589 59.2341 59.8742C59.4494 60.0896 59.7414 60.2106 60.046 60.2108H62.9269C63.6083 60.2108 64.2745 60.4128 64.8411 60.7913C65.4077 61.1698 65.8493 61.7079 66.1101 62.3374C66.3709 62.9669 66.4392 63.6597 66.3063 64.328C66.1734 64.9963 65.8454 65.6102 65.3636 66.0921H65.3616Z" fill="#282D33"/>
<path d="M56.5686 20.761C56.28 20.6634 55.9645 20.6844 55.6914 20.8194C55.4183 20.9544 55.21 21.1924 55.1124 21.4809C55.0147 21.7695 55.0357 22.0851 55.1707 22.3581C55.3057 22.6312 55.5437 22.8395 55.8323 22.9372C59.1379 24.0545 62.0097 26.1808 64.0432 29.0164C66.0766 31.8521 67.1692 35.2542 67.167 38.7436C67.167 39.0482 67.288 39.3403 67.5034 39.5557C67.7188 39.771 68.0109 39.892 68.3154 39.892C68.62 39.892 68.9121 39.771 69.1275 39.5557C69.3429 39.3403 69.4639 39.0482 69.4639 38.7436C69.4663 34.7738 68.2232 30.9034 65.9098 27.6773C63.5964 24.4513 60.3293 22.0323 56.5686 20.761Z" fill="#282D33"/>
<path d="M59.3527 14.1926C59.0653 14.0993 58.7528 14.123 58.4828 14.2585C58.2128 14.3941 58.0071 14.6306 57.9102 14.9167C57.8134 15.2029 57.8332 15.5157 57.9654 15.7874C58.0975 16.059 58.3314 16.2677 58.6164 16.3681C63.1183 17.8906 67.0293 20.787 69.7985 24.6493C72.5677 28.5116 74.0556 33.1452 74.0527 37.8977C74.0527 38.2023 74.1737 38.4944 74.3891 38.7097C74.6044 38.9251 74.8965 39.0461 75.2011 39.0461C75.5057 39.0461 75.7978 38.9251 76.0132 38.7097C76.2286 38.4944 76.3496 38.2023 76.3496 37.8977C76.3528 32.6649 74.7145 27.5629 71.6653 23.3103C68.6162 19.0577 64.3098 15.8688 59.3527 14.1926Z" fill="#282D33"/>
<path d="M17.6523 38.7436C17.65 35.2545 18.7423 31.8525 20.7754 29.0169C22.8085 26.1812 25.6798 24.0548 28.9851 22.9372C29.128 22.8888 29.26 22.8128 29.3735 22.7135C29.487 22.6141 29.5798 22.4934 29.6467 22.3581C29.7135 22.2229 29.7531 22.0759 29.7631 21.9254C29.7731 21.7748 29.7534 21.6238 29.705 21.4809C29.6567 21.3381 29.5807 21.2061 29.4813 21.0926C29.382 20.9791 29.2612 20.8862 29.126 20.8194C28.9908 20.7525 28.8437 20.713 28.6932 20.703C28.5427 20.693 28.3917 20.7127 28.2488 20.761C24.4885 22.0326 21.2218 24.4518 18.9087 27.6778C16.5957 30.9038 15.353 34.7741 15.3555 38.7436C15.3555 39.0482 15.4765 39.3403 15.6918 39.5557C15.9072 39.771 16.1993 39.892 16.5039 39.892C16.8085 39.892 17.1006 39.771 17.316 39.5557C17.5314 39.3403 17.6523 39.0482 17.6523 38.7436Z" fill="#282D33"/>
<path d="M26.2029 16.3681C26.4879 16.2677 26.7218 16.059 26.8539 15.7874C26.9861 15.5157 27.0059 15.2029 26.9091 14.9167C26.8122 14.6306 26.6065 14.3941 26.3365 14.2585C26.0665 14.123 25.754 14.0993 25.4666 14.1926C20.5095 15.8688 16.2031 19.0577 13.154 23.3103C10.1048 27.5629 8.46646 32.6649 8.46973 37.8977C8.46973 38.2023 8.59073 38.4944 8.8061 38.7097C9.02148 38.9251 9.31358 39.0461 9.61817 39.0461C9.92275 39.0461 10.2149 38.9251 10.4302 38.7097C10.6456 38.4944 10.7666 38.2023 10.7666 37.8977C10.7637 33.1452 12.2516 28.5116 15.0208 24.6493C17.79 20.787 21.701 17.8906 26.2029 16.3681Z" fill="#282D33"/>
</svg>
