<svg width="31" height="19" viewBox="0 0 31 19" fill="none" xmlns="http://www.w3.org/2000/svg">
<path d="M18.2881 0.474609V0.476562C18.2884 0.477504 18.2886 0.479017 18.2891 0.480469C18.2901 0.483492 18.2922 0.488041 18.2939 0.493164C18.2975 0.503439 18.3022 0.517981 18.3086 0.536133C18.3216 0.573307 18.3413 0.626836 18.3662 0.694336C18.4161 0.829398 18.4892 1.02259 18.5869 1.25879C18.7822 1.73073 19.0754 2.38086 19.4658 3.09668C20.2369 4.51022 21.433 6.26125 23.083 7.36133C23.7493 7.80549 24.4377 8.17575 25.1064 8.4873H-0.000976562V9.9873H25.1064C24.4376 10.2989 23.7493 10.6691 23.083 11.1133C21.4329 12.2133 20.2369 13.9644 19.4658 15.3779C19.0754 16.0938 18.7822 16.7439 18.5869 17.2158C18.4892 17.452 18.4161 17.6452 18.3662 17.7803C18.3413 17.8478 18.3216 17.9013 18.3086 17.9385C18.3022 17.9566 18.2975 17.9711 18.2939 17.9814C18.2922 17.9866 18.2901 17.9911 18.2891 17.9941C18.2886 17.9956 18.2884 17.9971 18.2881 17.998V18L19.71 18.4746L19.7109 18.4736C19.7114 18.4723 19.7118 18.4699 19.7129 18.4668C19.7152 18.46 19.7195 18.4492 19.7246 18.4346C19.735 18.4049 19.7506 18.3591 19.7725 18.2998C19.8163 18.181 19.884 18.0067 19.9736 17.79C20.1533 17.3558 20.4229 16.7556 20.7822 16.0967C21.5112 14.7603 22.5653 13.2612 23.915 12.3613C25.3323 11.4165 26.8821 10.8184 28.0898 10.4561C28.6909 10.2757 29.2012 10.1555 29.5586 10.0811C29.737 10.0439 29.8769 10.0182 29.9707 10.002C30.0173 9.99389 30.0524 9.98796 30.0752 9.98438C30.0865 9.9826 30.0956 9.98121 30.1006 9.98047L30.1055 9.97949L30.0527 9.2373L30.1055 8.49512L30.1006 8.49414C30.0956 8.49339 30.0865 8.49201 30.0752 8.49023C30.0524 8.48665 30.0172 8.48071 29.9707 8.47266C29.8769 8.45643 29.7369 8.4307 29.5586 8.39355C29.2012 8.31909 28.6909 8.19887 28.0898 8.01855C26.8821 7.65623 25.3323 7.05813 23.915 6.11328C22.5653 5.21341 21.5111 3.71426 20.7822 2.37793C20.4229 1.71907 20.1533 1.11874 19.9736 0.68457C19.884 0.467945 19.8163 0.293554 19.7725 0.174805C19.7506 0.115565 19.735 0.0696826 19.7246 0.0400391C19.7195 0.0253798 19.7152 0.0145308 19.7129 0.0078125C19.7119 0.00473406 19.7114 0.00227337 19.7109 0.000976562L19.71 0L18.2881 0.474609Z" fill="#E4ECE0"/>
</svg>
