<svg width="31" height="19" viewBox="0 0 31 19" fill="none" xmlns="http://www.w3.org/2000/svg">
<path d="M11.8174 0.474609V0.476562C11.8171 0.477504 11.8169 0.479017 11.8164 0.480469C11.8154 0.483492 11.8133 0.488041 11.8115 0.493164C11.808 0.503439 11.8032 0.517981 11.7969 0.536133C11.7839 0.573307 11.7642 0.626836 11.7393 0.694336C11.6894 0.829398 11.6163 1.02259 11.5186 1.25879C11.3233 1.73073 11.0301 2.38086 10.6396 3.09668C9.86859 4.51022 8.6725 6.26125 7.02246 7.36133C6.35621 7.80549 5.6678 8.17575 4.99902 8.4873H30.1064V9.9873H4.99902C5.66783 10.2989 6.35618 10.6691 7.02246 11.1133C8.67254 12.2133 9.86857 13.9644 10.6396 15.3779C11.0301 16.0938 11.3232 16.7439 11.5186 17.2158C11.6163 17.452 11.6894 17.6452 11.7393 17.7803C11.7642 17.8478 11.7838 17.9013 11.7969 17.9385C11.8032 17.9566 11.808 17.9711 11.8115 17.9814C11.8133 17.9866 11.8154 17.9911 11.8164 17.9941C11.8169 17.9956 11.8171 17.9971 11.8174 17.998V18L10.3955 18.4746L10.3945 18.4736C10.3941 18.4723 10.3936 18.4699 10.3926 18.4668C10.3903 18.46 10.386 18.4492 10.3809 18.4346C10.3705 18.4049 10.3549 18.3591 10.333 18.2998C10.2892 18.181 10.2215 18.0067 10.1318 17.79C9.95217 17.3558 9.68262 16.7556 9.32324 16.0967C8.59431 14.7603 7.54019 13.2612 6.19043 12.3613C4.77313 11.4165 3.22335 10.8184 2.01562 10.4561C1.41452 10.2757 0.904283 10.1555 0.546875 10.0811C0.368509 10.0439 0.228521 10.0182 0.134766 10.002C0.0882076 9.99389 0.0530233 9.98796 0.0302734 9.98438C0.0189665 9.9826 0.00985524 9.98121 0.00488281 9.98047L0 9.97949L0.0527344 9.2373L0 8.49512L0.00488281 8.49414C0.00986378 8.49339 0.0189974 8.49201 0.0302734 8.49023C0.0530245 8.48665 0.0882368 8.48071 0.134766 8.47266C0.228521 8.45643 0.368538 8.4307 0.546875 8.39355C0.90428 8.31909 1.41456 8.19887 2.01562 8.01855C3.22334 7.65623 4.77316 7.05813 6.19043 6.11328C7.54015 5.21341 8.59434 3.71426 9.32324 2.37793C9.6826 1.71907 9.95218 1.11874 10.1318 0.68457C10.2215 0.467945 10.2892 0.293554 10.333 0.174805C10.3549 0.115565 10.3705 0.0696826 10.3809 0.0400391C10.386 0.0253798 10.3903 0.0145308 10.3926 0.0078125C10.3936 0.00473406 10.3941 0.00227337 10.3945 0.000976562L10.3955 0L11.8174 0.474609Z" fill="#E4ECE0"/>
</svg>
