<svg xmlns="http://www.w3.org/2000/svg" width="28" height="23" viewBox="0 0 28 23" fill="none">
                      <path d="M27.46 5.14001C27.1816 4.7804 26.8236 4.49029 26.4141 4.29248C26.0046 4.09466 25.5547 3.99455 25.1 4.00001H8.22L6.76 1.35001C6.52442 0.935734 6.18225 0.592066 5.76902 0.354676C5.35578 0.117285 4.88654 -0.00517576 4.41 5.24189e-06H1C0.734784 5.24189e-06 0.48043 0.105362 0.292893 0.292899C0.105357 0.480435 0 0.734789 0 1.00001C0 1.26522 0.105357 1.51958 0.292893 1.70711C0.48043 1.89465 0.734784 2.00001 1 2.00001H4.41C4.52835 1.99494 4.64597 2.02088 4.7512 2.07525C4.85644 2.12963 4.94565 2.21055 5.01 2.31001L6.66 5.31001L7.52 14.63C7.63527 15.595 8.11213 16.4804 8.85445 17.1076C9.59677 17.7349 10.5493 18.0574 11.52 18.01H21.89C22.7475 18.0317 23.5884 17.7715 24.2839 17.2693C24.9793 16.7672 25.4908 16.0508 25.74 15.23L27.91 7.41001C28.0169 7.02272 28.0319 6.61582 27.9538 6.22172C27.8757 5.82762 27.7066 5.45721 27.46 5.14001ZM26 6.86L23.83 14.69C23.6948 15.0908 23.4318 15.436 23.0813 15.6727C22.7308 15.9094 22.3122 16.0244 21.89 16H11.48C11.0125 16.0343 10.549 15.8936 10.1794 15.6053C9.80987 15.3171 9.56059 14.9017 9.48 14.44L8.73 6.00001H25.1C25.2461 5.99854 25.3908 6.02912 25.5238 6.08959C25.6569 6.15006 25.775 6.23895 25.87 6.35001C25.9297 6.41915 25.9725 6.50121 25.995 6.58971C26.0176 6.67821 26.0193 6.77073 26 6.86Z" fill="currentColor"/>
                      <path d="M12 23C13.1046 23 14 22.1046 14 21C14 19.8954 13.1046 19 12 19C10.8954 19 10 19.8954 10 21C10 22.1046 10.8954 23 12 23Z" fill="currentColor"/>
                      <path d="M22 23C23.1046 23 24 22.1046 24 21C24 19.8954 23.1046 19 22 19C20.8954 19 20 19.8954 20 21C20 22.1046 20.8954 23 22 23Z" fill="currentColor"/>
                    </svg>