<svg width="70" height="70" viewBox="0 0 70 70" fill="none" xmlns="http://www.w3.org/2000/svg">
<g clip-path="url(#clip0_384_201)">
<path d="M69.5334 29.5166C69.4168 29.05 69.0668 28.7 68.6 28.5832C68.1334 28.4666 67.6666 28.6999 67.4334 29.0499C65.9168 31.2665 63.35 32.6665 60.6668 32.6665C57.7501 32.6665 54.9501 31.1499 53.5501 28.5831C53.3168 28.2331 52.8501 27.9997 52.3835 27.9997C52.0335 27.9997 51.6835 27.9997 51.3335 27.9997C45.5001 27.9997 40.8335 23.3331 40.8335 17.4997C40.8335 16.4788 40.9702 15.5036 41.2437 14.5739C41.4241 13.9997 41.621 13.4747 41.8835 12.9497C42.0001 12.7163 42.0001 12.3663 41.8835 12.0163C41.7669 11.6663 41.5335 11.433 41.1835 11.3163C38.8501 10.4997 37.3335 8.28297 37.3335 5.83297C37.3335 5.65209 37.3416 5.47326 37.357 5.29621C37.3736 5.17303 37.4012 5.0467 37.4503 4.89959C37.4503 4.81865 37.45 4.73771 37.4471 4.65814C37.6311 3.70713 38.0343 2.81518 38.6169 1.98283C38.9669 1.63283 38.9669 1.16621 38.8503 0.816211C38.7337 0.466211 38.3837 0.116211 37.9169 0.116211C36.8666 0 35.9334 0 35 0C15.75 0 0 15.75 0 35C0 54.25 15.75 70 35 70C54.25 70 70 54.25 70 35C70 33.1334 69.7666 31.3834 69.5334 29.5166ZM38.9059 14.2729C38.2129 14.726 37.3003 15.1666 36.1666 15.1666C33.6 15.1666 31.5 13.0666 31.5 10.5C31.5 8.28338 33.0166 6.41662 35 5.95C35 8.98338 36.75 11.6666 39.3166 13.0666C39.1527 13.4604 39.0172 13.8634 38.9059 14.2729ZM35 67.6666C17.0334 67.6666 2.33338 52.9666 2.33338 35C2.33338 17.0334 17.0334 2.33338 35 2.33338C35.2334 2.33338 35.4666 2.33338 35.8166 2.33338C35.6046 2.7151 35.4393 3.12771 35.3142 3.55414C31.8626 3.97824 29.1666 6.93861 29.1666 10.5C29.1666 14.35 32.3166 17.5 36.1666 17.5C36.9601 17.5 37.7532 17.3611 38.5066 17.0857C38.5026 17.2238 38.5 17.3618 38.5 17.5C38.5 24.6166 44.2166 30.3334 51.3334 30.3334C51.5668 30.3334 51.6834 30.3334 51.9168 30.3334C53.9001 33.25 57.1668 35 60.6668 35C63.2334 35 65.6834 34.0666 67.5501 32.4334C67.6668 33.25 67.6668 34.1834 67.6668 35C67.6666 52.9666 52.9666 67.6666 35 67.6666Z" fill="#FB9015"/>
<path d="M19.833 18.6666C15.983 18.6666 12.833 21.8166 12.833 25.6666C12.833 29.5166 15.983 32.6666 19.833 32.6666C23.683 32.6666 26.833 29.5166 26.833 25.6666C26.833 21.8166 23.683 18.6666 19.833 18.6666ZM19.833 30.3334C17.2664 30.3334 15.1664 28.2334 15.1664 25.6668C15.1664 23.1001 17.2664 21.0001 19.833 21.0001C22.3996 21.0001 24.4996 23.1001 24.4996 25.6668C24.4996 28.2334 22.3996 30.3334 19.833 30.3334Z" fill="#FB9015"/>
<path d="M21.0004 44.3334C17.7338 44.3334 15.167 46.9 15.167 50.1668C15.167 53.4335 17.7338 56 21.0004 56C24.267 56 26.8337 53.4334 26.8337 50.1666C26.8337 46.8999 24.267 44.3334 21.0004 44.3334ZM21.0004 53.6666C19.017 53.6666 17.5004 52.15 17.5004 50.1666C17.5004 48.1832 19.017 46.6666 21.0004 46.6666C22.9838 46.6666 24.5004 48.1832 24.5004 50.1666C24.5004 52.15 22.9838 53.6666 21.0004 53.6666Z" fill="#FB9015"/>
<path d="M44.3334 40.8334C39.2 40.8334 35 45.0334 35 50.1668C35 55.3001 39.2 59.5001 44.3334 59.5001C49.4668 59.5001 53.6668 55.3001 53.6668 50.1668C53.6668 45.0334 49.4666 40.8334 44.3334 40.8334ZM44.3334 57.1666C40.4834 57.1666 37.3334 54.0166 37.3334 50.1666C37.3334 46.3166 40.4834 43.1666 44.3334 43.1666C48.1834 43.1666 51.3334 46.3166 51.3334 50.1666C51.3334 54.0166 48.1834 57.1666 44.3334 57.1666Z" fill="#FB9015"/>
</g>
<defs>
<clipPath id="clip0_384_201">
<rect width="70" height="70" fill="white"/>
</clipPath>
</defs>
</svg>
