<svg width="61" height="58" viewBox="0 0 61 58" fill="none" xmlns="http://www.w3.org/2000/svg">
<g clip-path="url(#clip0_326_574)">
<path d="M58.575 30.5625H46.2148V20.3545H55.5078V22.1416H48.1211V28.7754H58.575V30.5625Z" fill="#282D33"/>
<path d="M43.2422 40.7319H42.5273V42.519H43.2422V40.7319Z" fill="#282D33"/>
<path d="M60.5986 42.5187H56.2919V40.7316H58.6923V37.9947H58.0085V30.1922L53.666 18.1162H42.5273V16.3291H55.0352L59.9147 29.8991V36.2076H60.5986V42.5187Z" fill="#282D33"/>
<path d="M43.559 37.263H41.6527V11.2324H3.12695V37.263H1.2207V9.44531H43.559V37.263Z" fill="#282D33"/>
<path d="M24.7269 40.7554H16.7969V42.5425H24.7269V40.7554Z" fill="#282D33"/>
<path d="M43.5597 42.5428H38.3728V40.7556H41.6535V37.3525H1.90625V40.7556H3.89256V42.5428H0V35.5654H43.5597V42.5428Z" fill="#282D33"/>
<path d="M42.1906 40.7085H37.5117V42.4956H42.1906V40.7085Z" fill="#282D33"/>
<path d="M50.4001 47.742C47.7981 47.742 45.6816 45.7301 45.6816 43.2577C45.6816 40.7847 47.7981 38.7725 50.4001 38.7725C53.0021 38.7725 55.1185 40.7847 55.1185 43.2577C55.1185 45.7301 53.0021 47.742 50.4001 47.742ZM50.4001 40.5596C48.8494 40.5596 47.5879 41.7699 47.5879 43.2577C47.5879 44.745 48.8494 45.9549 50.4001 45.9549C51.9508 45.9549 53.2123 44.745 53.2123 43.2577C53.2123 41.7699 51.9508 40.5596 50.4001 40.5596Z" fill="#282D33"/>
<path d="M31.2443 47.742C28.6423 47.742 26.5254 45.7301 26.5254 43.2577C26.5254 40.7847 28.6423 38.7725 31.2443 38.7725C33.8454 38.7725 35.9613 40.7847 35.9613 43.2577C35.9613 45.7301 33.8454 47.742 31.2443 47.742ZM31.2443 40.5596C29.6936 40.5596 28.4316 41.7699 28.4316 43.2577C28.4316 44.745 29.6936 45.9549 31.2443 45.9549C32.7941 45.9549 34.0551 44.745 34.0551 43.2577C34.0551 41.7699 32.7936 40.5596 31.2443 40.5596Z" fill="#282D33"/>
<path d="M10.0973 47.742C7.4948 47.742 5.37695 45.7301 5.37695 43.2577C5.37695 40.7847 7.49432 38.7725 10.0973 38.7725C12.6993 38.7725 14.8167 40.7847 14.8167 43.2577C14.8167 45.7301 12.6993 47.742 10.0973 47.742ZM10.0973 40.5596C8.54562 40.5596 7.2832 41.7699 7.2832 43.2577C7.2832 44.745 8.54562 45.9549 10.0973 45.9549C11.6485 45.9549 12.9105 44.745 12.9105 43.2577C12.9105 41.7699 11.6485 40.5596 10.0973 40.5596Z" fill="#282D33"/>
<path d="M10.0973 47.742C7.4948 47.742 5.37695 45.7301 5.37695 43.2577C5.37695 40.7847 7.49432 38.7725 10.0973 38.7725C12.6993 38.7725 14.8167 40.7847 14.8167 43.2577C14.8167 45.7301 12.6993 47.742 10.0973 47.742ZM10.0973 40.5596C8.54562 40.5596 7.2832 41.7699 7.2832 43.2577C7.2832 44.745 8.54562 45.9549 10.0973 45.9549C11.6485 45.9549 12.9105 44.745 12.9105 43.2577C12.9105 41.7699 11.6485 40.5596 10.0973 40.5596Z" fill="#282D33"/>
<path d="M61.0008 32.3369H56.2285V34.124H61.0008V32.3369Z" fill="#282D33"/>
<path d="M18.7357 16.855H8.58203V18.6421H18.7357V16.855Z" fill="#282D33"/>
</g>
<defs>
<clipPath id="clip0_326_574">
<rect width="61" height="57.1875" fill="white"/>
</clipPath>
</defs>
</svg>
