<svg width="45" height="45" viewBox="0 0 45 45" fill="none" xmlns="http://www.w3.org/2000/svg">
<g clip-path="url(#clip0_115_28)">
<path d="M34.6046 27.5127C34.6726 29.1011 34.4516 30.8259 34.2474 32.5509C34.2303 32.7215 34.1962 32.8923 34.1452 33.0461C34.0432 33.4901 33.8219 33.8829 33.2945 33.7974C32.7672 33.695 32.648 33.2681 32.7331 32.807C32.9032 31.6797 32.9883 30.5527 33.0905 29.4256C33.3796 26.1637 33.0905 22.9361 32.2908 19.7765C30.9978 14.7045 25.8768 11.4939 20.7897 12.4161C15.5327 13.3724 11.8749 18.0688 12.3512 23.3287C12.4874 24.8317 12.9127 26.3004 12.8106 27.8202C12.7936 28.1276 12.7936 28.4521 12.7256 28.7594C12.6405 29.1693 12.4363 29.5451 11.9429 29.4939C11.4155 29.4427 11.2284 29.0328 11.2794 28.5717C11.3475 27.8373 11.3985 27.1029 11.2964 26.3686C11.0412 24.4047 10.667 22.4407 11.0412 20.4427C12.0791 14.9265 16.8768 10.8278 22.4401 10.7937C27.9183 10.7595 32.8351 14.807 33.9071 20.2548C34.3664 22.5944 34.6556 24.9682 34.6046 27.5127Z" fill="#007AFF"/>
<path d="M39.5554 20.835C39.5723 21.4498 39.6064 21.9623 38.9768 22.0305C38.3815 22.0988 38.2283 21.6206 38.1432 21.1425C37.7518 18.4613 37.0204 15.8996 35.421 13.6795C31.4571 8.16337 26.0809 5.99448 19.4627 7.10454C13.44 8.11212 8.54018 13.0476 7.21315 19.0931C7.09407 19.6397 7.11108 20.4765 6.2434 20.2886C5.32469 20.1008 5.68197 19.3151 5.81808 18.7345C7.48537 11.4423 13.5931 6.13111 20.8577 5.41383C29.5005 4.55996 37.803 10.5713 39.3512 19.6909C39.4362 20.1349 39.5042 20.5618 39.5554 20.835Z" fill="#007AFF"/>
<path d="M22.7633 4.16735C13.4911 3.84288 5.12055 10.9131 4.18481 21.0231C4.01469 22.8846 4.26988 24.712 4.5591 26.5393C4.84834 28.2983 4.32092 29.8523 3.23207 31.2357C2.92584 31.6285 2.53453 32.0213 2.02414 31.5943C1.49672 31.1674 1.80296 30.7234 2.12621 30.3306C3.16402 29.0668 3.30013 27.6152 3.02792 26.061C1.13945 14.7214 8.43812 4.57723 19.803 2.81821C21.4532 2.56203 23.1375 2.49373 24.8048 2.76697C25.2812 2.85236 25.7576 2.97191 25.7235 3.56962C25.6725 4.23566 25.1621 4.21858 24.6518 4.20151C24.0223 4.15027 23.3927 4.16735 22.7633 4.16735Z" fill="#007AFF"/>
<path d="M26.455 27.4273C26.3699 33.6436 24.5155 39.2623 20.8066 44.2661C20.5002 44.6759 20.1601 45.1882 19.5646 44.7613C19.0032 44.3514 19.2753 43.8733 19.5985 43.4293C22.4058 39.638 24.1582 35.4026 24.7707 30.7063C25.145 27.8201 25.0259 24.9853 24.4643 22.1503C24.2262 20.9377 23.1713 20.3058 21.9805 20.5621C20.9767 20.7841 20.3472 21.7916 20.5683 22.9359C21.0957 25.7366 21.1638 28.5204 20.6534 31.3211C20.5514 31.8847 20.5514 32.7044 19.7178 32.5848C18.8671 32.4652 19.1223 31.7139 19.2243 31.1332C19.6666 28.5545 19.6837 25.9927 19.1733 23.4311C18.7309 21.194 19.8879 19.469 22.0315 19.0762C23.8859 18.7347 25.5873 20.0668 25.9786 22.1844C26.0977 22.8333 26.2167 23.4652 26.2677 24.1143C26.3528 25.2073 26.5231 26.3173 26.455 27.4273Z" fill="#007AFF"/>
<path d="M42.7706 27.5298C42.8555 29.0326 42.7025 30.6379 42.5323 32.2431C42.4813 32.7726 42.4642 33.541 41.6477 33.4216C40.865 33.3019 41.0182 32.6018 41.0863 32.0382C41.6477 27.3248 41.4435 22.6454 40.2866 18.0686C38.7043 11.7327 34.7233 7.4633 28.6496 5.12363C28.5135 5.07241 28.3773 5.03825 28.2412 4.98702C27.8328 4.81625 27.5096 4.56006 27.6628 4.0819C27.8328 3.56956 28.2583 3.51833 28.7177 3.65495C29.8916 4.01358 31.0143 4.49176 32.0692 5.10657C38.0068 8.53921 41.3073 13.7479 42.26 20.5107C42.5833 22.7991 42.8385 25.0876 42.7706 27.5298Z" fill="#007AFF"/>
<path d="M22.1673 13.5261C22.5077 13.5261 22.6267 13.5091 22.7287 13.5261C23.2222 13.5774 23.7836 13.6628 23.8007 14.2776C23.8177 14.9607 23.2393 15.0461 22.6948 15.0461C19.8365 14.9948 17.6588 16.1903 16.1447 18.5982C15.1409 20.2036 14.8176 21.9625 15.1749 23.8411C16.3148 30.0063 14.6475 35.3174 10.2581 39.7576C10.105 39.9114 9.93484 40.0822 9.7477 40.2187C9.37341 40.5262 8.96509 40.6285 8.62481 40.2187C8.30156 39.8431 8.4717 39.4674 8.77795 39.1599C9.69666 38.2719 10.5813 37.3497 11.2959 36.2909C13.6607 32.7558 14.6475 28.879 13.7969 24.695C12.657 18.9569 16.502 13.7652 22.1673 13.5261Z" fill="#007AFF"/>
<path d="M31.899 26.8299C31.8819 33.1998 30.4528 38.6819 27.5945 43.8052C27.5435 43.9075 27.4925 44.0101 27.4245 44.0954C27.1522 44.5394 26.795 44.8128 26.3015 44.5053C25.8422 44.2321 25.9273 43.7881 26.1654 43.3782C26.744 42.3706 27.2544 41.3289 27.7307 40.253C29.6192 36.0007 30.4869 31.5432 30.4528 26.8981C30.4357 24.8317 30.2147 22.7482 29.7382 20.7331C29.3469 19.0083 28.4283 17.6078 27.0161 16.5319C26.727 16.3099 26.4037 16.105 26.1315 15.883C25.8422 15.6439 25.6721 15.3536 25.8933 14.9949C26.1144 14.6192 26.4547 14.5338 26.846 14.7217C27.7987 15.1998 28.5813 15.8659 29.2788 16.6856C30.657 18.308 31.2525 20.2377 31.5247 22.3042C31.7289 23.9778 31.95 25.6344 31.899 26.8299Z" fill="#007AFF"/>
<path d="M22.5418 0.0345256C25.7913 -0.187486 28.8367 0.581015 31.7799 1.896C31.865 1.93017 31.9331 1.96431 32.018 1.99847C32.5115 2.20341 32.9197 2.49374 32.6816 3.09145C32.4264 3.70626 31.916 3.53547 31.4566 3.31347C29.8575 2.56204 28.1902 1.96431 26.4547 1.70815C18.1863 0.410238 11.313 2.93775 5.9368 9.42732C5.57952 9.87134 5.25627 10.6398 4.54171 10.1104C3.77613 9.54687 4.45666 8.9833 4.81392 8.5222C8.67593 3.68918 13.6948 0.871338 19.8196 0.0516033C20.7043 -0.0679413 21.623 0.0345256 22.5418 0.0345256Z" fill="#007AFF"/>
<path d="M37.3435 26.8977C37.3606 31.7991 36.6119 36.0856 35.1489 40.2526C35.0467 40.5258 34.9447 40.7821 34.8425 41.0553C34.6724 41.4993 34.3833 41.8238 33.8727 41.6359C33.3794 41.4481 33.3284 41.0382 33.4985 40.5771C33.7197 39.928 33.9408 39.2961 34.145 38.6301C35.404 34.7022 36.0335 30.6548 35.8803 26.5219C35.7444 23.0382 35.557 19.5201 33.8559 16.3266C33.6007 15.8484 33.2943 15.4044 33.0222 14.9262C32.801 14.5334 32.7669 14.1406 33.1582 13.8674C33.5836 13.56 33.9069 13.7991 34.1791 14.1406C35.438 15.8143 36.1867 17.7099 36.5949 19.7251C37.0884 22.2696 37.3945 24.7971 37.3435 26.8977Z" fill="#007AFF"/>
<path d="M8.65944 27.0686C8.57437 26.5051 8.45529 25.634 8.33619 24.7631C7.62163 19.5884 9.20387 15.2337 13.0148 11.6815C13.1509 11.5449 13.3211 11.4253 13.4742 11.3058C13.7974 11.1009 14.1207 11.1008 14.3929 11.3912C14.6821 11.6815 14.6311 12.0231 14.3929 12.3134C14.1717 12.5696 13.9165 12.8086 13.6783 13.0477C10.2927 16.395 9.01672 20.4082 9.86737 25.1047C10.5819 29.0497 9.51011 32.4822 6.87305 35.4367C6.5328 35.8124 6.12448 36.137 5.71616 36.4443C5.40992 36.6663 5.06966 36.6834 4.79745 36.3761C4.50821 36.0344 4.57627 35.6928 4.86549 35.3855C5.1207 35.1123 5.39291 34.8732 5.6481 34.5999C7.60462 32.5848 8.57437 30.1767 8.65944 27.0686Z" fill="#007AFF"/>
<path d="M23.7332 27.4785C23.6141 33.5411 21.6915 38.9377 17.8125 43.6341C17.7275 43.7366 17.6424 43.8561 17.5403 43.9586C17.2171 44.3171 16.8258 44.4879 16.4345 44.1465C16.0602 43.839 16.1452 43.4291 16.4175 43.0706C16.8768 42.4558 17.3702 41.8751 17.8125 41.2432C20.6878 37.23 22.1169 32.7214 22.304 27.786C22.355 26.2489 22.1509 24.729 21.9127 23.2091C21.8788 23.0383 21.8447 22.8675 21.8276 22.6967C21.7937 22.2527 21.9127 21.8769 22.406 21.8087C22.8995 21.7234 23.1377 22.0307 23.2228 22.4747C23.5631 24.1312 23.7502 25.8049 23.7332 27.4785Z" fill="#007AFF"/>
<path d="M44.9994 21.7232C44.9994 22.0649 44.9994 22.4063 44.9994 22.7479C44.9994 23.1919 44.8804 23.5677 44.3529 23.5847C43.8255 23.6018 43.6213 23.2261 43.5874 22.7479C43.5533 21.8941 43.5364 21.0402 43.4342 20.2034C42.7196 14.1578 39.9126 9.29058 35.1319 5.56762C34.7064 5.22607 34.0089 4.90158 34.4854 4.23557C34.9448 3.60367 35.5061 4.08185 35.9484 4.42342C41.6649 8.76118 44.5742 14.5847 44.9994 21.7232Z" fill="#007AFF"/>
<path d="M29.1604 26.3342C29.1604 26.5904 29.1604 26.8465 29.1604 27.1026C29.1433 27.5639 28.9903 27.9908 28.4458 27.9908C27.9013 27.9908 27.7654 27.5809 27.7483 27.1026C27.6632 25.3778 27.527 23.653 27.2209 21.9452C26.5914 18.4955 23.1718 16.7365 20.2114 18.3589C19.2247 18.9053 18.4761 19.725 18.0847 20.818C18.0337 20.9547 17.9827 21.0914 17.9486 21.2279C17.7955 21.7062 17.6084 22.2184 16.9789 22.0306C16.2984 21.8256 16.4345 21.2449 16.5876 20.7497C17.2681 18.6663 18.6122 17.1976 20.7217 16.5828C24.3116 15.5239 27.7654 17.6416 28.5819 21.3645C28.9391 22.987 29.0752 24.6606 29.1604 26.3342Z" fill="#007AFF"/>
<path d="M18.2542 27.4274C18.1862 32.807 16.2637 37.4351 12.5718 41.3459C12.4527 41.4656 12.3336 41.585 12.2145 41.7046C11.8572 42.0461 11.4319 42.251 11.0236 41.8411C10.5812 41.4142 10.8365 41.0043 11.1937 40.6629C12.4187 39.4674 13.4565 38.1354 14.3242 36.6496C16.2296 33.3365 17.0973 29.7843 16.757 25.9417C16.74 25.6514 16.723 25.3782 16.723 25.0878C16.706 24.6267 16.8251 24.1827 17.3525 24.1486C17.8969 24.0974 18.0671 24.5073 18.1351 24.9684C18.1862 25.3098 18.2542 25.6344 18.2712 25.976C18.2712 26.4541 18.2542 26.9322 18.2542 27.4274Z" fill="#007AFF"/>
<path d="M0.0164112 22.6624C-0.0516416 19.059 0.730967 15.8655 2.16008 12.8086C2.26216 12.5695 2.38126 12.3475 2.53437 12.1425C2.73852 11.8693 3.02776 11.7327 3.35101 11.9034C3.70829 12.0742 3.8444 12.3816 3.70829 12.7573C3.53815 13.2355 3.31698 13.6966 3.11283 14.1748C1.39448 18.2393 0.969152 22.4404 1.87085 26.7782C1.98995 27.3418 2.41527 28.1274 1.49656 28.3494C0.577849 28.5714 0.577849 27.6833 0.458756 27.1198C0.152517 25.5827 -0.068655 24.0287 0.0164112 22.6624Z" fill="#007AFF"/>
<path d="M22.3379 8.04395C25.6214 8.1635 28.4455 9.01739 30.9466 10.8447C31.0315 10.913 31.1337 10.9813 31.2186 11.0496C31.5931 11.3912 32.1203 11.7328 31.6611 12.3134C31.2186 12.894 30.7595 12.5013 30.334 12.1939C26.387 9.29063 22.1166 8.81245 17.5571 10.5202C17.455 10.5544 17.3529 10.6056 17.2339 10.6398C16.8255 10.7935 16.4172 10.7935 16.2131 10.3495C15.9749 9.8542 16.2641 9.52971 16.6894 9.3248C17.9654 8.72706 19.2925 8.38551 20.6705 8.19766C21.3001 8.12935 21.9125 8.09519 22.3379 8.04395Z" fill="#007AFF"/>
<path d="M28.9726 30.9454C28.6493 33.5752 28.037 36.0857 27.1012 38.5108C26.3356 40.4747 25.4 42.3532 24.226 44.1124C24.107 44.3002 23.9877 44.5052 23.8347 44.6758C23.5285 45.0345 23.1372 45.1027 22.7798 44.8637C22.3885 44.6075 22.4566 44.2318 22.6608 43.8733C23.018 43.2585 23.4263 42.6778 23.7837 42.063C25.7062 38.7157 26.9482 35.1465 27.4415 31.3039C27.4585 31.0989 27.5095 30.9112 27.5605 30.7233C27.6627 30.3135 27.9179 30.0573 28.3602 30.1085C28.8196 30.1768 28.9726 30.5355 28.9726 30.9454Z" fill="#007AFF"/>
<path d="M40.0312 27.581C40.0822 30.8769 39.6399 34.1047 38.8744 37.2982C38.8402 37.4008 38.8234 37.5202 38.7892 37.6228C38.6362 38.1179 38.517 38.7328 37.8195 38.5449C37.1559 38.3741 37.224 37.8105 37.3601 37.2811C37.7175 35.8978 38.0066 34.5146 38.1769 33.0971C38.517 30.5013 38.7722 27.9054 38.517 25.2755C38.466 24.746 38.534 24.2338 39.1466 24.1483C39.8441 24.0629 39.9802 24.6264 39.9973 25.1729C40.0483 25.9756 40.0312 26.7783 40.0312 27.581Z" fill="#007AFF"/>
<path d="M7.40047 27.2051C7.29839 30.0058 6.32864 32.226 4.38912 34.019C4.06587 34.3095 3.70859 34.4801 3.33431 34.1387C2.94301 33.78 2.99405 33.336 3.35133 33.0114C5.92032 30.6718 6.27761 27.7685 5.56304 24.558C5.46097 24.0969 5.47797 23.6015 5.47797 23.1234C5.495 22.7477 5.71616 22.4574 6.10747 22.4574C6.49878 22.4403 6.77099 22.6794 6.82203 23.0551C7.04321 24.4897 7.23035 25.9243 7.40047 27.2051Z" fill="#007AFF"/>
<path d="M19.4285 35.6078C19.2582 36.0004 19.0372 36.5128 18.7991 37.0251C17.7782 39.1941 16.4681 41.175 14.8008 42.8998C14.4436 43.2585 14.0523 43.6001 13.5759 43.1391C13.1336 42.7121 13.4058 42.3023 13.729 41.9606C15.5664 39.9968 16.9785 37.7595 18.0164 35.2661C18.1865 34.8563 18.4417 34.4976 18.9691 34.6513C19.3604 34.771 19.4795 35.0783 19.4285 35.6078Z" fill="#007AFF"/>
<path d="M11.8745 32.4139C11.8235 32.5847 11.7384 32.8237 11.6534 33.0457C10.7857 35.0951 9.47566 36.8029 7.82538 38.2715C7.43407 38.6302 6.97471 38.8352 6.56639 38.34C6.1751 37.8787 6.49835 37.469 6.85563 37.1786C8.43785 35.8295 9.59476 34.173 10.3944 32.2603C10.5815 31.8334 10.8197 31.5088 11.3471 31.6114C11.6874 31.7137 11.8575 31.9699 11.8745 32.4139Z" fill="#007AFF"/>
<path d="M33.3798 36.6664C33.3286 36.8714 33.2946 37.0934 33.2266 37.3154C32.6652 39.228 32.0016 41.0895 31.1168 42.8828C30.8957 43.3439 30.5896 43.7708 30.0111 43.4976C29.4666 43.2413 29.6027 42.7461 29.8069 42.3192C30.6576 40.4577 31.3891 38.545 31.9336 36.5811C32.0526 36.1199 32.2907 35.7955 32.8352 35.8979C33.2266 35.9834 33.3798 36.2736 33.3798 36.6664Z" fill="#007AFF"/>
</g>
<defs>
<clipPath id="clip0_115_28">
<rect width="45" height="45" fill="white"/>
</clipPath>
</defs>
</svg>
