<svg width="74" height="74" viewBox="0 0 74 74" fill="none" xmlns="http://www.w3.org/2000/svg">
<mask id="mask0_326_692" style="mask-type:luminance" maskUnits="userSpaceOnUse" x="1" y="0" width="73" height="73">
<path d="M73.7795 0.294922H1.23047V72.8439H73.7795V0.294922Z" fill="white"/>
</mask>
<g mask="url(#mask0_326_692)">
<path d="M37.5037 45.6384C41.7965 45.6384 45.2767 42.1815 45.2767 37.9172C45.2767 33.6528 41.7965 30.1958 37.5037 30.1958C33.2106 30.1958 29.7305 33.6528 29.7305 37.9172C29.7305 42.1815 33.2106 45.6384 37.5037 45.6384Z" stroke="#151E09" stroke-width="2" stroke-linecap="round" stroke-linejoin="round"/>
<path d="M70.5138 27.9676C69.4118 24.616 67.0248 21.8386 63.8769 20.2452C60.729 18.6518 57.0775 18.3726 53.724 19.469C52.5269 19.8082 51.3904 20.3327 50.3557 21.0237C50.6906 19.8256 50.8648 18.5884 50.8738 17.3443C50.8738 13.7985 49.4652 10.3978 46.9579 7.89052C44.4506 5.38321 41.0499 3.97461 37.504 3.97461C33.9583 3.97461 30.5576 5.38321 28.0503 7.89052C25.5429 10.3978 24.1344 13.7985 24.1344 17.3443C24.1434 18.5884 24.3177 19.8256 24.6526 21.0237C23.6211 20.3146 22.4844 19.7725 21.2843 19.4172C19.6271 18.8762 17.8798 18.6669 16.1418 18.8011C14.4038 18.9354 12.7093 19.4108 11.1551 20.2C9.60077 20.989 8.21716 22.0767 7.08319 23.4005C5.94924 24.7244 5.08714 26.2587 4.54612 27.9158C4.00511 29.5729 3.79578 31.3203 3.93008 33.0583C4.06438 34.7962 4.53968 36.4907 5.32886 38.045C6.11802 39.5993 7.2056 40.9828 8.52949 42.1167C9.85338 43.2508 11.3877 44.1128 13.0447 44.6539C14.2585 45.0123 15.5114 45.2211 16.7758 45.2757C15.81 46.0503 14.9401 46.9376 14.1848 47.9186C13.1531 49.3232 12.4105 50.9187 12.0003 52.6125C11.5901 54.3064 11.5204 56.0649 11.7952 57.7859C12.07 59.5069 12.6838 61.1562 13.6011 62.6382C14.5183 64.1201 15.7208 65.4051 17.1385 66.4186C20.0036 68.489 23.5698 69.3455 27.0628 68.8023C30.5557 68.2589 33.6932 66.3596 35.7941 63.5167C36.523 62.5005 37.0992 61.3831 37.504 60.2002C37.9251 61.3862 38.5189 62.5037 39.266 63.5167C41.3668 66.3596 44.5043 68.2589 47.9972 68.8023C51.4902 69.3455 55.0564 68.489 57.9215 66.4186C59.3393 65.4051 60.5417 64.1201 61.459 62.6382C62.3763 61.1562 62.9901 59.5069 63.2649 57.7859C63.5397 56.0649 63.4699 54.3064 63.0597 52.6125C62.6495 50.9187 61.9069 49.3232 60.8753 47.9186C60.1199 46.9376 59.25 46.0503 58.2843 45.2757C59.5312 45.2169 60.7665 45.0081 61.9635 44.6539C63.6239 44.1246 65.1632 43.2723 66.4927 42.1458C67.8223 41.0192 68.916 39.6408 69.7107 38.0898C70.5054 36.539 70.9856 34.8462 71.1234 33.1089C71.2612 31.3718 71.054 29.6244 70.5138 27.9676Z" stroke="#7EC891" stroke-width="2" stroke-linecap="round" stroke-linejoin="round"/>
</g>
</svg>
