<svg width="55" height="55" viewBox="0 0 55 55" fill="none" xmlns="http://www.w3.org/2000/svg">
<path d="M29.7038 41.8867H7.48918C6.12664 41.8867 5.02148 42.7669 5.02148 43.8526V43.9102C5.02148 44.9959 6.12621 45.8753 7.48918 45.8753H29.7038C31.0672 45.8753 32.1724 44.9959 32.1724 43.9102V43.8526C32.1723 42.7669 31.0671 41.8867 29.7038 41.8867Z" fill="white"/>
<path d="M10.5162 30.4927C10.1247 30.4927 9.80762 30.8101 9.80762 31.2016C9.80762 31.5938 10.1247 31.9112 10.5162 31.9112C10.9084 31.9112 11.2262 31.5938 11.2262 31.2016C11.2263 30.8101 10.9084 30.4927 10.5162 30.4927Z" fill="white"/>
<path d="M15.8358 30.4927C15.4439 30.4927 15.126 30.8101 15.126 31.2016C15.126 31.5938 15.4439 31.9112 15.8358 31.9112C16.2272 31.9112 16.5447 31.5938 16.5447 31.2016C16.5447 30.8101 16.2272 30.4927 15.8358 30.4927Z" fill="white"/>
<path d="M13.3534 28.3652C12.9616 28.3652 12.6445 28.6819 12.6445 29.0741C12.6445 29.4663 12.9616 29.7837 13.3534 29.7837C13.7449 29.7837 14.0623 29.4663 14.0623 29.0741C14.0623 28.6819 13.7449 28.3652 13.3534 28.3652Z" fill="white"/>
<path d="M17.2539 28.1881C17.2539 28.5796 17.5714 28.8962 17.9629 28.8962C18.3547 28.8962 18.6722 28.5796 18.6722 28.1881C18.6722 27.7959 18.3547 27.4792 17.9629 27.4792C17.5714 27.4794 17.2539 27.7959 17.2539 28.1881Z" fill="white"/>
<path d="M20.6223 32.0882C21.0149 32.0882 21.332 31.7708 21.332 31.3786C21.332 30.9871 21.0149 30.6697 20.6223 30.6697C20.2309 30.6697 19.9131 30.9871 19.9131 31.3786C19.913 31.7708 20.2308 32.0882 20.6223 32.0882Z" fill="white"/>
<path d="M22.9275 29.7757C23.319 29.7757 23.636 29.4574 23.636 29.0652C23.636 28.6737 23.3188 28.3562 22.9275 28.3562C22.5357 28.3562 22.2178 28.6737 22.2178 29.0652C22.2178 29.4574 22.5357 29.7757 22.9275 29.7757Z" fill="white"/>
<path d="M26.473 32.0882C26.8644 32.0882 27.1823 31.7708 27.1823 31.3786C27.1823 30.9871 26.8644 30.6697 26.473 30.6697C26.082 30.6697 25.7637 30.9871 25.7637 31.3786C25.7637 31.7708 26.082 32.0882 26.473 32.0882Z" fill="white"/>
<path d="M32.3967 39.2299C32.4726 39.208 32.5599 39.1933 32.6789 39.1933C33.1677 39.1933 33.5644 38.7972 33.5644 38.3074C33.5644 37.8178 33.1677 37.4208 32.6785 37.4208C32.3662 37.4208 32.0702 37.4687 31.8027 37.5572C31.5688 37.6351 31.3577 37.743 31.175 37.8649C30.8547 38.0784 30.6167 38.3261 30.4194 38.5493C30.2711 38.7175 30.1442 38.8742 30.0276 39.0058C29.8547 39.2056 29.7064 39.3435 29.5741 39.4231C29.5071 39.4621 29.4437 39.4913 29.3686 39.5124C29.2939 39.5336 29.2054 39.5482 29.0877 39.5482C28.9508 39.5482 28.8538 39.5295 28.7706 39.5019C28.698 39.4783 28.6337 39.4459 28.5647 39.4005C28.445 39.3225 28.3114 39.1942 28.1579 39.0196C28.043 38.8897 27.9172 38.7345 27.7706 38.5657C27.5509 38.3171 27.2817 38.0329 26.9013 37.8023C26.7121 37.687 26.4961 37.5895 26.2586 37.5222C26.0219 37.4556 25.7653 37.4207 25.497 37.4207C25.1848 37.4207 24.8892 37.4677 24.6213 37.5571C24.387 37.635 24.1767 37.7429 23.9939 37.8648C23.6724 38.0783 23.4354 38.326 23.2383 38.5492C23.0893 38.7174 22.9631 38.8741 22.8461 39.0057C22.672 39.2055 22.5258 39.3434 22.393 39.423C22.3257 39.462 22.2623 39.4912 22.1876 39.5123C22.113 39.5334 22.024 39.5481 21.9062 39.5481C21.769 39.5481 21.6725 39.5294 21.5895 39.5018C21.5165 39.4774 21.4522 39.445 21.3833 39.4003C21.2644 39.3224 21.1312 39.1941 20.9773 39.0195C20.8615 38.8896 20.7365 38.7344 20.59 38.5672C20.3704 38.3171 20.1003 38.0329 19.7211 37.8023C19.5315 37.687 19.3159 37.5895 19.0781 37.5222C18.8413 37.4556 18.5844 37.4198 18.3165 37.4207C18.0043 37.4198 17.7083 37.4677 17.4411 37.5571C17.2074 37.6341 16.9966 37.7422 16.8131 37.8648C16.4928 38.0783 16.2553 38.3252 16.0571 38.5492C15.9093 38.7174 15.7834 38.8741 15.6668 39.0057C15.4927 39.2055 15.3449 39.3434 15.213 39.423C15.1464 39.462 15.0831 39.4912 15.008 39.5123C14.9321 39.5334 14.844 39.5481 14.7262 39.5481C14.5889 39.5481 14.4924 39.5294 14.4091 39.5018C14.3368 39.4774 14.2723 39.445 14.2042 39.3995C14.0843 39.3224 13.9515 39.194 13.7972 39.0195C13.6814 38.8887 13.5564 38.7337 13.4099 38.5672C13.1902 38.3171 12.9203 38.0329 12.5402 37.8023C12.3518 37.687 12.1354 37.5895 11.8987 37.5222C11.6612 37.4556 11.4046 37.4198 11.1362 37.4207C10.824 37.4198 10.5288 37.4677 10.2605 37.5571C10.0266 37.6341 9.81673 37.7422 9.63357 37.864C9.31238 38.0784 9.07573 38.3253 8.87722 38.5493C8.72897 38.7175 8.60275 38.8742 8.48706 39.0058C8.31282 39.2056 8.16555 39.3435 8.0331 39.4231C7.96606 39.4621 7.90269 39.4913 7.8276 39.5124C7.75208 39.5336 7.66442 39.5473 7.54669 39.5482C7.40908 39.5473 7.31283 39.5295 7.22915 39.5019C7.15696 39.4775 7.09229 39.4451 7.02408 39.3996C6.90463 39.3216 6.77078 39.195 6.61803 39.0196C6.50233 38.8888 6.37644 38.7338 6.22991 38.5664C6.01066 38.3172 5.74028 38.033 5.36108 37.8023C5.17224 37.687 4.95632 37.5895 4.7187 37.5222C4.48205 37.4556 4.22499 37.4198 3.95622 37.4207C3.46734 37.4207 3.07031 37.8177 3.07031 38.3073C3.07031 38.797 3.46734 39.1932 3.95622 39.1932C4.09437 39.1932 4.19094 39.2128 4.27333 39.2395C4.34638 39.2647 4.41019 39.2965 4.47915 39.3419C4.59817 39.4198 4.73138 39.5464 4.88563 39.722C5.00058 39.8518 5.12647 40.0077 5.27257 40.1751C5.49268 40.4244 5.7622 40.7085 6.1415 40.9399C6.33067 41.0544 6.54713 41.1519 6.7841 41.2185C7.02086 41.2858 7.27749 41.3207 7.54658 41.3207C7.858 41.3216 8.15352 41.2737 8.42153 41.1852C8.65528 41.1063 8.86604 40.9991 9.04845 40.8773C9.36953 40.6637 9.60704 40.4145 9.80513 40.1919C9.95294 40.0239 10.0796 39.868 10.1957 39.7348C10.37 39.5359 10.5165 39.3978 10.6492 39.3182C10.7162 39.2793 10.7791 39.2501 10.8551 39.2289C10.9298 39.2078 11.0175 39.1931 11.1365 39.1931C11.2733 39.1931 11.37 39.2127 11.4532 39.2394C11.5254 39.2646 11.5899 39.2964 11.6586 39.3418C11.7785 39.4197 11.9116 39.5463 12.0651 39.7219C12.18 39.8517 12.3058 40.0076 12.4524 40.175C12.6725 40.4243 12.9421 40.7084 13.3217 40.9398C13.511 41.0552 13.7269 41.1518 13.9636 41.2184C14.2012 41.2857 14.4578 41.3206 14.7261 41.3206C15.0375 41.3215 15.3339 41.2736 15.6011 41.1851C15.8358 41.1062 16.046 40.999 16.2287 40.8772C16.5498 40.6636 16.7874 40.4144 16.9843 40.1918C17.1333 40.0238 17.2597 39.8678 17.3762 39.7346C17.5505 39.5358 17.6973 39.3977 17.8298 39.3181C17.8964 39.2792 17.9601 39.25 18.0353 39.2288C18.1099 39.2077 18.1981 39.193 18.3169 39.193C18.4538 39.193 18.5505 39.2126 18.6327 39.2393C18.7058 39.2645 18.7704 39.2963 18.8391 39.3417C18.958 39.4196 19.0915 39.5462 19.2454 39.7218C19.3607 39.8516 19.4866 40.0075 19.6327 40.1749C19.8527 40.4242 20.1224 40.7083 20.502 40.9397C20.6912 41.0551 20.9072 41.1516 21.1443 41.2182C21.3819 41.2856 21.638 41.3205 21.9067 41.3205C22.2182 41.3214 22.5141 41.2735 22.7814 41.1849C23.016 41.1061 23.2263 40.9989 23.4095 40.8771C23.7302 40.6635 23.9682 40.4143 24.1651 40.1917C24.3133 40.0237 24.44 39.8677 24.5561 39.7345C24.7299 39.5357 24.8777 39.3976 25.0105 39.318C25.0767 39.2791 25.1404 39.2498 25.2154 39.2287C25.291 39.2076 25.3787 39.1929 25.4972 39.1929C25.6341 39.1929 25.7303 39.2125 25.8139 39.2392C25.8862 39.2644 25.9512 39.2961 26.019 39.3416C26.1392 39.4195 26.2718 39.5461 26.4262 39.7216C26.5419 39.8515 26.6669 40.0082 26.8143 40.1748C27.0336 40.4248 27.3035 40.7082 27.6827 40.9396C27.8719 41.055 28.0879 41.1515 28.3254 41.2181C28.5625 41.2855 28.8195 41.3213 29.0879 41.3213C29.3997 41.3213 29.6961 41.2734 29.9624 41.1848C30.1967 41.1069 30.4078 40.9988 30.5905 40.877C30.9117 40.6634 31.1495 40.4142 31.3465 40.1916C31.4944 40.0236 31.6214 39.8676 31.7371 39.7344C31.9113 39.5356 32.0586 39.3974 32.191 39.3178C32.2579 39.2794 32.3209 39.2502 32.3967 39.2299Z" fill="white"/>
<path d="M52.3593 12.9223H44.4487L46.1089 5.28784L51.9213 1.91308L50.8107 0L44.1539 3.86515L42.1848 12.9223H24.4289L25.3559 24.997C23.2564 24.2003 20.8854 23.7392 18.3738 23.7392C14.4639 23.7409 10.8955 24.8516 8.15857 26.621C6.78991 27.507 5.62718 28.5593 4.74041 29.7375C4.0542 30.6494 3.53535 31.64 3.2277 32.6818H3.16561L3.01092 33.605C3.00641 33.6335 3.00286 33.6504 3.00082 33.6595L2.99996 33.6643C2.99599 33.674 2.98739 33.6983 2.97482 33.7406C2.96215 33.782 2.94754 33.8389 2.93787 33.8932C2.92251 33.9753 2.91553 34.0491 2.91231 34.1149C2.90865 34.1815 2.90736 34.244 2.90736 34.3171C2.90822 34.6719 2.95646 35.0203 3.0743 35.354C3.16195 35.6034 3.29064 35.8428 3.45962 36.0531C3.71131 36.3714 4.0527 36.6158 4.41653 36.7604C4.78198 36.9074 5.16569 36.9658 5.55263 36.9658H31.1939C31.5382 36.9658 31.8788 36.9196 32.2076 36.8066C32.4533 36.7213 32.692 36.5971 32.904 36.4322C33.2239 36.1855 33.4739 35.846 33.6246 35.4781C33.7769 35.1078 33.8386 34.7156 33.8386 34.3169C33.8382 34.2138 33.837 34.1317 33.8281 34.0303C33.8212 33.9555 33.8049 33.8606 33.7838 33.7817C33.7676 33.7224 33.7526 33.6818 33.7481 33.6672L33.7469 33.6632C33.7457 33.6583 33.7416 33.6428 33.7355 33.6047V33.6055C33.5046 32.2243 32.8922 30.9146 32.0072 29.7372C30.924 28.3007 29.4339 27.0486 27.6568 26.0612L26.8181 15.1347H49.9705L47.4378 48.1178H33.206C32.9535 47.8369 32.6315 47.5981 32.2624 47.4422C31.8804 47.279 31.4585 47.2028 31.0233 47.2035H5.72998C5.21436 47.202 4.71581 47.3107 4.28387 47.5405C3.96021 47.7111 3.68091 47.9457 3.46166 48.2121C3.13123 48.6125 2.931 49.0712 2.80918 49.5365C2.68822 50.0034 2.64203 50.4833 2.6416 50.969V51.2345C2.64117 52.2706 3.06506 53.219 3.74472 53.8971C4.42233 54.5768 5.37076 55.0006 6.40695 54.9999H30.3402C31.3763 55.0007 32.3243 54.5769 33.0024 53.8971C33.682 53.219 34.1059 52.2707 34.1055 51.2345V50.969C34.1055 50.7546 34.0961 50.541 34.0762 50.3298H49.4862L52.3593 12.9223ZM27.3867 28.4772C28.5629 29.2381 29.5317 30.1272 30.2389 31.0676C30.9466 32.0086 31.3907 32.9953 31.5536 33.9706V33.9714C31.5727 34.0851 31.5937 34.1825 31.6177 34.2678C31.6209 34.2768 31.6238 34.2856 31.6258 34.2945C31.6258 34.3027 31.6267 34.3076 31.6267 34.3173C31.6267 34.4683 31.6048 34.5642 31.587 34.6153C31.5728 34.6543 31.5623 34.6682 31.5569 34.6746C31.548 34.6843 31.5496 34.6875 31.5021 34.7095C31.4558 34.7282 31.356 34.7542 31.194 34.7542H5.55252C5.40793 34.7542 5.3134 34.7339 5.26184 34.7152C5.22241 34.7022 5.20737 34.6917 5.20007 34.686C5.19072 34.6762 5.18707 34.6787 5.16634 34.6332C5.15012 34.5951 5.12938 34.5155 5.12251 34.3928L5.19309 33.9707C5.35594 32.9954 5.80013 32.0088 6.50782 31.0677C7.56743 29.6564 9.22076 28.3645 11.2707 27.4396C13.3199 26.5131 15.7584 25.9504 18.3738 25.9512C21.8602 25.9495 25.0343 26.9531 27.3867 28.4772ZM31.893 51.2348C31.8926 51.6667 31.7209 52.0484 31.4383 52.3326C31.1536 52.616 30.7721 52.7873 30.34 52.7882H6.40674C5.97394 52.7873 5.59313 52.616 5.30889 52.3326C5.02594 52.0484 4.85417 51.6668 4.85374 51.2348V50.9692C4.85374 50.6663 4.88135 50.3942 4.93012 50.175C4.96707 50.011 5.01498 49.877 5.06568 49.7788C5.10339 49.7041 5.14195 49.6496 5.17815 49.6083C5.23412 49.5458 5.28128 49.5116 5.3568 49.4784C5.43231 49.4459 5.54564 49.4167 5.72987 49.4159H31.0232C31.2432 49.4167 31.3582 49.4565 31.4341 49.4962C31.4914 49.5279 31.534 49.5611 31.5835 49.6204C31.655 49.7065 31.7378 49.86 31.7975 50.0938C31.8584 50.3245 31.8938 50.6281 31.8929 50.9692L31.893 51.2348Z" fill="white"/>
</svg>
