<svg width="50" height="50" viewBox="0 0 50 50" fill="none" xmlns="http://www.w3.org/2000/svg">
<g clip-path="url(#clip0_390_351)">
<path d="M0.655164 39.5426L2.84447 37.3535C2.90144 37.2966 2.96248 37.2437 3.02352 37.1908L1.45275 35.6201C1.42834 35.5957 1.40799 35.5713 1.38765 35.5469C0.996989 35.1196 0.80166 34.5785 0.80166 34.0413C0.80166 33.4717 1.0214 32.902 1.45682 32.4666L3.64613 30.2775C3.7031 30.2205 3.76414 30.1676 3.82518 30.1147L2.25442 28.5441C1.819 28.1087 1.60332 27.535 1.60332 26.9653C1.60332 26.3957 1.82306 25.826 2.25442 25.3906L4.44372 23.2015C4.87914 22.7661 5.45292 22.5505 6.02263 22.5505C6.5964 22.5505 7.16611 22.7661 7.60153 23.2015L26.8129 42.4113C27.2483 42.8467 27.464 43.4204 27.464 43.9901C27.464 44.5638 27.2483 45.1335 26.8129 45.5689L24.6236 47.758C24.5992 47.7824 24.5748 47.8027 24.5503 47.8231C24.1231 48.2137 23.5818 48.409 23.0447 48.409C22.475 48.409 21.9053 48.1893 21.4698 47.758L20.1392 46.4274C20.0903 46.4884 20.0374 46.5495 19.9805 46.6065L17.7912 48.7956C17.7667 48.82 17.7423 48.8403 17.7179 48.8607C17.2947 49.2472 16.7535 49.4426 16.2123 49.4426C15.6385 49.4426 15.0688 49.2269 14.6374 48.7915L12.8225 46.9767C12.7737 47.0378 12.7208 47.0988 12.6597 47.1558L10.4704 49.3449C10.035 49.7803 9.46122 49.9959 8.89151 49.9959C8.3218 49.9959 7.74803 49.7803 7.31261 49.3449L0.655164 42.7043C0.219744 42.2689 0 41.6952 0 41.1255C0 40.5518 0.219744 39.9821 0.655164 39.5426ZM26.7966 3.65397L24.6073 5.8431L24.587 5.86344C24.5544 5.9082 24.5381 5.9611 24.5381 6.014C24.5381 6.07503 24.5625 6.14014 24.6073 6.1849L43.8187 25.3947C43.8634 25.4395 43.9245 25.4639 43.9896 25.4639C44.0506 25.4639 44.1157 25.4395 44.1605 25.3947L46.3498 23.2056L46.3701 23.1852C46.4027 23.1445 46.419 23.0876 46.419 23.0347C46.419 22.9696 46.3986 22.9085 46.3539 22.8638L43.4524 19.9626L30.28 6.79932L27.1384 3.65804C27.0937 3.61328 27.0326 3.58887 26.9675 3.58887C26.9024 3.5848 26.8414 3.60921 26.7966 3.65397ZM29.0836 19.2505C29.6289 18.7052 30.516 18.7052 31.0654 19.2505C31.6106 19.7957 31.6106 20.6828 31.0654 21.2321L21.4617 30.8268C20.9164 31.3721 20.0293 31.3721 19.4799 30.8268C18.9346 30.2816 18.9346 29.3945 19.4799 28.8452L29.0836 19.2505ZM40.9579 2.06299L38.7686 4.25212C38.7198 4.30094 38.6954 4.36198 38.6954 4.42301C38.6954 4.47591 38.7116 4.52474 38.7442 4.5695L38.7686 4.59391L45.4098 11.2345L45.4301 11.2549C45.4708 11.2874 45.5237 11.2996 45.5766 11.2996C45.6377 11.2996 45.7028 11.2752 45.7475 11.2305L47.9368 9.04134C47.9857 8.99251 48.0101 8.93148 48.0101 8.87044C48.0101 8.80941 47.9857 8.7443 47.9409 8.69954L41.2997 2.06299C41.255 2.01823 41.1939 1.99382 41.1288 1.99382C41.0637 1.99382 41.0027 2.01823 40.9579 2.06299ZM37.3606 2.84017L39.5499 0.651042C39.9854 0.215658 40.5591 0 41.1288 0C41.6985 0 42.2723 0.215658 42.7077 0.651042L49.3489 7.29167C49.7803 7.72298 50 8.29671 49.9959 8.86637C49.9959 9.44011 49.7803 10.0138 49.3489 10.4452L47.1596 12.6343C47.1026 12.6912 47.0416 12.7441 46.9805 12.797L48.7955 14.6118C49.2309 15.0472 49.4466 15.6209 49.4466 16.1906C49.4466 16.7643 49.2268 17.334 48.7955 17.7694L46.6062 19.9585C46.5492 20.0155 46.4882 20.0684 46.4271 20.1172L47.7578 21.4478C48.1932 21.8831 48.4089 22.4528 48.4089 23.0225C48.4089 23.5636 48.2136 24.1048 47.8229 24.528C47.8026 24.5524 47.7822 24.5768 47.7578 24.6012L45.5685 26.7904C45.1331 27.2257 44.5593 27.4414 43.9896 27.4414C43.4158 27.4414 42.8461 27.2217 42.4107 26.7904L23.1993 7.59277C22.7639 7.15739 22.5442 6.58366 22.5442 6.014C22.5442 5.47282 22.7395 4.93164 23.1301 4.50846C23.1505 4.48405 23.1708 4.45964 23.1952 4.43522L25.3846 2.24609C25.82 1.81071 26.3897 1.59505 26.9594 1.59505C27.5332 1.59505 28.1029 1.81478 28.5383 2.24609L30.1091 3.81673C30.1579 3.7557 30.2108 3.69466 30.2718 3.6377L32.4611 1.44857C32.8966 1.01318 33.4703 0.793457 34.04 0.793457C34.6138 0.793457 35.1835 1.01318 35.6189 1.44857L37.1897 3.01921C37.2508 2.95817 37.3037 2.89714 37.3606 2.84017ZM33.8773 2.86051L31.688 5.04964C31.6432 5.0944 31.6188 5.15544 31.6188 5.22054C31.6188 5.28158 31.6391 5.34261 31.6839 5.38737L31.688 5.39144L44.8563 18.5588C44.9011 18.6035 44.9622 18.6279 45.0273 18.6279C45.0924 18.6279 45.1534 18.6076 45.1982 18.5628L47.3875 16.3737C47.4322 16.3289 47.4567 16.2679 47.4567 16.2028C47.4567 16.1418 47.4322 16.0767 47.3875 16.0319L44.0059 12.6506L34.2191 2.86051C34.1743 2.81576 34.1092 2.79134 34.0482 2.79134C33.9831 2.79134 33.922 2.81169 33.8773 2.86051ZM6.79987 30.2775L19.9683 43.4448L22.8616 46.3379C22.9063 46.3827 22.9714 46.403 23.0325 46.403C23.0854 46.403 23.1383 46.3867 23.183 46.3542L23.2034 46.3338L25.3927 44.1447C25.4375 44.0999 25.4619 44.0389 25.4619 43.9738C25.4619 43.9128 25.4375 43.8477 25.3927 43.8029L6.1854 24.6053C6.14064 24.5606 6.0796 24.5361 6.01449 24.5361C5.95345 24.5361 5.88834 24.5606 5.84357 24.6053L3.65427 26.7944C3.60951 26.8392 3.58916 26.9043 3.58916 26.9653C3.58916 27.0264 3.61357 27.0915 3.65834 27.1362L6.79987 30.2775ZM18.5806 44.8771L18.5603 44.8568L5.38781 31.6854L5.36339 31.661C5.31863 31.6284 5.2698 31.6121 5.2169 31.6121C5.15586 31.6121 5.09482 31.6366 5.04598 31.6854L2.85668 33.8745C2.81191 33.9193 2.79157 33.9844 2.79157 34.0454C2.79157 34.0983 2.80785 34.1512 2.8404 34.196L2.86075 34.2163L6.00228 37.3576L12.6434 43.9982L16.0291 47.3836C16.078 47.4325 16.139 47.4528 16.2 47.4528C16.253 47.4528 16.3059 47.4365 16.3506 47.404L16.371 47.3836L18.5603 45.1945C18.605 45.1497 18.6254 45.0846 18.6254 45.0236C18.6254 44.9707 18.6091 44.9178 18.5806 44.8771ZM4.25246 38.7655L2.06316 40.9546C2.01839 40.9994 1.99398 41.0604 1.99398 41.1255C1.99398 41.1906 2.01839 41.2516 2.06316 41.2964L8.70432 47.937C8.74908 47.9818 8.81012 48.0062 8.87523 48.0062C8.93627 48.0062 9.00138 47.9818 9.04615 47.937L11.2355 45.7479C11.2802 45.7031 11.3046 45.6421 11.3046 45.577C11.3046 45.5119 11.2802 45.4509 11.2355 45.4061L4.59022 38.7655L4.58615 38.7614C4.54139 38.7166 4.48034 38.6963 4.4193 38.6963C4.35826 38.6963 4.29722 38.7207 4.25246 38.7655Z" fill="white"/>
</g>
<defs>
<clipPath id="clip0_390_351">
<rect width="50" height="50" fill="white"/>
</clipPath>
</defs>
</svg>
