<svg width="50" height="50" viewBox="0 0 50 50" fill="none" xmlns="http://www.w3.org/2000/svg">
<path d="M40.7832 24.502C37.6684 24.502 35.1336 21.9941 35.1328 18.9113L35.1336 5.59102C35.1336 2.5082 37.6684 0 40.7836 0C43.8992 0.000390625 46.434 2.50859 46.434 5.59102V18.9117C46.434 21.9941 43.8992 24.502 40.7832 24.502ZM40.7836 1.5625C38.5297 1.5625 36.6961 3.36992 36.6961 5.59141L36.6953 18.9113C36.6961 21.1324 38.5293 22.9395 40.7824 22.9395H40.7832C43.0375 22.9395 44.8715 21.1328 44.8715 18.9117V5.59102C44.8715 3.36992 43.0379 1.56289 40.7836 1.5625Z" fill="white"/>
<path d="M40.7832 24.502C37.6684 24.502 35.1336 21.9942 35.1328 18.9114V11.3958H46.434V18.9118C46.434 20.4067 45.8449 21.8118 44.7754 22.868C43.709 23.9219 42.291 24.502 40.7832 24.502ZM36.6953 12.9583V18.9114C36.6961 21.1325 38.5293 22.9395 40.7824 22.9395H40.7832C41.877 22.9395 42.9051 22.5192 43.6773 21.7563C44.4473 20.9958 44.8715 19.9856 44.8715 18.9118V12.9583H36.6953Z" fill="white"/>
<path d="M29.6635 49.9999C29.6631 49.9999 29.6627 49.9999 29.6623 49.9999L5.88066 49.9995C4.6041 49.9995 3.56543 48.969 3.56543 47.703V22.3538C3.56543 17.5636 6.12559 13.1444 10.2783 10.7097V9.13428H11.8408V11.6315L11.4314 11.853C7.54316 13.9585 5.12793 17.9819 5.12793 22.3534V47.7026C5.12793 48.1073 5.46582 48.4366 5.88066 48.4366L29.6631 48.4374C29.8662 48.4374 30.0564 48.3601 30.199 48.2187C30.3389 48.0804 30.4166 47.8968 30.4166 47.7026V22.3538C30.4166 17.9823 28.001 13.9585 24.1135 11.8534L23.7041 11.6319V9.13467H25.2666V10.7101C29.4189 13.1444 31.9791 17.5636 31.9791 22.3538V47.7026C31.9791 48.3179 31.7369 48.896 31.2971 49.3304C30.86 49.7624 30.2799 49.9999 29.6635 49.9999Z" fill="white"/>
<path d="M26.815 9.78877L8.72949 9.78838V1.46729H26.815V9.78877ZM10.292 8.22588L25.2525 8.22627V3.02979H10.292V8.22588Z" fill="white"/>
<path d="M17.7721 42.0085C12.2162 42.0085 7.69629 37.5394 7.69629 32.0456C7.69629 26.5526 12.2162 22.0839 17.7721 22.0835H17.7729C20.4619 22.0835 22.9904 23.1183 24.8932 24.9976C26.7982 26.8796 27.8475 29.3823 27.8475 32.0452C27.8475 37.5394 23.3275 42.0085 17.7721 42.0085ZM17.7729 23.646H17.7721C13.0779 23.6464 9.25879 27.4144 9.25879 32.0456C9.25879 36.6772 13.0779 40.446 17.7721 40.446C22.4662 40.446 26.285 36.6776 26.285 32.0452C26.285 29.8038 25.4006 27.6952 23.7947 26.1097C22.1869 24.521 20.0482 23.646 17.7729 23.646Z" fill="white"/>
<path d="M14.0996 2.39771H12.5371V6.47856H14.0996V2.39771Z" fill="white"/>
<path d="M18.5537 2.39771H16.9912V6.47856H18.5537V2.39771Z" fill="white"/>
<path d="M23.0068 2.39771H21.4443V6.47856H23.0068V2.39771Z" fill="white"/>
<path d="M18.5527 27.5386H16.9902V36.5534H18.5527V27.5386Z" fill="white"/>
<path d="M22.3352 31.2644H13.209V32.8269H22.3352V31.2644Z" fill="white"/>
</svg>
