<svg width="50" height="50" viewBox="0 0 50 50" fill="none" xmlns="http://www.w3.org/2000/svg">
<g clip-path="url(#clip0_390_392)">
<path d="M21.3664 39.8317L3.5168 21.8544C-1.17227 17.1313 -1.17227 9.44541 3.5168 4.72158L3.68633 4.55205C5.9582 2.26416 8.98242 1.00244 12.1988 1.00244C12.1984 1.00244 12.1992 1.00244 12.1988 1.00244C15.4152 1.00244 18.4391 2.26377 20.7121 4.554L21.366 5.21338L22.0203 4.554C24.2941 2.26416 27.3176 1.00244 30.534 1.00244C33.7504 1.00244 36.7746 2.26377 39.0484 4.554L39.2164 4.7251C42.6402 8.17197 43.6773 13.3239 41.8555 17.8462L40.4059 17.2622C41.9938 13.3196 41.0906 8.82939 38.1039 5.82275L37.9359 5.65166C35.9609 3.6626 33.3309 2.56533 30.534 2.56572C27.7371 2.56572 25.1074 3.66299 23.1293 5.65557L21.3652 7.43213L19.6023 5.65518C17.6246 3.66299 14.9953 2.56572 12.1984 2.56572H12.198C9.40078 2.56572 6.77109 3.66299 4.79258 5.65557L4.62305 5.8251C0.539453 9.93955 0.539453 16.6376 4.62578 20.7532L21.366 37.6138L23.9645 34.9966L25.0734 36.0974L21.3664 39.8317Z" fill="white"/>
<path d="M43.0139 48.9979C40.8682 48.9979 39.9784 46.6006 38.3635 42.2494C37.7858 40.6936 37.2475 40.2822 37.0428 40.2822C36.8717 40.2822 36.2979 40.6357 35.6994 42.249C34.0854 46.601 33.1967 48.9979 31.0494 48.9979C28.9807 48.9979 26.8869 46.0502 26.8869 40.417C26.8869 37.5971 26.3295 36.3072 25.685 34.8146C25.1799 33.6447 24.6076 32.3189 24.2479 30.1471C23.5205 25.7494 24.9694 21.6396 27.7717 20.1518C29.4147 19.1893 30.4514 18.7236 31.8244 18.7236C32.8284 18.7236 33.9537 18.9725 35.6803 19.4307C36.1491 19.5537 36.5932 19.64 37.0319 19.6932C37.4655 19.6408 37.9088 19.5549 38.3846 19.4303C40.108 18.9725 41.2338 18.724 42.2381 18.724C43.6131 18.724 44.6498 19.1896 46.3201 20.1678C49.094 21.6393 50.542 25.749 49.8127 30.1475C49.4483 32.3486 48.8737 33.6791 48.3662 34.8533C47.726 36.3342 47.1733 37.6131 47.1733 40.417C47.1733 46.0502 45.0807 48.9979 43.0139 48.9979ZM37.0428 38.7189C38.1553 38.7189 39.0924 39.7236 39.8284 41.7053C41.3069 45.6893 42.0549 47.435 43.0139 47.435C43.8909 47.435 45.6104 45.3158 45.6104 40.417C45.6104 37.29 46.2522 35.8049 46.9311 34.233C47.426 33.0881 47.9373 31.9045 48.2713 29.892C48.8819 26.2061 47.7412 22.6904 45.5588 21.5326C44.0494 20.6494 43.2651 20.2873 42.2377 20.2873C41.4088 20.2873 40.3432 20.5271 38.7823 20.9416C38.1983 21.0947 37.6541 21.1975 37.1162 21.2564L37.0303 21.2658L36.9444 21.2564C36.401 21.1963 35.8569 21.0936 35.2803 20.942C33.717 20.5268 32.6518 20.2869 31.8233 20.2869C30.7979 20.2869 30.0131 20.6498 28.5315 21.5166C26.3201 22.6912 25.1787 26.2068 25.7889 29.8924C26.117 31.8752 26.6268 33.0545 27.119 34.1951C27.8026 35.7787 28.4483 37.2744 28.4483 40.4174C28.4483 45.3162 30.1701 47.4354 31.0483 47.4354C32.008 47.4354 32.7557 45.6896 34.233 41.7061C35.1494 39.2369 36.267 38.7189 37.0428 38.7189Z" fill="white"/>
<path d="M27.4776 30.1529C26.9628 27.0404 27.8514 24.015 29.5456 23.1166L29.6331 23.0678C31.0413 22.2428 31.6159 22.0146 32.2921 22.0146V23.5775C32.0444 23.5775 31.7487 23.6396 30.4081 24.4248L30.292 24.4896C29.4491 24.9373 28.5499 27.0588 29.0198 29.8982L27.4776 30.1529Z" fill="white"/>
<path d="M33.7021 11.8384H32.1396V16.0685H33.7021V11.8384Z" fill="white"/>
<path d="M29.8388 16.2602L28.4023 12.2844L26.9328 12.8154L28.3693 16.7912L29.8388 16.2602Z" fill="white"/>
<path d="M26.2736 17.7681L23.5732 14.5278L22.3729 15.5281L25.0733 18.7684L26.2736 17.7681Z" fill="white"/>
<path d="M23.437 20.4143L19.7998 18.2986L19.0142 19.6492L22.6514 21.7649L23.437 20.4143Z" fill="white"/>
<path d="M21.6659 23.8761L17.5283 23.1411L17.255 24.6796L21.3927 25.4145L21.6659 23.8761Z" fill="white"/>
<path d="M21.4489 29.2784L21.1758 27.74L17.0393 28.4744L17.3124 30.0128L21.4489 29.2784Z" fill="white"/>
<path d="M22.8149 32.8902L22.0293 31.5396L18.3911 33.6558L19.1767 35.0065L22.8149 32.8902Z" fill="white"/>
</g>
<defs>
<clipPath id="clip0_390_392">
<rect width="50" height="50" fill="white"/>
</clipPath>
</defs>
</svg>
