<svg width="50" height="50" viewBox="0 0 50 50" fill="none" xmlns="http://www.w3.org/2000/svg">
<g clip-path="url(#clip0_390_563)">
<path d="M23.8835 27.4306C24.0214 33.2327 19.4117 38.0707 13.604 38.2071C13.5205 38.2087 13.438 38.2101 13.3552 38.2101C7.6613 38.2101 2.96184 33.6475 2.82842 27.9269C2.72732 23.59 5.35555 19.5718 9.3699 17.9278C9.73254 17.7796 10.157 17.9539 10.3068 18.3207C10.4564 18.6877 10.2794 19.1085 9.91536 19.2588C6.44922 20.6784 4.17993 24.1489 4.26788 27.8916C4.38514 32.9024 8.571 36.9378 13.5726 36.7663C18.5814 36.6467 22.5625 32.4738 22.4446 27.4629C22.4339 27.0663 22.7509 26.7363 23.1465 26.7266C23.5735 26.7561 23.8729 27.0331 23.8835 27.4306ZM11.3038 27.7302C11.2869 26.8528 11.8239 26.0941 12.5904 25.7834L12.4049 17.889C12.3952 17.492 12.7098 17.1617 13.1057 17.1518C13.502 17.1792 13.8344 17.4569 13.8443 17.8544L14.0299 25.7594C14.8221 26.0431 15.3828 26.7713 15.4045 27.63C15.4186 28.1752 15.2175 28.6953 14.8373 29.0919C14.4585 29.4882 13.9526 29.7144 13.4037 29.7271C13.3981 29.7271 13.3635 29.7271 13.3579 29.7271C12.2363 29.729 11.3354 28.8504 11.3038 27.7302ZM13.9653 27.6653C13.9581 27.3366 13.6862 27.068 13.3566 27.068C13.0052 27.0765 12.7375 27.3563 12.743 27.6965C12.7534 28.0224 13.0267 28.2909 13.3579 28.2909V29.0106L13.372 28.2909C13.5336 28.2881 13.6862 28.2191 13.7965 28.1014C13.9089 27.9802 13.968 27.8272 13.9653 27.6653ZM38.1456 29.5111C30.7256 26.2037 26.2814 30.8545 26.2364 30.9023C25.9663 31.192 25.9832 31.6502 26.2729 31.92C26.4132 32.0479 26.5875 32.1125 26.7648 32.1125C26.9559 32.1125 27.1514 32.0338 27.2904 31.8835C27.3268 31.8441 31.0686 27.9366 37.5623 30.8279C37.9191 30.9895 38.3492 30.8279 38.5124 30.4639C38.6728 30.0985 38.5098 29.6724 38.1456 29.5111ZM49.6402 30.0099C50.0172 31.0373 50.0028 31.9749 49.601 32.8013C48.8616 34.3222 47.0625 34.8141 46.988 34.8365C42.4115 36.7875 38.7416 37.4158 35.9109 37.4158C32.1329 37.4158 29.8544 36.2984 28.9237 35.7151C26.2422 37.5705 23.3206 36.7032 23.1899 36.6638C23.0486 36.6215 22.9448 36.5331 22.8603 36.4279C20.5271 39.0252 17.1819 40.7033 13.4226 40.7905L13.107 40.7933C6.05058 40.7933 0.172499 35.0487 0.00376296 27.9887C-0.0791049 24.4859 1.20916 21.1633 3.62663 18.6304C5.63601 16.5257 8.22845 15.189 11.0536 14.7442L11.022 13.272C10.2544 12.8733 9.79994 12.2473 9.78724 11.532C9.7697 10.8755 10.1423 10.2493 10.8047 9.81506C11.3747 9.44204 12.1232 9.22622 12.9131 9.20729C13.703 9.19621 14.4572 9.3691 15.0435 9.71557C15.7302 10.1202 16.1286 10.7275 16.1461 11.384C16.163 12.0966 15.7413 12.7438 14.9943 13.1789L15.0308 14.7285C16.69 14.978 18.2529 15.5387 19.6594 16.3609L20.2722 15.5662C20.0966 15.0468 20.1543 14.5318 20.4495 14.15C20.753 13.7558 21.2514 13.5584 21.8416 13.6201C22.3019 13.6665 22.7883 13.871 23.2084 14.1964C24.1915 14.9575 24.5156 16.1234 23.9526 16.8528C23.6576 17.2344 23.1571 17.4128 22.6285 17.3842L22.0487 18.1353C23.1627 19.1789 24.0938 20.4138 24.793 21.7843C26.1311 21.3021 30.775 20.0969 33.7928 25.1597C34.8131 24.7001 36.8696 23.9806 38.8976 24.4637C38.2372 21.5966 38.951 18.4938 39.3025 17.2575C37.3123 17.5077 35.2235 17.4128 34.2508 17.2688C33.9865 17.2302 33.652 16.9666 33.5634 16.7123C33.5311 16.6167 33.4791 16.4789 33.5255 16.2541C33.2079 16.2746 32.8931 16.2414 32.6371 16.1137C32.4993 16.0454 32.1339 15.8642 31.9289 14.611C31.8107 13.8943 31.7908 12.9209 32.3631 12.351C33.5241 11.1878 39.5862 9.58054 41.0677 10.566C42.8808 11.7755 44.8528 14.8381 46.5577 17.6148L46.7082 17.8622C50.9322 24.7237 50.0354 28.8673 49.6402 30.0099ZM21.674 16.1012L20.8608 17.1559C20.8883 17.1751 20.913 17.194 20.9416 17.2136L21.7505 16.1615C21.9333 15.924 22.241 15.8277 22.5304 15.9127C22.716 15.9704 22.8208 15.9542 22.8453 15.9429C22.8023 15.9332 22.6872 15.616 22.3245 15.3358C22.0076 15.0914 21.7137 15.0392 21.5859 15.0519C21.6161 15.0722 21.6422 15.1629 21.7172 15.2825C21.8758 15.5369 21.8569 15.8637 21.674 16.1012ZM12.49 14.5988C12.5932 14.5946 12.7001 14.5785 12.8049 14.5755L13.1204 14.5727C13.2772 14.5727 13.4295 14.5902 13.5835 14.596L13.5419 12.7568C13.535 12.4574 13.7148 12.1834 13.9909 12.0714C14.4858 11.8711 14.7048 11.5936 14.7023 11.4207C14.6975 11.2723 14.5525 11.0996 14.3108 10.9577C13.9581 10.749 13.4457 10.6352 12.9448 10.649C12.4296 10.6611 11.9342 10.7975 11.5946 11.0207C11.3585 11.1746 11.2186 11.3545 11.2237 11.5015C11.2292 11.6758 11.4605 11.9428 11.9658 12.1185C12.2497 12.2168 12.4436 12.4811 12.4494 12.7805L12.49 14.5988ZM24.7859 27.4098C24.6363 21.1248 19.4025 16.0108 13.1204 16.0108L12.8393 16.0135C9.72192 16.0872 6.82085 17.3699 4.66744 19.6251C2.51542 21.8803 1.37004 24.8391 1.4446 27.9564C1.59418 34.2435 6.82778 39.3585 13.1087 39.3585L13.3898 39.3557C19.8214 39.2036 24.9357 33.8456 24.7859 27.4098ZM48.2222 29.6936C48.2363 29.6641 49.9357 25.8494 45.4813 18.6173L45.3297 18.3685C44.1559 16.457 41.9688 12.8987 40.2667 11.7646C39.4403 11.3164 34.2229 12.5236 33.3766 13.3698C33.2275 13.5582 33.3092 14.3735 33.444 14.8296C33.7661 14.798 34.3858 14.6089 34.8946 14.3735C35.2094 14.223 35.582 14.3229 35.783 14.6034C35.9855 14.8822 35.9573 15.2668 35.724 15.5191C35.5975 15.6511 35.4682 15.7982 35.3555 15.9394C37.0872 16.0548 39.9068 15.9683 41.5203 15.2527C41.8802 15.0918 42.3102 15.2555 42.4704 15.6195C42.6306 15.9821 42.4663 16.408 42.1022 16.5696C41.7255 16.7363 41.2983 16.8648 40.8541 16.9752C40.8511 17.0426 40.8511 17.1109 40.8274 17.1783C40.8105 17.2261 39.2476 21.9094 40.6575 25.2596C41.9196 26.1338 42.8333 27.5829 43.3672 29.6041C43.4683 29.9877 43.2393 30.3813 42.8584 30.4826C42.7938 30.4981 42.7319 30.5078 42.6728 30.5078C42.3522 30.5078 42.0628 30.294 41.9785 29.9725C41.4388 27.9301 40.4901 26.613 39.1603 26.0581C36.7948 25.0741 33.8865 26.7256 33.8545 26.7411C33.6885 26.8394 33.4861 26.8646 33.2922 26.8085C33.1038 26.7538 32.9464 26.6243 32.855 26.4486C30.3978 21.709 26.5325 22.6746 25.3694 23.0991C25.8777 24.44 26.1868 25.8764 26.2232 27.3789C26.2909 30.3418 25.3567 33.0926 23.7446 35.3275C24.302 35.4625 26.5155 35.8589 28.4496 34.2777C28.7167 34.0612 29.0989 34.0612 29.3676 34.2818C29.414 34.3213 34.7579 38.4959 46.5196 33.4834C46.6237 33.4483 47.8647 33.0956 48.3074 32.1707C48.5562 31.6619 48.5184 31.032 48.2063 30.3C48.1195 30.1027 48.128 29.8834 48.2222 29.6936Z" fill="white"/>
</g>
<defs>
<clipPath id="clip0_390_563">
<rect width="50" height="50" fill="white"/>
</clipPath>
</defs>
</svg>
