<svg width="50" height="50" viewBox="0 0 50 50" fill="none" xmlns="http://www.w3.org/2000/svg">
<path d="M21.2054 10.5211C20.0013 10.5198 18.8469 10.0746 17.9955 9.28309C17.144 8.49158 16.6651 7.41842 16.6637 6.29906V4.22204C16.6637 3.66759 16.7812 3.11858 17.0094 2.60634C17.2377 2.09409 17.5722 1.62866 17.9939 1.23661C18.4157 0.844554 18.9164 0.533561 19.4674 0.321384C20.0184 0.109206 20.609 0 21.2054 0C21.8018 0 22.3924 0.109206 22.9434 0.321384C23.4944 0.533561 23.9951 0.844554 24.4168 1.23661C24.8386 1.62866 25.1731 2.09409 25.4014 2.60634C25.6296 3.11858 25.7471 3.66759 25.7471 4.22204V6.29906C25.7457 7.41842 25.2668 8.49158 24.4153 9.28309C23.5639 10.0746 22.4095 10.5198 21.2054 10.5211ZM24.2487 4.22204C24.2487 3.47171 23.9281 2.75211 23.3573 2.22154C22.7866 1.69098 22.0125 1.39291 21.2054 1.39291C20.3983 1.39291 19.6242 1.69098 19.0534 2.22154C18.4827 2.75211 18.1621 3.47171 18.1621 4.22204V6.29906C18.1621 7.04939 18.4827 7.76899 19.0534 8.29956C19.6242 8.83012 20.3983 9.12819 21.2054 9.12819C22.0125 9.12819 22.7866 8.83012 23.3573 8.29956C23.9281 7.76899 24.2487 7.04939 24.2487 6.29906V4.22204Z" fill="white"/>
<path d="M2.91546 44.5795H33.6548V27.0371H33.2808C32.1127 27.0359 30.9928 26.604 30.1668 25.8361C29.3408 25.0683 28.8762 24.0272 28.8748 22.9413V21.1438C28.8741 20.5693 28.6283 20.0185 28.1914 19.6123C27.7544 19.206 27.1619 18.9775 26.5439 18.9769H24.8659L24.2716 23.8443L28.7482 29.7187C29.3321 30.4906 29.6948 31.3881 29.8019 32.3265C29.9091 33.2648 29.7573 34.2131 29.3608 35.0817L25.7147 42.9926C25.657 43.1179 25.561 43.2247 25.4385 43.2997C25.3161 43.3747 25.1727 43.4147 25.0261 43.4147H21.8731C21.7556 43.4147 21.6398 43.3891 21.535 43.3398C21.4302 43.2905 21.3393 43.219 21.2696 43.1311C21.2 43.0431 21.1536 42.9412 21.1342 42.8335C21.1148 42.7258 21.1229 42.6154 21.1578 42.5111L24.0785 33.7984C24.1209 33.64 24.1213 33.4744 24.0796 33.3159C24.0379 33.1573 23.9553 33.0106 23.8391 32.8882L20.4443 29.3107L14.0858 42.9944C14.0278 43.1192 13.9318 43.2256 13.8096 43.3002C13.6874 43.3749 13.5444 43.4147 13.3981 43.4147L10.7736 43.4146C10.666 43.4147 10.5596 43.3931 10.4617 43.3514C10.3638 43.3098 10.2768 43.249 10.2064 43.1733C10.1361 43.0975 10.0842 43.0086 10.0541 42.9125C10.0241 42.8164 10.0167 42.7154 10.0324 42.6164L14.4452 14.85C14.5935 13.7264 15.2096 12.7016 16.1615 11.9955C17.1134 11.2894 18.3251 10.9584 19.5365 11.0734C21.1983 11.0835 22.6946 11.6949 23.7537 12.7975C24.8216 13.9093 25.3055 15.3755 25.1163 16.926L25.036 17.584H26.5439C27.5591 17.585 28.5325 17.9604 29.2503 18.6278C29.9682 19.2952 30.372 20.2 30.3732 21.1438V22.9413C30.374 23.6579 30.6807 24.345 31.2257 24.8517C31.7708 25.3584 32.5099 25.6435 33.2807 25.6443H33.6548V18.0452C33.6548 17.3633 33.9462 16.7093 34.4649 16.2272C34.9835 15.745 35.687 15.4741 36.4205 15.4741C37.1541 15.4741 37.8576 15.745 38.3762 16.2272C38.8949 16.7093 39.1863 17.3633 39.1863 18.0452V30.9159H44.8526C44.9714 30.9159 45.0885 30.9422 45.1943 30.9925C45.3 31.0429 45.3913 31.116 45.4607 31.2056L49.859 36.8894C49.9507 37.0079 50 37.1502 50 37.2961V49.3036C50 49.4883 49.9211 49.6654 49.7806 49.796C49.6401 49.9266 49.4495 50 49.2508 50H2.91546C2.14223 50 1.40067 49.7145 0.853916 49.2062C0.307159 48.6979 0 48.0086 0 47.2897C0 46.5709 0.307159 45.8816 0.853916 45.3733C1.40067 44.865 2.14223 44.5795 2.91546 44.5795ZM22.7505 23.9513L23.6274 16.7689C23.768 15.618 23.4159 14.5371 22.636 13.7252C21.8561 12.9134 20.7407 12.4662 19.4947 12.4662C19.4664 12.4662 19.4382 12.4648 19.4101 12.4618C18.5841 12.3765 17.7553 12.5977 17.1039 13.0776C16.4525 13.5574 16.0313 14.2569 15.9319 15.024C15.931 15.0307 15.9301 15.0374 15.9291 15.044L11.6417 42.0218L12.9057 42.0219L19.1442 28.5961C19.2362 28.398 19.3806 28.2248 19.5639 28.0924C19.7472 27.9601 19.9635 27.8729 20.1928 27.8391C20.422 27.8052 20.6567 27.8258 20.8751 27.8988C21.0936 27.9718 21.2886 28.095 21.4421 28.2568L24.9628 31.9669C25.2435 32.2623 25.4416 32.6175 25.5395 33.0009C25.6374 33.3844 25.6321 33.7844 25.5241 34.1655C25.5212 34.1757 25.5181 34.1858 25.5148 34.1959L22.8913 42.0219H24.5321L27.9835 34.5332C28.2799 33.8838 28.3934 33.175 28.3133 32.4735C28.2332 31.772 27.9621 31.1011 27.5257 30.524L22.8836 24.4326C22.7771 24.2928 22.7298 24.1215 22.7505 23.9513ZM37.688 18.0452C37.688 17.7327 37.5544 17.433 37.3168 17.2121C37.0791 16.9911 36.7567 16.867 36.4206 16.867C36.0844 16.867 35.7621 16.9911 35.5244 17.2121C35.2867 17.433 35.1532 17.7327 35.1532 18.0452V44.5795H37.6879L37.688 18.0452ZM39.1863 48.6071H48.5017V37.5206L44.4687 32.3088H39.1863L39.1863 48.6071ZM2.9155 48.6071H37.6879V45.9724H2.91546C2.53962 45.9724 2.17918 46.1112 1.91342 46.3582C1.64766 46.6053 1.49836 46.9404 1.49836 47.2897C1.49836 47.6391 1.64766 47.9742 1.91342 48.2213C2.17918 48.4683 2.53967 48.6071 2.9155 48.6071Z" fill="white"/>
<path d="M45.7225 47.0515C45.2035 47.0515 44.7828 46.6604 44.7828 46.178C44.7828 45.6955 45.2035 45.3044 45.7225 45.3044C46.2414 45.3044 46.6621 45.6955 46.6621 46.178C46.6621 46.6604 46.2414 47.0515 45.7225 47.0515Z" fill="white"/>
</svg>
