<svg width="55" height="55" viewBox="0 0 55 55" fill="none" xmlns="http://www.w3.org/2000/svg">
<path d="M24.3733 18.2749C25.3 18.2739 26.1885 17.9053 26.8437 17.25C27.499 16.5947 27.8676 15.7062 27.8686 14.7795V13.3562C27.867 12.4302 27.498 11.5427 26.8427 10.8885C26.1874 10.2344 25.2992 9.86694 24.3733 9.86694C23.4473 9.86694 22.5592 10.2344 21.9039 10.8885C21.2485 11.5427 20.8796 12.4302 20.8779 13.3562V14.7795C20.879 15.7062 21.2476 16.5947 21.9028 17.25C22.5581 17.9053 23.4466 18.2739 24.3733 18.2749ZM22.2744 13.3562C22.2757 12.8003 22.4974 12.2677 22.8908 11.8751C23.2843 11.4825 23.8174 11.262 24.3733 11.262C24.9291 11.262 25.4623 11.4825 25.8557 11.8751C26.2492 12.2677 26.4709 12.8003 26.4721 13.3562V14.7795C26.4728 15.0555 26.4189 15.329 26.3137 15.5842C26.2085 15.8394 26.054 16.0713 25.8591 16.2667C25.6641 16.4621 25.4325 16.6171 25.1776 16.7229C24.9226 16.8287 24.6493 16.8831 24.3733 16.8831C24.0973 16.8831 23.8239 16.8287 23.569 16.7229C23.314 16.6171 23.0824 16.4621 22.8875 16.2667C22.6925 16.0713 22.538 15.8394 22.4328 15.5842C22.3276 15.329 22.2738 15.0555 22.2744 14.7795V13.3562Z" fill="white"/>
<path d="M29.1454 30.335C28.7228 28.6007 28.6562 26.7987 28.9496 25.038L29.0166 24.6329C29.0874 24.2094 29.268 23.8119 29.5404 23.48C29.8128 23.1481 30.1675 22.8934 30.569 22.7413L36.0787 20.6656C36.3091 20.5779 36.5075 20.4224 36.6477 20.2197C36.788 20.017 36.8635 19.7765 36.8643 19.53V18.0434C36.8643 17.857 36.8214 17.6731 36.7388 17.5059C36.6562 17.3388 36.5363 17.1929 36.3883 17.0797C36.2402 16.9664 36.0681 16.8887 35.8852 16.8527C35.7023 16.8167 35.5136 16.8233 35.3337 16.872L29.0849 18.5641C29.0625 18.5678 29.04 18.5727 29.0178 18.5787L25.5437 19.5139C24.7769 19.7201 23.9693 19.7201 23.2025 19.5139L19.7285 18.5787C19.7065 18.5727 19.6842 18.5679 19.6618 18.5642L13.4124 16.872C13.2325 16.8233 13.0437 16.8167 12.8609 16.8527C12.678 16.8887 12.5058 16.9664 12.3578 17.0797C12.2098 17.193 12.0899 17.3388 12.0073 17.5059C11.9248 17.6731 11.8818 17.857 11.8818 18.0434V19.53C11.8827 19.7765 11.9582 20.0169 12.0985 20.2196C12.2387 20.4224 12.4371 20.5778 12.6675 20.6655L18.1771 22.7413C18.5787 22.8933 18.9333 23.148 19.2057 23.4799C19.4782 23.8118 19.6588 24.2093 19.7296 24.6328L19.7967 25.038C20.09 26.7988 20.0234 28.6007 19.6008 30.335L16.7266 42.1869C16.6928 42.3261 16.6911 42.4711 16.7216 42.611C16.7521 42.751 16.8139 42.8822 16.9024 42.9947C16.9909 43.1073 17.1039 43.1983 17.2327 43.2608C17.3615 43.3234 17.5028 43.3559 17.646 43.3559H18.8973C19.4465 43.3566 19.9819 43.1837 20.427 42.862C20.8721 42.5403 21.2043 42.0862 21.376 41.5645L24.3651 32.5199C24.3659 32.5176 24.3665 32.5157 24.367 32.5145C24.3722 32.5133 24.3784 32.5126 24.3768 32.5096C24.3786 32.5129 24.38 32.5163 24.3811 32.5199L27.3702 41.5644C27.5419 42.0861 27.874 42.5403 28.3191 42.862C28.7643 43.1837 29.2997 43.3566 29.8489 43.3559H31.1002C31.2434 43.3559 31.3847 43.3234 31.5135 43.2608C31.6424 43.1982 31.7553 43.1072 31.8438 42.9947C31.9324 42.8821 31.9942 42.7509 32.0246 42.611C32.0551 42.471 32.0534 42.326 32.0196 42.1868L29.1454 30.335ZM29.8489 41.9594C29.5935 41.9597 29.3445 41.8793 29.1375 41.7297C28.9305 41.5801 28.776 41.3689 28.6962 41.1263L25.7071 32.0816C25.6143 31.8011 25.4355 31.5569 25.196 31.3839C24.9565 31.2108 24.6686 31.1177 24.3731 31.1177C24.0776 31.1177 23.7897 31.2108 23.5502 31.3839C23.3107 31.5569 23.1319 31.8011 23.0391 32.0816L20.05 41.1263C19.9701 41.3689 19.8157 41.5801 19.6087 41.7297C19.4017 41.8793 19.1527 41.9597 18.8973 41.9594H18.2187L20.9579 30.6642C21.425 28.7475 21.4986 26.7559 21.1744 24.81L21.1073 24.4047C20.9961 23.7397 20.7124 23.1155 20.2847 22.5943C19.8569 22.0731 19.3 21.6732 18.6695 21.4344L13.2783 19.4033V18.2824L19.3651 19.9307C19.3878 19.9368 19.4108 19.9418 19.4338 19.9456L22.8393 20.8623C23.844 21.1325 24.9021 21.1325 25.9068 20.8623L29.3119 19.9457C29.3351 19.9418 29.3582 19.9369 29.3811 19.9306L35.4678 18.2824V19.4033L30.0767 21.4343C29.4461 21.6732 28.8892 22.0731 28.4614 22.5943C28.0337 23.1155 27.7501 23.7398 27.6388 24.4048L27.5719 24.81C27.2476 26.7559 27.3212 28.7474 27.7883 30.6641L30.5275 41.9594L29.8489 41.9594Z" fill="white"/>
<path d="M34.9111 9.79171C33.6675 9.05233 32.3494 8.44613 30.9787 7.98315L30.5322 9.30641C31.8098 9.73789 33.0383 10.3029 34.1974 10.992L34.9111 9.79171Z" fill="white"/>
<path d="M6.84395 19.5793L5.57315 19.0002C4.97349 20.317 4.51459 21.6935 4.2041 23.1067L5.56817 23.4061C5.85744 22.0891 6.28508 20.8064 6.84395 19.5793Z" fill="white"/>
<path d="M5.12109 27.5524L5.12157 27.4155L3.72508 27.4062L3.72461 27.5523C3.7243 28.9493 3.86474 30.3427 4.14381 31.7115L5.51197 31.4316C5.25171 30.1549 5.12075 28.8553 5.12109 27.5524Z" fill="white"/>
<path d="M44.2237 23.6174L44.6316 23.537C44.3515 22.1177 43.9224 20.732 43.3512 19.4028L42.0684 19.9544C42.5605 21.1011 42.9394 22.2932 43.1996 23.5137C43.5426 23.5304 43.8844 23.565 44.2237 23.6174Z" fill="white"/>
<path d="M40.0937 16.4372L41.2333 15.6301C40.3972 14.4503 39.4403 13.3609 38.3781 12.3796L37.4307 13.4056C38.4214 14.3208 39.3139 15.3368 40.0937 16.4372Z" fill="white"/>
<path d="M5.4541 35.8361C6.03522 37.1603 6.75376 38.4199 7.59792 39.594L8.73173 38.7787C7.94472 37.6841 7.27484 36.5099 6.7331 35.2754L5.4541 35.8361Z" fill="white"/>
<path d="M33.96 44.2514L34.6565 45.4618C35.9096 44.7401 37.0838 43.8896 38.16 42.9239L37.2273 41.8845C36.2236 42.7851 35.1286 43.5784 33.96 44.2514Z" fill="white"/>
<path d="M24.3703 8.30026H24.3736C25.1159 8.30033 25.8576 8.34265 26.5952 8.42702L26.7545 7.03976C25.9641 6.94924 25.1692 6.90384 24.3737 6.90381H24.3703C23.7238 6.90381 23.071 6.93423 22.4297 6.99413L22.5597 8.38453C23.1578 8.32859 23.767 8.30026 24.3703 8.30026Z" fill="white"/>
<path d="M26.3232 46.7069L26.463 48.0965C27.9021 47.9518 29.322 47.6559 30.6992 47.2138L30.2718 45.8843C28.9882 46.2964 27.6647 46.5721 26.3232 46.7069Z" fill="white"/>
<path d="M11.6209 13.1291L10.6955 12.0833C9.61257 13.0417 8.63259 14.1104 7.77148 15.2722L8.89354 16.1035C9.69673 15.0199 10.6108 14.023 11.6209 13.1291Z" fill="white"/>
<path d="M17.9072 47.168C19.2815 47.6202 20.6996 47.9263 22.1381 48.0813L22.2876 46.6927C20.9469 46.5484 19.6251 46.2631 18.3443 45.8416L17.9072 47.168Z" fill="white"/>
<path d="M10.4756 42.8242C11.5451 43.7978 12.7135 44.6569 13.9616 45.3875L14.6667 44.1822C13.5027 43.5008 12.4131 42.6995 11.4157 41.7915L10.4756 42.8242Z" fill="white"/>
<path d="M18.6046 9.17917L18.1866 7.84668C16.8065 8.28005 15.4758 8.85769 14.2168 9.57005L14.9046 10.7855C16.078 10.1215 17.3182 9.58308 18.6046 9.17917Z" fill="white"/>
<path d="M51.276 33.3613C51.2767 31.5036 50.6737 29.696 49.5577 28.2109C48.4418 26.7257 46.8734 25.6435 45.0889 25.1273C43.3044 24.611 41.4004 24.6888 39.6639 25.3487C37.9274 26.0087 36.4524 27.2151 35.4612 28.7863C34.47 30.3574 34.0163 32.2082 34.1684 34.0596C34.3206 35.9111 35.0703 37.6629 36.3047 39.0512C37.539 40.4395 39.1911 41.389 41.0121 41.7566C42.833 42.1243 44.7241 41.8902 46.4004 41.0896L49.7786 46.2826L50.9492 45.5212L47.6067 40.383C48.7389 39.5949 49.6638 38.5448 50.3027 37.3222C50.9415 36.0997 51.2755 34.7408 51.276 33.3613ZM35.543 33.3613C35.543 31.9436 35.9634 30.5577 36.7511 29.3789C37.5387 28.2001 38.6583 27.2813 39.9681 26.7387C41.2779 26.1962 42.7192 26.0543 44.1097 26.3309C45.5002 26.6074 46.7775 27.2902 47.78 28.2927C48.7825 29.2952 49.4652 30.5724 49.7418 31.9629C50.0183 33.3534 49.8764 34.7947 49.3338 36.1046C48.7913 37.4144 47.8725 38.5339 46.6937 39.3216C45.5149 40.1092 44.129 40.5296 42.7112 40.5296C40.8107 40.5275 38.9887 39.7716 37.6448 38.4277C36.301 37.0839 35.5451 35.2618 35.543 33.3613Z" fill="white"/>
<path d="M46.6576 33.3613C46.6564 34.4074 46.2403 35.4103 45.5006 36.15C44.7609 36.8897 43.758 37.3058 42.7119 37.307V38.7035C44.1282 38.7019 45.4861 38.1385 46.4876 37.137C47.4891 36.1355 48.0525 34.7777 48.0541 33.3613H46.6576Z" fill="white"/>
</svg>
