<svg width="55" height="55" viewBox="0 0 55 55" fill="none" xmlns="http://www.w3.org/2000/svg">
<g clip-path="url(#clip0_63_163)">
<path fill-rule="evenodd" clip-rule="evenodd" d="M51.5625 41.25C51.5625 43.1475 50.0225 44.6875 48.125 44.6875H46.5025C47.5217 41.8309 48.125 38.6392 48.125 35.2344C48.125 32.4964 47.7228 29.9028 47.0456 27.5H48.125C50.0225 27.5 51.5625 29.04 51.5625 30.9375V41.25ZM42.7504 44.6875H41.25C39.3525 44.6875 37.8125 43.1475 37.8125 41.25V30.9375C37.8125 29.04 39.3525 27.5 41.25 27.5H43.4122C44.2114 29.8822 44.6875 32.4792 44.6875 35.2344C44.6875 38.6719 43.9622 41.8739 42.7504 44.6875ZM7.95609 27.5C7.27718 29.9028 6.875 32.4964 6.875 35.2344C6.875 38.6392 7.48 41.8309 8.4975 44.6875H6.875C4.9775 44.6875 3.4375 43.1475 3.4375 41.25V30.9375C3.4375 29.04 4.9775 27.5 6.875 27.5H7.95609ZM11.5878 27.5H13.75C15.6475 27.5 17.1875 29.04 17.1875 30.9375V41.25C17.1875 43.1475 15.6475 44.6875 13.75 44.6875H12.2496C11.0378 41.8739 10.3125 38.6719 10.3125 35.2344C10.3125 32.4792 10.7886 29.8822 11.5878 27.5ZM51.4559 24.958C51.504 24.377 51.5625 23.7978 51.5625 23.2031C51.5625 10.3881 40.7894 0 27.5 0C14.2106 0 3.4375 10.3881 3.4375 23.2031C3.4375 23.7978 3.49592 24.377 3.54576 24.958C1.44029 26.1336 0 28.3559 0 30.9375V41.25C0 45.0467 3.07828 48.125 6.875 48.125C6.875 48.125 13.7569 48.1353 13.75 48.125C17.4023 47.9617 20.625 44.9419 20.625 41.25V30.9375C20.625 27.1408 17.5467 24.0625 13.75 24.0625H6.875C6.875 12.6105 16.1098 3.4375 27.5 3.4375C38.8919 3.4375 48.125 11.8027 48.125 24.0625H41.25C37.4533 24.0625 34.375 27.1408 34.375 30.9375V41.25C34.375 44.9419 37.5977 47.9617 41.25 48.125C41.2431 48.1353 44.6875 48.125 44.6875 48.125V53.2812C44.6875 54.2317 45.4558 55 46.4062 55C47.3567 55 48.125 54.2317 48.125 53.2812V48.125C51.9217 48.125 55 45.0467 55 41.25V30.9375C55 28.3559 53.5597 26.1336 51.4559 24.958Z" fill="#007AFF"/>
</g>
<defs>
<clipPath id="clip0_63_163">
<rect width="55" height="55" fill="white"/>
</clipPath>
</defs>
</svg>
