<svg width="45" height="55" viewBox="0 0 45 55" fill="none" xmlns="http://www.w3.org/2000/svg">
<path fill-rule="evenodd" clip-rule="evenodd" d="M22.5 1.557L23.2978 0.565956L22.5 0L21.7022 0.565956L22.5 1.557ZM26.4706 50.8593C30.8721 50.0037 34.9467 47.7853 38.1335 44.7881C42.2619 40.9056 45 35.6229 45 30.0844C45 26.4131 43.5664 22.7262 41.5207 19.3183C39.4695 15.9009 36.7526 12.6799 34.0658 9.9174C31.3751 7.15097 28.6886 4.81783 26.6768 3.17711C25.8772 2.5241 25.0646 1.88524 24.2394 1.26085C23.9505 1.04281 23.6593 0.827479 23.3659 0.6149L23.3169 0.579372L23.3036 0.569931L23.2978 0.565956L22.5 1.557L21.7022 0.565956L21.6964 0.569931L21.6831 0.579372L21.6341 0.614651L21.4494 0.748811C21.2184 0.917704 20.9888 1.08831 20.7606 1.26061C19.9354 1.88507 19.1228 2.52402 18.3232 3.17711C16.3114 4.81783 13.6249 7.15097 10.9342 9.9174C8.24744 12.6801 5.5305 15.9009 3.47929 19.3183C1.43365 22.7262 0 26.4131 0 30.0841C0 35.6227 2.73812 40.9054 6.86647 44.7878C10.0535 47.785 14.1279 50.0034 18.5294 50.859V48.3132C14.8955 47.4966 11.4792 45.6089 8.74006 43.0328C5.01909 39.5337 2.64706 34.8567 2.64706 30.0844C2.64706 27.0014 3.86047 23.7451 5.78541 20.5377C7.70479 17.3397 10.282 14.2731 12.8893 11.5924C15.4927 8.91567 18.1003 6.64986 20.0591 5.05261C21.0378 4.25461 21.852 3.6253 22.4195 3.19673L22.5 3.13611L22.5805 3.19673C23.148 3.6253 23.9622 4.25461 24.9409 5.05261C26.8997 6.65011 29.5073 8.91592 32.1107 11.5924C34.718 14.2731 37.2952 17.3397 39.2146 20.5377C41.1395 23.7451 42.3529 27.0014 42.3529 30.0844C42.3529 34.8567 39.9809 39.5337 36.2599 43.0331C33.5208 45.6092 30.1045 47.4969 26.4706 48.3135V50.8593Z" fill="#5E5E5E" fill-opacity="0.960784"/>
<path d="M23.8233 11.4945C23.8233 11.1651 23.6838 10.8491 23.4356 10.6162C23.1874 10.3832 22.8508 10.2523 22.4997 10.2523C22.1487 10.2523 21.8121 10.3832 21.5639 10.6162C21.3156 10.8491 21.1762 11.1651 21.1762 11.4945V22.16L16.8181 18.0696C16.6954 17.9534 16.5495 17.8611 16.3887 17.798C16.2279 17.7349 16.0554 17.7022 15.8811 17.7018C15.7068 17.7014 15.5341 17.7334 15.373 17.7958C15.2119 17.8582 15.0655 17.9499 14.9422 18.0655C14.819 18.1812 14.7213 18.3185 14.6547 18.4697C14.5882 18.6209 14.5541 18.783 14.5545 18.9466C14.5548 19.1102 14.5896 19.2721 14.6568 19.423C14.724 19.5739 14.8223 19.7109 14.9461 19.8261L21.1762 25.6738V37.0669L12.8475 29.2496C12.5983 29.0211 12.2631 28.894 11.9147 28.8959C11.5663 28.8978 11.2327 29.0286 10.9864 29.2598C10.74 29.491 10.6007 29.8041 10.5987 30.1311C10.5966 30.4581 10.732 30.7727 10.9755 31.0066L21.1762 40.5802V53.7301C21.1762 54.0595 21.3156 54.3755 21.5639 54.6085C21.8121 54.8414 22.1487 54.9723 22.4997 54.9723C22.8508 54.9723 23.1874 54.8414 23.4356 54.6085C23.6838 54.3755 23.8233 54.0595 23.8233 53.7301V40.5802L34.024 31.0064C34.1469 30.891 34.2444 30.7541 34.311 30.6033C34.3775 30.4526 34.4117 30.291 34.4117 30.1279C34.4117 29.9647 34.3775 29.8031 34.311 29.6524C34.2444 29.5017 34.1469 29.3647 34.024 29.2494C33.9011 29.134 33.7551 29.0425 33.5945 28.98C33.4339 28.9176 33.2618 28.8854 33.088 28.8854C32.9141 28.8854 32.742 28.9176 32.5814 28.98C32.4208 29.0425 32.2749 29.134 32.152 29.2494L23.8233 37.0667V25.6735L30.0534 19.8261C30.2932 19.5915 30.4255 19.2781 30.4219 18.953C30.4184 18.6279 30.2791 18.317 30.0342 18.0872C29.7892 17.8573 29.458 17.7267 29.1116 17.7235C28.7652 17.7202 28.4313 17.8444 28.1814 18.0696L23.8233 22.16V11.4945Z" fill="#5E5E5E" fill-opacity="0.960784"/>
</svg>
