<svg width="100" height="100" viewBox="0 0 100 100" fill="none" xmlns="http://www.w3.org/2000/svg">
<path d="M84.5109 60.1133L76.757 55.7452L72.1094 75.6657L91.8812 95.5862L96.4742 98.1736C97.7065 98.8679 99.1324 97.6415 98.6305 96.3192L85.1826 60.8941C85.057 60.5634 84.8192 60.2869 84.5109 60.1133Z" fill="#FFBE3B"/>
<path d="M67.4941 50.5271L59.1758 68.3173L75.0563 86.1074L91.8807 95.5861L76.7566 55.7452L67.4941 50.5271Z" fill="#FFD45E"/>
<path d="M67.4941 50.5271L50.0003 60.3821L40.9258 80.191L50.0003 100C50.2562 100 50.5123 99.935 50.7426 99.8052L75.0562 86.1074L67.4941 50.5271Z" fill="#FFE88C"/>
<path d="M32.5069 50.5271L16.6309 68.3173L24.9448 86.1074L49.2583 99.8052C49.4888 99.935 49.7447 100 50.0006 100V60.3821L32.5069 50.5271Z" fill="#FFD45E"/>
<path d="M32.5067 50.5271L24.9445 86.1074L3.52717 98.1736C2.29485 98.8679 0.868933 97.6414 1.37086 96.3191L14.8185 60.8943C14.9442 60.5634 15.1817 60.2871 15.4903 60.1133L32.5067 50.5271Z" fill="#FFE88C"/>
<path d="M50 0V75.6213C51.0777 75.6213 52.021 75.0561 52.5568 74.2077C52.5604 74.2077 73.0441 41.7248 73.0441 41.7248C75.6901 37.5261 77.2237 32.5543 77.2237 27.2237C77.2237 12.1885 65.0351 0 50 0Z" fill="#FC5E32"/>
<path d="M51.9896 74.2077C51.9924 74.2077 67.9243 41.7248 67.9243 41.7248C69.9822 37.5261 71.175 32.5543 71.175 27.2237C71.175 12.1885 61.6951 0 50.001 0C34.9657 0 22.7773 12.1885 22.7773 27.2237C22.7773 32.5543 24.3107 37.5263 26.9587 41.7248C26.9567 41.7248 47.4404 74.2077 47.4404 74.2077C47.9798 75.0561 48.9234 75.6213 50.0008 75.6213C50.8391 75.6213 51.5729 75.0561 51.9896 74.2077Z" fill="#FF7D4A"/>
<path d="M50.0012 42.3479C58.3541 42.3479 65.1255 35.5765 65.1255 27.2236C65.1255 18.8707 58.3541 12.0994 50.0012 12.0994C41.6483 12.0994 34.877 18.8707 34.877 27.2236C34.877 35.5765 41.6483 42.3479 50.0012 42.3479Z" fill="white"/>
<path d="M50 18.1492V36.2983C55.0118 36.2983 59.0746 32.2355 59.0746 27.2237C59.0746 22.2119 55.0118 18.1492 50 18.1492Z" fill="#FF7D4A"/>
<path d="M53.0252 27.2237C53.0252 22.2119 51.6709 18.1492 50.0003 18.1492C44.9886 18.1492 40.9258 22.2119 40.9258 27.2237C40.9258 32.2355 44.9886 36.2983 50.0003 36.2983C51.6709 36.2983 53.0252 32.2355 53.0252 27.2237Z" fill="#FF9A6B"/>
</svg>
