<svg width="233" height="63" viewBox="0 0 233 63" fill="none" xmlns="http://www.w3.org/2000/svg">
<g clip-path="url(#clip0_557_434)">
<path d="M6.70085 23.4075V43.3751C10.0707 45.3125 12.1323 48.8843 12.1323 52.746V54.1299L3.39707 49.1083L0.0800781 47.1972V15.7763L3.38385 13.8652L10.0178 17.6874L12.1323 18.9V26.5443L6.70085 23.4075Z" fill="#6E55D5"/>
<path d="M54.6304 15.7764V47.1973L51.3134 49.1084L44.6926 45.2862L27.3544 35.309L22.0684 32.2645V24.6333L27.3544 27.6647L32.6404 30.7092L48.0096 39.5661V19.5986C46.3313 18.6232 44.9701 17.2525 44.0319 15.6314C43.0936 14.0103 42.5782 12.1519 42.5782 10.2276V8.83057L51.3266 13.8653L54.6304 15.7764Z" fill="#6E55D5"/>
<path d="M51.3153 49.1083L42.5801 54.1299V46.4987L44.6945 45.2861L51.3153 49.1083Z" fill="#6E55D5"/>
<path d="M12.1312 8.83057V16.4749L10.0168 17.6875L3.38281 13.8653L12.1312 8.83057Z" fill="#6E55D5"/>
<path d="M34.295 20.6925V11.7038L27.3571 7.71027L20.4191 11.7038V51.2699L27.3571 55.2634L34.295 51.2699V42.1626L40.929 45.9716V55.0921L27.3571 62.9078L13.7852 55.0921V7.88161L27.3571 0.065918L40.0964 7.40713L40.929 7.88161V24.5147L34.295 20.6925Z" fill="#6E55D5"/>
<g style="mix-blend-mode:overlay" opacity="0.5">
<path d="M11.0622 52.2976L10.6129 52.0472C10.3222 48.9236 8.52494 46.0899 5.76298 44.5083L5.23438 44.2052V21.7993L5.65726 22.0366V43.9811L6.18586 44.2843C9.06675 45.9581 10.9169 49.0027 11.0622 52.2976Z" fill="white"/>
<path d="M11.0744 19.5193V24.7122L10.6648 24.4749V19.7302L3 15.3149L3.39645 15.0908L11.0744 19.5193Z" fill="white"/>
<path d="M23.1387 26.4521L48.6438 41.1478V41.5959L23.1387 26.9134V26.4521Z" fill="white"/>
<path d="M53.573 16.3827V46.5911L51.3264 47.8827L51.3 47.8695L53.1633 46.8019V16.6067L43.6749 11.1371C43.6661 10.9789 43.6572 10.8252 43.6484 10.6758L53.573 16.3827Z" fill="white"/>
<path d="M27.3428 56.4756L26.9463 56.6997L18.9512 52.0999V11.308L19.3608 11.0972V51.889L27.3428 56.4756Z" fill="white"/>
<path d="M39.8701 8.48774V22.6957L39.4473 22.4584V8.7118L26.959 1.51556L27.3554 1.2915L39.8701 8.48774Z" fill="white"/>
<path d="M35.3496 43.9814L39.8692 46.5911V54.4858L39.4463 54.6967V46.8019L35.3496 44.4427V43.9814Z" fill="white"/>
</g>
</g>
<path d="M71.8445 47.6484V14.9212H78.7638V28.4244H92.8104V14.9212H99.7138V47.6484H92.8104V34.1293H78.7638V47.6484H71.8445ZM116.477 48.1278C113.952 48.1278 111.779 47.6165 109.957 46.5938C108.146 45.5604 106.75 44.1009 105.77 42.2152C104.79 40.3189 104.3 38.0763 104.3 35.4876C104.3 32.9627 104.79 30.7468 105.77 28.8398C106.75 26.9329 108.13 25.4467 109.909 24.3814C111.699 23.3161 113.798 22.7834 116.205 22.7834C117.825 22.7834 119.332 23.0444 120.728 23.5664C122.134 24.0778 123.359 24.8501 124.403 25.8835C125.458 26.9169 126.278 28.2166 126.864 29.7827C127.45 31.3381 127.743 33.1598 127.743 35.2479V37.1175H107.017V32.8988H121.335C121.335 31.9187 121.122 31.0504 120.696 30.294C120.27 29.5376 119.678 28.9464 118.922 28.5202C118.176 28.0835 117.308 27.8651 116.317 27.8651C115.284 27.8651 114.368 28.1048 113.569 28.5842C112.78 29.0529 112.162 29.6868 111.715 30.4858C111.267 31.2741 111.038 32.1531 111.028 33.1225V37.1335C111.028 38.348 111.251 39.3974 111.699 40.2816C112.157 41.1658 112.801 41.8477 113.632 42.3271C114.463 42.8065 115.449 43.0462 116.589 43.0462C117.345 43.0462 118.038 42.9396 118.666 42.7266C119.295 42.5135 119.833 42.1939 120.28 41.7678C120.728 41.3416 121.069 40.8196 121.303 40.2017L127.599 40.6172C127.279 42.13 126.624 43.451 125.634 44.5803C124.653 45.6989 123.386 46.5724 121.83 47.201C120.286 47.8189 118.501 48.1278 116.477 48.1278ZM141.23 48.0479C139.366 48.0479 137.677 47.5685 136.164 46.6097C134.662 45.6403 133.469 44.218 132.585 42.343C131.711 40.4574 131.275 38.1456 131.275 35.4077C131.275 32.5952 131.727 30.2567 132.633 28.3924C133.538 26.5174 134.742 25.1165 136.244 24.1896C137.757 23.2521 139.414 22.7834 141.214 22.7834C142.588 22.7834 143.734 23.0178 144.65 23.4865C145.577 23.9446 146.322 24.5199 146.887 25.2124C147.462 25.8942 147.899 26.5653 148.197 27.2259H148.405V14.9212H155.197V47.6484H148.485V43.7173H148.197C147.878 44.3991 147.425 45.0756 146.839 45.7468C146.264 46.4073 145.513 46.956 144.586 47.3928C143.67 47.8295 142.551 48.0479 141.23 48.0479ZM143.387 42.6307C144.485 42.6307 145.412 42.3324 146.168 41.7358C146.935 41.1286 147.521 40.2816 147.926 39.195C148.341 38.1083 148.549 36.8352 148.549 35.3757C148.549 33.9162 148.347 32.6484 147.942 31.5724C147.537 30.4964 146.951 29.6655 146.184 29.0795C145.417 28.4936 144.485 28.2006 143.387 28.2006C142.269 28.2006 141.326 28.5043 140.559 29.1115C139.792 29.7187 139.211 30.5604 138.817 31.6364C138.423 32.7124 138.226 33.9588 138.226 35.3757C138.226 36.8033 138.423 38.0657 138.817 39.163C139.222 40.2496 139.803 41.1019 140.559 41.7198C141.326 42.3271 142.269 42.6307 143.387 42.6307ZM160.922 47.6484V14.9212H173.834C176.316 14.9212 178.43 15.3952 180.178 16.3434C181.925 17.2809 183.256 18.5859 184.173 20.2585C185.1 21.9205 185.563 23.8381 185.563 26.0114C185.563 28.1847 185.094 30.1023 184.157 31.7642C183.219 33.4261 181.861 34.7205 180.082 35.6474C178.313 36.5742 176.172 37.0376 173.658 37.0376H165.428V31.4925H172.539C173.871 31.4925 174.968 31.2635 175.831 30.8054C176.705 30.3366 177.354 29.6921 177.781 28.8718C178.217 28.0408 178.436 27.0874 178.436 26.0114C178.436 24.9247 178.217 23.9766 177.781 23.1669C177.354 22.3466 176.705 21.7127 175.831 21.2653C174.957 20.8072 173.85 20.5781 172.507 20.5781H167.841V47.6484H160.922ZM189.93 47.6484V23.103H196.529V27.3857H196.785C197.232 25.8622 197.983 24.7116 199.038 23.9339C200.093 23.1456 201.307 22.7514 202.682 22.7514C203.023 22.7514 203.39 22.7727 203.784 22.8153C204.178 22.858 204.525 22.9165 204.823 22.9911V29.0316C204.503 28.9357 204.061 28.8505 203.497 28.7759C202.932 28.7013 202.415 28.6641 201.947 28.6641C200.945 28.6641 200.05 28.8825 199.262 29.3192C198.484 29.7454 197.866 30.342 197.408 31.109C196.961 31.8761 196.737 32.7603 196.737 33.7617V47.6484H189.93ZM218.29 48.1278C215.808 48.1278 213.661 47.6005 211.85 46.5458C210.05 45.4805 208.66 43.9996 207.679 42.1033C206.699 40.1964 206.209 37.9858 206.209 35.4716C206.209 32.9361 206.699 30.7202 207.679 28.8239C208.66 26.9169 210.05 25.4361 211.85 24.3814C213.661 23.3161 215.808 22.7834 218.29 22.7834C220.772 22.7834 222.914 23.3161 224.714 24.3814C226.525 25.4361 227.921 26.9169 228.901 28.8239C229.881 30.7202 230.371 32.9361 230.371 35.4716C230.371 37.9858 229.881 40.1964 228.901 42.1033C227.921 43.9996 226.525 45.4805 224.714 46.5458C222.914 47.6005 220.772 48.1278 218.29 48.1278ZM218.322 42.8544C219.451 42.8544 220.394 42.5348 221.151 41.8956C221.907 41.2457 222.477 40.3615 222.861 39.2429C223.255 38.1243 223.452 36.8512 223.452 35.4237C223.452 33.9961 223.255 32.723 222.861 31.6044C222.477 30.4858 221.907 29.6016 221.151 28.9517C220.394 28.3018 219.451 27.9769 218.322 27.9769C217.182 27.9769 216.223 28.3018 215.446 28.9517C214.679 29.6016 214.098 30.4858 213.704 31.6044C213.32 32.723 213.129 33.9961 213.129 35.4237C213.129 36.8512 213.32 38.1243 213.704 39.2429C214.098 40.3615 214.679 41.2457 215.446 41.8956C216.223 42.5348 217.182 42.8544 218.322 42.8544Z" fill="white"/>
<defs>
<clipPath id="clip0_557_434">
<rect width="54.7105" height="63" fill="white"/>
</clipPath>
</defs>
</svg>
