<svg width="267" height="76" viewBox="0 0 267 76" fill="none" xmlns="http://www.w3.org/2000/svg">
<g clip-path="url(#clip0_29_6)">
<path d="M8.08266 28.2376V52.3255C12.1479 54.6628 14.6348 58.9715 14.6348 63.6301V65.2996L4.09715 59.2418L0.0957031 56.9364V19.0318L4.08121 16.7263L12.0841 21.3372L14.6348 22.8V32.0217L8.08266 28.2376Z" fill="#007AFF"/>
<path d="M65.9044 19.0318V56.9364L61.903 59.2418L53.916 54.631L33.0001 42.595L26.6233 38.9222V29.7163L33.0001 33.3732L39.3769 37.046L57.9175 47.7305V23.6427C55.8929 22.4661 54.2508 20.8125 53.1189 18.8569C51.9871 16.9012 51.3653 14.6594 51.3653 12.3381V10.6527L61.9189 16.7263L65.9044 19.0318Z" fill="#007AFF"/>
<path d="M61.9029 59.2418L51.3652 65.2996V56.0937L53.916 54.631L61.9029 59.2418Z" fill="#007AFF"/>
<path d="M14.6349 10.6527V19.8745L12.0842 21.3372L4.0813 16.7263L14.6349 10.6527Z" fill="#007AFF"/>
<path d="M41.3697 24.9623V14.1188L33.0001 9.30126L24.6306 14.1188V61.8494L33.0001 66.6669L41.3697 61.8494V50.8628L49.3726 55.4577V66.4603L33.0001 75.8887L16.6277 66.4603V9.50795L33.0001 0.0794983L48.3683 8.93557L49.3726 9.50795V29.5732L41.3697 24.9623Z" fill="#007AFF"/>
<g style="mix-blend-mode:overlay" opacity="0.5">
<path d="M13.3434 63.0895L12.8014 62.7874C12.4507 59.0192 10.2826 55.6008 6.95067 53.6929L6.31299 53.3272V26.2979L6.82313 26.5841V53.0569L7.46081 53.4226C10.9362 55.4418 13.1681 59.1146 13.3434 63.0895Z" fill="white"/>
<path d="M13.3595 23.5473V29.8117L12.8653 29.5255V23.8017L3.6189 18.4753L4.09716 18.205L13.3595 23.5473Z" fill="white"/>
<path d="M27.9146 31.9105L58.6827 49.6385V50.1791L27.9146 32.4669V31.9105Z" fill="white"/>
<path d="M64.629 19.7632V56.205L61.9188 57.7632L61.8869 57.7473L64.1348 56.4594V20.0335L52.6884 13.4351C52.6778 13.2444 52.6671 13.0589 52.6565 12.8787L64.629 19.7632Z" fill="white"/>
<path d="M32.984 68.1297L32.5058 68.4L22.8608 62.851V13.6418L23.355 13.3875V62.5967L32.984 68.1297Z" fill="white"/>
<path d="M48.0971 10.2393V27.3791L47.5869 27.0929V10.5096L32.5217 1.82846L33 1.55817L48.0971 10.2393Z" fill="white"/>
<path d="M42.645 53.0569L48.0972 56.205V65.7289L47.587 65.9833V56.4594L42.645 53.6134V53.0569Z" fill="white"/>
</g>
</g>
<path d="M82.4766 59V19H90.9336V52.0273H108.082V59H82.4766ZM122.081 59.5664C120.167 59.5664 118.461 59.2344 116.964 58.5703C115.466 57.8932 114.282 56.8971 113.409 55.582C112.55 54.2539 112.12 52.6003 112.12 50.6211C112.12 48.9544 112.426 47.5547 113.038 46.4219C113.65 45.2891 114.483 44.3776 115.538 43.6875C116.593 42.9974 117.791 42.4766 119.132 42.125C120.486 41.7734 121.905 41.526 123.39 41.3828C125.134 41.2005 126.541 41.0312 127.608 40.875C128.676 40.7057 129.451 40.4583 129.933 40.1328C130.414 39.8073 130.655 39.3255 130.655 38.6875V38.5703C130.655 37.3333 130.265 36.3763 129.483 35.6992C128.715 35.0221 127.621 34.6836 126.202 34.6836C124.705 34.6836 123.513 35.0156 122.628 35.6797C121.743 36.3307 121.157 37.151 120.87 38.1406L113.175 37.5156C113.565 35.6927 114.334 34.1172 115.479 32.7891C116.625 31.4479 118.103 30.4193 119.913 29.7031C121.736 28.974 123.845 28.6094 126.241 28.6094C127.908 28.6094 129.503 28.8047 131.026 29.1953C132.563 29.5859 133.924 30.1914 135.108 31.0117C136.306 31.832 137.25 32.8867 137.94 34.1758C138.631 35.4518 138.976 36.9818 138.976 38.7656V59H131.085V54.8398H130.851C130.369 55.7773 129.724 56.6042 128.917 57.3203C128.11 58.0234 127.14 58.5768 126.007 58.9805C124.874 59.3711 123.565 59.5664 122.081 59.5664ZM124.464 53.8242C125.688 53.8242 126.769 53.5833 127.706 53.1016C128.644 52.6068 129.379 51.9427 129.913 51.1094C130.447 50.276 130.714 49.332 130.714 48.2773V45.0938C130.453 45.263 130.095 45.4193 129.64 45.5625C129.197 45.6927 128.696 45.8164 128.136 45.9336C127.576 46.0378 127.016 46.1354 126.456 46.2266C125.896 46.3047 125.388 46.3763 124.933 46.4414C123.956 46.5846 123.103 46.8125 122.374 47.125C121.645 47.4375 121.078 47.8607 120.675 48.3945C120.271 48.9154 120.069 49.5664 120.069 50.3477C120.069 51.4805 120.479 52.3464 121.3 52.9453C122.133 53.5312 123.188 53.8242 124.464 53.8242ZM153.751 41.6563V59H145.431V29H153.36V34.293H153.712C154.376 32.5482 155.489 31.168 157.052 30.1523C158.614 29.1237 160.509 28.6094 162.735 28.6094C164.819 28.6094 166.635 29.0651 168.185 29.9766C169.734 30.888 170.938 32.1901 171.798 33.8828C172.657 35.5625 173.087 37.5677 173.087 39.8984V59H164.767V41.3828C164.78 39.5469 164.311 38.1146 163.36 37.0859C162.41 36.0443 161.101 35.5234 159.435 35.5234C158.315 35.5234 157.325 35.7643 156.466 36.2461C155.619 36.7279 154.955 37.431 154.474 38.3555C154.005 39.2669 153.764 40.3672 153.751 41.6563ZM179.801 59V19H195.582C198.616 19 201.201 19.5794 203.336 20.7383C205.471 21.8841 207.099 23.4792 208.219 25.5234C209.352 27.5547 209.918 29.8984 209.918 32.5547C209.918 35.2109 209.345 37.5547 208.199 39.5859C207.053 41.6172 205.393 43.1992 203.219 44.332C201.057 45.4648 198.44 46.0312 195.367 46.0312H185.309V39.2539H194C195.628 39.2539 196.969 38.974 198.023 38.4141C199.091 37.8411 199.885 37.0534 200.406 36.0508C200.94 35.0352 201.207 33.8698 201.207 32.5547C201.207 31.2266 200.94 30.0677 200.406 29.0781C199.885 28.0755 199.091 27.3008 198.023 26.7539C196.956 26.194 195.602 25.9141 193.961 25.9141H188.258V59H179.801ZM215.255 59V29H223.321V34.2344H223.634C224.181 32.3724 225.099 30.9661 226.388 30.0156C227.677 29.0521 229.161 28.5703 230.841 28.5703C231.257 28.5703 231.707 28.5964 232.188 28.6484C232.67 28.7005 233.093 28.7721 233.458 28.8633V36.2461C233.067 36.1289 232.527 36.0247 231.837 35.9336C231.147 35.8424 230.515 35.7969 229.942 35.7969C228.718 35.7969 227.625 36.0638 226.661 36.5977C225.711 37.1185 224.955 37.8477 224.396 38.7852C223.849 39.7227 223.575 40.8034 223.575 42.0273V59H215.255ZM249.918 59.5859C246.884 59.5859 244.26 58.9414 242.047 57.6523C239.846 56.3503 238.147 54.5404 236.949 52.2227C235.751 49.8919 235.152 47.1901 235.152 44.1172C235.152 41.0182 235.751 38.3099 236.949 35.9922C238.147 33.6615 239.846 31.8516 242.047 30.5625C244.26 29.2604 246.884 28.6094 249.918 28.6094C252.952 28.6094 255.569 29.2604 257.77 30.5625C259.983 31.8516 261.689 33.6615 262.887 35.9922C264.085 38.3099 264.684 41.0182 264.684 44.1172C264.684 47.1901 264.085 49.8919 262.887 52.2227C261.689 54.5404 259.983 56.3503 257.77 57.6523C255.569 58.9414 252.952 59.5859 249.918 59.5859ZM249.957 53.1406C251.337 53.1406 252.49 52.75 253.414 51.9688C254.339 51.1745 255.035 50.0937 255.504 48.7266C255.986 47.3594 256.227 45.8034 256.227 44.0586C256.227 42.3138 255.986 40.7578 255.504 39.3906C255.035 38.0234 254.339 36.9427 253.414 36.1484C252.49 35.3542 251.337 34.957 249.957 34.957C248.564 34.957 247.392 35.3542 246.441 36.1484C245.504 36.9427 244.794 38.0234 244.313 39.3906C243.844 40.7578 243.609 42.3138 243.609 44.0586C243.609 45.8034 243.844 47.3594 244.313 48.7266C244.794 50.0937 245.504 51.1745 246.441 51.9688C247.392 52.75 248.564 53.1406 249.957 53.1406Z" fill="#122030"/>
<defs>
<clipPath id="clip0_29_6">
<rect width="66" height="76" fill="white"/>
</clipPath>
</defs>
</svg>
