<svg width="60" height="60" viewBox="0 0 60 60" fill="none" xmlns="http://www.w3.org/2000/svg">
<path d="M53.2928 54.0989L44.6988 45.3099H20.5117V43.4349H45.4881L51.4178 49.4996V43.4349H58.1242V17.3213H55.5822V15.4463H59.9992V45.3099H53.2928V54.0989Z" fill="#282D33"/>
<path d="M8.09719 49.9685V38.9646H0V5.90039H52.9903V38.9646H19.9931L8.09719 49.9685ZM1.875 37.0896H9.97219V45.6799L19.2591 37.0896H51.1153V7.77539H1.875V37.0896Z" fill="#282D33"/>
<path d="M48.6061 34.484H4.38281V10.3823H48.6061V34.484ZM6.25781 32.609H46.7311V12.2573H6.25781V32.609Z" fill="#282D33"/>
<path d="M16.3169 25.5689C14.5267 25.5689 13.0703 24.0896 13.0703 22.2713C13.0703 20.453 14.5267 18.9736 16.3169 18.9736C18.107 18.9736 19.5634 20.453 19.5634 22.2713C19.5634 24.09 18.107 25.5689 16.3169 25.5689ZM16.3169 20.8491C15.5603 20.8491 14.9453 21.4871 14.9453 22.2718C14.9453 23.0564 15.5608 23.6944 16.3169 23.6944C17.073 23.6944 17.6884 23.0564 17.6884 22.2718C17.6884 21.4871 17.073 20.8491 16.3169 20.8491Z" fill="#282D33"/>
<path d="M26.4961 25.5689C24.7064 25.5689 23.25 24.0896 23.25 22.2713C23.25 20.453 24.7059 18.9736 26.4961 18.9736C28.2863 18.9736 29.7422 20.453 29.7422 22.2713C29.7422 24.09 28.2858 25.5689 26.4961 25.5689ZM26.4961 20.8491C25.74 20.8491 25.125 21.4871 25.125 22.2718C25.125 23.0564 25.74 23.6944 26.4961 23.6944C27.2522 23.6944 27.8672 23.0564 27.8672 22.2718C27.8672 21.4871 27.2522 20.8491 26.4961 20.8491Z" fill="#282D33"/>
<path d="M36.6734 25.5689C34.8841 25.5689 33.4277 24.0896 33.4277 22.2713C33.4277 20.453 34.8837 18.9736 36.6734 18.9736C38.4635 18.9736 39.9199 20.453 39.9199 22.2713C39.9199 24.09 38.464 25.5689 36.6734 25.5689ZM36.6734 20.8491C35.9177 20.8491 35.3027 21.4871 35.3027 22.2718C35.3027 23.0564 35.9177 23.6944 36.6734 23.6944C37.4295 23.6944 38.0449 23.0564 38.0449 22.2718C38.0449 21.4871 37.4299 20.8491 36.6734 20.8491Z" fill="#282D33"/>
</svg>
