<svg width="45" height="45" viewBox="0 0 45 45" fill="none" xmlns="http://www.w3.org/2000/svg">
<path fill-rule="evenodd" clip-rule="evenodd" d="M33.5487 17.0623C33.9594 15.7858 35.8492 15.8835 36.0822 17.2771C36.0952 17.3261 36.1026 17.3915 36.1035 17.4754L36.1036 17.4932V18.7972C36.1036 22.3138 34.7406 25.69 32.3072 28.2191L32.2419 28.2865L32.1828 28.3467L32.1233 28.4066L32.0618 28.4677L32.0002 28.5281L31.9386 28.5879L31.877 28.6467L31.8158 28.7046L31.7304 28.7841L31.6971 28.8147L31.6333 28.8728L31.5694 28.9303L31.5054 28.9871L31.4416 29.0431L31.3782 29.098L31.2897 29.1735L31.2553 29.2025L31.1893 29.2576L31.1232 29.3121L31.057 29.3659L30.991 29.4189L30.9255 29.4709L30.8342 29.5422L30.7986 29.5697L30.7305 29.6218L30.6622 29.6732L30.594 29.724L30.5259 29.774L30.4583 29.8231L30.3646 29.89L30.2576 29.965L30.1873 30.0133L30.117 30.0611L30.047 30.108L29.9773 30.1541L29.8816 30.2165L29.7714 30.2869L29.6992 30.3322L29.627 30.3768L29.555 30.4207L29.4834 30.4638L29.3859 30.5215L29.2726 30.5872L29.1985 30.6293L29.1245 30.6708L29.0507 30.7116L28.9773 30.7516L28.8784 30.8045L28.762 30.8655L28.6863 30.9044L28.6106 30.9427L28.535 30.9803L28.4599 31.0171L28.3597 31.0654L28.2406 31.1215L28.1632 31.1571L28.0859 31.1921L28.0089 31.2265L27.9322 31.2601L27.8307 31.3038L27.709 31.3548L27.6303 31.3871L27.5515 31.4188L27.4731 31.4498L27.3951 31.4801C27.3747 31.488 27.3542 31.4958 27.3337 31.5035C25.8084 32.0822 24.1768 32.387 22.5138 32.387C22.5115 32.387 22.5091 32.387 22.5068 32.387C18.9025 32.387 15.4459 30.9553 12.8973 28.4066C10.3487 25.858 8.91699 22.4014 8.91699 18.7972V17.4782C9.00131 15.742 11.458 15.7075 11.548 17.4932C11.548 17.4932 11.548 18.0641 11.548 18.7972C11.548 21.7037 12.7025 24.4911 14.7577 26.5463C16.8129 28.6014 19.6003 29.756 22.5068 29.756C22.5091 29.756 22.5115 29.756 22.5138 29.756C24.2004 29.756 25.847 29.3672 27.3337 28.6392C27.3981 28.6076 27.4623 28.5755 27.5262 28.5426L27.5924 28.5082L27.6881 28.4576L27.7836 28.4058L27.8915 28.3458L27.9748 28.2984L28.0772 28.2389L28.1567 28.1916L28.2624 28.1273L28.3149 28.0948L28.4177 28.0298L28.493 27.9812L28.597 27.9127L28.6616 27.8692L28.7509 27.8081L28.823 27.7577L28.8741 27.7216L28.9313 27.6805L29.0255 27.6117L29.0956 27.5595L29.1457 27.5216L29.1954 27.4836L29.2602 27.4333L29.3625 27.3524L29.4117 27.3129L29.4603 27.2733L29.5221 27.2222L29.6054 27.1522L29.6716 27.0955L29.7192 27.0542L29.7773 27.0032L29.8607 26.9286L29.9254 26.8696L29.9719 26.8267L30.0249 26.7772L30.0793 26.7256L30.1728 26.6353L30.2181 26.5908L30.2825 26.5265L30.3586 26.4494L30.4238 26.3818L30.4996 26.3021L30.5645 26.2324L30.6376 26.1525L30.7015 26.0813L30.7726 26.0006L30.8347 25.9287L30.9046 25.8464L30.9653 25.7735L31.0335 25.6901L31.0934 25.6152L31.1593 25.5316L31.2177 25.4559L31.2821 25.371L31.339 25.2943L31.4017 25.2084L31.4568 25.1312L31.5182 25.0438L31.5728 24.9642L31.6315 24.8772L31.6847 24.7964L31.7416 24.7087L31.8132 24.5953L31.8835 24.4811L31.9522 24.3661L32.0196 24.2504L32.0855 24.1338L32.15 24.0165L32.213 23.8985L32.2745 23.7798L32.3346 23.6602L32.3932 23.5401L32.4503 23.4192L32.5059 23.2977L32.5601 23.1755L32.6127 23.0526L32.6639 22.9291L32.7135 22.805L32.7377 22.7428L32.7851 22.6178L32.8309 22.4922L32.8533 22.4292L32.8969 22.3028L32.918 22.2394L32.9388 22.1758L32.9593 22.1121L32.9793 22.0484L32.999 21.9844L33.0182 21.9204L33.0371 21.8561L33.0556 21.7918L33.0737 21.7274L33.0914 21.6628L33.1087 21.5981L33.1256 21.5333L33.1421 21.4684L33.1583 21.4034L33.174 21.3382L33.1894 21.273L33.2043 21.2076L33.2189 21.1422L33.233 21.0766L33.2468 21.0109L33.2601 20.9451L33.2731 20.8793L33.2857 20.8133L33.2978 20.7472L33.3096 20.6811L33.3209 20.6148L33.3319 20.5484L33.3424 20.482L33.3525 20.4155L33.3623 20.3489L33.3716 20.2822L33.3805 20.2154L33.3891 20.1485L33.3972 20.0816L33.4049 20.0146L33.4121 19.9475L33.419 19.8803L33.4255 19.8131L33.4316 19.7458L33.4372 19.6784C33.4607 19.3866 33.4726 19.0925 33.4726 18.7972V17.4782C33.4726 17.3234 33.4995 17.1747 33.5487 17.0623ZM24.2677 20.3284H29.5262C30.2523 20.3284 30.8417 19.739 30.8417 19.013C30.8417 18.2869 30.2523 17.6975 29.5262 17.6975H24.2677C23.5417 17.6975 22.9522 18.2869 22.9522 19.013C22.9522 19.739 23.5417 20.3284 24.2677 20.3284ZM24.2643 15.0665H29.5228C30.2488 15.0665 30.8383 14.477 30.8383 13.751C30.8383 13.025 30.2488 12.4355 29.5228 12.4355H24.2643C23.5382 12.4355 22.9488 13.025 22.9488 13.751C22.9488 14.477 23.5382 15.0665 24.2643 15.0665Z" fill="#007AFF"/>
<path fill-rule="evenodd" clip-rule="evenodd" d="M19.0024 39.6222H26.0183C26.7443 39.6222 27.3338 39.0327 27.3338 38.3067C27.3338 37.5807 26.7443 36.9912 26.0183 36.9912H19.0024C18.2764 36.9912 17.6869 37.5807 17.6869 38.3067C17.6869 39.0327 18.2764 39.6222 19.0024 39.6222ZM21.1949 32.3239C17.2277 31.9421 13.7585 29.8554 11.5293 26.805C11.101 26.2189 11.2291 25.3951 11.8153 24.9668C12.4015 24.5384 13.2252 24.6665 13.6536 25.2527C15.6484 27.9824 18.8739 29.7561 22.5138 29.7561H22.5174C24.0729 29.7561 25.5528 29.4318 26.8936 28.847V28.8428C27.0418 28.7782 27.1885 28.7103 27.3338 28.6392L28.8741 27.7216L30.2181 26.5909L31.418 25.1857L32.4219 23.4798L33.0556 21.7919L33.3806 20.2154L33.4372 19.6785C33.4577 19.4242 33.4694 19.1684 33.4721 18.9115L33.4727 18.7972V17.4783L33.4746 17.4062L33.482 17.322L33.4973 17.2282L33.5197 17.1409L33.5418 17.0786L33.5487 17.0623C33.9595 15.7858 35.8493 15.8836 36.0822 17.2771L36.0953 17.345L36.1016 17.4157L36.1035 17.4755L36.1036 17.4932C36.1036 17.5825 36.1036 18.0658 36.1036 18.8008C36.1036 25.863 30.7152 31.6668 23.8258 32.3248V33.9218C23.8258 34.6478 23.2364 35.2373 22.5104 35.2373C21.7843 35.2373 21.1949 34.6478 21.1949 33.9218V32.3239ZM22.5104 5.63892V5.639L22.492 5.6414C22.498 5.63976 22.5041 5.63892 22.5104 5.63892C20.3007 5.63892 18.1816 6.51669 16.6191 8.07914C15.0567 9.64156 14.179 11.7607 14.179 13.9703C14.179 15.6843 14.179 17.5182 14.179 19.2322C14.179 21.4418 15.0567 23.561 16.6191 25.1234C18.1816 26.6858 20.3007 27.5636 22.5104 27.5636C24.72 27.5636 26.8391 26.6858 28.4015 25.1234C29.964 23.561 30.8417 21.4418 30.8417 19.2322V13.9703C30.8417 11.7607 29.964 9.64156 28.4015 8.0791C26.8391 6.51669 24.72 5.63892 22.5104 5.63892ZM22.4822 8.26992L22.5425 8.26996C24.0428 8.27842 25.4797 8.87803 26.5412 9.93951C27.6102 11.0085 28.2107 12.4585 28.2107 13.9703V19.2322C28.2107 20.7441 27.6102 22.194 26.5412 23.263C25.4721 24.3321 24.0222 24.9326 22.5104 24.9326C20.9985 24.9326 19.5486 24.3321 18.4795 23.263C17.4105 22.194 16.8099 20.7441 16.8099 19.2322V13.9703C16.8099 12.4585 17.4105 11.0085 18.4795 9.93951C19.542 8.87706 20.9805 8.27733 22.4822 8.26992Z" fill="#007AFF"/>
</svg>
