<svg width="65" height="65" viewBox="0 0 65 65" fill="none" xmlns="http://www.w3.org/2000/svg">
<path d="M56.875 45.0175V19.9824C56.8731 19.6208 56.7758 19.266 56.593 18.954C56.4103 18.6419 56.1484 18.3836 55.834 18.205L33.4902 5.63667C33.1892 5.46285 32.8476 5.37134 32.5 5.37134C32.1524 5.37134 31.8108 5.46285 31.5098 5.63667L9.16602 18.205C8.85155 18.3836 8.58974 18.6419 8.40697 18.954C8.2242 19.266 8.12694 19.6208 8.125 19.9824V45.0175C8.12694 45.3792 8.2242 45.7339 8.40697 46.0459C8.58974 46.358 8.85155 46.6163 9.16602 46.7949L31.5098 59.3632C31.8108 59.5371 32.1524 59.6286 32.5 59.6286C32.8476 59.6286 33.1892 59.5371 33.4902 59.3632L55.834 46.7949C56.1484 46.6163 56.4103 46.358 56.593 46.0459C56.7758 45.7339 56.8731 45.3792 56.875 45.0175V45.0175Z" stroke="#6E55D5" stroke-width="1.5" stroke-linecap="round" stroke-linejoin="round"/>
<path d="M44.9414 38.7207V25.5176L20.3125 11.9336" stroke="#6E55D5" stroke-width="1.5" stroke-linecap="round" stroke-linejoin="round"/>
<path d="M56.5957 18.9414L32.7285 32.5L8.4043 18.9414" stroke="#6E55D5" stroke-width="1.5" stroke-linecap="round" stroke-linejoin="round"/>
<path d="M32.7285 32.5L32.5 59.6172" stroke="#6E55D5" stroke-width="1.5" stroke-linecap="round" stroke-linejoin="round"/>
</svg>
