<svg width="79" height="32" viewBox="0 0 79 32" fill="none" xmlns="http://www.w3.org/2000/svg">
<path d="M55.4009 8.0415C58.4973 15.9784 61.6774 23.8318 64.7738 31.7687H57.0746C57.8278 30.3485 58.4973 29.0117 59.2505 27.5914H44.3542C45.1074 29.0117 45.8606 30.3485 46.6138 31.7687H38.9146C42.0947 23.8318 45.1911 15.9784 48.2875 8.0415H55.4009ZM55.5683 24.4166C54.313 20.9912 53.1414 17.6494 51.8024 14.1404C50.2123 18.5684 48.7059 22.8293 47.1996 27.1737C50.1286 26.1711 52.8066 25.3357 55.5683 24.4166Z" fill="#1C274C"/>
<path d="M0 30.2648V0.104433C0.251061 -0.0626606 0.502122 0.0208873 0.83687 0.0208873C1.25531 0.68926 1.75742 1.44118 2.25955 2.10955C2.42692 2.27665 2.34323 2.52728 2.34323 2.69438C2.34323 5.20078 2.34323 7.79072 2.34323 10.2971C2.34323 10.4642 2.25955 10.7149 2.42692 10.9655C3.09642 10.2971 3.68222 9.7123 4.43541 9.21102C8.87082 6.37043 15.1473 8.04136 17.7416 12.2187C19.4154 14.8922 19.8338 17.8163 19.4991 20.9075C19.248 23.4139 18.4948 25.7532 16.9885 27.8419C15.3147 30.0141 13.0552 31.2673 10.3772 31.6851C6.94602 32.1863 3.59854 31.7686 0.334749 30.4319C0.167375 30.3483 0.083687 30.3483 0 30.2648ZM2.25955 28.5938C2.42692 28.7609 2.5943 28.7609 2.84536 28.8445C5.7744 29.7635 8.70344 29.7635 11.5488 28.7609C13.3062 28.1761 14.7289 27.09 15.7332 25.5026C17.4906 22.4949 17.9927 19.3202 17.0721 15.9783C16.4027 13.4719 14.8963 11.4668 12.4694 10.4642C8.87082 8.96038 4.77016 10.2971 2.25955 13.7225V28.5938Z" fill="#1C274C"/>
<path d="M41.2575 19.4036C41.2575 23.4973 40.2533 26.5886 37.659 29.095C33.642 33.1052 27.1981 32.8546 23.4322 28.5937C21.0053 25.8367 20.1684 22.6619 20.3358 19.0694C20.5032 16.2288 21.34 13.6388 23.2648 11.3831C27.4492 6.45383 34.8136 6.62093 38.7469 11.8008C40.5043 14.2237 41.2575 16.9807 41.2575 19.4036ZM38.9143 19.9884C38.9143 17.9833 38.4959 16.0617 37.4916 14.3072C34.3952 9.04378 27.8676 9.21087 24.6875 13.3882C21.8421 17.1478 22.0095 23.2467 25.0223 26.7557C27.9513 30.1811 33.0562 30.4317 36.2363 27.1734C38.1611 25.2518 38.9143 22.7454 38.9143 19.9884Z" fill="#1C274C"/>
<path d="M76.6572 9.87956H69.0416C69.0416 10.1302 69.0416 10.2973 69.0416 10.4644C69.0416 14.9759 69.0416 19.571 69.0416 24.0825C69.0416 25.2521 69.1253 26.4218 69.3764 27.5915C69.5438 28.5105 70.1296 29.0117 71.0501 29.2624C72.9749 29.7637 74.8997 29.4295 76.8245 28.8447C77.243 28.6776 77.6614 28.594 78.0798 28.4269V30.7662C75.9877 31.6852 73.8118 32.1865 71.4686 31.9359C70.4643 31.8523 69.5438 31.6017 68.7069 31.1004C67.0332 30.1814 66.1963 28.7611 66.1963 26.8395C66.1963 21.409 66.1963 16.062 66.1963 10.6315V9.96311H58.9155L61.2588 7.95799H66.1963V2.36036C66.8658 1.60844 67.5353 0.856521 68.2048 0.188148C68.5395 0.104602 68.7906 0.104602 69.1253 0.188148V7.95799H76.7409L76.6572 9.87956Z" fill="#1C274C"/>
</svg>
