<svg width="15" height="15" viewBox="0 0 15 15" fill="none" xmlns="http://www.w3.org/2000/svg">
<g clip-path="url(#clip0_11_181)">
<path d="M11.8548 9.29197C11.5477 8.97221 11.1773 8.80126 10.7847 8.80126C10.3953 8.80126 10.0218 8.96905 9.70203 9.2888L8.70162 10.286C8.6193 10.2417 8.53699 10.2006 8.45785 10.1594C8.34387 10.1024 8.23624 10.0486 8.14443 9.99162C7.20733 9.39644 6.35572 8.6208 5.53893 7.61723C5.1432 7.11702 4.87727 6.69597 4.68415 6.26858C4.94375 6.03114 5.18435 5.7842 5.41863 5.54676C5.50727 5.45812 5.59591 5.36631 5.68456 5.27766C6.34939 4.61283 6.34939 3.75172 5.68456 3.08689L4.82028 2.22262C4.72214 2.12447 4.62083 2.02317 4.52586 1.92186C4.33591 1.72558 4.13646 1.52296 3.93068 1.33301C3.62359 1.02909 3.25635 0.86763 2.87012 0.86763C2.48388 0.86763 2.11031 1.02909 1.79373 1.33301C1.79056 1.33618 1.79056 1.33618 1.78739 1.33934L0.711003 2.42523C0.305774 2.83046 0.074667 3.32433 0.0240133 3.89735C-0.0519671 4.82178 0.220296 5.68289 0.429243 6.24641C0.942111 7.62989 1.70825 8.91206 2.85112 10.286C4.23776 11.9418 5.90617 13.2493 7.81201 14.1705C8.54016 14.5156 9.51208 14.924 10.598 14.9937C10.6644 14.9968 10.7341 15 10.7974 15C11.5287 15 12.1429 14.7372 12.6241 14.2149C12.6273 14.2085 12.6336 14.2054 12.6368 14.199C12.8014 13.9996 12.9913 13.8191 13.1908 13.626C13.3269 13.4962 13.4662 13.3601 13.6024 13.2176C13.9158 12.8915 14.0804 12.5116 14.0804 12.1222C14.0804 11.7297 13.9126 11.3529 13.5929 11.0363L11.8548 9.29197ZM12.9882 12.6256C12.985 12.6256 12.985 12.6288 12.9882 12.6256C12.8647 12.7586 12.7381 12.8789 12.6019 13.0118C12.3962 13.2081 12.1872 13.4139 11.9909 13.645C11.6712 13.9869 11.2945 14.1484 10.8006 14.1484C10.7531 14.1484 10.7024 14.1484 10.6549 14.1452C9.71469 14.0851 8.84091 13.7178 8.18558 13.4044C6.39371 12.537 4.82028 11.3054 3.51278 9.74468C2.43323 8.44352 1.71141 7.24049 1.23337 5.94882C0.938945 5.16053 0.831306 4.54635 0.878794 3.967C0.910452 3.5966 1.05292 3.28951 1.31568 3.02674L2.39524 1.94719C2.55036 1.80156 2.71499 1.72241 2.87645 1.72241C3.0759 1.72241 3.23735 1.84271 3.33866 1.94402C3.34183 1.94719 3.34499 1.95035 3.34816 1.95352C3.54128 2.13397 3.7249 2.32076 3.91801 2.52021C4.01615 2.62151 4.11746 2.72282 4.21877 2.82729L5.08305 3.69157C5.41863 4.02715 5.41863 4.3374 5.08305 4.67299C4.99124 4.7648 4.90259 4.8566 4.81078 4.94525C4.54485 5.21751 4.29158 5.47078 4.01615 5.71772C4.00982 5.72405 4.00349 5.72721 4.00032 5.73355C3.72806 6.00581 3.77872 6.27174 3.8357 6.45219C3.83887 6.46169 3.84203 6.47119 3.8452 6.48069C4.06997 7.02521 4.38656 7.53808 4.86777 8.14909L4.87093 8.15226C5.74471 9.22865 6.66597 10.0676 7.68221 10.7103C7.81201 10.7926 7.94498 10.8591 8.07161 10.9224C8.18558 10.9794 8.29322 11.0332 8.38503 11.0902C8.39769 11.0965 8.41036 11.106 8.42302 11.1123C8.53066 11.1662 8.63197 11.1915 8.73644 11.1915C8.99921 11.1915 9.16383 11.0269 9.21765 10.973L10.3004 9.89031C10.408 9.78267 10.579 9.65287 10.7784 9.65287C10.9747 9.65287 11.1362 9.77634 11.2343 9.88398C11.2375 9.88715 11.2375 9.88715 11.2406 9.89031L12.985 11.6347C13.3111 11.9576 13.3111 12.29 12.9882 12.6256Z" fill="white"/>
<path d="M8.10644 3.5681C8.93589 3.7074 9.68936 4.09996 10.2909 4.70147C10.8924 5.30299 11.2818 6.05646 11.4242 6.88591C11.4591 7.09486 11.6395 7.24049 11.8453 7.24049C11.8706 7.24049 11.8928 7.23732 11.9181 7.23416C12.1524 7.19617 12.3075 6.97456 12.2695 6.74028C12.0986 5.73671 11.6237 4.82178 10.8987 4.0968C10.1737 3.37182 9.25881 2.89694 8.25523 2.72598C8.02096 2.68799 7.80251 2.84312 7.76136 3.07423C7.7202 3.30533 7.87216 3.53011 8.10644 3.5681Z" fill="white"/>
<path d="M14.9827 6.61682C14.7009 4.96424 13.9221 3.46046 12.7255 2.26377C11.5288 1.06708 10.025 0.288277 8.3724 0.00651579C8.1413 -0.0346403 7.92285 0.123652 7.8817 0.35476C7.8437 0.589033 7.99883 0.807477 8.23311 0.848633C9.70839 1.09874 11.0539 1.79839 12.1239 2.86528C13.194 3.93534 13.8905 5.28083 14.1406 6.75611C14.1754 6.96506 14.3559 7.11069 14.5616 7.11069C14.587 7.11069 14.6091 7.10752 14.6345 7.10436C14.8656 7.06953 15.0239 6.84792 14.9827 6.61682Z" fill="white"/>
</g>
<defs>
<clipPath id="clip0_11_181">
<rect width="15" height="15" fill="white"/>
</clipPath>
</defs>
</svg>
