<svg width="70" height="70" viewBox="0 0 70 70" fill="none" xmlns="http://www.w3.org/2000/svg">
<g clip-path="url(#clip0_384_211)">
<path d="M67.5368 15.8486C67.4394 15.6585 67.2908 15.5085 67.1027 15.4085C65.4267 13.8083 63.1615 12.8203 60.6755 12.8203H59.5099C45.9889 12.8203 35.0322 23.777 35.0322 37.298C35.0322 39.7196 35.9684 41.9324 37.4957 43.5946C37.5931 43.7848 37.7417 43.9346 37.9297 44.0347C39.6058 45.6349 41.871 46.6229 44.357 46.6229H45.5225C59.0436 46.6229 70.0003 35.6663 70.0003 22.1452C70.0003 19.7238 69.0642 17.5108 67.5368 15.8486ZM59.5098 15.1516H60.6754C62.4572 15.1516 64.0882 15.8278 65.3265 16.9352C65.0637 23.3224 59.7868 27.9733 52.516 27.9733C45.3127 27.9733 39.3119 32.9539 37.7559 39.5983C37.5027 38.8769 37.3631 38.1033 37.3631 37.298C37.3633 25.0592 47.2709 15.1516 59.5098 15.1516ZM45.5225 44.2917H44.357C42.575 44.2917 40.9439 43.6154 39.7054 42.5077C39.9709 35.7448 45.5769 30.3044 52.5162 30.3044C59.9759 30.3044 65.7372 26.0603 67.2671 19.818C67.5264 20.547 67.6691 21.33 67.6691 22.1451C67.6691 34.3841 57.7614 44.2917 45.5225 44.2917Z" fill="#FB9015"/>
<path d="M14.4009 38.6968C15.7996 39.2797 17.1984 39.6293 18.5971 39.6293C19.484 39.6293 20.3708 39.5089 21.2291 39.2765C21.3771 39.2659 21.5231 39.2215 21.6564 39.15C24.0105 38.4016 26.1083 36.7984 27.3393 34.5006L27.9221 33.4516C30.8361 27.7402 31.3024 21.3292 29.2043 15.2681C26.9897 8.97387 22.3272 3.96181 16.1496 1.04771C13.841 -0.0785137 11.2883 -0.195575 9.00256 0.493954C8.76011 0.50133 8.5253 0.578096 8.33585 0.718378C6.17069 1.54136 4.30563 3.11001 3.21137 5.24389L2.62852 6.29293C-0.285448 12.0044 -0.751782 18.4153 1.34631 24.4764C3.44426 30.7708 8.10664 35.7829 14.4009 38.6968ZM26.8729 15.9675C28.7379 21.4459 28.3882 27.2738 25.7074 32.4025L25.1245 33.4516C24.3185 35.0101 22.9419 36.1708 21.3387 36.7993C18.4565 35.268 16.3564 32.7715 15.5666 29.8381C14.6341 26.691 15.3334 23.3107 17.1985 20.3967C17.1985 20.3967 17.315 20.3967 17.315 20.2802C20.2249 13.7581 18.1246 6.54522 12.5018 2.35888C13.4083 2.43182 14.2549 2.65337 15.1004 3.02915C20.6952 5.71022 24.8914 10.2561 26.8729 15.9675ZM4.72647 7.22546L5.30932 6.29293C6.05076 4.66186 7.40564 3.50313 8.98317 2.8752C15.3354 6.01182 18.0702 13.0705 15.2169 19.3477C13.0023 22.728 12.303 26.9242 13.352 30.654C14.0895 33.2761 15.5767 35.5517 17.6902 37.2801C16.8902 37.1881 16.0937 36.9664 15.3334 36.5986C9.73853 33.9177 5.54235 29.3718 3.56078 23.6604C1.69585 18.1822 2.04554 12.3542 4.72647 7.22546Z" fill="#FB9015"/>
<path d="M38.9952 49.6537L38.1793 48.8378C27.922 39.2799 12.0697 39.7461 2.74496 49.6537C1.08206 51.4272 0.05419 53.6227 0.0574683 55.9389C-0.0247616 56.1958 -0.0205272 56.4655 0.0920267 56.7066C0.296645 59.0975 1.32957 61.1703 3.09451 62.8249L3.91039 63.6408C8.80593 67.837 15.1002 69.9351 21.278 69.9351C27.9219 69.9351 34.4494 67.4873 39.3449 62.7083C41.0933 60.8433 42.1424 58.5121 42.0258 56.0643C41.9092 53.6167 40.8601 51.2854 38.9952 49.6537ZM4.26007 51.2854C12.6524 42.3102 27.1059 41.9605 36.4308 50.5861L37.3633 51.4019C38.6965 52.6239 39.4984 54.1641 39.5708 55.9206C33.9802 60.9485 27.7647 60.683 22.2105 55.0154C16.4427 49.2476 9.67372 48.6687 3.02949 53.276C3.34024 52.5598 3.75645 51.8898 4.26007 51.2854ZM5.42577 61.8925L4.60989 61.0766C3.30951 59.8846 2.51385 58.39 2.40826 56.6872C8.87573 51.0513 15.0047 51.0734 20.5787 56.6474C23.959 60.0277 27.6889 61.7761 31.4189 61.7761C33.9231 61.7761 36.4272 60.9986 38.8458 59.4016C38.5165 60.016 38.0919 60.5814 37.5965 61.0768C29.0875 69.4689 14.634 69.8185 5.42577 61.8925Z" fill="#FB9015"/>
</g>
<defs>
<clipPath id="clip0_384_211">
<rect width="70" height="70" fill="white"/>
</clipPath>
</defs>
</svg>
