<svg width="55" height="55" viewBox="0 0 55 55" fill="none" xmlns="http://www.w3.org/2000/svg">
<g clip-path="url(#clip0_702_898)">
<path d="M53.8492 23.1528C50.9281 12.7058 43.7218 5.12219 36.7169 5.12219C36.1542 5.12219 35.5922 5.17117 35.0445 5.268C34.734 5.32254 34.4624 5.50508 34.2944 5.76998C34.1268 6.03655 34.0795 6.36044 34.1647 6.66319L35.6066 11.821C35.7458 12.3191 36.226 12.6558 36.7252 12.6329L36.8399 12.6307C39.4377 12.6307 44.1853 16.5241 46.6056 25.1774C46.7013 25.5208 46.7921 25.8719 46.8794 26.2381C44.1625 24.8936 40.9214 24.5825 37.9863 25.4C31.3649 27.2526 27.4859 34.1457 29.3369 40.766C30.8373 46.1302 35.7719 49.8778 41.3371 49.8778C42.4707 49.8778 43.6027 49.7214 44.7018 49.4137C49.0682 48.1932 52.3511 44.5681 53.9461 39.2083C55.3858 34.3727 55.3496 28.5209 53.8492 23.1528Z" fill="#1C274C"/>
<path d="M7.84005 5.12354C7.27852 5.12354 6.71588 5.1714 6.16883 5.26823C5.85885 5.32165 5.58671 5.50531 5.4192 5.77021C5.25169 6.03678 5.20438 6.36067 5.28897 6.66342L6.73147 11.8212C6.8706 12.3193 7.34197 12.656 7.85006 12.6332L7.96359 12.6309C10.5614 12.6309 15.3096 16.5243 17.7299 25.1776C17.8262 25.5232 17.9169 25.8744 18.0037 26.2383C15.2857 24.8938 12.0456 24.5827 9.11058 25.4002C2.49025 27.2529 -1.38978 34.1459 0.462304 40.7662C1.96267 46.1305 6.89731 49.8781 12.4625 49.8781C13.5961 49.8781 14.7281 49.7217 15.8277 49.4139C20.1936 48.1935 23.4765 44.5683 25.072 39.2085C26.5112 34.3729 26.4756 28.5206 24.9746 23.1519C22.0518 12.7061 14.8466 5.12354 7.84005 5.12354Z" fill="#1C274C"/>
</g>
<defs>
<clipPath id="clip0_702_898">
<rect width="55" height="55" fill="white"/>
</clipPath>
</defs>
</svg>
