<svg width="182" height="26" viewBox="0 0 182 26" fill="none" xmlns="http://www.w3.org/2000/svg">
<path fill-rule="evenodd" clip-rule="evenodd" d="M48.4719 14.7616C40.6587 17.0269 31.638 19.2812 22.9601 19.8441C15.5429 20.3245 8.37853 19.5783 2.51442 16.4033C1.68779 15.9563 0.652623 16.2636 0.205574 17.0909C-0.242156 17.9175 0.0658684 18.9527 0.8925 19.4004C7.28953 22.863 15.0897 23.7687 23.1802 23.244C32.0142 22.6715 41.1978 20.4022 49.1677 18.1042C50.0924 19.9776 52.0074 21.7243 55.3807 23.0129C60.562 24.9926 67.6364 24.9681 75.089 23.8525C85.8979 22.2354 97.5253 18.3789 105.001 15.6387C105.308 15.5269 105.764 15.3491 106.323 15.1146C106.494 15.4908 106.684 15.8615 106.896 16.2254C108.729 19.397 111.973 21.9614 115.278 22.8773C136.24 28.6849 160.705 21.7263 180.625 16.0632C181.524 15.8063 182.049 14.8632 181.797 13.9589C181.538 13.0545 180.597 12.5291 179.691 12.786C160.33 18.291 136.56 25.2366 116.184 19.5933C113.676 18.8982 111.237 16.9274 109.846 14.5204C109.69 14.2519 109.553 13.9772 109.424 13.6985C112.17 12.3376 115.4 10.4404 117.138 8.40959C118.924 6.32768 119.367 4.10539 117.813 2.00644C116.477 0.212108 114.453 0.0594547 112.347 0.989671C110.078 1.98599 107.741 4.31524 106.984 5.40833C105.567 7.45003 105.117 9.66486 105.376 11.8245C104.708 12.1066 104.166 12.3165 103.831 12.4391C96.5188 15.1187 85.1538 18.9009 74.5847 20.4826C67.7843 21.5008 61.3245 21.6364 56.5965 19.8304C54.58 19.0597 53.2477 18.1602 52.5246 17.1161C53.9516 16.6895 55.3276 16.2697 56.6421 15.869C59.242 15.0765 64.6549 13.7646 68.5223 11.4265C71.5978 9.56742 73.6832 7.03846 73.5618 3.86823C73.4998 2.2395 72.5573 1.15252 71.0574 0.543283C68.816 -0.366488 64.9398 0.0737364 63.4964 0.380401C59.1186 1.30857 53.2756 5.15076 50.3848 9.48018C49.2311 11.2077 48.5448 13.015 48.4719 14.7616ZM52.068 13.6971C53.3049 13.3251 54.5002 12.9598 55.6485 12.6095C58.0753 11.8694 63.1482 10.6939 66.7593 8.51041C68.6715 7.35463 70.2328 5.96989 70.1572 3.99838C70.151 3.84504 69.999 3.80144 69.8648 3.73875C69.6569 3.64266 69.4191 3.57654 69.1656 3.52474C67.4503 3.17446 65.1463 3.51314 64.2031 3.7135C60.5299 4.49243 55.6437 7.73967 53.2183 11.3726C52.7059 12.14 52.2977 12.9216 52.068 13.6971ZM108.742 10.2557C110.344 9.43179 112.02 8.43546 113.342 7.35123C114.044 6.77538 114.637 6.1832 115.012 5.56851C115.325 5.06013 115.448 4.53945 115.073 4.03652C114.923 3.83276 114.699 3.82869 114.467 3.86686C114.222 3.90774 113.969 3.99495 113.717 4.10739C112.054 4.8393 110.337 6.54913 109.785 7.35123C109.138 8.28145 108.817 9.26551 108.742 10.2557Z" fill="white"/>
</svg>
