<svg width="45" height="45" viewBox="0 0 45 45" fill="none" xmlns="http://www.w3.org/2000/svg">
<path d="M22.5 33.75C23.5355 33.75 24.375 32.9105 24.375 31.875C24.375 30.8395 23.5355 30 22.5 30C21.4645 30 20.625 30.8395 20.625 31.875C20.625 32.9105 21.4645 33.75 22.5 33.75Z" stroke="#007AFF" stroke-width="4"/>
<path d="M15 18.75C16.0355 18.75 16.875 17.9105 16.875 16.875C16.875 15.8395 16.0355 15 15 15C13.9645 15 13.125 15.8395 13.125 16.875C13.125 17.9105 13.9645 18.75 15 18.75Z" stroke="#007AFF" stroke-width="4"/>
<path d="M21.0937 30C21.0937 30.7766 21.7233 31.4062 22.5 31.4062C23.2766 31.4062 23.9062 30.7766 23.9062 30H21.0937ZM22.5 11.25L23.4943 10.2556C22.9451 9.70646 22.0548 9.70646 21.5056 10.2556L22.5 11.25ZM23.3806 14.1194C23.9298 14.6685 24.8201 14.6685 25.3693 14.1194C25.9185 13.5702 25.9185 12.6798 25.3693 12.1306L23.3806 14.1194ZM19.6306 12.1306C19.0815 12.6798 19.0815 13.5702 19.6306 14.1194C20.1798 14.6685 21.0701 14.6685 21.6193 14.1194L19.6306 12.1306ZM21.5056 12.2444L23.3806 14.1194L25.3693 12.1306L23.4943 10.2556L21.5056 12.2444ZM21.5056 10.2556L19.6306 12.1306L21.6193 14.1194L23.4943 12.2444L21.5056 10.2556ZM23.9062 30V26.4844H21.0937V30H23.9062ZM23.9062 26.4844V11.25H21.0937V26.4844H23.9062Z" fill="#007AFF"/>
<path d="M15 18.75V20.6805C15 22.3208 16.0659 23.7707 17.6315 24.2599L20.2629 25.0823C21.5938 25.4981 22.5 26.7306 22.5 28.125" stroke="#007AFF" stroke-width="4" stroke-linecap="round"/>
<path d="M30 20.625V22.5555C30 24.1958 28.9341 25.6457 27.3686 26.1349L24.7371 26.9573C23.4062 27.3731 22.5 28.6056 22.5 30" stroke="#007AFF" stroke-width="4" stroke-linecap="round"/>
<path d="M28.125 18.75C28.125 17.8661 28.125 17.4242 28.3995 17.1496C28.6742 16.875 29.1161 16.875 30 16.875C30.8839 16.875 31.3258 16.875 31.6005 17.1496C31.875 17.4242 31.875 17.8661 31.875 18.75C31.875 19.6339 31.875 20.0758 31.6005 20.3505C31.3258 20.625 30.8839 20.625 30 20.625C29.1161 20.625 28.6742 20.625 28.3995 20.3505C28.125 20.0758 28.125 19.6339 28.125 18.75Z" stroke="#007AFF" stroke-width="4"/>
<path d="M13.125 6.25841C15.8829 4.66307 19.0849 3.75 22.5 3.75C32.8552 3.75 41.25 12.1447 41.25 22.5C41.25 32.8552 32.8552 41.25 22.5 41.25C12.1447 41.25 3.75 32.8552 3.75 22.5C3.75 19.0849 4.66307 15.8829 6.25841 13.125" stroke="#007AFF" stroke-width="4" stroke-linecap="round"/>
</svg>
