<svg width="76" height="76" viewBox="0 0 76 76" fill="none" xmlns="http://www.w3.org/2000/svg">
<path d="M35.896 15.2336C35.2453 14.889 34.4569 14.9269 33.8442 15.3392L13.8175 31.0311L7.16727 31.0351C3.76629 31.0351 1 33.4413 1 36.4132L1.10578 49.5555C1.10578 52.5154 3.87207 54.9236 7.27105 54.9236L13.9193 54.9276L33.8402 70.6594C34.1755 70.8845 34.5647 71 34.9559 71C35.2772 71 35.6006 70.9223 35.892 70.7669C36.5446 70.4224 36.9538 69.7471 36.9538 69.0081V16.9904C36.9538 16.2554 36.5466 15.5782 35.894 15.2316L35.896 15.2336ZM32.964 65.2634L15.6498 51.2885C15.3204 51.0674 14.9312 50.9478 14.5341 50.9478L7.27504 50.9439C5.99369 50.9439 5.09954 50.2148 5.09954 49.5456L4.99176 36.4032C4.99176 35.7499 5.88591 35.0228 7.16727 35.0228L14.4283 35.0189C14.8255 35.0189 15.2127 34.9013 15.542 34.6782L32.964 20.7351V65.2634ZM52.9847 43.3449C52.9847 38.0545 49.3402 33.6066 44.3206 32.77C43.2168 32.5888 42.2029 33.3218 42.0233 34.4073C41.8437 35.4929 42.5762 36.5187 43.6639 36.7C46.8034 37.2219 48.9949 39.9567 48.9949 43.3449C48.9949 46.5717 46.7256 49.3623 43.6 49.9858C42.5183 50.2009 41.8177 51.2486 42.0333 52.3282C42.2229 53.2763 43.0552 53.9317 43.9892 53.9317C44.117 53.9317 44.2507 53.9197 44.3824 53.8918C49.3681 52.8999 52.9887 48.462 52.9887 43.3429L52.9847 43.3449ZM50.3361 25.0695C49.3043 24.687 48.1527 25.2089 47.7694 26.2407C47.3822 27.2705 47.9092 28.4178 48.941 28.8022C54.9626 31.0451 59.0062 36.8872 59.0062 43.3449C59.0062 49.8045 54.9626 55.6606 48.945 57.9114C47.9131 58.2998 47.3902 59.4452 47.7754 60.475C48.0768 61.2757 48.8372 61.7677 49.6456 61.7677C49.8791 61.7677 50.1146 61.7278 50.3461 61.6402C57.9145 58.8078 63 51.4558 63 43.3429C63 35.23 57.9105 27.888 50.3381 25.0675L50.3361 25.0695Z" fill="#646464"/>
</svg>
