<svg width="87" height="108" viewBox="0 0 87 108" fill="none" xmlns="http://www.w3.org/2000/svg">
<circle cx="32.5" cy="75.1201" r="32.5" fill="white" fill-opacity="0.1"/>
<path d="M28.1113 29.7616L77.891 1.0685C78.891 0.514582 79.78 0.514582 80.4466 0.846934L85.2246 3.61653C85.2246 3.61653 83.1134 4.39202 81.78 4.83516V40.9507C81.78 43.9419 80.0022 47.2654 77.7799 48.5948L30.2225 75.9585V80.1683L25.3335 77.3987C24.5556 76.8448 24.0001 75.8477 24.0001 74.186V37.4057C24.1112 34.4145 25.889 30.9802 28.1113 29.7616Z" fill="#007AFF"/>
<path d="M32.9999 80.1683L82.7796 51.4753C85.0019 50.2566 86.7798 46.8223 86.7798 43.8312V6.94008C86.7798 3.94891 85.0019 2.6195 82.7796 3.94891L32.9999 32.642C30.7776 33.8606 28.9998 37.2949 28.9998 40.2861V77.1772C28.9998 80.0576 30.7776 81.387 32.9999 80.1683Z" fill="#007AFF"/>
<path d="M31.7777 31.7551L81.6685 3.06203C83.113 2.28654 84.3353 2.50811 85.002 3.50516C84.3353 3.39438 83.6686 3.50516 82.8908 3.9483L33.1111 32.6414C30.8888 33.86 29.1109 37.2943 29.1109 40.2855V77.1766C29.1109 78.2844 29.3332 79.1707 29.7776 79.7246C28.6665 79.3922 27.8887 78.1736 27.8887 76.2903V39.2884C27.7776 36.408 29.5554 32.9737 31.7777 31.7551Z" fill="white"/>
<path d="M66.1124 38.7346C66.1124 40.8395 67.668 41.7258 69.4458 40.618C71.3348 39.5101 72.7793 36.9621 72.7793 34.8572C72.7793 32.7523 71.2237 31.866 69.4458 32.9739C67.668 34.0817 66.1124 36.6297 66.1124 38.7346Z" fill="white"/>
<path d="M55.8892 44.6067C55.8892 46.7116 57.4448 47.5979 59.2227 46.49C61.1117 45.3822 62.5562 42.8342 62.5562 40.7293C62.5562 38.6244 61.0005 37.7381 59.2227 38.8459C57.4448 39.843 55.8892 42.5018 55.8892 44.6067Z" fill="white"/>
<path d="M45.7779 50.4778C45.7779 52.5827 47.3335 53.469 49.1114 52.3611C51.0003 51.2533 52.4448 48.7053 52.4448 46.6004C52.4448 44.4955 50.8892 43.6092 49.1114 44.717C47.2224 45.7141 45.7779 48.3729 45.7779 50.4778Z" fill="white"/>
</svg>
