<svg width="65" height="65" viewBox="0 0 65 65" fill="none" xmlns="http://www.w3.org/2000/svg">
<path d="M59.5832 40.625C59.5832 50.8387 59.5832 53.2374 56.4101 56.4102C53.2373 59.5833 48.1302 59.5833 37.9165 59.5833" stroke="white" stroke-width="4.0625" stroke-linecap="round"/>
<path d="M27.0832 5.41675C16.8694 5.41675 11.7625 5.41675 8.58951 8.58975C5.4165 11.7628 5.4165 14.1613 5.4165 24.3751" stroke="white" stroke-width="4.0625" stroke-linecap="round"/>
<path d="M32.4998 18.9585C24.5717 18.9585 19.1758 23.1895 15.9585 26.9216C14.3472 28.7906 13.5415 29.7252 13.5415 32.5002C13.5415 35.2751 14.3472 36.2098 15.9585 38.0788C19.1759 41.8109 24.5717 46.0418 32.4998 46.0418C40.4279 46.0418 45.8238 41.8109 49.0413 38.0788C50.6524 36.2098 51.4582 35.2751 51.4582 32.5002C51.4582 29.7252 50.6524 28.7906 49.0413 26.9216C47.5915 25.24 45.6997 23.4572 43.3332 22.0057" stroke="white" stroke-width="4.0625" stroke-linecap="round"/>
<path d="M32.4997 37.9168C35.4912 37.9168 37.9163 35.4917 37.9163 32.5002C37.9163 29.5086 35.4912 27.0835 32.4997 27.0835C29.5081 27.0835 27.083 29.5086 27.083 32.5002C27.083 35.4917 29.5081 37.9168 32.4997 37.9168Z" stroke="white" stroke-width="4.0625"/>
<path d="M27.0832 59.5833C26.1374 59.5833 25.2355 59.5833 24.3748 59.5809M5.4165 40.625C5.4165 50.8387 5.4165 53.2374 8.58951 56.4102C10.3585 58.1793 12.7287 58.962 16.2498 59.3084" stroke="white" stroke-width="4.0625" stroke-linecap="round"/>
<path d="M37.9165 5.41675C38.8623 5.41675 39.7641 5.41675 40.6248 5.41927M59.5832 24.3751C59.5832 14.1613 59.5832 11.7628 56.4101 8.58975C54.641 6.82072 52.2709 6.03796 48.7498 5.69162" stroke="white" stroke-width="4.0625" stroke-linecap="round"/>
</svg>
