<svg width="91" height="90" viewBox="0 0 91 90" fill="none" xmlns="http://www.w3.org/2000/svg">
<g clip-path="url(#clip0_291_384)">
<path fill-rule="evenodd" clip-rule="evenodd" d="M82.1022 53.4269C74.0439 59.4028 65.3608 64.4698 57.041 69.5111C48.7728 74.6138 40.7018 80.0755 32.2808 81.8777C32.5016 79.3125 35.3282 78.2637 37.3616 76.9376C48.0114 70.2158 58.1565 64.0585 69.4231 56.5727C72.9389 54.1391 82.4777 46.6375 82.1022 53.4269Z" fill="white"/>
<path fill-rule="evenodd" clip-rule="evenodd" d="M71.8919 23.7036C72.836 26.8632 69.3016 29.7322 67.1331 32.1868C60.6565 39.876 51.7368 49.2361 44.2461 56.344C41.9052 58.5937 35.9055 64.9368 33.8424 62.1939C32.0971 59.9535 39.7587 54.1714 41.9734 52.0629C50.8184 43.5705 58.3578 35.8967 66.914 27.2274C68.333 25.7535 69.6339 23.2242 71.8919 23.7036Z" fill="white"/>
<path fill-rule="evenodd" clip-rule="evenodd" d="M49.1628 3.42847C51.8014 6.10691 49.7066 10.354 48.3613 13.6205C46.8348 17.0045 44.8189 20.5553 43.1588 23.9467C39.3521 31.5238 36.5954 38.6022 31.7989 44.2128C30.9028 45.3518 29.3146 46.5832 28.1551 45.7043C25.7953 43.981 30.0471 36.3092 30.8411 34.5914C34.2888 27.2114 38.3798 20.3049 42.1088 12.9682C43.8821 9.5865 44.8972 4.63838 49.1628 3.42847Z" fill="white"/>
</g>
<defs>
<clipPath id="clip0_291_384">
<rect width="67.7376" height="60" fill="white" transform="translate(90.7676 46.1357) rotate(139.921)"/>
</clipPath>
</defs>
</svg>
