<svg width="65" height="65" viewBox="0 0 65 65" fill="none" xmlns="http://www.w3.org/2000/svg">
<path d="M26.4062 40.4219V46.1094C16.4531 47.9375 8.9375 53.8281 8.125 61.1406H56.875C56.0625 53.8281 48.5469 47.9375 38.5938 46.1094V40.625" stroke="url(#paint0_linear_202_209)" stroke-width="4.0625" stroke-miterlimit="10" stroke-linecap="round" stroke-linejoin="round"/>
<path d="M44.0781 47.5312C42.4531 50.1719 37.9844 52 32.5 52C27.2187 52 22.5469 50.1719 20.9219 47.5312" stroke="url(#paint1_linear_202_209)" stroke-width="4.0625" stroke-miterlimit="10" stroke-linecap="round" stroke-linejoin="round"/>
<path d="M44.0781 34.5312H20.9219C17.2656 34.5312 14.2188 31.4844 14.2188 27.8281V18.8906C14.2188 15.2344 17.2656 12.1875 20.9219 12.1875H44.2812C47.7344 12.1875 50.7812 15.2344 50.7812 18.8906V28.0313C50.7812 31.4844 47.7344 34.5312 44.0781 34.5312Z" stroke="url(#paint2_linear_202_209)" stroke-width="4.0625" stroke-miterlimit="10" stroke-linecap="round" stroke-linejoin="round"/>
<path d="M26.4062 20.3125H38.5938" stroke="url(#paint3_linear_202_209)" stroke-width="4.0625" stroke-miterlimit="10" stroke-linecap="round" stroke-linejoin="round"/>
<path d="M43.6719 34.5312C40.625 39.6094 36.1562 42.6562 32.5 42.6562C28.8438 42.6562 24.375 39.6094 21.3281 34.5312" stroke="url(#paint4_linear_202_209)" stroke-width="4.0625" stroke-miterlimit="10" stroke-linecap="round" stroke-linejoin="round"/>
<path d="M19.0938 12.3906C21.5313 7.10938 25.7969 4.0625 32.5 4.0625C39.2031 4.0625 43.4688 7.10938 45.9063 12.3906" stroke="url(#paint5_linear_202_209)" stroke-width="4.0625" stroke-miterlimit="10" stroke-linecap="round" stroke-linejoin="round"/>
<defs>
<linearGradient id="paint0_linear_202_209" x1="32.5" y1="40.4219" x2="32.5" y2="61.1406" gradientUnits="userSpaceOnUse">
<stop stop-color="#E026B2"/>
<stop offset="1" stop-color="#007AFF"/>
</linearGradient>
<linearGradient id="paint1_linear_202_209" x1="32.5" y1="47.5312" x2="32.5" y2="52" gradientUnits="userSpaceOnUse">
<stop stop-color="#E026B2"/>
<stop offset="1" stop-color="#007AFF"/>
</linearGradient>
<linearGradient id="paint2_linear_202_209" x1="32.5" y1="12.1875" x2="32.5" y2="34.5312" gradientUnits="userSpaceOnUse">
<stop stop-color="#E026B2"/>
<stop offset="1" stop-color="#007AFF"/>
</linearGradient>
<linearGradient id="paint3_linear_202_209" x1="32.5" y1="20.3125" x2="32.5" y2="21.3125" gradientUnits="userSpaceOnUse">
<stop stop-color="#E026B2"/>
<stop offset="1" stop-color="#007AFF"/>
</linearGradient>
<linearGradient id="paint4_linear_202_209" x1="32.5" y1="34.5312" x2="32.5" y2="42.6562" gradientUnits="userSpaceOnUse">
<stop stop-color="#E026B2"/>
<stop offset="1" stop-color="#007AFF"/>
</linearGradient>
<linearGradient id="paint5_linear_202_209" x1="32.5" y1="4.0625" x2="32.5" y2="12.3906" gradientUnits="userSpaceOnUse">
<stop stop-color="#E026B2"/>
<stop offset="1" stop-color="#007AFF"/>
</linearGradient>
</defs>
</svg>
