<svg width="65" height="65" viewBox="0 0 65 65" fill="none" xmlns="http://www.w3.org/2000/svg">
<path d="M62.9688 48.75C62.9688 52 58.0937 55.0469 50.7812 56.875V37.5781V24.375C58.0937 22.5469 62.9688 19.5 62.9688 16.25C62.9688 10.5625 49.3594 6.09375 32.5 6.09375C15.6406 6.09375 2.03125 10.5625 2.03125 16.25C2.03125 19.5 6.90625 22.5469 14.2188 24.375V39.4062V56.875C6.90625 55.0469 2.03125 52 2.03125 48.75" stroke="white" stroke-width="4" stroke-miterlimit="10" stroke-linecap="round" stroke-linejoin="round"/>
<path d="M14.2188 40.625C19.2969 39.4062 25.5937 38.5938 32.5 38.5938C39.4063 38.5938 45.7031 39.4062 50.7812 40.625" stroke="white" stroke-width="4" stroke-miterlimit="10" stroke-linecap="round" stroke-linejoin="round"/>
<path d="M2.03125 48.75V16.25" stroke="white" stroke-width="4" stroke-miterlimit="10" stroke-linecap="round" stroke-linejoin="round"/>
<path d="M62.9688 48.75V16.25" stroke="white" stroke-width="4" stroke-miterlimit="10" stroke-linecap="round" stroke-linejoin="round"/>
<path d="M14.2188 32.5L28.4375 24.375L36.5625 32.5L44.6875 28.4375L50.7812 34.5312" stroke="white" stroke-width="4" stroke-miterlimit="10" stroke-linecap="round" stroke-linejoin="round"/>
<path d="M23.3594 20.3125C25.0421 20.3125 26.4062 18.9484 26.4062 17.2656C26.4062 15.5829 25.0421 14.2188 23.3594 14.2188C21.6766 14.2188 20.3125 15.5829 20.3125 17.2656C20.3125 18.9484 21.6766 20.3125 23.3594 20.3125Z" stroke="white" stroke-width="4" stroke-miterlimit="10" stroke-linecap="round" stroke-linejoin="round"/>
</svg>
