<svg version="1.2" xmlns="http://www.w3.org/2000/svg" viewBox="0 0 112 48" width="112" height="48"><defs><clipPath clipPathUnits="userSpaceOnUse" id="cp1"><path d="m123-42v133h-133v-133z"/></clipPath></defs><style>.a{fill:#36adf0}.b{fill:#363636}</style><g clip-path="url(#cp1)"><path fill-rule="evenodd" class="a" d="m106.4 22.4v4.2h-6.4v-4.2z"/><path class="b" d="m28.9 24.3l8.1-14 2.5-4.3 1.3 4.8 5.2 19.2 7.6-19.9 1.9-5.1 2 5.1 8 20.8 9.7-21 2.3-5 1.5 5.3 6.1 21.4 6-15.7 1.8-4.6 2 4.5 3 6.6v4.2h-1.3-1.3l-0.6-1.2-1.5-3.3-6.4 16.8-2.2 5.9-1.7-6-6.3-22-9.4 20.3-2.1 4.5-1.7-4.6-7.9-20.4-7.9 20.9-2.3 6-1.7-6.2-5.5-20.6-6.2 10.8-0.6 1h-1.2-1.2z"/><path fill-rule="evenodd" class="a" d="m26.9 24.4v4.1h-20.3v-4.1z"/></g></svg>