<svg width="84" height="84" viewBox="0 0 84 84" fill="none" xmlns="http://www.w3.org/2000/svg">
<path d="M61.4495 11.9683L58.8916 11.4172L57.14 19.5482L59.6978 20.0993L61.4495 11.9683Z" fill="#282D33"/>
<path d="M48.4093 20.2034L45.876 12.2852L43.3841 13.0824L45.9173 21.0007L48.4093 20.2034Z" fill="#282D33"/>
<path d="M38.6808 25.9647L32.5479 20.3784L30.7859 22.3128L36.9189 27.8991L38.6808 25.9647Z" fill="#282D33"/>
<path d="M77.6919 60.3122L71.5596 54.7234L69.7967 56.6577L75.929 62.2465L77.6919 60.3122Z" fill="#282D33"/>
<path d="M84.0004 45.9901L75.9082 44.2285L75.3517 46.7851L83.4439 48.5466L84.0004 45.9901Z" fill="#282D33"/>
<path d="M83.1357 32.9093L82.334 30.4187L74.4473 32.9573L75.249 35.4479L83.1357 32.9093Z" fill="#282D33"/>
<path d="M75.0892 19.5182L73.1475 17.7654L67.5846 23.9276L69.5263 25.6805L75.0892 19.5182Z" fill="#282D33"/>
<path d="M62.006 58.4418L60.9167 56.0629C66.6542 53.4333 70.3621 47.6432 70.3621 41.3111C70.3621 32.3775 63.1269 25.1089 54.2341 25.1089C49.0825 25.1089 44.3628 27.4957 41.2823 31.6563L39.1797 30.0997C42.7057 25.336 48.3331 22.4924 54.2341 22.4924C64.57 22.4924 72.9785 30.9344 72.9785 41.3104C72.9779 48.6617 68.6722 55.387 62.006 58.4418Z" fill="#282D33"/>
<path d="M61.9933 72.5808H12.1387C5.44491 72.5808 0 67.1136 0 60.3923C0 54.5825 4.06022 49.6481 9.61472 48.4728C10.1332 38.3849 18.4728 30.3367 28.6492 30.3367C37.6484 30.3367 45.421 36.7417 47.2808 45.4508C48.0217 45.3241 48.7627 45.2591 49.4963 45.2591C56.8877 45.2591 62.9009 51.2966 62.9009 58.7175C62.9009 58.8186 62.8996 58.9203 62.897 59.0233C65.9459 59.7255 68.1778 62.4404 68.1791 65.7085C68.1791 69.2739 65.4616 72.2126 61.9972 72.5493L61.9933 72.5808ZM59.8841 69.8501L60.9781 69.9453C61.0969 69.9558 61.2143 69.965 61.3338 69.965C63.6661 69.965 65.5633 68.056 65.5633 65.7092C65.562 63.3979 63.7619 61.5335 61.4644 61.4646L60.0377 61.4226L60.2044 60.0057C60.2582 59.5431 60.2844 59.1218 60.2844 58.7182C60.2844 52.7404 55.4453 47.8763 49.497 47.8763C48.5376 47.8763 47.5578 48.0147 46.5839 48.2884L45.1369 48.6939L44.9334 47.2049C43.8244 39.0799 36.8235 32.9531 28.6499 32.9531C19.5825 32.9531 12.2056 40.3622 12.2056 49.469L12.2089 50.7559L11.0493 50.8884C6.24159 51.4384 2.61647 55.5242 2.61647 60.3923C2.61647 65.6698 6.888 69.9643 12.1387 69.9643H59.8539L59.8841 69.8501Z" fill="#282D33"/>
<path d="M18.3079 50.3056L15.6914 50.2964C15.719 42.6701 21.9218 36.4646 29.5192 36.4646V39.0811C23.3597 39.0817 18.3302 44.1171 18.3079 50.3056Z" fill="#282D33"/>
</svg>
