<svg version="1.2" xmlns="http://www.w3.org/2000/svg" viewBox="0 0 58 64" width="35" height="35">
	<defs>
		<clipPath clipPathUnits="userSpaceOnUse" id="cp1">
			<path d="m0 0.62h54.71v63h-54.71z"/>
		</clipPath>
		<linearGradient id="g1" x2="1" gradientUnits="userSpaceOnUse" gradientTransform="matrix(0,40.265,-12.052,0,6.105,14.485)">
			<stop offset="0" stop-color="#e026b2"/>
			<stop offset="1" stop-color="#007aff"/>
		</linearGradient>
		<linearGradient id="g2" x2="1" gradientUnits="userSpaceOnUse" gradientTransform="matrix(0,40.278,-32.562,0,38.35,9.45)">
			<stop offset="0" stop-color="#e026b2"/>
			<stop offset="1" stop-color="#007aff"/>
		</linearGradient>
		<linearGradient id="g3" x2="1" gradientUnits="userSpaceOnUse" gradientTransform="matrix(0,8.844,-8.735,0,46.946,45.906)">
			<stop offset="0" stop-color="#e026b2"/>
			<stop offset="1" stop-color="#007aff"/>
		</linearGradient>
		<linearGradient id="g4" x2="1" gradientUnits="userSpaceOnUse" gradientTransform="matrix(0,8.857,-8.748,0,7.757,9.45)">
			<stop offset="0" stop-color="#e026b2"/>
			<stop offset="1" stop-color="#007aff"/>
		</linearGradient>
		<linearGradient id="g5" x2="1" gradientUnits="userSpaceOnUse" gradientTransform="matrix(0,62.842,-27.144,0,27.355,.686)">
			<stop offset="0" stop-color="#e026b2"/>
			<stop offset="1" stop-color="#007aff"/>
		</linearGradient>
	</defs>
	<style>
		.s0 { fill: url(#g1) } 
		.s1 { fill: url(#g2) } 
		.s2 { fill: url(#g3) } 
		.s3 { fill: url(#g4) } 
		.s4 { fill: url(#g5) } 
		.s5 { mix-blend-mode: overlay;fill: #ffffff } 
		.s6 { fill: #ffffff } 
	</style>
	<g id="Clip-Path" clip-path="url(#cp1)">
		<g>
			<path class="s0" d="m6.7 24.03v19.97c3.37 1.93 5.43 5.5 5.43 9.37v1.38l-8.73-5.02-3.32-1.91v-31.42l3.3-1.91 6.64 3.82 2.11 1.21v7.64z"/>
			<path class="s1" d="m54.63 16.4v31.42l-3.32 1.91-6.62-3.82-17.34-9.98-5.28-3.05v-7.63l5.28 3.03 5.29 3.05 15.37 8.86v-19.97c-1.68-0.98-3.04-2.35-3.98-3.97-0.94-1.62-1.45-3.48-1.45-5.4v-1.4l8.75 5.03z"/>
			<path class="s2" d="m51.31 49.73l-8.73 5.02v-7.63l2.11-1.21z"/>
			<path class="s3" d="m12.13 9.45v7.64l-2.11 1.22-6.64-3.83z"/>
			<path class="s4" d="m34.29 21.31v-8.99l-6.93-3.99-6.94 3.99v39.57l6.94 3.99 6.93-3.99v-9.11l6.64 3.81v9.12l-13.57 7.82-13.58-7.82v-47.21l13.58-7.81 12.73 7.34 0.84 0.47v16.63z"/>
			<g style="opacity: .5">
				<path class="s5" d="m11.06 52.92l-0.45-0.25c-0.29-3.13-2.09-5.96-4.85-7.54l-0.53-0.31v-22.4l0.43 0.24v21.94l0.52 0.3c2.89 1.68 4.74 4.72 4.88 8.02z"/>
				<path class="s5" d="m11.07 20.14v5.19l-0.41-0.24v-4.74l-7.66-4.42 0.4-0.22z"/>
				<path class="s5" d="m23.14 27.07l25.5 14.7v0.45l-25.5-14.69z"/>
				<path class="s5" d="m53.57 17v30.21l-2.24 1.29-0.03-0.01 1.86-1.07v-30.19l-9.48-5.47q-0.02-0.24-0.03-0.47z"/>
				<path class="s5" d="m27.34 57.1l-0.39 0.22-8-4.6v-40.79l0.41-0.21v40.79z"/>
				<path class="s5" d="m39.87 9.11v14.21l-0.42-0.24v-13.75l-12.49-7.19 0.39-0.23z"/>
				<path class="s5" d="m35.35 44.6l4.52 2.61v7.89l-0.42 0.22v-7.9l-4.1-2.36z"/>
			</g>
		</g>
	</g>
	<path class="s6" d="m73.23 48.62v-32.73h5.93v27.76h14.41v4.97zm32.3 0.5q-2.34 0-4.21-0.84-1.85-0.84-2.94-2.49-1.07-1.64-1.07-4.06 0-2.07 0.77-3.43 0.77-1.36 2.09-2.18 1.33-0.81 2.99-1.23 1.68-0.43 3.47-0.62 2.16-0.22 3.5-0.4 1.34-0.19 1.95-0.57 0.62-0.4 0.62-1.24v-0.09q0-1.81-1.07-2.8-1.07-0.99-3.08-0.99-2.13 0-3.38 0.93-1.23 0.93-1.66 2.19l-5.4-0.77q0.64-2.24 2.11-3.74 1.47-1.52 3.6-2.27 2.12-0.76 4.69-0.76 1.78 0 3.54 0.41 1.75 0.42 3.21 1.37 1.45 0.95 2.33 2.58 0.9 1.63 0.9 4.07v16.43h-5.56v-3.37h-0.2q-0.52 1.02-1.48 1.92-0.95 0.87-2.38 1.42-1.43 0.53-3.34 0.53zm1.5-4.26q1.74 0 3.02-0.68 1.28-0.71 1.96-1.86 0.71-1.15 0.71-2.5v-2.9q-0.27 0.23-0.93 0.42-0.64 0.19-1.44 0.33-0.8 0.15-1.58 0.26-0.78 0.11-1.36 0.19-1.29 0.18-2.32 0.58-1.02 0.4-1.61 1.12-0.59 0.7-0.59 1.82 0 1.59 1.17 2.41 1.16 0.81 2.97 0.81zm23.06-10.62v14.38h-5.79v-24.55h5.53v4.18h0.29q0.85-2.07 2.7-3.28 1.87-1.21 4.62-1.21 2.54 0 4.43 1.08 1.9 1.09 2.94 3.15 1.05 2.06 1.03 5v15.63h-5.78v-14.73q0-2.46-1.28-3.85-1.26-1.4-3.5-1.4-1.52 0-2.7 0.68-1.17 0.65-1.84 1.9-0.65 1.24-0.65 3.02zm21.89 14.38v-32.73h12.27q3.77 0 6.33 1.41 2.57 1.41 3.88 3.87 1.33 2.44 1.33 5.56 0 3.15-1.33 5.59-1.32 2.45-3.91 3.85-2.59 1.39-6.38 1.39h-8.13v-4.87h7.33q2.21 0 3.62-0.77 1.4-0.77 2.07-2.11 0.69-1.34 0.69-3.08 0-1.74-0.69-3.07-0.67-1.33-2.09-2.06-1.41-0.75-3.63-0.75h-5.43v27.77zm28.7 0v-24.55h5.61v4.1h0.26q0.67-2.13 2.3-3.28 1.65-1.17 3.75-1.17 0.48 0 1.08 0.05 0.6 0.03 1 0.11v5.32q-0.36-0.12-1.16-0.22-0.79-0.11-1.52-0.11-1.58 0-2.85 0.69-1.24 0.67-1.96 1.87-0.72 1.19-0.72 2.76v14.43zm27.54 0.48q-3.6 0-6.24-1.58-2.63-1.58-4.09-4.43-1.43-2.84-1.43-6.65 0-3.8 1.43-6.66 1.46-2.86 4.09-4.44 2.64-1.58 6.24-1.58 3.59 0 6.23 1.58 2.64 1.58 4.07 4.44 1.46 2.86 1.46 6.66 0 3.81-1.46 6.65-1.43 2.85-4.07 4.43-2.64 1.58-6.23 1.58zm0.03-4.63q1.95 0 3.26-1.08 1.31-1.08 1.95-2.9 0.65-1.83 0.65-4.06 0-2.26-0.65-4.08-0.64-1.84-1.95-2.92-1.31-1.09-3.26-1.09-2 0-3.33 1.09-1.31 1.08-1.96 2.92-0.64 1.82-0.64 4.08 0 2.23 0.64 4.06 0.65 1.82 1.96 2.9 1.33 1.08 3.33 1.08z"/>
</svg>