<svg width="416" height="322" viewBox="0 0 416 322" fill="none" xmlns="http://www.w3.org/2000/svg">
<path fill-rule="evenodd" clip-rule="evenodd" d="M80 74C113.137 74 140 47.1371 140 14C140 11.3665 139.83 8.77271 139.501 6.22884C139.087 3.02403 141.462 0 144.694 0H411C413.761 0 416 2.23858 416 5V317C416 319.761 413.761 322 411 322H4.99999C2.23857 322 0 319.761 0 317V5C0 2.23858 2.23858 0 5 0H15.3061C18.5376 0 20.9131 3.02402 20.4986 6.22884C20.1697 8.77271 20 11.3665 20 14C20 47.1371 46.8629 74 80 74Z" fill="white"/>
</svg>
